<?xml version="1.0" encoding="utf-8"?>
<!-- Generator: Adobe Illustrator 19.2.1, SVG Export Plug-In . SVG Version: 6.00 Build 0)  -->
<svg version="1.1" id="Camada_1" xmlns="http://www.w3.org/2000/svg" xmlns:xlink="http://www.w3.org/1999/xlink" x="0px" y="0px"
	 viewBox="0 0 46.6 40.6" style="enable-background:new 0 0 46.6 40.6;" xml:space="preserve">
<style type="text/css">
	.st0{fill:#FFFFFF;}
</style>
<title>Sem título-7</title>
<g id="Page-1">
	<g id="icon-111-search">
		<path id="search" class="st0" d="M27.7,27.9c-6.1,4.4-14.7,2.9-19-3.2S5.7,10,11.8,5.6s14.7-2.9,19,3.2c3.4,4.7,3.4,11.1,0,15.8
			l9,9c0.9,0.9,0.9,2.3,0,3.2c0,0,0,0,0,0l0,0c-0.9,0.9-2.3,0.9-3.2,0L27.7,27.9L27.7,27.9L27.7,27.9z M19.8,27.2
			c5.8,0,10.5-4.7,10.5-10.4S25.6,6.3,19.8,6.3S9.3,11,9.3,16.7c0,0,0,0,0,0C9.3,22.5,14,27.2,19.8,27.2L19.8,27.2L19.8,27.2z"/>
	</g>
</g>
</svg>
