<svg id="Camada_1" data-name="Camada 1" xmlns="http://www.w3.org/2000/svg" viewBox="0 0 71.67 64.33"><defs><style>.cls-1{opacity:0.5;}.cls-2{fill:#161616;}.cls-3{fill:#ccc;}.cls-4{fill:#3f8cb2;}</style></defs><title>ícones</title><g class="cls-1"><path class="cls-2" d="M36.1,32.42a12.87,12.87,0,0,0,9.45-3.92,12.87,12.87,0,0,0,3.92-9.45A12.87,12.87,0,0,0,45.55,9.6,12.88,12.88,0,0,0,36.1,5.69,12.88,12.88,0,0,0,26.65,9.6a12.88,12.88,0,0,0-3.92,9.45,12.87,12.87,0,0,0,3.92,9.45,12.87,12.87,0,0,0,9.45,3.92h0Zm0,0"/><path class="cls-2" d="M60.48,46.53A35.35,35.35,0,0,0,60,42.74,29.13,29.13,0,0,0,59.07,39a17.81,17.81,0,0,0-1.5-3.39,12.24,12.24,0,0,0-2.16-2.82,9.1,9.1,0,0,0-3-1.86,10.47,10.47,0,0,0-3.88-.69,4.25,4.25,0,0,0-1.46.75l-2.59,1.67a16.43,16.43,0,0,1-3.76,1.67,14.78,14.78,0,0,1-9.29,0,16.33,16.33,0,0,1-3.76-1.67L25.1,30.94a4.25,4.25,0,0,0-1.46-.75,10.47,10.47,0,0,0-3.88.69,9.07,9.07,0,0,0-3,1.86,12.23,12.23,0,0,0-2.16,2.82A17.78,17.78,0,0,0,13.13,39a29.56,29.56,0,0,0-.92,3.78,35.35,35.35,0,0,0-.49,3.79q-0.12,1.76-.12,3.6a8.68,8.68,0,0,0,2.54,6.6,9.39,9.39,0,0,0,6.75,2.42H51.31a9.4,9.4,0,0,0,6.75-2.42,8.68,8.68,0,0,0,2.54-6.6q0-1.85-.12-3.6h0Zm0,0"/></g><path class="cls-3" d="M35.56,31.92A12.87,12.87,0,0,0,45,28a12.87,12.87,0,0,0,3.92-9.45A12.87,12.87,0,0,0,45,9.1a12.88,12.88,0,0,0-9.45-3.92A12.88,12.88,0,0,0,26.11,9.1a12.88,12.88,0,0,0-3.92,9.45A12.87,12.87,0,0,0,26.11,28a12.87,12.87,0,0,0,9.45,3.92h0Zm0,0"/><path class="cls-4" d="M59.94,46a35.35,35.35,0,0,0-.49-3.79,29.13,29.13,0,0,0-.92-3.78A17.81,17.81,0,0,0,57,35.07a12.24,12.24,0,0,0-2.16-2.82,9.1,9.1,0,0,0-3-1.86A10.47,10.47,0,0,0,48,29.69a4.25,4.25,0,0,0-1.46.75L44,32.11a16.43,16.43,0,0,1-3.76,1.67,14.78,14.78,0,0,1-9.29,0,16.33,16.33,0,0,1-3.76-1.67l-2.59-1.67a4.25,4.25,0,0,0-1.46-.75,10.47,10.47,0,0,0-3.88.69,9.07,9.07,0,0,0-3,1.86,12.23,12.23,0,0,0-2.16,2.82,17.77,17.77,0,0,0-1.5,3.39,29.56,29.56,0,0,0-.92,3.78A35.34,35.34,0,0,0,11.18,46q-0.12,1.76-.12,3.6a8.68,8.68,0,0,0,2.54,6.6,9.39,9.39,0,0,0,6.75,2.42H50.77a9.4,9.4,0,0,0,6.75-2.42,8.68,8.68,0,0,0,2.54-6.6q0-1.85-.12-3.6h0Zm0,0"/></svg>