<svg id="Camada_1" data-name="Camada 1" xmlns="http://www.w3.org/2000/svg" viewBox="0 0 71.67 64.33"><defs><style>.cls-1{fill:#161616;opacity:0.5;}.cls-2{fill:#60a4c6;}.cls-3{fill:none;}.cls-4{fill:#3f8cb2;}.cls-5{fill:#ccc;}.cls-6{fill:#0070b3;}</style></defs><title>ícones</title><path class="cls-1" d="M47.8,53.64H10.29v-37H61.21V40.8l4.29,1.5V7.45a3.58,3.58,0,0,0-3.58-3.58H9.58A3.58,3.58,0,0,0,6,7.45v46.9a3.58,3.58,0,0,0,3.58,3.58h39ZM57.28,9.88A1.32,1.32,0,0,1,58.6,8.56h1.32a1.32,1.32,0,0,1,1.32,1.32v1.5a1.32,1.32,0,0,1-1.32,1.32H58.6a1.32,1.32,0,0,1-1.32-1.32V9.88Zm-6.14,0a1.32,1.32,0,0,1,1.32-1.32h1.32A1.32,1.32,0,0,1,55.1,9.88v1.5a1.32,1.32,0,0,1-1.32,1.32H52.46a1.32,1.32,0,0,1-1.32-1.32V9.88ZM45,9.88a1.32,1.32,0,0,1,1.32-1.32h1.32A1.32,1.32,0,0,1,49,9.88v1.5a1.32,1.32,0,0,1-1.32,1.32H46.32A1.32,1.32,0,0,1,45,11.37V9.88Zm0,0"/><path class="cls-2" d="M68.18,51.19l-0.4-2.25a0.56,0.56,0,0,0-.65-0.45l-2,.35a7.53,7.53,0,0,0-.91-1.57l1.31-1.56a0.56,0.56,0,0,0-.07-0.79l-1.75-1.47a0.56,0.56,0,0,0-.79.07l-1.31,1.56a7.46,7.46,0,0,0-1.71-.62v-2a0.56,0.56,0,0,0-.56-0.56H57.07a0.56,0.56,0,0,0-.56.56v2a7.47,7.47,0,0,0-1.71.62L53.5,43.53a0.56,0.56,0,0,0-.79-0.07L51,44.92a0.56,0.56,0,0,0-.07.79l1.31,1.56a7.51,7.51,0,0,0-.91,1.57l-2-.35a0.56,0.56,0,0,0-.65.45l-0.4,2.25a0.56,0.56,0,0,0,.45.65l2,0.35A7.52,7.52,0,0,0,51,54l-1.76,1a0.56,0.56,0,0,0-.2.76l1.14,2a0.56,0.56,0,0,0,.34.26l0.14,0A0.55,0.55,0,0,0,51,57.94l1.76-1a7.57,7.57,0,0,0,1.39,1.17L53.42,60a0.56,0.56,0,0,0,.33.71L55.9,61.5a0.57,0.57,0,0,0,.19,0,0.56,0.56,0,0,0,.52-0.37l0.7-1.91a7.57,7.57,0,0,0,1.82,0l0.7,1.91a0.56,0.56,0,0,0,.52.37,0.56,0.56,0,0,0,.19,0l2.15-.78A0.56,0.56,0,0,0,63,60l-0.7-1.91a7.6,7.6,0,0,0,1.39-1.17l1.76,1a0.56,0.56,0,0,0,.28.07l0.14,0a0.56,0.56,0,0,0,.34-0.26l1.14-2a0.56,0.56,0,0,0-.2-0.76l-1.76-1a7.53,7.53,0,0,0,.31-1.79l2-.35a0.56,0.56,0,0,0,.45-0.65h0Zm-10,3.58a3.06,3.06,0,1,1,3.06-3.07,3.06,3.06,0,0,1-3.06,3.07h0Zm0,0"/><rect class="cls-3" x="4.48" y="2.68" width="63.72" height="58.98"/><path class="cls-4" d="M29.47,36a1.87,1.87,0,0,0-1.08-1.69l-6-2.78,6-2.78A1.87,1.87,0,0,0,29.47,27v0a1.86,1.86,0,0,0-2.64-1.69l-9.57,4.45a1.87,1.87,0,0,0-1.08,1.69v0.13a1.87,1.87,0,0,0,1.08,1.69l9.57,4.45A1.86,1.86,0,0,0,29.47,36v0Zm0,0"/><path class="cls-4" d="M38.91,20.58a1.87,1.87,0,0,0-1.5-.76h0a1.86,1.86,0,0,0-1.77,1.29l-6.3,19.54a1.86,1.86,0,0,0,1.77,2.43h0a1.85,1.85,0,0,0,1.77-1.29l6.3-19.53a1.87,1.87,0,0,0-.27-1.67h0Zm0,0"/><path class="cls-4" d="M51.21,29.74l-9.57-4.45A1.86,1.86,0,0,0,39,27v0a1.87,1.87,0,0,0,1.08,1.69l6,2.78-6,2.78A1.87,1.87,0,0,0,39,36v0a1.86,1.86,0,0,0,2.64,1.69l9.57-4.45a1.87,1.87,0,0,0,1.07-1.69V31.43a1.87,1.87,0,0,0-1.08-1.69h0Zm0,0"/><path class="cls-5" d="M46.29,52.44H8.77v-37H59.69V39.61L64,41.11V6.25a3.58,3.58,0,0,0-3.58-3.58H8.06A3.58,3.58,0,0,0,4.48,6.25v46.9a3.58,3.58,0,0,0,3.58,3.58h39ZM55.77,8.68a1.32,1.32,0,0,1,1.32-1.32h1.32a1.32,1.32,0,0,1,1.32,1.32v1.5a1.32,1.32,0,0,1-1.32,1.32H57.09a1.32,1.32,0,0,1-1.32-1.32V8.68Zm-6.14,0a1.32,1.32,0,0,1,1.32-1.32h1.32a1.32,1.32,0,0,1,1.32,1.32v1.5a1.32,1.32,0,0,1-1.32,1.32H50.95a1.32,1.32,0,0,1-1.32-1.32V8.68Zm-6.14,0a1.32,1.32,0,0,1,1.32-1.32h1.32a1.32,1.32,0,0,1,1.32,1.32v1.5a1.32,1.32,0,0,1-1.32,1.32H44.81a1.32,1.32,0,0,1-1.32-1.32V8.68Zm0,0"/><rect class="cls-2" x="43.49" y="7.36" width="3.96" height="4.14" rx="1.32" ry="1.32"/><rect class="cls-6" x="55.77" y="7.36" width="3.96" height="4.14" rx="1.32" ry="1.32"/><rect class="cls-4" x="49.63" y="7.36" width="3.96" height="4.14" rx="1.32" ry="1.32"/></svg>