<svg id="Camada_1" data-name="Camada 1" xmlns="http://www.w3.org/2000/svg" viewBox="0 0 71.67 64.33"><defs><style>.cls-1{opacity:0.5;}.cls-2{fill:#161616;}.cls-3{fill:#ccc;}.cls-4{fill:#3f8cb2;}</style></defs><title>ícones</title><g class="cls-1"><path class="cls-2" d="M21.33,40V21.08a5.44,5.44,0,0,1,.45-1.88h-8S10,19.2,10,23V36.22C10,40,13.76,40,13.76,40V58.91H25.1V43.78s-3.78,0-3.78-3.79h0Zm0,0"/><path class="cls-2" d="M21.33,17.3a5.65,5.65,0,0,0,2.7-.71c0.11-.07.24-0.13,0.36-0.19a5.67,5.67,0,1,0-3.06.91h0Zm0,0"/><path class="cls-2" d="M59.16,19.2h-8a5.42,5.42,0,0,1,.45,1.88V40c0,3.79-3.79,3.79-3.79,3.79V58.91H59.16V40s3.78,0,3.78-3.78V23s0-3.78-3.78-3.78h0Zm0,0"/><path class="cls-2" d="M48.53,16.39l0.37,0.2a5.41,5.41,0,1,0-.37-0.2h0Zm0,0"/><path class="cls-2" d="M42.13,11.62A5.68,5.68,0,1,1,36.45,6a5.68,5.68,0,0,1,5.68,5.67h0Zm0,0"/><path class="cls-2" d="M47.8,23s0-3.78-3.79-3.78H28.89S25.1,19.2,25.1,23V36.22C25.1,40,28.89,40,28.89,40V58.91H44V40s3.79,0,3.79-3.78V23Zm0,0"/></g><path class="cls-3" d="M20.09,39.46V20.55a5.45,5.45,0,0,1,.45-1.88h-8s-3.79,0-3.79,3.78V35.69c0,3.78,3.79,3.78,3.79,3.78V58.38H23.86V43.25s-3.78,0-3.78-3.79h0Zm0,0"/><path class="cls-3" d="M20.09,16.77a5.65,5.65,0,0,0,2.7-.71c0.11-.07.24-0.13,0.36-0.19a5.67,5.67,0,1,0-3.06.91h0Zm0,0"/><path class="cls-3" d="M57.92,18.67h-8a5.42,5.42,0,0,1,.45,1.88V39.46c0,3.79-3.79,3.79-3.79,3.79V58.38H57.92V39.46s3.78,0,3.78-3.78V22.44s0-3.78-3.78-3.78h0Zm0,0"/><path class="cls-3" d="M47.29,15.86l0.37,0.2a5.41,5.41,0,1,0-.37-0.2h0Zm0,0"/><path class="cls-4" d="M40.9,11.09a5.68,5.68,0,1,1-5.68-5.67,5.68,5.68,0,0,1,5.68,5.67h0Zm0,0"/><path class="cls-4" d="M46.57,22.44s0-3.78-3.79-3.78H27.65s-3.79,0-3.79,3.78V35.69c0,3.78,3.79,3.78,3.79,3.78V58.38H42.78V39.46s3.79,0,3.79-3.78V22.44Zm0,0"/></svg>