<?xml version="1.0" encoding="utf-8"?>
<!-- Generator: Adobe Illustrator 19.2.1, SVG Export Plug-In . SVG Version: 6.00 Build 0)  -->
<svg version="1.1" id="Camada_1" xmlns="http://www.w3.org/2000/svg" xmlns:xlink="http://www.w3.org/1999/xlink" x="0px" y="0px"
	 viewBox="0 0 135.8 135.8" style="enable-background:new 0 0 135.8 135.8;" xml:space="preserve">
<style type="text/css">
	.st0{fill:#FFFFFF;}
</style>
<title>sem-titulo-7</title>
<path class="st0" d="M90,44c1.9-0.1,3.4-1.7,3.3-3.6c-0.1-1.8-1.5-3.2-3.3-3.3c-1.9-0.1-3.4,1.4-3.4,3.3c0,0.1,0,0.1,0,0.2
	C86.6,42.5,88.1,44,90,44z"/>
<path class="st0" d="M100.2,44.1c1.9,0,3.5-1.5,3.5-3.4s-1.5-3.5-3.4-3.5c-1.9,0-3.5,1.5-3.5,3.4c0,0,0,0,0,0
	C96.7,42.5,98.3,44,100.2,44.1z"/>
<path class="st0" d="M79.8,44c1.9,0,3.5-1.5,3.5-3.4s-1.5-3.5-3.4-3.5c-1.9,0-3.5,1.5-3.5,3.4c0,0,0,0,0,0
	C76.3,42.5,77.8,44,79.8,44z"/>
<path class="st0" d="M32.2,99.1h71.4l-0.4,0.1V50.1h-71V99.1z M78.6,70.1c-1-0.3-1.7-1.3-1.6-2.3c0-1.4,0.8-2.2,1.9-2.2
	c0.7,0,1.3,0.2,1.9,0.5l13.8,7c1.2,0.7,1.6,2.2,0.9,3.3c-0.2,0.4-0.5,0.7-0.9,0.9l-13.8,7c-0.6,0.3-1.2,0.5-1.9,0.5
	c-1.1,0-1.9-0.8-1.9-2.2c-0.1-1.1,0.6-2,1.6-2.4l11-5.1L78.6,70.1z M62.7,80.1L69,60.6c0.7-2.1,1-2.5,2.5-2.5c1.4,0,2.5,1.1,2.5,2.5
	c0,0,0,0.1,0,0.1c-0.2,1.3-0.5,2.5-1,3.7l-6.2,19.6c-0.7,2.1-1,2.5-2.5,2.5c-1.4,0-2.5-1.1-2.5-2.5c0,0,0-0.1,0-0.1
	C62,82.6,62.3,81.3,62.7,80.1z M41.2,73L55,66c0.6-0.3,1.2-0.5,1.9-0.5c1.1,0,1.9,0.8,1.9,2.2c0.1,1.1-0.6,2-1.6,2.4l-11,5.1l11,5.1
	c1,0.3,1.7,1.3,1.6,2.4c0,1.4-0.8,2.2-1.9,2.2c-0.7,0-1.3-0.2-1.9-0.5l-13.8-7c-1.2-0.7-1.6-2.2-0.9-3.3
	C40.4,73.6,40.8,73.2,41.2,73z"/>
<path class="st0" d="M67.9,0C30.4,0,0,30.4,0,67.9s30.4,67.9,67.9,67.9s67.9-30.4,67.9-67.9S105.4,0,67.9,0C67.9,0,67.9,0,67.9,0z
	 M109.2,101.7c0,1.5-1.4,3.3-2.9,3.3H29.5c-1.5,0-2.2-1.8-2.2-3.3V34c0-1.5,0.8-2,2.2-2h76.8c1.5,0,3,0.6,3,2L109.2,101.7
	L109.2,101.7z"/>
</svg>
