<?xml version="1.0" encoding="utf-8"?>
<!-- Generator: Adobe Illustrator 19.2.1, SVG Export Plug-In . SVG Version: 6.00 Build 0)  -->
<svg version="1.1" id="Camada_1" xmlns="http://www.w3.org/2000/svg" xmlns:xlink="http://www.w3.org/1999/xlink" x="0px" y="0px"
	 viewBox="0 0 135.8 135.8" style="enable-background:new 0 0 135.8 135.8;" xml:space="preserve">
<style type="text/css">
	.st0{fill:#FFFFFF;}
</style>
<title>sem-titulo-7</title>
<circle class="st0" cx="91.8" cy="40.1" r="2.9"/>
<circle class="st0" cx="91.8" cy="80.5" r="2.9"/>
<circle class="st0" cx="91.8" cy="60.3" r="2.9"/>
<path class="st0" d="M68,0C30.6,0,0.2,30.3,0.2,67.8s30.3,67.8,67.8,67.8s67.8-30.3,67.8-67.8l0,0C135.8,30.3,105.4,0,68,0z
	 M43.1,32.1h49.8c4.7,0,8.5,3.8,8.5,8.5s-3.8,8.5-8.5,8.5H43.1c-4.7,0-8.5-3.8-8.5-8.5S38.4,32.1,43.1,32.1z M43.1,52.1h49.8
	c4.7,0,8.5,3.8,8.5,8.5c0,4.7-3.8,8.5-8.5,8.5H43.1c-4.7,0-8.5-3.8-8.5-8.5C34.6,55.9,38.4,52.1,43.1,52.1z M43.1,73.1h49.8
	c4.6,0,8.4,2.9,8.4,7.5s-3.8,7.5-8.4,7.5H43.1c-4.6,0-8.4-2.9-8.4-7.5S38.5,73.1,43.1,73.1z M52.2,102.1h-22v-2h22V102.1z
	 M82.2,105.1h-28v-8h13v-6h3v6h12V105.1z M106.2,102.1h-21v-2h21V102.1z"/>
</svg>
