<?xml version="1.0" encoding="utf-8"?>
<!-- Generator: Adobe Illustrator 19.2.1, SVG Export Plug-In . SVG Version: 6.00 Build 0)  -->
<svg version="1.1" id="Camada_1" xmlns="http://www.w3.org/2000/svg" xmlns:xlink="http://www.w3.org/1999/xlink" x="0px" y="0px"
	 viewBox="0 0 135.8 135.8" style="enable-background:new 0 0 135.8 135.8;" xml:space="preserve">
<style type="text/css">
	.st0{fill:#FFFFFF;}
</style>
<title>sem-titulo-7</title>
<path class="st0" d="M66.9-1C29.4-1-1,29.4-1,66.9s30.4,67.9,67.9,67.9s67.9-30.4,67.9-67.9S104.4-1,66.9-1C66.9-1,66.9-1,66.9-1z
	 M68.2,44c0.2-1.2,1.4-2,2.6-1.8C81.4,44,89.8,52.4,91.6,63c0.2,1.2-0.6,2.4-1.8,2.6c0,0,0,0,0,0c-0.1,0-0.3,0-0.4,0
	c-1.1,0-2-0.8-2.2-1.8C85.7,54.9,78.8,48,70,46.5C68.8,46.3,68,45.2,68.2,44L68.2,44z M98.5,96.5c-0.7,0.7-1.4,1.4-2.1,2.1
	c-1,0.9-2,1.9-2.9,3c0,0,0,0-0.1,0.1c-2.4,2.6-5.9,4.1-9.4,4c-0.3,0-0.7,0-1,0c-5.6-0.4-10.7-2.5-14.4-4.3
	c-9.9-4.8-18.7-11.7-25.7-20.1c-5.4-6.2-9.7-13.3-12.6-21c-1.6-3.9-2.3-8-2.1-12.2c0.2-2.9,1.5-5.6,3.6-7.6l5.6-5.6l0,0
	c1.5-1.5,3.5-2.4,5.6-2.4c2.1,0,4.1,0.9,5.5,2.4c1.1,1,2.1,2,3.1,3c0.5,0.5,1,1,1.5,1.6l4.5,4.4c3.4,3.4,3.4,7.9,0,11.3l-1.4,1.4
	c-1.2,1.2-2.5,2.5-3.8,3.7c1.2,2.5,2.7,4.9,4.4,7c3.8,4.8,8.4,9,13.5,12.3c0.5,0.3,1,0.6,1.6,0.9l1.3,0.7l5.2-5.2
	c1.5-1.6,3.5-2.5,5.6-2.5c2.1,0,4.1,1,5.5,2.5l9,9c1.6,1.5,2.5,3.5,2.5,5.7C100.9,93,100,95,98.5,96.5z M103.8,64.9
	c-0.1,0-0.3,0-0.4,0c-1.1,0-2-0.8-2.2-1.9c-2.7-15.6-15-27.9-30.6-30.6c-1.2-0.2-2-1.3-1.9-2.5c0.2-1.2,1.3-2,2.5-1.9
	c0,0,0.1,0,0.1,0c17.5,3,31.2,16.7,34.2,34.2C105.9,63.5,105.1,64.6,103.8,64.9C103.9,64.8,103.9,64.8,103.8,64.9z"/>
<path class="st0" d="M86.2,79.2c-0.6-0.7-1.4-1.2-2.4-1.2c-1,0.1-1.8,0.5-2.5,1.2l-5.6,5.6c-0.6,0.7-1.5,1.1-2.5,1.2
	c-0.6,0-1.1-0.1-1.6-0.4l-0.2-0.1c-0.5-0.3-1-0.6-1.6-0.9c-0.7-0.3-1.4-0.7-2-1.1c-5.6-3.6-10.5-8-14.6-13.2l0,0
	c-2.2-2.6-3.9-5.5-5.3-8.7v-0.2c-0.5-1.3-0.2-2.8,0.8-3.7c0,0,0-0.1,0.1-0.1c1.4-1.3,2.7-2.6,4.1-4c0.5-0.5,0.9-0.9,1.4-1.4
	c1.7-1.7,1.7-3.3,0-5.1l-4.6-4.5l-1.6-1.6c-1-1-2-2-3-2.9l0,0c-0.6-0.7-1.5-1.1-2.4-1.2c-0.9,0.1-1.8,0.5-2.5,1.2l-5.6,5.6
	c-1.3,1.3-2.1,3-2.3,4.8c-0.2,3.5,0.5,7,1.8,10.3c2.8,7.2,6.8,13.8,11.8,19.7c6.6,8,14.9,14.5,24.2,19c3.4,1.6,7.9,3.5,12.8,3.8
	c0.2,0,0.5,0,0.8,0c2.3,0.1,4.6-0.9,6.2-2.6c1-1.1,2-2.2,3.2-3.3c0.7-0.7,1.4-1.3,2-2c1.7-1.8,1.7-3.5,0-5.2L86.2,79.2z"/>
</svg>
