<svg id="Camada_1" data-name="Camada 1" xmlns="http://www.w3.org/2000/svg" viewBox="0 0 150 150"><defs><style>.cls-1{fill:#fff;}</style></defs><title>Icones Ti grad</title><path class="cls-1" d="M68.58,90.73c1.25,0,2.4-.11,3.61-0.15a25.1,25.1,0,0,1,.55-3,26.59,26.59,0,0,1,4.7-9.85,71.29,71.29,0,0,1-8.86.58c-13,0-24.27-3.2-29.75-8.2v9C38.83,84.6,51.05,90.73,68.58,90.73Z"/><path class="cls-1" d="M68.58,71.41c17.53,0,29.74-6.14,29.74-11.64v-8C93,56.31,80.59,58.65,68.58,58.65s-24.4-2.34-29.75-6.87v8C38.83,65.28,51.05,71.41,68.58,71.41Z"/><path class="cls-1" d="M72.23,97.18c-1.21.07-2.4,0.15-3.64,0.15-13,0-24.27-3.2-29.75-8.2v9c0,5.52,12.22,11.64,29.75,11.64a69.13,69.13,0,0,0,8.4-.52A24.8,24.8,0,0,1,72.23,97.18Z"/><path class="cls-1" d="M68.58,52.06c17.93,0,28.94-4.88,28.94-8.38s-11-8.37-28.94-8.37-28.94,4.88-28.94,8.37S50.64,52.06,68.58,52.06Z"/><path class="cls-1" d="M99.66,72.28c-0.26,0-.53,0-0.79,0a20.73,20.73,0,0,0-2.77.2,21.61,21.61,0,0,0-18.42,17.5,24,24,0,0,0-.35,3.66v0.18a21.42,21.42,0,0,0,3.39,11.58,22.43,22.43,0,0,0,2.4,3.07A21.51,21.51,0,1,0,99.66,72.28Zm14.5,27.46c0,1.24-.81,1-0.81,1H96.52v5.4c0,1.57-1.38.14-1.38,0.14L83.56,94.4a1.08,1.08,0,0,1-.09-1.62c1.13-1.13,11.94-11.59,11.94-11.59s1.44-1.45,1.44.46v5h16.64a0.73,0.73,0,0,1,.67.87V99.74Z"/><path class="cls-1" d="M75,0a75,75,0,1,0,75,75A75,75,0,0,0,75,0ZM98.87,120.66a26.76,26.76,0,0,1-20-9c0.2,0.29.37,0.61,0.58,0.92a74.23,74.23,0,0,1-10.84.79c-18.68,0-33.32-6.67-33.32-15.2V88.56a8.13,8.13,0,0,1,1.19-4.1l0.38-.67a8.33,8.33,0,0,1-1.57-4.69V69.5a8.09,8.09,0,0,1,1.19-4.11l0.46-.81a8.31,8.31,0,0,1-1.65-4.8V50.18a8.19,8.19,0,0,1,1.08-3.93l0.22-.42a5.42,5.42,0,0,1-.49-2.15c0-7.74,16.73-11.93,32.5-11.93s32.52,4.19,32.52,11.93a5,5,0,0,1-.52,2.15l0.23,0.42a8.09,8.09,0,0,1,1.07,3.93v9.59a8.23,8.23,0,0,1-1.65,4.8l0.47,0.81a10.58,10.58,0,0,1,.72,1.68A26.86,26.86,0,0,1,98.87,120.66Z"/></svg>