<svg id="Camada_1" data-name="Camada 1" xmlns="http://www.w3.org/2000/svg" viewBox="0 0 150 150"><defs><style>.cls-1{fill:#2d6690;}</style></defs><title>icones-solucoes</title><rect class="cls-1" x="90.7" y="91.75" width="39.25" height="5.43"/><path class="cls-1" d="M79,96.81V91.63H65.7a29,29,0,0,1-2.33,5.19H79Z"/><path class="cls-1" d="M62.52,66.56H79v-6H57.29A29.33,29.33,0,0,1,62.52,66.56Z"/><path class="cls-1" d="M12.74,82.38A25.36,25.36,0,1,0,38.1,57,25.38,25.38,0,0,0,12.74,82.38Zm17.09-5c0-3.53,2.68-6.18,6.48-6.89v-3.7H40v3.6a11.31,11.31,0,0,1,4.65,1.49A9.78,9.78,0,0,1,46.23,73l-2.37,4.51a10.68,10.68,0,0,0-1.66-1.09,8.22,8.22,0,0,0-3.66-1.05c-1.49,0-2.75.54-2.75,1.87,0,3.33,11,2.44,11,9.64,0,3.43-2.41,6.65-6.79,7.3v3.6h-3.7v-3.6a13.07,13.07,0,0,1-5.12-1.9,9.82,9.82,0,0,1-1.8-1.43l3-4.17A17.64,17.64,0,0,0,34.21,88a8.31,8.31,0,0,0,4,1.26c1.39,0,2.68-.65,2.68-2C40.87,84.16,29.84,84.81,29.84,77.38Z"/><rect class="cls-1" x="90.7" y="61.06" width="39.25" height="5.43"/><path class="cls-1" d="M79,82.12V76.94H66.69a29.12,29.12,0,0,1,.51,5.19H79Z"/><rect class="cls-1" x="40.07" y="44.96" width="38.89" height="6.05"/><path class="cls-1" d="M75,0a75,75,0,1,0,75,75A75,75,0,0,0,75,0Zm8.27,54.47H46.35a28.93,28.93,0,0,1,6.09,2.59H83.27V70H64.45q0.6,1.26,1.07,2.59H83.27v13H67q-0.14,1.31-.4,2.59H83.27v13H60.35A29.11,29.11,0,1,1,36.61,53.31V41.5H83.27v13Zm50.43,46.47H86.95V88h46.76v12.94Zm0-15H86.95V73h46.76V85.91ZM86.95,70.25V57.31h46.76V70.25H86.95Z"/><rect class="cls-1" x="90.7" y="76.72" width="39.25" height="5.43"/></svg>