<svg id="Camada_1" data-name="Camada 1" xmlns="http://www.w3.org/2000/svg" viewBox="0 0 150 150"><defs><style>.cls-1{fill:#2d6690;}</style></defs><title>icones-solucoes</title><path class="cls-1" d="M75,0a75,75,0,1,0,75,75A75,75,0,0,0,75,0Zm39.6,102.61H77.89a10.36,10.36,0,0,1-19.51,0h-23c-1.74,0-1.74,0-1.74-3.47s0-3.47,1.74-3.47h23a10.36,10.36,0,0,1,19.51,0h36.7c1.74,0,1.74,0,1.74,3.47S116.33,102.61,114.6,102.61Zm0-24.14h-9.18a10.36,10.36,0,0,1-19.51,0H35.4c-1.74,0-1.74,0-1.74-3.47s0-3.47,1.74-3.47H85.91a10.36,10.36,0,0,1,19.51,0h9.18c1.74,0,1.74,0,1.74,3.47S116.33,78.47,114.6,78.47Zm0-24.14H64.09a10.36,10.36,0,0,1-19.51,0H35.4c-1.74,0-1.74,0-1.74-3.47s0-3.47,1.74-3.47h9.18a10.36,10.36,0,0,1,19.51,0H114.6c1.74,0,1.74,0,1.74,3.47S116.33,54.33,114.6,54.33Z"/></svg>