<svg id="Camada_1" data-name="Camada 1" xmlns="http://www.w3.org/2000/svg" viewBox="0 0 150 150"><defs><style>.cls-1{fill:#2d6690;}</style></defs><title>icones-solucoes</title><path class="cls-1" d="M75.17,31.79A26,26,0,0,0,49.24,57.72c0,12.63,20.21,48.79,25.93,58.77,5.72-10,25.93-46.15,25.93-58.77A26,26,0,0,0,75.17,31.79Zm0,41.48A15.56,15.56,0,1,1,90.72,57.72,15.57,15.57,0,0,1,75.17,73.27Z"/><path class="cls-1" d="M75.17,45.62a12.1,12.1,0,1,0,12.1,12.1A12.11,12.11,0,0,0,75.17,45.62Zm0,15.56a3.46,3.46,0,1,1,3.46-3.46A3.46,3.46,0,0,1,75.17,61.17Z"/><path class="cls-1" d="M75,0a74.83,74.83,0,1,0,74.83,74.83A74.83,74.83,0,0,0,75,0Zm1.66,120.82a1.73,1.73,0,0,1-3,0c-1.14-1.93-27.89-47.53-27.89-63.1a29.38,29.38,0,1,1,58.77,0C104.55,73.28,77.8,118.88,76.66,120.82Z"/></svg>