<svg id="Camada_1" data-name="Camada 1" xmlns="http://www.w3.org/2000/svg" viewBox="0 0 425.87 68.14"><defs><style>.cls-1{fill:#fff;}</style></defs><title>Logo mobuss construção</title><path class="cls-1" d="M92.58,5.45a0.51,0.51,0,0,1-.36.14H88.75v9.58a0.54,0.54,0,1,1-1.09,0V5.59H84.2a0.49,0.49,0,1,1,0-1h8a0.51,0.51,0,0,1,.36.14,0.5,0.5,0,0,1,0,.71h0Z"/><path class="cls-1" d="M99.42,10.56a2.66,2.66,0,0,0-.56-0.78,2.63,2.63,0,0,0-.8-0.52,2.59,2.59,0,0,0-1-.19,2.66,2.66,0,0,0-1,.19,2.61,2.61,0,0,0-.81.52,2.74,2.74,0,0,0-.84,1.75h5.28a2.91,2.91,0,0,0-.26-1h0Zm0.87,1.71H94.41a2.71,2.71,0,0,0,.24,1,2.8,2.8,0,0,0,.59.85,2.74,2.74,0,0,0,1.94.78,2.85,2.85,0,0,0,1.4-.32,4,4,0,0,0,1-.83,0.42,0.42,0,0,1,.31-0.16,0.44,0.44,0,0,1,.26.1,0.41,0.41,0,0,1,.15.31,0.39,0.39,0,0,1-.1.26,3.76,3.76,0,0,1-.53.55,3.64,3.64,0,0,1-.72.48,4.54,4.54,0,0,1-.87.33,3.91,3.91,0,0,1-1,.12,3.67,3.67,0,0,1-1.48-.3,3.84,3.84,0,0,1-1.19-.8,3.79,3.79,0,0,1-.8-1.2,3.74,3.74,0,0,1-.3-1.48,3.92,3.92,0,0,1,.28-1.48,3.62,3.62,0,0,1,.78-1.2,3.71,3.71,0,0,1,1.16-.8,3.53,3.53,0,0,1,1.46-.3,3.45,3.45,0,0,1,1.43.3,3.63,3.63,0,0,1,1.91,2,3.73,3.73,0,0,1,.27,1.42,0.32,0.32,0,0,1-.38.35h0Z"/><path class="cls-1" d="M108.31,14.35a3.86,3.86,0,0,1-1.27,1,3.6,3.6,0,0,1-1.68.4,3.76,3.76,0,0,1-2.67-1.08,3.72,3.72,0,0,1-.81-1.19,3.95,3.95,0,0,1,0-3,3.71,3.71,0,0,1,.81-1.2,3.82,3.82,0,0,1,1.19-.79,3.84,3.84,0,0,1,4.08.75,0.44,0.44,0,0,1,.15.31,0.39,0.39,0,0,1-.1.26,0.41,0.41,0,0,1-.31.15,0.44,0.44,0,0,1-.26-0.08,5,5,0,0,0-1-.6,2.65,2.65,0,0,0-1.08-.22,2.68,2.68,0,0,0-1.11.23,2.74,2.74,0,0,0-.88.63,2.88,2.88,0,0,0-.58.92,3.09,3.09,0,0,0,0,2.27,2.89,2.89,0,0,0,.58.92,2.73,2.73,0,0,0,.88.63,2.66,2.66,0,0,0,1.11.23,2.57,2.57,0,0,0,1.35-.34,4.54,4.54,0,0,0,1-.8,0.37,0.37,0,0,1,.3-0.13,0.39,0.39,0,0,1,.41.41,0.42,0.42,0,0,1-.1.28h0Z"/><path class="cls-1" d="M111.14,15.58a0.47,0.47,0,0,1-.35.13,0.53,0.53,0,0,1-.36-0.13,0.44,0.44,0,0,1-.15-0.35V4.95a0.47,0.47,0,0,1,.15-0.36,0.51,0.51,0,0,1,.36-0.14,0.45,0.45,0,0,1,.35.14,0.51,0.51,0,0,1,.13.36V15.24a0.48,0.48,0,0,1-.13.35h0Z"/><path class="cls-1" d="M119.43,5.81l-2.13,1.53a0.32,0.32,0,0,1-.2,0,0.35,0.35,0,0,1-.33-0.17A0.49,0.49,0,0,1,116.71,7a0.41,0.41,0,0,1,.15-0.31L119,5.18a0.36,0.36,0,0,1,.23-0.07,0.33,0.33,0,0,1,.3.15,0.39,0.39,0,0,1,.08.23,0.36,0.36,0,0,1-.16.31h0Zm0.18,5.08h0A3,3,0,0,0,119,10a2.75,2.75,0,0,0-2-.86,2.67,2.67,0,0,0-1.11.23A2.71,2.71,0,0,0,115,10,3,3,0,0,0,115,14a2.75,2.75,0,0,0,.88.63,2.67,2.67,0,0,0,1.11.23,2.72,2.72,0,0,0,1.11-.23A2.77,2.77,0,0,0,119,14a3,3,0,0,0,.58-0.92,3,3,0,0,0,0-2.24h0Zm0.89,2.6h0a3.79,3.79,0,0,1-2,2,3.83,3.83,0,0,1-3,0,3.79,3.79,0,0,1-1.19-.81,3.86,3.86,0,0,1-.81-1.2,3.82,3.82,0,0,1,0-3,3.83,3.83,0,0,1,.81-1.2,3.78,3.78,0,0,1,1.19-.81,3.82,3.82,0,0,1,3,0,3.79,3.79,0,0,1,2,2,3.79,3.79,0,0,1,0,3h0Z"/><path class="cls-1" d="M128.15,10.86a3,3,0,0,0-.58-0.91,2.6,2.6,0,0,0-.89-0.62,2.78,2.78,0,0,0-1.11-.22,2.73,2.73,0,0,0-1.1.22,2.59,2.59,0,0,0-.88.62,3,3,0,0,0-.59.91,2.89,2.89,0,0,0-.21,1.11,2.94,2.94,0,0,0,.21,1.12,2.82,2.82,0,0,0,.59.92,2.79,2.79,0,0,0,.88.62,2.68,2.68,0,0,0,1.1.23,2.73,2.73,0,0,0,1.11-.23,2.8,2.8,0,0,0,.89-0.62,2.85,2.85,0,0,0,.58-0.92,3,3,0,0,0,.22-1.12,2.91,2.91,0,0,0-.22-1.11h0Zm0.95,5.62h0a3.25,3.25,0,0,1-.73,1.21,3.46,3.46,0,0,1-1.21.81,4.51,4.51,0,0,1-1.71.29,8.74,8.74,0,0,1-1.45-.11,5.88,5.88,0,0,1-1.32-.38,0.4,0.4,0,0,1-.28-0.36,0.51,0.51,0,0,1,0-.17,0.38,0.38,0,0,1,.36-0.28l0.16,0a7.19,7.19,0,0,0,2.46.43,3.59,3.59,0,0,0,1.31-.21,2.42,2.42,0,0,0,1.46-1.48,3.37,3.37,0,0,0,.18-1.12v-1a2.79,2.79,0,0,1-1.15,1.14,3.45,3.45,0,0,1-1.72.43,3.6,3.6,0,0,1-1.43-.29,3.64,3.64,0,0,1-1.18-.79,3.76,3.76,0,0,1-.8-1.19,3.71,3.71,0,0,1-.3-1.49,3.67,3.67,0,0,1,.29-1.47,3.77,3.77,0,0,1,.79-1.19,3.66,3.66,0,0,1,1.18-.8,3.71,3.71,0,0,1,1.45-.29,3.29,3.29,0,0,1,1.69.44,3.11,3.11,0,0,1,1.16,1.16v-1a0.52,0.52,0,0,1,.14-0.36,0.5,0.5,0,0,1,.71,0,0.51,0.51,0,0,1,.14.36V15a4.61,4.61,0,0,1-.24,1.49h0Z"/><path class="cls-1" d="M133.1,15.57a0.45,0.45,0,0,1-.35.14,0.51,0.51,0,0,1-.36-0.14,0.47,0.47,0,0,1-.15-0.35V8.79a0.46,0.46,0,0,1,.15-0.35,0.51,0.51,0,0,1,.36-0.14,0.45,0.45,0,0,1,.35.14,0.5,0.5,0,0,1,.13.35v6.43a0.5,0.5,0,0,1-.13.35h0Zm0.07-9.37h0a0.55,0.55,0,0,1-.41.17,0.59,0.59,0,0,1-.43-0.17,0.57,0.57,0,0,1,0-.84,0.59,0.59,0,0,1,.43-0.17,0.54,0.54,0,0,1,.41.17,0.62,0.62,0,0,1,0,.84h0Z"/><path class="cls-1" d="M142,14.35a3.87,3.87,0,0,1-1.27,1,3.61,3.61,0,0,1-1.68.4,3.76,3.76,0,0,1-2.67-1.08,3.69,3.69,0,0,1-.81-1.19,4,4,0,0,1,0-3,3.69,3.69,0,0,1,.81-1.2,3.84,3.84,0,0,1,1.19-.79,3.84,3.84,0,0,1,4.08.75,0.44,0.44,0,0,1,.15.31,0.4,0.4,0,0,1-.1.26,0.41,0.41,0,0,1-.31.15,0.44,0.44,0,0,1-.26-0.08,4.91,4.91,0,0,0-1-.6,2.64,2.64,0,0,0-1.08-.22,2.68,2.68,0,0,0-1.11.23,2.77,2.77,0,0,0-.88.63,3,3,0,0,0,0,4.12,2.75,2.75,0,0,0,.88.63,2.66,2.66,0,0,0,1.11.23,2.57,2.57,0,0,0,1.35-.34,4.56,4.56,0,0,0,1-.8,0.38,0.38,0,0,1,.3-0.13,0.4,0.4,0,0,1,.41.41,0.42,0.42,0,0,1-.1.28h0Z"/><path class="cls-1" d="M148.48,12.63a1.45,1.45,0,0,0-.5-0.49,2.23,2.23,0,0,0-.71-0.27,4.19,4.19,0,0,0-.84-0.08,3.7,3.7,0,0,0-.82.09,2.25,2.25,0,0,0-.7.28,1.43,1.43,0,0,0-.49.49,1.4,1.4,0,0,0-.18.73,1.35,1.35,0,0,0,.19.73,1.57,1.57,0,0,0,.5.5,2.21,2.21,0,0,0,.69.29,3.26,3.26,0,0,0,.76.09,3,3,0,0,0,.87-0.12,2.55,2.55,0,0,0,.72-0.34,1.69,1.69,0,0,0,.5-0.51,1.25,1.25,0,0,0,.18-0.66,1.42,1.42,0,0,0-.18-0.74h0Zm1,2.94h0a0.46,0.46,0,0,1-.35.14,0.51,0.51,0,0,1-.36-0.14,0.47,0.47,0,0,1-.15-0.35V14.77a2.45,2.45,0,0,1-1,.71,3.8,3.8,0,0,1-2.64.11,3,3,0,0,1-.93-0.49,2.22,2.22,0,0,1-.62-0.75,2.1,2.1,0,0,1-.22-1,2.23,2.23,0,0,1,.22-1,2.14,2.14,0,0,1,.62-0.75,2.79,2.79,0,0,1,.93-0.46,4.1,4.1,0,0,1,1.16-.16,4.5,4.5,0,0,1,1.44.21,2.38,2.38,0,0,1,1,.63V11a1.88,1.88,0,0,0-.58-1.5,2.81,2.81,0,0,0-1.73-.43,5,5,0,0,0-1.2.14,6.77,6.77,0,0,0-1.09.37,0.42,0.42,0,0,1-.18,0,0.36,0.36,0,0,1-.36-0.23,0.3,0.3,0,0,1,0-.18,0.4,0.4,0,0,1,.23-0.36,4.34,4.34,0,0,1,.64-0.29,5,5,0,0,1,.72-0.2c0.25,0,.49-0.08.73-0.11s0.45,0,.65,0a3.71,3.71,0,0,1,2.37.68,2.59,2.59,0,0,1,.85,2.16v4.15a0.49,0.49,0,0,1-.13.35h0Z"/><path class="cls-1" d="M57.05,22.46A13.36,13.36,0,1,0,70.42,35.82,13.36,13.36,0,0,0,57.05,22.46h0Z"/><path class="cls-1" d="M41.7,23.88a14,14,0,0,0,1.76-6.13c-0.07-2.3-.83-5.06-4.42-6.26,0,0-3.51-1.24-5.86-.4,0,0,1.33-6.84-6.83-9.41-4.08-1.29-6.86-1-10.7,1S-0.31,15.74,0,34.38a48.13,48.13,0,0,0,12.8,32.16,4,4,0,0,0,5,1.15c1.3-.63,1.51-2.89.2-5.12s-8.61-11-9-27.85C8.6,18.83,18.65,8.41,20.47,7c2.29-1.79,4.19-2,5.34-1.57,1.78,0.66,3,2.6,1.29,5.28S17,21.31,17,34.45c0,14.25,5.39,19.77,8.39,23.63,1.43,1.84,3.49,2.65,5.33,1.66s1.1-3.12-.07-4.86c-5.26-7.86-5.79-12.49-5.7-20.22,0.1-9,5.33-16,7.06-18.37,1.45-2,3.3-2.35,4.71-1.69s1.73,2.66.44,4.71c-1.49,2.36-5.43,8.89-5.53,15.11A25.16,25.16,0,0,0,38,51c0.79,0.81,3,2.17,4.55,1.27s1.42-2.79.36-4.3c-3.32-4.71-4.36-7.31-4.48-13.14a26,26,0,0,1,3.24-11h0Z"/><path class="cls-1" d="M85.88,42.66a6.84,6.84,0,0,1-6.62-7,6.63,6.63,0,1,1,13.24,0,6.84,6.84,0,0,1-6.62,7h0Zm1.19-20.2h0a10.81,10.81,0,0,0-7.46,3.06V12a3.46,3.46,0,0,0-6.92,0s0,8.64,0,11.7c0,2.7,1.29,3.26,2.15,6.59a18.81,18.81,0,0,1,.6,4.75,17.85,17.85,0,0,1-1.27,6.83c-0.54,1.32-1.41,2.16-1.41,3.33a3.36,3.36,0,0,0,3.4,3.1,3.46,3.46,0,0,0,3.38-2.7,10.82,10.82,0,0,0,7.54,3.15c6.42,0,11.63-5.89,11.63-13.16S93.49,22.46,87.07,22.46h0Z"/><path class="cls-1" d="M122.31,22.81a3.46,3.46,0,0,0-3.46,3.46V36.77a11.47,11.47,0,0,1-.21,2,5.09,5.09,0,0,1-5.17,3.79c-4.88,0-5.37-4.66-5.37-8.74V26.27a3.46,3.46,0,0,0-6.92,0V38.13a19.81,19.81,0,0,0,.16,2.47,10.38,10.38,0,0,0,8.45,8.18s5.66,1,9.06-3.64v0.18a3.46,3.46,0,0,0,6.92,0v-19a3.46,3.46,0,0,0-3.46-3.46h0Z"/><path class="cls-1" d="M145.06,28.44c3.48,1.3,4.39-.27,4.73-0.9,0.53-1.23-.17-3-2.26-3.83-2.86-1.2-8.32-2.54-13.21,0-4.31,2.25-4.39,6-3.21,8.63,1.09,2.4,2.73,2.9,4.68,3.76,1.37,0.61,2.48,1.07,4.25,1.85,2.61,1.16,5.12,1.88,4,3.91-0.84,1.55-4.46,1.63-6.62,1-1-.3-2.35-0.87-3.81-1.46s-3-.93-4.13,1.06a2.76,2.76,0,0,0,.14,2.57,5.11,5.11,0,0,0,1.7,1.42A20.08,20.08,0,0,0,141,48.6c7.19-.26,9.82-4.59,9.56-8.76-0.2-3.28-2.93-5.06-7.52-6.59,0,0-2.84-1.15-4.6-1.82-1-.4-2-1.27-1.53-2.5,0.67-1.91,4.86-1.72,8.16-.49h0Z"/><path class="cls-1" d="M168.85,28.44c3.48,1.3,4.39-.27,4.73-0.9,0.53-1.23-.17-3-2.26-3.83-2.86-1.2-8.32-2.54-13.21,0-4.3,2.25-4.39,6-3.2,8.63,1.09,2.4,2.73,2.9,4.68,3.76,1.37,0.61,2.48,1.07,4.25,1.85,2.61,1.16,5.12,1.88,4,3.91-0.84,1.55-4.46,1.63-6.62,1-1-.3-2.35-0.87-3.81-1.46s-3-.93-4.13,1.06a2.76,2.76,0,0,0,.14,2.57,5.11,5.11,0,0,0,1.7,1.42,20.08,20.08,0,0,0,9.66,2.11c7.19-.26,9.82-4.59,9.56-8.76-0.2-3.28-2.93-5.06-7.52-6.59,0,0-2.84-1.15-4.6-1.82-1-.4-2-1.27-1.53-2.5,0.67-1.91,4.86-1.72,8.16-.49h0Z"/><path class="cls-1" d="M178.57,31.17c0-10.69,7.77-18,17.62-18a15.63,15.63,0,0,1,12.67,6.15L206.36,21a12.64,12.64,0,0,0-10.17-5.06c-8.13,0-14.49,6.21-14.49,15.28s6.36,15.28,14.49,15.28a12.64,12.64,0,0,0,10.17-5.05L208.92,43a15.76,15.76,0,0,1-12.72,6.21c-9.86,0-17.62-7.3-17.62-18h0Z"/><path class="cls-1" d="M233.34,35.91c0-5.57-3.29-10.74-9.23-10.74s-9.18,5.17-9.18,10.74,3.34,10.79,9.18,10.79,9.23-5.16,9.23-10.79h0Zm-21.28,0h0c0-7.35,4.7-13.2,12-13.2s12.15,5.84,12.15,13.2-4.7,13.25-12.15,13.25-12-5.89-12-13.25h0Z"/><path class="cls-1" d="M259,48.54V31.48c0-4.85-2.45-6.31-6.11-6.31a10.8,10.8,0,0,0-8.19,4.33v19H242V23.34h2.71v3.81a12.75,12.75,0,0,1,9.08-4.44c5.12,0,7.92,2.51,7.92,8.19V48.54H259Z"/><path class="cls-1" d="M266.65,45.15l1.61-2a10.5,10.5,0,0,0,8.14,3.71c4.23,0,6.73-2.19,6.73-5.11,0-6.88-15.91-3-15.91-12,0-3.86,3.29-7,9-7a11.57,11.57,0,0,1,9,3.7l-1.51,1.93A9.16,9.16,0,0,0,276.19,25c-3.91,0-6.26,2-6.26,4.58,0,6.31,15.86,2.45,15.86,12.15,0,4.07-3.13,7.4-9.44,7.4-4.07,0-7.2-1.2-9.7-4h0Z"/><path class="cls-1" d="M292,43.69V25.75h-4.18v-2.4H292V16.46h2.77v6.88h5.11v2.4h-5.11V43.27c0,2,.83,3.44,2.6,3.44a4,4,0,0,0,2.83-1.2l1,2.09a5.69,5.69,0,0,1-4.28,1.56c-3.33,0-5-2-5-5.47h0Z"/><path class="cls-1" d="M304.52,48.54V23.34h2.71v4.33c2.13-2.82,5-4.85,8.5-4.85v3a5.73,5.73,0,0,0-1.36-.1c-2.55,0-6,2.3-7.14,4.48V48.54h-2.71Z"/><path class="cls-1" d="M336.75,48.54v-3.7a12.65,12.65,0,0,1-9.07,4.33c-5.12,0-7.93-2.4-7.93-8.08V23.34h2.71V40.46c0,4.9,2.45,6.25,6.1,6.25a10.86,10.86,0,0,0,8.18-4.17V23.34h2.71V48.54h-2.71Z"/><path class="cls-1" d="M352.42,56.77l0.88-1.66a6.37,6.37,0,0,0,4.13,1.46c1.82,0,3.39-.88,3.39-2.34a1.9,1.9,0,0,0-2.09-2.09,2.93,2.93,0,0,0-2.14.93l-1.4-.83,1.09-3.13c-6.78-.57-11.05-6.21-11.05-13.19,0-7.35,4.79-13.19,12.21-13.19A10.38,10.38,0,0,1,366.34,27l-1.87,1.67a8,8,0,0,0-6.88-3.49c-5.89,0-9.5,4.69-9.5,10.74s3.6,10.79,9.5,10.79a8,8,0,0,0,6.88-3.55l1.87,1.67a10.23,10.23,0,0,1-8.13,4.33l-0.84,2.19a3.53,3.53,0,0,1,1.93-.57,3.26,3.26,0,0,1,3.44,3.44c0,2.44-2.35,4.07-5.26,4.07a8.41,8.41,0,0,1-5.06-1.52h0Z"/><path class="cls-1" d="M387.11,43.58V38.05a9.29,9.29,0,0,0-7.61-3.49c-4.12,0-6.88,2.66-6.88,6.26S375.38,47,379.5,47a9.42,9.42,0,0,0,7.61-3.44h0Zm-9.86-29.26h0c-1.56,0-2.82,1.46-2.82,5h-1.82c0-3.91,1.72-7,4.85-7,3.86,0,3.76,5.32,6.52,5.32,1.57,0,2.82-1.52,2.82-5h1.83c0,3.91-1.67,7-4.86,7-3.86,0-3.75-5.31-6.52-5.31h0Zm9.86,34.21h0v-3a11,11,0,0,1-8.56,3.6c-4.33,0-8.81-3-8.81-8.39s4.43-8.35,8.81-8.35a10.91,10.91,0,0,1,8.56,3.6V30.91c0-3.75-3-5.79-6.73-5.79a9.8,9.8,0,0,0-7.92,3.7l-1.52-1.87a12.25,12.25,0,0,1,9.7-4.23c5.11,0,9.18,2.45,9.18,8.09V48.54h-2.71Z"/><path class="cls-1" d="M416.85,35.91c0-5.57-3.29-10.74-9.23-10.74s-9.17,5.17-9.17,10.74,3.34,10.79,9.17,10.79,9.23-5.16,9.23-10.79h0Zm-21.27,0h0c0-7.35,4.69-13.2,12-13.2s12.15,5.84,12.15,13.2-4.69,13.25-12.15,13.25-12-5.89-12-13.25h0Z"/></svg>