<?xml version="1.0" encoding="utf-8"?>
<!-- Generator: Adobe Illustrator 19.2.1, SVG Export Plug-In . SVG Version: 6.00 Build 0)  -->
<svg version="1.1" id="Camada_1" xmlns="http://www.w3.org/2000/svg" xmlns:xlink="http://www.w3.org/1999/xlink" x="0px" y="0px"
	 viewBox="0 0 135.8 135.8" style="enable-background:new 0 0 135.8 135.8;" xml:space="preserve">
<style type="text/css">
	.st0{fill:#F2F2F2;}
	.st1{fill:#0061A1;}
</style>
<title>sem-titulo-7</title>
<circle class="st0" cx="67.9" cy="67.9" r="67.9"/>
<g>
	<g>
		<path class="st1" d="M65.9,47.8c-0.1,0.1-0.1,0.1-0.2,0.1h-2.1v5.8c0,0.1,0,0.2-0.1,0.2C63.4,54,63.3,54,63.2,54
			c-0.1,0-0.2,0-0.2-0.1c-0.1-0.1-0.1-0.1-0.1-0.2v-5.8h-2.1c-0.1,0-0.2,0-0.2-0.1c-0.1-0.1-0.1-0.1-0.1-0.2c0-0.1,0-0.2,0.1-0.2
			c0.1-0.1,0.1-0.1,0.2-0.1h4.8c0.1,0,0.2,0,0.2,0.1c0.1,0.1,0.1,0.1,0.1,0.2C66,47.7,65.9,47.8,65.9,47.8L65.9,47.8z"/>
		<path class="st1" d="M70,50.9c-0.1-0.2-0.2-0.3-0.3-0.5c-0.1-0.1-0.3-0.2-0.5-0.3C69,50,68.8,50,68.6,50c-0.2,0-0.4,0-0.6,0.1
			c-0.2,0.1-0.3,0.2-0.5,0.3c-0.1,0.1-0.3,0.3-0.3,0.5C67,51.1,67,51.3,67,51.5h3.2C70.1,51.3,70.1,51.1,70,50.9L70,50.9z
			 M70.5,51.9L70.5,51.9H67c0,0.2,0.1,0.4,0.1,0.6c0.1,0.2,0.2,0.4,0.4,0.5c0.1,0.1,0.3,0.3,0.5,0.3c0.2,0.1,0.4,0.1,0.6,0.1
			c0.3,0,0.6-0.1,0.8-0.2c0.2-0.1,0.4-0.3,0.6-0.5c0.1-0.1,0.1-0.1,0.2-0.1c0.1,0,0.1,0,0.2,0.1c0.1,0.1,0.1,0.1,0.1,0.2
			c0,0.1,0,0.1-0.1,0.2c-0.1,0.1-0.2,0.2-0.3,0.3c-0.1,0.1-0.3,0.2-0.4,0.3c-0.2,0.1-0.3,0.1-0.5,0.2c-0.2,0-0.4,0.1-0.6,0.1
			c-0.3,0-0.6-0.1-0.9-0.2c-0.3-0.1-0.5-0.3-0.7-0.5c-0.2-0.2-0.4-0.4-0.5-0.7c-0.1-0.3-0.2-0.6-0.2-0.9c0-0.3,0.1-0.6,0.2-0.9
			c0.1-0.3,0.3-0.5,0.5-0.7c0.2-0.2,0.4-0.4,0.7-0.5c0.3-0.1,0.6-0.2,0.9-0.2c0.3,0,0.6,0.1,0.9,0.2c0.3,0.1,0.5,0.3,0.7,0.5
			c0.2,0.2,0.3,0.4,0.5,0.7c0.1,0.3,0.2,0.6,0.2,0.9C70.7,51.9,70.7,51.9,70.5,51.9L70.5,51.9z"/>
		<path class="st1" d="M75.3,53.2c-0.2,0.3-0.5,0.5-0.8,0.6c-0.3,0.2-0.6,0.2-1,0.2c-0.3,0-0.6-0.1-0.9-0.2
			c-0.3-0.1-0.5-0.3-0.7-0.5c-0.2-0.2-0.4-0.4-0.5-0.7c-0.1-0.3-0.2-0.6-0.2-0.9c0-0.3,0.1-0.6,0.2-0.9c0.1-0.3,0.3-0.5,0.5-0.7
			c0.2-0.2,0.4-0.4,0.7-0.5c0.3-0.1,0.6-0.2,0.9-0.2c0.6,0,1.1,0.2,1.6,0.6c0.1,0.1,0.1,0.1,0.1,0.2c0,0.1,0,0.1-0.1,0.2
			c-0.1,0.1-0.1,0.1-0.2,0.1c-0.1,0-0.1,0-0.2,0c-0.2-0.2-0.4-0.3-0.6-0.4C74,50.1,73.8,50,73.6,50c-0.2,0-0.5,0-0.7,0.1
			c-0.2,0.1-0.4,0.2-0.5,0.4c-0.2,0.2-0.3,0.3-0.4,0.6c-0.1,0.2-0.1,0.4-0.1,0.7c0,0.2,0,0.5,0.1,0.7c0.1,0.2,0.2,0.4,0.4,0.6
			c0.1,0.2,0.3,0.3,0.5,0.4c0.2,0.1,0.4,0.1,0.7,0.1c0.3,0,0.6-0.1,0.8-0.2c0.2-0.1,0.4-0.3,0.6-0.5c0-0.1,0.1-0.1,0.2-0.1
			c0.1,0,0.1,0,0.2,0.1c0,0,0.1,0.1,0.1,0.2C75.4,53.1,75.4,53.1,75.3,53.2L75.3,53.2z"/>
		<path class="st1" d="M77.1,53.9C77,54,76.9,54,76.9,54c-0.1,0-0.2,0-0.2-0.1c-0.1-0.1-0.1-0.1-0.1-0.2v-6.2c0-0.1,0-0.2,0.1-0.2
			c0.1-0.1,0.1-0.1,0.2-0.1c0.1,0,0.2,0,0.2,0.1c0.1,0.1,0.1,0.1,0.1,0.2v6.2C77.1,53.8,77.1,53.9,77.1,53.9L77.1,53.9z"/>
		<path class="st1" d="M82.1,48L80.8,49c0,0-0.1,0-0.1,0c-0.1,0-0.2,0-0.2-0.1c0-0.1,0-0.1,0-0.1c0-0.1,0-0.1,0.1-0.2l1.3-0.9
			c0,0,0.1,0,0.1,0c0.1,0,0.1,0,0.2,0.1c0,0,0.1,0.1,0.1,0.1C82.2,47.9,82.1,48,82.1,48L82.1,48z M82.2,51.1L82.2,51.1
			c-0.1-0.2-0.2-0.4-0.4-0.6c-0.1-0.2-0.3-0.3-0.5-0.4c-0.2-0.1-0.4-0.1-0.7-0.1c-0.2,0-0.5,0-0.7,0.1c-0.2,0.1-0.4,0.2-0.5,0.4
			c-0.1,0.2-0.3,0.3-0.4,0.6c-0.1,0.2-0.1,0.4-0.1,0.7c0,0.2,0,0.5,0.1,0.7c0.1,0.2,0.2,0.4,0.4,0.6c0.1,0.2,0.3,0.3,0.5,0.4
			c0.2,0.1,0.4,0.1,0.7,0.1c0.2,0,0.5,0,0.7-0.1c0.2-0.1,0.4-0.2,0.5-0.4c0.1-0.2,0.3-0.3,0.4-0.6c0.1-0.2,0.1-0.4,0.1-0.7
			C82.3,51.5,82.3,51.3,82.2,51.1L82.2,51.1z M82.7,52.7L82.7,52.7c-0.1,0.3-0.3,0.5-0.5,0.7c-0.2,0.2-0.4,0.4-0.7,0.5
			c-0.3,0.1-0.6,0.2-0.9,0.2c-0.3,0-0.6-0.1-0.9-0.2c-0.3-0.1-0.5-0.3-0.7-0.5c-0.2-0.2-0.4-0.4-0.5-0.7c-0.1-0.3-0.2-0.6-0.2-0.9
			c0-0.3,0.1-0.6,0.2-0.9c0.1-0.3,0.3-0.5,0.5-0.7c0.2-0.2,0.4-0.4,0.7-0.5c0.3-0.1,0.6-0.2,0.9-0.2c0.3,0,0.6,0.1,0.9,0.2
			c0.3,0.1,0.5,0.3,0.7,0.5c0.2,0.2,0.4,0.4,0.5,0.7c0.1,0.3,0.2,0.6,0.2,0.9C82.9,52.1,82.8,52.4,82.7,52.7L82.7,52.7z"/>
		<path class="st1" d="M87.3,51.1c-0.1-0.2-0.2-0.4-0.4-0.6c-0.1-0.2-0.3-0.3-0.5-0.4C86.2,50.1,86,50,85.8,50c-0.2,0-0.5,0-0.7,0.1
			c-0.2,0.1-0.4,0.2-0.5,0.4c-0.1,0.2-0.3,0.3-0.4,0.6c-0.1,0.2-0.1,0.4-0.1,0.7c0,0.2,0,0.5,0.1,0.7c0.1,0.2,0.2,0.4,0.4,0.6
			c0.1,0.2,0.3,0.3,0.5,0.4c0.2,0.1,0.4,0.1,0.7,0.1c0.2,0,0.5,0,0.7-0.1c0.2-0.1,0.4-0.2,0.5-0.4c0.1-0.2,0.3-0.3,0.4-0.6
			c0.1-0.2,0.1-0.4,0.1-0.7C87.4,51.5,87.4,51.3,87.3,51.1L87.3,51.1z M87.9,54.5L87.9,54.5c-0.1,0.3-0.2,0.5-0.4,0.7
			c-0.2,0.2-0.4,0.4-0.7,0.5c-0.3,0.1-0.6,0.2-1,0.2c-0.3,0-0.6,0-0.9-0.1c-0.3,0-0.5-0.1-0.8-0.2c-0.1-0.1-0.2-0.1-0.2-0.2
			c0,0,0-0.1,0-0.1c0-0.1,0.1-0.2,0.2-0.2c0,0,0.1,0,0.1,0c0.5,0.2,1,0.3,1.5,0.3c0.3,0,0.6,0,0.8-0.1c0.2-0.1,0.4-0.2,0.6-0.4
			c0.1-0.2,0.3-0.3,0.3-0.5c0.1-0.2,0.1-0.4,0.1-0.7v-0.6c-0.2,0.3-0.4,0.5-0.7,0.7c-0.3,0.2-0.7,0.3-1,0.3c-0.3,0-0.6-0.1-0.9-0.2
			c-0.3-0.1-0.5-0.3-0.7-0.5c-0.2-0.2-0.4-0.4-0.5-0.7c-0.1-0.3-0.2-0.6-0.2-0.9c0-0.3,0.1-0.6,0.2-0.9c0.1-0.3,0.3-0.5,0.5-0.7
			c0.2-0.2,0.4-0.4,0.7-0.5c0.3-0.1,0.6-0.2,0.9-0.2c0.4,0,0.7,0.1,1,0.3c0.3,0.2,0.5,0.4,0.7,0.7v-0.6c0-0.1,0-0.2,0.1-0.2
			c0.1-0.1,0.1-0.1,0.2-0.1c0.1,0,0.2,0,0.2,0.1c0.1,0.1,0.1,0.1,0.1,0.2v3.7C88,53.9,88,54.2,87.9,54.5L87.9,54.5z"/>
		<path class="st1" d="M90.3,53.9C90.2,54,90.2,54,90.1,54c-0.1,0-0.2,0-0.2-0.1c-0.1-0.1-0.1-0.1-0.1-0.2v-3.9c0-0.1,0-0.2,0.1-0.2
			c0.1-0.1,0.1-0.1,0.2-0.1c0.1,0,0.2,0,0.2,0.1c0.1,0.1,0.1,0.1,0.1,0.2v3.9C90.4,53.8,90.4,53.9,90.3,53.9L90.3,53.9z M90.3,48.3
			L90.3,48.3c-0.1,0.1-0.1,0.1-0.2,0.1c-0.1,0-0.2,0-0.3-0.1c-0.1-0.1-0.1-0.2-0.1-0.3c0-0.1,0-0.2,0.1-0.3c0.1-0.1,0.2-0.1,0.3-0.1
			c0.1,0,0.2,0,0.2,0.1c0.1,0.1,0.1,0.2,0.1,0.3C90.4,48.1,90.4,48.2,90.3,48.3L90.3,48.3z"/>
		<path class="st1" d="M95.7,53.2c-0.2,0.3-0.5,0.5-0.8,0.6c-0.3,0.2-0.6,0.2-1,0.2c-0.3,0-0.6-0.1-0.9-0.2
			c-0.3-0.1-0.5-0.3-0.7-0.5c-0.2-0.2-0.4-0.4-0.5-0.7c-0.1-0.3-0.2-0.6-0.2-0.9c0-0.3,0.1-0.6,0.2-0.9c0.1-0.3,0.3-0.5,0.5-0.7
			c0.2-0.2,0.4-0.4,0.7-0.5c0.3-0.1,0.6-0.2,0.9-0.2c0.6,0,1.1,0.2,1.6,0.6c0.1,0.1,0.1,0.1,0.1,0.2c0,0.1,0,0.1-0.1,0.2
			c-0.1,0.1-0.1,0.1-0.2,0.1c-0.1,0-0.1,0-0.2,0c-0.2-0.2-0.4-0.3-0.6-0.4c-0.2-0.1-0.4-0.1-0.7-0.1c-0.2,0-0.5,0-0.7,0.1
			c-0.2,0.1-0.4,0.2-0.5,0.4c-0.1,0.2-0.3,0.3-0.4,0.6c-0.1,0.2-0.1,0.4-0.1,0.7c0,0.2,0,0.5,0.1,0.7c0.1,0.2,0.2,0.4,0.4,0.6
			c0.1,0.2,0.3,0.3,0.5,0.4c0.2,0.1,0.4,0.1,0.7,0.1c0.3,0,0.6-0.1,0.8-0.2c0.2-0.1,0.4-0.3,0.6-0.5c0-0.1,0.1-0.1,0.2-0.1
			c0.1,0,0.1,0,0.2,0.1c0,0,0.1,0.1,0.1,0.2C95.7,53.1,95.7,53.1,95.7,53.2L95.7,53.2z"/>
		<path class="st1" d="M99.6,52.2c-0.1-0.1-0.2-0.2-0.3-0.3c-0.1-0.1-0.3-0.1-0.4-0.2c-0.2,0-0.3,0-0.5,0c-0.2,0-0.3,0-0.5,0.1
			c-0.2,0-0.3,0.1-0.4,0.2c-0.1,0.1-0.2,0.2-0.3,0.3c-0.1,0.1-0.1,0.3-0.1,0.4c0,0.2,0,0.3,0.1,0.4c0.1,0.1,0.2,0.2,0.3,0.3
			c0.1,0.1,0.3,0.1,0.4,0.2c0.2,0,0.3,0.1,0.5,0.1c0.2,0,0.4,0,0.5-0.1c0.2,0,0.3-0.1,0.4-0.2c0.1-0.1,0.2-0.2,0.3-0.3
			c0.1-0.1,0.1-0.3,0.1-0.4C99.7,52.4,99.6,52.3,99.6,52.2L99.6,52.2z M100.2,53.9L100.2,53.9c-0.1,0.1-0.1,0.1-0.2,0.1
			c-0.1,0-0.2,0-0.2-0.1c-0.1-0.1-0.1-0.1-0.1-0.2v-0.3c-0.1,0.2-0.3,0.3-0.6,0.4c-0.3,0.1-0.6,0.2-0.9,0.2c-0.3,0-0.5,0-0.7-0.1
			c-0.2-0.1-0.4-0.2-0.6-0.3c-0.2-0.1-0.3-0.3-0.4-0.5c-0.1-0.2-0.1-0.4-0.1-0.6c0-0.2,0-0.4,0.1-0.6c0.1-0.2,0.2-0.3,0.4-0.5
			c0.2-0.1,0.3-0.2,0.6-0.3c0.2-0.1,0.4-0.1,0.7-0.1c0.3,0,0.6,0,0.9,0.1c0.3,0.1,0.5,0.2,0.6,0.4v-0.5c0-0.4-0.1-0.7-0.3-0.9
			c-0.2-0.2-0.6-0.3-1-0.3c-0.3,0-0.5,0-0.7,0.1c-0.2,0.1-0.4,0.1-0.7,0.2c0,0-0.1,0-0.1,0c-0.1,0-0.2,0-0.2-0.1c0,0,0-0.1,0-0.1
			c0-0.1,0-0.2,0.1-0.2c0.1-0.1,0.2-0.1,0.4-0.2c0.1-0.1,0.3-0.1,0.4-0.1c0.1,0,0.3-0.1,0.4-0.1c0.1,0,0.3,0,0.4,0
			c0.6,0,1.1,0.1,1.4,0.4c0.3,0.3,0.5,0.7,0.5,1.3v2.5C100.3,53.8,100.2,53.9,100.2,53.9L100.2,53.9z"/>
		<path class="st1" d="M44.5,58.1c-4.4,0-8.1,3.6-8.1,8.1c0,4.5,3.6,8.1,8.1,8.1c4.4,0,8.1-3.6,8.1-8.1
			C52.5,61.7,48.9,58.1,44.5,58.1L44.5,58.1z"/>
		<path class="st1" d="M35.2,58.9c0.4-0.8,1.1-2.4,1.1-3.7c0-1.4-0.5-3-2.7-3.8c0,0-2.1-0.7-3.5-0.2c0,0,0.8-4.1-4.1-5.7
			c-2.5-0.8-4.1-0.6-6.4,0.6c-2.3,1.2-9.6,7.9-9.4,19.1c0.2,10.1,5.1,16.6,7.7,19.4c0.9,1,1.9,1.2,3,0.7c0.8-0.4,0.9-1.7,0.1-3.1
			c-0.8-1.3-5.2-6.6-5.4-16.8c-0.2-9.6,5.8-15.9,6.9-16.7c1.4-1.1,2.5-1.2,3.2-0.9c1.1,0.4,1.8,1.6,0.8,3.2c-1,1.6-6.1,6.4-6.1,14.3
			c0,8.6,3.3,11.9,5.1,14.2c0.9,1.1,2.1,1.6,3.2,1c1-0.6,0.7-1.9,0-2.9c-3.2-4.7-3.5-7.5-3.4-12.2c0.1-5.4,3.2-9.7,4.3-11.1
			c0.9-1.2,2-1.4,2.8-1c0.9,0.4,1,1.6,0.3,2.8c-0.9,1.4-3.3,5.4-3.3,9.1c-0.1,3.5,1.5,7.6,3.9,10c0.5,0.5,1.8,1.3,2.7,0.8
			c0.9-0.5,0.9-1.7,0.2-2.6c-2-2.8-2.6-4.4-2.7-7.9C33.2,64.4,33.7,61.7,35.2,58.9L35.2,58.9z"/>
		<path class="st1" d="M61.8,70.3c-2.2,0-4-1.9-4-4.2c0-2.3,1.8-4.2,4-4.2c2.2,0,4,1.9,4,4.2C65.8,68.4,64,70.3,61.8,70.3L61.8,70.3
			z M62.5,58.1L62.5,58.1c-1.7,0-3.3,0.7-4.5,1.8v-8.1c0-1.2-0.9-2.1-2.1-2.1c-1.2,0-2.1,0.9-2.1,2.1c0,0,0,5.2,0,7
			c0,1.6,0.8,2,1.3,4c0.2,0.9,0.4,1.9,0.4,2.9c0,1.5-0.3,2.9-0.8,4.1c-0.3,0.8-0.8,1.3-0.8,2c0,1,1,1.9,2,1.9c1,0,1.8-0.7,2-1.6
			c1.2,1.2,2.8,1.9,4.5,1.9c3.9,0,7-3.6,7-7.9C69.6,61.6,66.4,58.1,62.5,58.1L62.5,58.1z"/>
		<path class="st1" d="M83.8,58.3c-1.2,0-2.1,0.9-2.1,2.1v4.5v1.8c0,0,0,0.9-0.1,1.2c-0.3,0.8-1,2.3-3.1,2.3c-2.9,0-3.2-2.8-3.2-5.3
			v-4.5c0-1.2-0.9-2.1-2.1-2.1c-1.2,0-2.1,0.9-2.1,2.1v4.5v2.6c0,0,0,1.1,0.1,1.5c0.3,1.3,1.3,4.1,5.1,4.9c0,0,3.4,0.6,5.5-2.2v0.1
			c0,1.2,0.9,2.1,2.1,2.1c1.2,0,2.1-0.9,2.1-2.1v-4.3v-0.2v-2.4v-0.2v-4.3C85.9,59.2,84.9,58.3,83.8,58.3L83.8,58.3z"/>
		<path class="st1" d="M97.5,61.7c2.1,0.8,2.6-0.2,2.8-0.5c0.3-0.7-0.1-1.8-1.4-2.3c-1.7-0.7-5-1.5-8,0c-2.6,1.4-2.6,3.6-1.9,5.2
			c0.7,1.4,1.6,1.7,2.8,2.3c0.8,0.4,1.5,0.6,2.6,1.1c1.6,0.7,3.1,1.1,2.4,2.4c-0.5,0.9-2.7,1-4,0.6c-0.6-0.2-1.4-0.5-2.3-0.9
			c-0.9-0.4-1.8-0.6-2.5,0.6c0,0-0.4,0.8,0.1,1.5c0.2,0.3,0.5,0.6,1,0.9c1.4,0.8,3.9,1.3,5.8,1.3c4.3-0.2,5.9-2.8,5.8-5.3
			c-0.1-2-1.8-3.1-4.5-4c0,0-1.7-0.7-2.8-1.1c-0.6-0.2-1.2-0.8-0.9-1.5C93,60.8,95.5,60.9,97.5,61.7L97.5,61.7z"/>
		<path class="st1" d="M111.8,61.7c2.1,0.8,2.6-0.2,2.8-0.5c0.3-0.7-0.1-1.8-1.4-2.3c-1.7-0.7-5-1.5-8,0c-2.6,1.4-2.6,3.6-1.9,5.2
			c0.7,1.4,1.6,1.7,2.8,2.3c0.8,0.4,1.5,0.6,2.6,1.1c1.6,0.7,3.1,1.1,2.4,2.4c-0.5,0.9-2.7,1-4,0.6c-0.6-0.2-1.4-0.5-2.3-0.9
			c-0.9-0.4-1.8-0.6-2.5,0.6c0,0-0.4,0.8,0.1,1.5c0.2,0.3,0.5,0.6,1,0.9c1.4,0.8,3.9,1.3,5.8,1.3c4.3-0.2,5.9-2.8,5.8-5.3
			c-0.1-2-1.8-3.1-4.5-4c0,0-1.7-0.7-2.8-1.1c-0.6-0.2-1.2-0.8-0.9-1.5C107.3,60.8,109.9,60.9,111.8,61.7L111.8,61.7z"/>
	</g>
	<g>
		<path class="st1" d="M40,90.5V85h3.8c0.6,0,1.2-0.1,1.7-0.3c0.5-0.2,0.9-0.5,1.2-0.8c0.3-0.4,0.6-0.8,0.8-1.2
			c0.2-0.5,0.3-1,0.3-1.5c0-0.5-0.1-1-0.3-1.5c-0.2-0.5-0.4-0.9-0.8-1.2c-0.3-0.4-0.8-0.6-1.2-0.8c-0.5-0.2-1.1-0.3-1.7-0.3h-4.9
			v13.2H40L40,90.5z M43.7,84H40v-5.6h3.7c0.6,0,1.1,0.1,1.5,0.4c0.4,0.2,0.8,0.6,1,1c0.2,0.4,0.4,0.9,0.4,1.5c0,0.5-0.1,1-0.4,1.5
			c-0.2,0.4-0.6,0.8-1,1C44.8,83.8,44.3,84,43.7,84L43.7,84z"/>
		<polygon class="st1" points="51.1,90.5 51.1,77.3 50.1,77.3 50.1,90.5 51.1,90.5 		"/>
		<path class="st1" d="M61.4,90.5v-6.7c0-0.5-0.1-1-0.3-1.4c-0.2-0.4-0.4-0.7-0.7-1c-0.3-0.3-0.7-0.4-1.1-0.6
			c-0.4-0.1-0.9-0.2-1.4-0.2c-0.5,0-1,0.1-1.4,0.2c-0.4,0.1-0.8,0.3-1.2,0.5c-0.4,0.2-0.7,0.5-1,0.9l0.6,0.7
			c0.4-0.5,0.9-0.9,1.4-1.1c0.5-0.2,1-0.3,1.6-0.3c0.4,0,0.7,0,1,0.1c0.3,0.1,0.6,0.2,0.8,0.4c0.2,0.2,0.4,0.4,0.5,0.7
			c0.1,0.3,0.2,0.6,0.2,1v1.9c-0.4-0.5-0.9-0.8-1.4-1c-0.5-0.2-1.1-0.3-1.8-0.3c-0.4,0-0.8,0.1-1.2,0.2c-0.4,0.1-0.8,0.3-1.1,0.6
			c-0.3,0.3-0.6,0.6-0.8,1c-0.2,0.4-0.3,0.8-0.3,1.4c0,0.5,0.1,1,0.3,1.4c0.2,0.4,0.4,0.7,0.8,1c0.3,0.3,0.7,0.5,1.1,0.6
			c0.4,0.1,0.8,0.2,1.2,0.2c0.7,0,1.3-0.1,1.8-0.3c0.5-0.2,1-0.6,1.4-1v1.1H61.4L61.4,90.5z M57.5,89.9c-0.5,0-1-0.1-1.4-0.3
			c-0.4-0.2-0.7-0.5-0.9-0.8c-0.2-0.4-0.3-0.8-0.3-1.2c0-0.5,0.1-0.9,0.3-1.2c0.2-0.4,0.5-0.6,0.9-0.8c0.4-0.2,0.8-0.3,1.4-0.3
			c0.4,0,0.8,0,1.1,0.1c0.4,0.1,0.7,0.2,1,0.4c0.3,0.2,0.6,0.4,0.8,0.7v2.1c-0.2,0.3-0.5,0.5-0.8,0.7c-0.3,0.2-0.6,0.3-1,0.4
			C58.2,89.8,57.9,89.9,57.5,89.9L57.5,89.9z"/>
		<path class="st1" d="M66.7,90.7c0.4,0,0.7-0.1,1-0.2c0.3-0.1,0.5-0.2,0.7-0.4l-0.4-0.8c-0.1,0.1-0.3,0.2-0.4,0.3
			c-0.2,0.1-0.4,0.1-0.6,0.1c-0.2,0-0.4-0.1-0.6-0.2c-0.1-0.1-0.3-0.3-0.3-0.5c-0.1-0.2-0.1-0.4-0.1-0.7v-6.6h1.9v-0.9h-1.9v-2.6h-1
			v2.6h-1.6v0.9h1.6v6.8c0,0.7,0.2,1.2,0.5,1.5C65.6,90.5,66,90.7,66.7,90.7L66.7,90.7z"/>
		<path class="st1" d="M77.1,90.5v-6.7c0-0.5-0.1-1-0.3-1.4c-0.2-0.4-0.4-0.7-0.7-1c-0.3-0.3-0.7-0.4-1.1-0.6
			c-0.4-0.1-0.9-0.2-1.4-0.2c-0.5,0-1,0.1-1.4,0.2c-0.4,0.1-0.8,0.3-1.2,0.5c-0.4,0.2-0.7,0.5-1,0.9l0.6,0.7
			c0.4-0.5,0.9-0.9,1.4-1.1c0.5-0.2,1-0.3,1.6-0.3c0.4,0,0.7,0,1,0.1c0.3,0.1,0.6,0.2,0.8,0.4c0.2,0.2,0.4,0.4,0.5,0.7
			c0.1,0.3,0.2,0.6,0.2,1v1.9c-0.4-0.5-0.9-0.8-1.4-1c-0.5-0.2-1.1-0.3-1.8-0.3c-0.4,0-0.8,0.1-1.2,0.2c-0.4,0.1-0.8,0.3-1.1,0.6
			c-0.3,0.3-0.6,0.6-0.8,1c-0.2,0.4-0.3,0.8-0.3,1.4c0,0.5,0.1,1,0.3,1.4c0.2,0.4,0.4,0.7,0.8,1c0.3,0.3,0.7,0.5,1.1,0.6
			c0.4,0.1,0.8,0.2,1.2,0.2c0.7,0,1.3-0.1,1.8-0.3c0.5-0.2,1-0.6,1.4-1v1.1H77.1L77.1,90.5z M73.2,89.9c-0.5,0-1-0.1-1.4-0.3
			s-0.7-0.5-0.9-0.8c-0.2-0.4-0.3-0.8-0.3-1.2c0-0.5,0.1-0.9,0.3-1.2c0.2-0.4,0.5-0.6,0.9-0.8c0.4-0.2,0.8-0.3,1.4-0.3
			c0.4,0,0.8,0,1.1,0.1c0.4,0.1,0.7,0.2,1,0.4c0.3,0.2,0.6,0.4,0.8,0.7v2.1c-0.2,0.3-0.5,0.5-0.8,0.7c-0.3,0.2-0.6,0.3-1,0.4
			C74,89.8,73.6,89.9,73.2,89.9L73.2,89.9z"/>
		<path class="st1" d="M81.7,90.5v-8.6h1.9v-0.9h-1.9v-0.9c0-0.6,0.1-1.1,0.4-1.5c0.3-0.4,0.7-0.5,1.2-0.5c0.3,0,0.5,0,0.7,0.1
			c0.2,0.1,0.4,0.2,0.5,0.4l0.5-0.8c-0.3-0.3-0.6-0.4-0.9-0.5s-0.6-0.1-0.9-0.1c-0.5,0-1,0.1-1.4,0.4c-0.4,0.2-0.7,0.6-0.9,1
			c-0.2,0.4-0.3,1-0.3,1.6v0.9h-1.6v0.9h1.6v8.6H81.7L81.7,90.5z"/>
		<path class="st1" d="M89.6,90.7c0.7,0,1.3-0.1,1.9-0.4c0.6-0.3,1-0.6,1.5-1.1c0.4-0.5,0.7-1,0.9-1.6c0.2-0.6,0.3-1.3,0.3-2
			c0-0.7-0.1-1.4-0.3-2c-0.2-0.6-0.5-1.1-0.9-1.6c-0.4-0.5-0.9-0.8-1.5-1.1c-0.6-0.3-1.2-0.4-1.9-0.4c-0.7,0-1.3,0.1-1.9,0.4
			c-0.6,0.3-1,0.6-1.4,1.1c-0.4,0.5-0.7,1-0.9,1.6c-0.2,0.6-0.3,1.3-0.3,2c0,0.7,0.1,1.4,0.3,2c0.2,0.6,0.5,1.1,0.9,1.6
			c0.4,0.5,0.9,0.8,1.4,1.1C88.2,90.6,88.9,90.7,89.6,90.7L89.6,90.7z M89.6,89.8c-0.6,0-1-0.1-1.5-0.3c-0.4-0.2-0.8-0.5-1.1-0.9
			c-0.3-0.4-0.5-0.8-0.7-1.3c-0.2-0.5-0.2-1-0.2-1.5c0-0.5,0.1-1,0.2-1.5c0.2-0.5,0.4-0.9,0.7-1.3c0.3-0.4,0.7-0.7,1.1-0.9
			c0.4-0.2,0.9-0.3,1.5-0.3c0.6,0,1.1,0.1,1.5,0.3c0.4,0.2,0.8,0.5,1.1,0.9c0.3,0.4,0.5,0.8,0.7,1.3c0.2,0.5,0.2,1,0.2,1.5
			c0,0.5-0.1,1-0.2,1.5c-0.2,0.5-0.4,0.9-0.7,1.3c-0.3,0.4-0.7,0.7-1.1,0.9C90.6,89.7,90.1,89.8,89.6,89.8L89.6,89.8z"/>
		<path class="st1" d="M97.8,90.5v-6.9c0.1-0.2,0.3-0.4,0.5-0.6c0.2-0.2,0.4-0.4,0.7-0.5c0.3-0.2,0.5-0.3,0.8-0.4
			c0.3-0.1,0.5-0.1,0.8-0.1c0.1,0,0.2,0,0.3,0c0.1,0,0.2,0,0.3,0v-1.1c-0.4,0-0.9,0.1-1.2,0.2c-0.4,0.2-0.7,0.4-1.1,0.6
			c-0.3,0.3-0.6,0.6-0.9,1v-1.6h-1v9.5H97.8L97.8,90.5z"/>
		<path class="st1" d="M115.5,90.5v-6.9c0-1-0.2-1.7-0.6-2.2c-0.4-0.5-1.1-0.7-2-0.7c-0.3,0-0.7,0.1-1,0.2c-0.3,0.1-0.6,0.2-0.9,0.4
			c-0.3,0.2-0.5,0.4-0.7,0.6c-0.2,0.2-0.4,0.4-0.5,0.7c-0.1-0.3-0.2-0.6-0.4-0.9c-0.2-0.3-0.5-0.5-0.8-0.7c-0.3-0.2-0.8-0.3-1.3-0.3
			c-0.3,0-0.7,0.1-1,0.2c-0.3,0.1-0.6,0.3-0.9,0.4c-0.3,0.2-0.5,0.4-0.7,0.5c-0.2,0.2-0.4,0.4-0.5,0.5v-1.4h-1v9.5h1v-7.2
			c0.2-0.3,0.4-0.6,0.7-0.8c0.3-0.2,0.6-0.4,1-0.6c0.3-0.1,0.7-0.2,1-0.2c0.4,0,0.8,0.1,1.1,0.3c0.3,0.2,0.5,0.4,0.6,0.7
			c0.1,0.3,0.2,0.7,0.2,1.2v6.7h1v-7.2c0.2-0.3,0.4-0.6,0.7-0.8c0.3-0.2,0.6-0.4,1-0.6c0.3-0.1,0.7-0.2,1-0.2c0.4,0,0.8,0.1,1.1,0.3
			c0.3,0.2,0.5,0.4,0.6,0.7c0.1,0.3,0.2,0.7,0.2,1.2v6.7H115.5L115.5,90.5z"/>
		<path class="st1" d="M125.7,90.5v-6.7c0-0.5-0.1-1-0.3-1.4c-0.2-0.4-0.4-0.7-0.7-1c-0.3-0.3-0.7-0.4-1.1-0.6
			c-0.4-0.1-0.9-0.2-1.4-0.2c-0.5,0-1,0.1-1.4,0.2c-0.4,0.1-0.8,0.3-1.2,0.5c-0.4,0.2-0.7,0.5-1,0.9l0.6,0.7
			c0.4-0.5,0.9-0.9,1.4-1.1c0.5-0.2,1-0.3,1.6-0.3c0.4,0,0.7,0,1,0.1c0.3,0.1,0.6,0.2,0.8,0.4c0.2,0.2,0.4,0.4,0.5,0.7
			c0.1,0.3,0.2,0.6,0.2,1v1.9c-0.4-0.5-0.9-0.8-1.4-1c-0.5-0.2-1.1-0.3-1.8-0.3c-0.4,0-0.8,0.1-1.2,0.2c-0.4,0.1-0.8,0.3-1.1,0.6
			c-0.3,0.3-0.6,0.6-0.8,1c-0.2,0.4-0.3,0.8-0.3,1.4c0,0.5,0.1,1,0.3,1.4c0.2,0.4,0.4,0.7,0.8,1c0.3,0.3,0.7,0.5,1.1,0.6
			c0.4,0.1,0.8,0.2,1.2,0.2c0.7,0,1.3-0.1,1.8-0.3c0.5-0.2,1-0.6,1.4-1v1.1H125.7L125.7,90.5z M121.8,89.9c-0.5,0-1-0.1-1.4-0.3
			s-0.7-0.5-0.9-0.8c-0.2-0.4-0.3-0.8-0.3-1.2c0-0.5,0.1-0.9,0.3-1.2c0.2-0.4,0.5-0.6,0.9-0.8c0.4-0.2,0.8-0.3,1.4-0.3
			c0.4,0,0.8,0,1.1,0.1c0.4,0.1,0.7,0.2,1,0.4c0.3,0.2,0.6,0.4,0.8,0.7v2.1c-0.2,0.3-0.5,0.5-0.8,0.7c-0.3,0.2-0.6,0.3-1,0.4
			C122.6,89.8,122.2,89.9,121.8,89.9L121.8,89.9z"/>
	</g>
</g>
</svg>
