<svg id="Camada_1" data-name="Camada 1" xmlns="http://www.w3.org/2000/svg" viewBox="0 0 150 150"><defs><style>.cls-1{fill:#2d6690;}.cls-2{fill:#fff;}</style></defs><title>sem-titulo-6</title><circle class="cls-1" cx="75" cy="75" r="75"/><path class="cls-2" d="M97.88,76.39a6,6,0,0,0-1.83,11.7v6.78a14.81,14.81,0,0,1-29.62,0V83.72A18.44,18.44,0,0,0,83.07,65.33v-3l0.11-.36-0.11.19V44.53a6,6,0,0,0-6-6H75.15a4.32,4.32,0,0,0-1.19-1,5.39,5.39,0,0,0-2.71-.82,3.71,3.71,0,0,0,0,7.41A5.41,5.41,0,0,0,74,43.25a4.34,4.34,0,0,0,1.19-1h1.93a2.33,2.33,0,0,1,2.33,2.33V61.17a14.81,14.81,0,1,1-29.62,0V44.53a2.33,2.33,0,0,1,2.33-2.33h1.93a4.39,4.39,0,0,0,1.18,1,5.39,5.39,0,0,0,2.71.82,3.7,3.7,0,1,0,0-7.41,5.4,5.4,0,0,0-2.7.82,4.35,4.35,0,0,0-1.19,1H52.12a6,6,0,0,0-6,6v17.6L46,61.94l0.11,0.36v3A18.44,18.44,0,0,0,62.77,83.72V94.86a18.47,18.47,0,0,0,36.95,0V88.09A6,6,0,0,0,97.88,76.39Zm-26.63-36V40.33a1,1,0,0,1,.23,0Zm9.82,24.11v0.81c0,0.09,0,.17,0,0.26l-0.53.92A16.66,16.66,0,0,0,81.07,64.52ZM57.94,40.33v0.08a1,1,0,0,1-.23,0A1,1,0,0,1,57.94,40.33ZM48.13,65.59c0-.09,0-0.17,0-0.26V64.52a16.58,16.58,0,0,0,.53,2ZM97.88,84.71a2.33,2.33,0,1,1,2.33-2.33A2.33,2.33,0,0,1,97.88,84.71Z"/></svg>