<svg id="Camada_1" data-name="Camada 1" xmlns="http://www.w3.org/2000/svg" viewBox="0 0 150 150"><defs><style>.cls-1{fill:#2d6690;}.cls-2{fill:#fff;}</style></defs><title>sem-titulo-6</title><circle class="cls-1" cx="75" cy="75" r="75"/><path class="cls-2" d="M63.16,57.19a13.44,13.44,0,0,0-2.94,8.37,6.82,6.82,0,0,0,.09,1.38l12.5-1.65Z"/><path class="cls-2" d="M82.93,57.47a12.24,12.24,0,0,0-18-.18L74,65Z"/><path class="cls-2" d="M108.92,39.34H39.08A5.13,5.13,0,0,0,34,44.47V90.06a5.13,5.13,0,0,0,5.13,5.13H84.26V89.85h-45V44.68h69.42V70.43h0V95.19h0.2A5.13,5.13,0,0,0,114,90.06V44.47A5.13,5.13,0,0,0,108.92,39.34ZM71.46,91.4h5.08a0.78,0.78,0,0,1,0,1.56H71.46A0.78,0.78,0,0,1,71.46,91.4ZM74,43.16a1.37,1.37,0,1,1,1.37-1.37A1.37,1.37,0,0,1,74,43.16Z"/><path class="cls-2" d="M106.77,64.38H85.62a2.93,2.93,0,0,0-3,3v49.58a2.93,2.93,0,0,0,3,3h21.22a2.93,2.93,0,0,0,3-3V67.33A3,3,0,0,0,106.77,64.38Zm-13.53,2.2h5.91a0.34,0.34,0,1,1,0,.69H93.24a0.32,0.32,0,0,1-.34-0.34A0.37,0.37,0,0,1,93.24,66.58Zm3,52a2,2,0,1,1,2-2A2,2,0,0,1,96.19,118.57Zm11.68-5.77a0.44,0.44,0,0,1-.41.41H84.93a0.44,0.44,0,0,1-.41-0.41V71.45A0.44,0.44,0,0,1,84.93,71h22.59a0.44,0.44,0,0,1,.41.41l-0.07,41.34h0Z"/><path class="cls-2" d="M81.57,66.24a3.42,3.42,0,0,1,3-3h0.07A11,11,0,0,0,82.65,59L74.28,66.2,63,67.67a11,11,0,0,0,18.6,5.81V66.24Z"/><path class="cls-2" d="M97.5,94L89,95a8.24,8.24,0,1,0,14.7-6.45Z"/><path class="cls-2" d="M89.19,87.22A10,10,0,0,0,87,93.47a5.07,5.07,0,0,0,.07,1l9.34-1.24Z"/><path class="cls-2" d="M104,87.43a9.15,9.15,0,0,0-13.46-.14l6.8,5.77Z"/></svg>