<svg id="Camada_1" data-name="Camada 1" xmlns="http://www.w3.org/2000/svg" viewBox="0 0 150 150"><defs><style>.cls-1{fill:#2d6690;}</style></defs><title>sem-titulo-6</title><path class="cls-1" d="M56.35,103.46a3.06,3.06,0,0,0,3.15-3,3.16,3.16,0,0,0-3.15-3.15,3,3,0,0,0-2.91,2.06A1.88,1.88,0,0,1,52,100.43a1.79,1.79,0,0,1,1.45,1A3,3,0,0,0,56.35,103.46Z"/><path class="cls-1" d="M56.35,86.63a3.15,3.15,0,1,0,0-6.3,3,3,0,0,0-2.91,2.06A1.88,1.88,0,0,1,52,83.48a1.88,1.88,0,0,1,1.45,1.09A3,3,0,0,0,56.35,86.63Z"/><path class="cls-1" d="M83.24,51.26V39.76h-32a4.75,4.75,0,0,0-4.72,4.84v1.45h4.24a6.53,6.53,0,0,1,5.57-3.39,7,7,0,0,1,7,7,6.93,6.93,0,0,1-7,6.9,6.53,6.53,0,0,1-5.57-3.39H46.54v9.69h4.24a6.69,6.69,0,0,1,5.57-3.39,7,7,0,1,1,0,14.05,6.69,6.69,0,0,1-5.57-3.39H46.54v9.69h4.24a6.69,6.69,0,0,1,5.57-3.39,7,7,0,1,1,0,14,6.69,6.69,0,0,1-5.57-3.39H46.54V96.8h4.24a6.53,6.53,0,0,1,5.57-3.39,7,7,0,0,1,7,7,6.93,6.93,0,0,1-7,6.9,6.57,6.57,0,0,1-5.57-3.27H46.54v1.33a4.75,4.75,0,0,0,4.72,4.84H98.74a4.75,4.75,0,0,0,4.72-4.84V60H92A8.74,8.74,0,0,1,83.24,51.26Z"/><path class="cls-1" d="M56.35,52.71a3.05,3.05,0,0,0,3.15-3,3.16,3.16,0,0,0-3.15-3.15,3,3,0,0,0-2.91,2.06A1.88,1.88,0,0,1,52,49.68a1.89,1.89,0,0,1,1.45,1A3,3,0,0,0,56.35,52.71Z"/><path class="cls-1" d="M56.35,69.67a3.15,3.15,0,1,0,0-6.3,3,3,0,0,0-2.91,2.06A1.88,1.88,0,0,1,52,66.52a1.88,1.88,0,0,1,1.45,1.09A3,3,0,0,0,56.35,69.67Z"/><path class="cls-1" d="M75,0a75,75,0,1,0,75,75A75,75,0,0,0,75,0Zm32.34,105.4a8.63,8.63,0,0,1-8.6,8.72H51.26a8.63,8.63,0,0,1-8.6-8.72v-3.27a1.87,1.87,0,0,1,1.7-1.7,1.87,1.87,0,0,1-1.7-1.7V85.17a1.87,1.87,0,0,1,1.7-1.7,1.87,1.87,0,0,1-1.7-1.7V68.22a1.87,1.87,0,0,1,1.7-1.7,1.87,1.87,0,0,1-1.7-1.7V51.26a1.86,1.86,0,0,1,1.7-1.58,1.87,1.87,0,0,1-1.7-1.7V44.6a8.63,8.63,0,0,1,8.6-8.72H85.17a1.78,1.78,0,0,1,1.33.48l20.35,20.35a1.78,1.78,0,0,1,.48,1.33V105.4Z"/><path class="cls-1" d="M92,56.1h8.72L87.11,42.54h0v8.72A4.86,4.86,0,0,0,92,56.1Z"/></svg>