<svg id="Camada_1" data-name="Camada 1" xmlns="http://www.w3.org/2000/svg" viewBox="0 0 150 150"><defs><style>.cls-1{fill:#2d6690;}</style></defs><title>sem-titulo-6</title><path class="cls-1" d="M75,0a75,75,0,1,0,75,75A75,75,0,0,0,75,0ZM85.24,96.64c-8.69,5.73-19.71,5.79-32.75.2a1.85,1.85,0,0,1-.23.2c-0.17.13-3.32,2.62-1.89,8.44a2,2,0,0,1-3.89,1C44.61,98.83,48.56,94.92,49.66,94c-5.58-13-5.52-24,.21-32.73C62.57,42,98.6,42,101.1,42a3.34,3.34,0,0,1,3.38,3.29C104.5,46.89,104.76,83.76,85.24,96.64Z"/><path class="cls-1" d="M55.43,65c-4.26,6.46-4.28,15-.11,25.28l8.5-8.49c2.08-6.47,1.51-12.31,0-15.26A0.67,0.67,0,0,1,65,65.88c1.35,2.63,2.23,7.7.74,13.94L75.54,70c1.37-4.29,1-8.15,0-10.09a0.67,0.67,0,0,1,1.19-.61,14.27,14.27,0,0,1,.66,8.85l5.29-5.29a0.67,0.67,0,1,1,.94.94l-5.29,5.29a14.28,14.28,0,0,1,8.85.66A0.67,0.67,0,1,1,86.57,71c-1.94-1-5.8-1.37-10.09,0l-9.79,9.79c6.23-1.49,11.3-.61,13.94.74A0.67,0.67,0,0,1,80,82.69c-2.94-1.51-8.79-2.08-15.26,0l-8.5,8.49c10.33,4.18,18.83,4.15,25.29-.11C95,82.21,97.32,57.79,97.72,48.79,88.72,49.2,64.27,51.55,55.43,65Z"/></svg>