<svg id="Camada_1" data-name="Camada 1" xmlns="http://www.w3.org/2000/svg" viewBox="0 0 150 150"><defs><style>.cls-1{fill:#2d6690;}</style></defs><title>sem-titulo-6</title><path class="cls-1" d="M75,39.18a24,24,0,1,0,24,24A24.07,24.07,0,0,0,75,39.18Zm0,13.2a10.82,10.82,0,0,0-10.8,10.8,3.2,3.2,0,0,1-6.4.1A17.28,17.28,0,0,1,75,46,3.2,3.2,0,1,1,75,52.38Z"/><path class="cls-1" d="M75,0a75,75,0,1,0,75,75A75,75,0,0,0,75,0ZM65,123.08a1,1,0,0,1-1.6.3l-4.6-6a1.68,1.68,0,0,0-1.1-.3l-7.2,2.1a0.9,0.9,0,0,1-1.1-1.1l6.1-18.8a6.36,6.36,0,0,0,4.5,1.9,5.66,5.66,0,0,0,1.8-.3l5.2-1.5,4,3.6c0.1,0.1.3,0.2,0.4,0.3Zm34.9-3.9-7.2-2.1a1,1,0,0,0-1,.3l-4.6,6a1,1,0,0,1-1.7-.3L79,103.28c0.1-.1.3-0.2,0.4-0.3l4-3.6,5.2,1.5a5.66,5.66,0,0,0,1.8.3,6.36,6.36,0,0,0,4.5-1.9l6.1,18.8A0.87,0.87,0,0,1,99.85,119.18Zm7.7-55,3.3,5.9a1.93,1.93,0,0,1-.6,2.5l-5.6,3.9a2.14,2.14,0,0,0-.8,1.7l0.5,6.8a1.86,1.86,0,0,1-1.6,2L96,88.08a2,2,0,0,0-1.5,1.2L92,95.58a1.82,1.82,0,0,1-2.3,1.1l-6.5-2a1.87,1.87,0,0,0-1.9.4l-5,4.6a1.87,1.87,0,0,1-2.6,0l-5-4.6a2.12,2.12,0,0,0-1.9-.4l-6.5,2a1.91,1.91,0,0,1-2.3-1.1l-2.5-6.3a2,2,0,0,0-1.5-1.2L47.35,87a1.81,1.81,0,0,1-1.6-2l0.4-6.8a1.69,1.69,0,0,0-.8-1.7l-5.6-3.9a1.88,1.88,0,0,1-.6-2.5l3.4-5.9a2.12,2.12,0,0,0,0-1.9l-3.3-5.9a1.93,1.93,0,0,1,.6-2.5l5.6-3.9a2.14,2.14,0,0,0,.8-1.7l-0.5-6.8a1.86,1.86,0,0,1,1.6-2l6.7-1.1a2,2,0,0,0,1.5-1.2l2.5-6.3a1.82,1.82,0,0,1,2.3-1.1l6.5,2a1.87,1.87,0,0,0,1.9-.4l5-4.6a1.87,1.87,0,0,1,2.6,0l5,4.6a2.12,2.12,0,0,0,1.9.4l6.5-2a1.91,1.91,0,0,1,2.3,1.1l2.5,6.3a2,2,0,0,0,1.5,1.2l6.8,1.1a1.81,1.81,0,0,1,1.6,2l-0.5,6.8a1.69,1.69,0,0,0,.8,1.7l5.5,3.9a1.88,1.88,0,0,1,.6,2.5l-3.3,5.9A2.12,2.12,0,0,0,107.55,64.18Z"/></svg>