<svg xmlns="http://www.w3.org/2000/svg" viewBox="0 0 64.2 64.33"><defs><style>.cls-1{isolation:isolate;}.cls-2{fill:#fff;mix-blend-mode:multiply;}</style></defs><title>sem-titulo-8</title><g class="cls-1"><g id="Camada_1" data-name="Camada 1"><path class="cls-2" d="M32.1,0.07a32.1,32.1,0,1,0,32.1,32.1A32.1,32.1,0,0,0,32.1.07Zm15.09,26q0,0.47,0,.94c0,9.61-7.32,20.69-20.69,20.69a20.58,20.58,0,0,1-11.15-3.27,14.75,14.75,0,0,0,1.73.1,14.59,14.59,0,0,0,9-3.11,7.28,7.28,0,0,1-6.79-5.05,7.29,7.29,0,0,0,3.28-.12,7.28,7.28,0,0,1-5.83-7.13s0-.06,0-0.09a7.24,7.24,0,0,0,3.29.91,7.28,7.28,0,0,1-2.25-9.71,20.65,20.65,0,0,0,15,7.6,7.28,7.28,0,0,1,12.39-6.63,14.56,14.56,0,0,0,4.62-1.76,7.29,7.29,0,0,1-3.2,4,14.54,14.54,0,0,0,4.18-1.15A14.78,14.78,0,0,1,47.19,26.07Z"/></g></g></svg>