<svg id="Camada_1" data-name="Camada 1" xmlns="http://www.w3.org/2000/svg" viewBox="0 0 150 150"><defs><style>.cls-1{fill:#2d6690;}</style></defs><title>sem-titulo-6</title><path class="cls-1" d="M79.7,63.91a11,11,0,1,0,11,11A11.06,11.06,0,0,0,79.7,63.91Z"/><path class="cls-1" d="M75,0.17A74.83,74.83,0,1,0,149.83,75,74.83,74.83,0,0,0,75,.17Zm37.91,50a8.21,8.21,0,0,1-3.09-.61L96.35,63a20.45,20.45,0,0,1-3.54,27.65l8.16,9.83a8.2,8.2,0,1,1-4.88,4.05L87.3,94a20.24,20.24,0,0,1-7.59,1.47q-0.74,0-1.51-.06l-2.12,6A8.18,8.18,0,1,1,70,99.43l2-5.51a20.64,20.64,0,0,1-9-7.2L45.41,99.19a8.06,8.06,0,0,1,.2,1.79,8.18,8.18,0,1,1-8.18-8.18A8.1,8.1,0,0,1,41.73,94L60.12,80.94a20.43,20.43,0,0,1,4.33-19.64L56.1,51.72a8.2,8.2,0,1,1,4.82-4.13l8.44,9.69A20.43,20.43,0,0,1,91.9,58.51l13.44-13.44A8.18,8.18,0,1,1,112.91,50.17Z"/></svg>