<svg id="Camada_1" data-name="Camada 1" xmlns="http://www.w3.org/2000/svg" viewBox="0 0 150 150"><defs><style>.cls-1{fill:#2d6690;}</style></defs><title>sem-titulo-6</title><path class="cls-1" d="M75,0a75,75,0,1,0,75,75A75,75,0,0,0,75,0Zm1.29,124.17a49,49,0,1,1,49-49A49,49,0,0,1,76.29,124.17Z"/><path class="cls-1" d="M76.29,30.62a44.55,44.55,0,1,0,44.55,44.55A44.55,44.55,0,0,0,76.29,30.62Zm24.3,55a7.59,7.59,0,0,0-2.71,5.65c-1.83,1.37-11.77,9.26-10.58,12.15-1.19,1.65.18,3.39-1.19,4.22-2.23,1.36-5.59-4.59-2.79-5.31-0.48-.52-1-1.57,0-3.2,0.45-.72.28-4.68,0.57-8.93-11.71-8.55.19-11.32-2.15-12.65-0.77-.44-2.1-2.35-4.44-2.77-1.91-.35-4.13.83-4.5-0.94-2-5.7-4.56-2.56-5.17-4.07-1.16-2.88-8.49-9.17-7.47-13.17,0.79-3.06-7.23-5.6-11.2-2.13,1.58-1.86,1.55-9.81,5.78-9,3.47,0.68,5.76-.82,7.85-0.53,4.19,0.58,2.39,1.54,6.29,2.52,2.2,0.55,6.87-2,10.23-.89a2.08,2.08,0,0,1,.74,3.26c-0.9,1.27-5.72,1.14-3.93,2.68,1.51,1.31,4.3,3.59,6.61,4.08s-0.21-5.38,2-6,9.81,5.41,8.83,6c-2.29,1.37,3.24,1.67,2.37,2.54-0.36.36-6.66-2.13-7.07-1.23-1.15,2.53,2.26.85,1.52,2.84-0.19.53-1.44,0.12-2.08,0.65-1.76,1.45-3.83,3.67-4.21,4-2.11,1.8-.69,2.85-1.37,3.42s-1.44-1.73-2-1.27c-1.9,1.51-5,1-5,2.23s3.15,1.23,4.28,1.82c1.44,0.76.78,2.24,1.16,2.24,2.32,0,4.43,4,4.43,4a5.72,5.72,0,0,0,4.13,1.34c6.46-.56,6.6,3.91,6.6,3.91C98.52,82.37,102,84.56,100.59,85.64Z"/></svg>