<svg id="Camada_1" data-name="Camada 1" xmlns="http://www.w3.org/2000/svg" viewBox="0 0 150 150"><defs><style>.cls-1{fill:#2d6690;}</style></defs><title>sem-titulo-6</title><path class="cls-1" d="M75,0a75,75,0,1,0,75,75A75,75,0,0,0,75,0Zm37.11,73.7A47.43,47.43,0,0,1,75.44,120l-0.36.08L74.57,120A47.43,47.43,0,0,1,37.89,73.7v-31l1.5-.07A63.78,63.78,0,0,0,74.08,30.55L75,29.88l0.92,0.67A63.8,63.8,0,0,0,110.6,42.64l1.5,0.07v31Z"/><path class="cls-1" d="M101.15,51.38a47,47,0,0,1-25.53-8.9L75,42l-0.62.44a47,47,0,0,1-25.53,8.9l-1,0V74.09A34.74,34.74,0,0,0,74.69,108l0.36,0.06,0.24-.06a34.74,34.74,0,0,0,26.86-33.94V51.43Zm-30,40.51L57.7,78.4l7.78-7.78,5.71,5.71L84.52,63l7.78,7.78Z"/></svg>