<svg id="Camada_1" data-name="Camada 1" xmlns="http://www.w3.org/2000/svg" viewBox="0 0 150 150"><defs><style>.cls-1{fill:#2d6690;}</style></defs><title>sem-titulo-6</title><path class="cls-1" d="M75,0a75,75,0,1,0,75,75A75,75,0,0,0,75,0ZM51,58.29a0.93,0.93,0,0,1,.12-0.42,0.87,0.87,0,0,1,.72-0.46H55a1.39,1.39,0,0,0,1.6-.8,1.74,1.74,0,0,0,0-.46V44.68A2.44,2.44,0,0,1,59,42.22H90.22a2.46,2.46,0,0,1,2.37,2.45V56.16a1.27,1.27,0,0,0,1.59,1.25h3.15a0.88,0.88,0,0,1,.72.46,0.92,0.92,0,0,1,.13.42V61c0,0.45-.42.45-0.85,0.45H89.85c-0.44,0-.46,0-0.46-0.45V47.67a1.77,1.77,0,0,0-1.68-1.45H61.47a1.75,1.75,0,0,0-1.66,1.45V61c0,0.45,0,.45-0.48.45H51.86c-0.44,0-.84,0-0.84-0.45V58.29Zm60.76,44,0,2.2a3.24,3.24,0,0,1-3.14,3.26H41.93A3.16,3.16,0,0,1,39,104.4V79.8H69.4v4.48A2.78,2.78,0,0,0,72,87h5.22a2.69,2.69,0,0,0,2.53-2.72V79.8h32v22.53ZM77.26,84.59H72a0.26,0.26,0,0,1-.24-0.32v-9A0.2,0.2,0,0,1,72,75h5.22c0.17,0,.13.07,0.13,0.24v9C77.4,84.45,77.44,84.59,77.26,84.59Zm36.91-7.19H79.8V75.24a2.62,2.62,0,0,0-2.53-2.64H72a2.71,2.71,0,0,0-2.64,2.64V77.4H35.83V67.71L46,56.61H49.3a0.6,0.6,0,0,0-.2.18,3.25,3.25,0,0,0-.48,1.5V61a3.06,3.06,0,0,0,3.24,2.85h7.48A2.75,2.75,0,0,0,62.21,61V56.61H87V61a2.73,2.73,0,0,0,2.85,2.85h7.49A3.08,3.08,0,0,0,100.58,61V58.29a3.22,3.22,0,0,0-.5-1.51,0.6,0.6,0,0,0-.2-0.17h4.24l10.06,11.1V77.4Z"/></svg>