<svg id="Camada_1" data-name="Camada 1" xmlns="http://www.w3.org/2000/svg" viewBox="0 0 150 150"><defs><style>.cls-1{fill:#2d6690;}.cls-2{fill:#fff;}</style></defs><title>sem-titulo-6</title><circle class="cls-1" cx="75" cy="75" r="75"/><path class="cls-2" d="M56.68,115.8a3.36,3.36,0,0,1-1.18-.21l-5.33-2.21a3.27,3.27,0,0,1-1.81-1.81,3.49,3.49,0,0,1-.07-2.55l1.43-3.47a28,28,0,0,1-6-6L40.31,101a3.43,3.43,0,0,1-4.41-1.9l-2.18-5.25a3.43,3.43,0,0,1,1.9-4.42l3.4-1.5a27.82,27.82,0,0,1,0-8.5L35.58,78a3.27,3.27,0,0,1-1.81-1.81,3.49,3.49,0,0,1-.07-2.55l2.63-5.52a3.4,3.4,0,0,1,4.33-1.82l3.47,1.43a28,28,0,0,1,6-6l-1.42-3.44a3.43,3.43,0,0,1,1.9-4.41l5.25-2.18a3.43,3.43,0,0,1,4.41,1.9L61.65,57a23.33,23.33,0,0,1,6.45-.2l1.15,0.13v1.16a5.6,5.6,0,0,0,4.68,5.43,1.42,1.42,0,0,1,1.26,1.41V65.4l-0.3.36a4.84,4.84,0,0,0-1,4.2l0.57,2.67L72,71.37a13.65,13.65,0,0,0-18.87,7,13.37,13.37,0,0,0,0,10.46A13.73,13.73,0,0,0,78.52,78.35l-0.1-.24v-2l1.83,0.37a6,6,0,0,0,1.27.18,5.21,5.21,0,0,0,3.21-1L86.81,74v1.91l0.11,0.64a5.66,5.66,0,0,0,4.83,4.75l1.13,0.14v1.14a34.9,34.9,0,0,1-.36,5.27L96,89.31a3.44,3.44,0,0,1,1.92,2,3.23,3.23,0,0,1-.25,2.55L95.5,99.12A3.42,3.42,0,0,1,91.14,101l-3.47-1.43a28,28,0,0,1-6,6l1.13,3.49a3.41,3.41,0,0,1-1.94,4.32l-5.25,2.18a3.43,3.43,0,0,1-4.41-1.9l-1.4-3.4a27.83,27.83,0,0,1-8.47,0l-1.41,3.43a3.27,3.27,0,0,1-1.81,1.81A3.57,3.57,0,0,1,56.68,115.8Zm-12-19.41,0.59,0.86A25.27,25.27,0,0,0,52,104l0.88,0.59L50.69,110a0.89,0.89,0,0,0,0,.61,0.71,0.71,0,0,0,.38.4l5.33,2.21a0.9,0.9,0,0,0,.6,0,0.71,0.71,0,0,0,.4-0.38l2.23-5.41,1,0.21a25.13,25.13,0,0,0,9.57,0l1-.2,2.21,5.37a0.88,0.88,0,0,0,1.06.45L79.86,111a0.88,0.88,0,0,0,.45-1.07l-1.74-5.37,0.8-.54a25.27,25.27,0,0,0,6.76-6.75l0.59-.88,5.37,2.21a0.88,0.88,0,0,0,1-.42l2.27-5.47a0.68,0.68,0,0,0,.09-0.55A0.9,0.9,0,0,0,95,91.68l-5.35-2.2,0.21-1a27.69,27.69,0,0,0,.48-4.76A8.19,8.19,0,0,1,84.8,78.6a8.1,8.1,0,0,1-3.23.66,16.32,16.32,0,1,1-22-10.74,16.66,16.66,0,0,1,11.62-.3,7.41,7.41,0,0,1,.72-2.58,8.23,8.23,0,0,1-5.16-6.35,20.86,20.86,0,0,0-5.62.45L60.08,60l-2.22-5.39a0.88,0.88,0,0,0-1.06-.45l-5.25,2.18a0.88,0.88,0,0,0-.45,1.07l2.19,5.32-0.86.59A25.25,25.25,0,0,0,45.67,70l-0.59.88-5.37-2.21a0.9,0.9,0,0,0-.61,0,0.71,0.71,0,0,0-.4.38l-2.63,5.52a0.88,0.88,0,0,0,.45.95l5.41,2.23-0.21,1a25.1,25.1,0,0,0,0,9.57l0.19,1-5.33,2.35a0.89,0.89,0,0,0-.47,1.08l2.18,5.25a0.88,0.88,0,0,0,1.07.45Zm21.06-1.91a10.75,10.75,0,0,1-4.12-.83,10.79,10.79,0,0,1,.06-20,10.86,10.86,0,0,1,14.06,5.87,10.69,10.69,0,0,1-5.88,14.09A10.35,10.35,0,0,1,65.74,94.49Zm0-19a8.43,8.43,0,0,0-3.1.59,8.25,8.25,0,1,0,10.74,4.48v0A8.19,8.19,0,0,0,65.73,75.48Zm29.74,3.39h-3a3.07,3.07,0,0,1-3.1-3.1V74.1a17.79,17.79,0,0,1-4.56-2l-1.21,1.29a3.24,3.24,0,0,1-4.35.11l-0.11-.11-2.07-2.2A3.22,3.22,0,0,1,77,66.94l1.27-1.28a16,16,0,0,1-1.85-4.61H74.81a3.07,3.07,0,0,1-3.1-3.1V55a3.07,3.07,0,0,1,3.1-3.1h1.68a17.8,17.8,0,0,1,2-4.59l-1.21-1.21a3.23,3.23,0,0,1-.08-4.32l0.11-.11,2.2-2.07a3.22,3.22,0,0,1,4.29-.05L85,40.81A16,16,0,0,1,89.65,39V37.3a3.07,3.07,0,0,1,3.1-3.1h3a3.07,3.07,0,0,1,3.1,3.1V39a17.8,17.8,0,0,1,4.59,2l1.21-1.21a3.23,3.23,0,0,1,4.32-.08l0.11,0.11,2.07,2.2a3.23,3.23,0,0,1,.05,4.29l-1.27,1.28a16,16,0,0,1,1.85,4.61h1.66a3.07,3.07,0,0,1,3.1,3.1v3a3.07,3.07,0,0,1-3.1,3.1h-1.68a17.8,17.8,0,0,1-2,4.59L111,67.12a3.23,3.23,0,0,1,.08,4.32l-0.11.11-2.19,2.07a3.22,3.22,0,0,1-4.29.05l-0.11-.11-1.2-1.28a16,16,0,0,1-4.58,1.83v1.66A3.07,3.07,0,0,1,95.46,78.87Zm-11-10.07,0.91,0.61a15.19,15.19,0,0,0,5.59,2.39L92,72v3.78a0.48,0.48,0,0,0,.52.52h3A0.48,0.48,0,0,0,96,75.78V72L97,71.79a13.45,13.45,0,0,0,5.54-2.23l0.92-.66,2.64,2.82a0.68,0.68,0,0,0,.79,0l2.15-2a0.69,0.69,0,0,0,0-.8l-2.69-2.69,0.59-.88a15.2,15.2,0,0,0,2.39-5.59l0.2-1.05h3.78a0.48,0.48,0,0,0,.52-0.52v-3a0.48,0.48,0,0,0-.52-0.52h-3.8l-0.19-1.07a13.46,13.46,0,0,0-2.23-5.54l-0.64-.89,2.71-2.71a0.68,0.68,0,0,0,0-.76l-2-2.15a0.69,0.69,0,0,0-.8,0l-2.69,2.69-0.88-.59a15.2,15.2,0,0,0-5.59-2.39l-1.05-.2V37.3a0.48,0.48,0,0,0-.52-0.52h-3a0.48,0.48,0,0,0-.52.52v3.79l-1.07.19a13.46,13.46,0,0,0-5.54,2.23l-0.89.64L82,41.44a0.68,0.68,0,0,0-.76,0l-2.15,2a0.69,0.69,0,0,0,0,.8l2.69,2.69-0.59.88a15.19,15.19,0,0,0-2.39,5.59l-0.2,1.05H74.81a0.48,0.48,0,0,0-.52.52v3a0.48,0.48,0,0,0,.52.52H78.6l0.19,1.07A13.47,13.47,0,0,0,81,65.08L81.66,66l-2.71,2.71a0.68,0.68,0,0,0,0,.76l2,2.15a0.69,0.69,0,0,0,.8,0ZM94,66a9.37,9.37,0,0,1-6.59-16,9.42,9.42,0,0,1,6.65-2.75,9.3,9.3,0,0,1,6.54,2.75h0A9.37,9.37,0,0,1,94,66ZM94,49.9a6.73,6.73,0,1,0,4.78,2h0a6.73,6.73,0,0,0-4.73-2H94Z"/></svg>