<svg id="Camada_1" data-name="Camada 1" xmlns="http://www.w3.org/2000/svg" viewBox="0 0 150 150"><defs><style>.cls-1{fill:#2d6690;}.cls-2{fill:#fff;}</style></defs><title>sem-titulo-6</title><circle class="cls-1" cx="75" cy="75" r="75"/><path class="cls-2" d="M81,87.57H43.79V79.41l13-14.07q2.46-2.65,4.47-4.89a41.16,41.16,0,0,0,3.45-4.36A19.57,19.57,0,0,0,67,51.77a13.82,13.82,0,0,0,.8-4.74,5.63,5.63,0,0,0-1.69-4.36,6.43,6.43,0,0,0-4.53-1.55,12.07,12.07,0,0,0-5.76,1.48A30,30,0,0,0,50,46.8l-6.37-7.55q1.71-1.55,3.56-3a24.14,24.14,0,0,1,9-4.29,25.23,25.23,0,0,1,6-.66,21.71,21.71,0,0,1,7.15,1.1,15.5,15.5,0,0,1,5.4,3.13,13.52,13.52,0,0,1,3.43,4.91A16.79,16.79,0,0,1,79.43,47a17.33,17.33,0,0,1-1.14,6.24A27.79,27.79,0,0,1,75.18,59a52.07,52.07,0,0,1-4.57,5.69q-2.6,2.83-5.56,5.74l-6.67,6.71v0.53H81v9.86Z"/><path class="cls-2" d="M90.37,41.35l3.69-1.06V34.95l-3.69-1.07V30.56l15.56,5v4L90.37,44.67V41.35Zm6.45-1.82,3.39-1,0.63-.19,1-.27,1.05-.27q0.53-.13.9-0.18l-0.55-.11-0.67-.16-0.72-.19L101.13,37l-0.56-.15-0.36-.1-3.39-1v3.78Z"/><path class="cls-2" d="M90.37,59.71V55.54l11.72-6.1v-0.1l-1.62.11L99,49.53l-1.36,0H90.37V46.62h15.5v4.14L94.26,56.85v0.06l1.59-.07,0.69,0,0.71,0,0.68,0h7.93v2.95H90.37Z"/><path class="cls-2" d="M98.14,76.83a11.92,11.92,0,0,1-3.26-.42,6.91,6.91,0,0,1-2.52-1.28A5.7,5.7,0,0,1,90.73,73a8.63,8.63,0,0,1,0-6.18,5.66,5.66,0,0,1,1.62-2.16,7,7,0,0,1,2.53-1.27,13,13,0,0,1,6.55,0,6.81,6.81,0,0,1,2.51,1.28,5.7,5.7,0,0,1,1.61,2.17,8.72,8.72,0,0,1,0,6.19,5.64,5.64,0,0,1-1.61,2.16,6.91,6.91,0,0,1-2.51,1.27A12,12,0,0,1,98.14,76.83Zm0-10.52a10.29,10.29,0,0,0-2.19.21,4.89,4.89,0,0,0-1.64.65,3,3,0,0,0-1,1.11,3.3,3.3,0,0,0-.36,1.59,3.38,3.38,0,0,0,.36,1.62,2.94,2.94,0,0,0,1,1.1,5,5,0,0,0,1.64.64,11.69,11.69,0,0,0,4.38,0,5,5,0,0,0,1.65-.64,2.94,2.94,0,0,0,1-1.1,3.33,3.33,0,0,0,.36-1.6,3.37,3.37,0,0,0-.36-1.6,3,3,0,0,0-1-1.12,5,5,0,0,0-1.65-.65A10.29,10.29,0,0,0,98.14,66.31Z"/><path class="cls-2" d="M94.67,88.52a4.72,4.72,0,0,1-1.87-.36,3.84,3.84,0,0,1-1.42-1,4.76,4.76,0,0,1-.91-1.67,7.44,7.44,0,0,1-.32-2.27A9.92,9.92,0,0,1,90.39,81a7.82,7.82,0,0,1,.7-1.93h3.05q-0.24.51-.47,1t-0.41,1.05A8.57,8.57,0,0,0,93,82.23a5.47,5.47,0,0,0-.11,1.07,3.11,3.11,0,0,0,.12.93,1.65,1.65,0,0,0,.34.63,1.3,1.3,0,0,0,.52.35,1.9,1.9,0,0,0,.66.11,1.56,1.56,0,0,0,.77-0.19,2.35,2.35,0,0,0,.63-0.52,5.25,5.25,0,0,0,.57-0.81q0.28-.47.58-1.05t0.61-1.09a5.85,5.85,0,0,1,.9-1.14,4.6,4.6,0,0,1,1.29-.9,4.2,4.2,0,0,1,1.82-.36,4.77,4.77,0,0,1,1.86.34,3.8,3.8,0,0,1,1.39,1,4.29,4.29,0,0,1,.86,1.54,6.5,6.5,0,0,1,.3,2,8,8,0,0,1-.07,1.1,9.07,9.07,0,0,1-.21,1.06,10.42,10.42,0,0,1-.34,1.05q-0.2.53-.47,1.09l-2.55-1.06q0.22-.48.39-0.89a8.53,8.53,0,0,0,.29-0.81,5.83,5.83,0,0,0,.17-0.77,4.94,4.94,0,0,0,.06-0.76,1.71,1.71,0,0,0-.44-1.27,1.58,1.58,0,0,0-1.17-.44,1.71,1.71,0,0,0-.69.13,1.69,1.69,0,0,0-.57.42,4.74,4.74,0,0,0-.54.75q-0.28.46-.63,1.12t-0.86,1.46a5.92,5.92,0,0,1-1,1.15,3.94,3.94,0,0,1-1.21.75A4.36,4.36,0,0,1,94.67,88.52Z"/><path class="cls-2" d="M49.74,101.34a6.87,6.87,0,0,1-.11,1.26,4.57,4.57,0,0,1-.33,1.07,3.47,3.47,0,0,1-.56.86,2.9,2.9,0,0,1-.79.63l2,2.27H47.74l-1.51-1.86H46a4.08,4.08,0,0,1-1.64-.3,3,3,0,0,1-1.15-.86,3.7,3.7,0,0,1-.68-1.34,6.92,6.92,0,0,1,0-3.48,3.62,3.62,0,0,1,.68-1.33,3,3,0,0,1,1.15-.85,4.63,4.63,0,0,1,3.29,0,3,3,0,0,1,1.15.86,3.67,3.67,0,0,1,.68,1.34A6.36,6.36,0,0,1,49.74,101.34Zm-5.59,0a5.47,5.47,0,0,0,.11,1.16,2.6,2.6,0,0,0,.35.87,1.61,1.61,0,0,0,.59.55,1.76,1.76,0,0,0,.85.19,1.8,1.8,0,0,0,.86-0.19,1.56,1.56,0,0,0,.59-0.55,2.64,2.64,0,0,0,.34-0.87,6.22,6.22,0,0,0,0-2.33,2.67,2.67,0,0,0-.34-0.88,1.56,1.56,0,0,0-.58-0.55A1.77,1.77,0,0,0,46,98.56a1.79,1.79,0,0,0-.85.19,1.59,1.59,0,0,0-.59.55,2.63,2.63,0,0,0-.35.88A5.47,5.47,0,0,0,44.14,101.34Z"/><path class="cls-2" d="M57.68,97.24v5.33a3.57,3.57,0,0,1-.19,1.19,2.57,2.57,0,0,1-.59,1,2.76,2.76,0,0,1-1,.64,3.88,3.88,0,0,1-1.4.23,3.84,3.84,0,0,1-1.34-.22,2.55,2.55,0,0,1-1.57-1.58,3.65,3.65,0,0,1-.2-1.25V97.24h1.74v5.18a2.94,2.94,0,0,0,.09.78,1.35,1.35,0,0,0,.27.53,1,1,0,0,0,.44.3,1.82,1.82,0,0,0,.62.1,1.26,1.26,0,0,0,1.07-.43,2.1,2.1,0,0,0,.33-1.29V97.24h1.74Z"/><path class="cls-2" d="M64.29,105.48l-0.56-2H60.89l-0.57,2H58.55l2.68-8.27h2.14l2.69,8.27H64.29Zm-1-3.43-0.53-1.8-0.1-.33-0.14-.51q-0.08-.28-0.14-0.56t-0.1-.48l-0.06.29L62.16,99l-0.1.38-0.1.36-0.08.3-0.05.19L61.31,102h2Z"/><path class="cls-2" d="M67.09,105.48V97.24h1.75V104h3v1.44H67.09Z"/><path class="cls-2" d="M76.35,105.48H72.6v-1l1-.46V98.69l-1-.46v-1h3.75v1l-1,.46V104l1,0.46v1Z"/><path class="cls-2" d="M84.14,101.28a5.37,5.37,0,0,1-.28,1.83,3.31,3.31,0,0,1-2.14,2.11,5.52,5.52,0,0,1-1.78.26H77.76V97.24h2.41a4.87,4.87,0,0,1,1.64.26,3.35,3.35,0,0,1,1.25.77,3.39,3.39,0,0,1,.8,1.27A5,5,0,0,1,84.14,101.28Zm-1.77,0a4.48,4.48,0,0,0-.14-1.19,2.27,2.27,0,0,0-.4-0.83,1.6,1.6,0,0,0-.64-0.48,2.26,2.26,0,0,0-.87-0.16H79.51V104h0.64a2,2,0,0,0,1.66-.68A3.16,3.16,0,0,0,82.37,101.32Z"/><path class="cls-2" d="M90.43,105.48l-0.56-2H87l-0.57,2H84.7l2.68-8.27h2.14l2.69,8.27H90.43Zm-1-3.43-0.53-1.8-0.1-.33-0.14-.51q-0.08-.28-0.14-0.56t-0.1-.48l-0.06.29L88.31,99l-0.1.38-0.1.36-0.08.3-0.05.19L87.45,102h2Z"/><path class="cls-2" d="M99.61,101.28a5.37,5.37,0,0,1-.28,1.83,3.31,3.31,0,0,1-2.14,2.11,5.52,5.52,0,0,1-1.78.26H93.23V97.24h2.41a4.87,4.87,0,0,1,1.64.26,3.35,3.35,0,0,1,1.25.77,3.39,3.39,0,0,1,.8,1.27A5,5,0,0,1,99.61,101.28Zm-1.77,0a4.48,4.48,0,0,0-.14-1.19,2.27,2.27,0,0,0-.4-0.83,1.6,1.6,0,0,0-.64-0.48,2.26,2.26,0,0,0-.87-0.16H95V104h0.64a2,2,0,0,0,1.66-.68A3.16,3.16,0,0,0,97.84,101.32Z"/><path class="cls-2" d="M106.06,105.48h-4.75V97.24h4.75v1.43h-3v1.81h2.79v1.43h-2.79V104h3v1.44Z"/><path class="cls-2" d="M45.84,114.7h3.27V119l-0.66.19q-0.33.09-.69,0.15l-0.75.09q-0.39,0-.83,0a4.55,4.55,0,0,1-1.64-.27,3.08,3.08,0,0,1-1.2-.81A3.57,3.57,0,0,1,42.6,117a6,6,0,0,1-.25-1.83,5.15,5.15,0,0,1,.28-1.75,3.56,3.56,0,0,1,.83-1.33,3.68,3.68,0,0,1,1.35-.85,5.3,5.3,0,0,1,1.84-.3,5.91,5.91,0,0,1,1.29.14,6.51,6.51,0,0,1,1.16.37l-0.58,1.4a4.61,4.61,0,0,0-.87-0.32,3.88,3.88,0,0,0-1-.13,2.56,2.56,0,0,0-1,.2,2.24,2.24,0,0,0-.79.57,2.52,2.52,0,0,0-.5.88,3.6,3.6,0,0,0-.17,1.16,4.77,4.77,0,0,0,.12,1.11,2.5,2.5,0,0,0,.38.87,1.77,1.77,0,0,0,.67.57,2.18,2.18,0,0,0,1,.2,4.92,4.92,0,0,0,.63,0l0.48-.08v-1.72H45.84V114.7Z"/><path class="cls-2" d="M55.77,119.33l-0.56-2H52.37l-0.57,2H50l2.68-8.27h2.14l2.69,8.27H55.77Zm-1-3.43-0.53-1.8-0.1-.33L54,113.26Q54,113,53.88,112.69t-0.1-.48l-0.06.29-0.08.36-0.1.38-0.1.36-0.08.3-0.05.19-0.52,1.8h2Z"/><path class="cls-2" d="M60.32,116.17v3.16H58.57v-8.24h2.25a3.69,3.69,0,0,1,2.34.61,2.25,2.25,0,0,1,.76,1.86,2.45,2.45,0,0,1-.11.77,2.29,2.29,0,0,1-.3.61,2.34,2.34,0,0,1-.43.47,2.78,2.78,0,0,1-.52.34l1.12,1.79,0.41,0.66,0.36,0.57,0.26,0.41,0.1,0.16H62.87l-1.79-3.16H60.32Zm0-1.42H60.8a1.52,1.52,0,0,0,1-.29,1.1,1.1,0,0,0,.32-0.85,1,1,0,0,0-.34-0.83,1.78,1.78,0,0,0-1-.25H60.32v2.23Z"/><path class="cls-2" d="M70.55,119.33l-0.56-2H67.14l-0.57,2H64.81l2.68-8.27h2.14l2.69,8.27H70.55Zm-1-3.43L69,114.1l-0.1-.33-0.14-.51q-0.08-.28-0.14-0.56t-0.1-.48l-0.06.29-0.08.36-0.1.38-0.1.36-0.08.3-0.05.19-0.52,1.8h2Z"/><path class="cls-2" d="M80.31,119.33H78.09l-3.24-6.23H74.8q0,0.43.06,0.86t0,0.77q0,0.4,0,.72v3.88H73.35v-8.24h2.2l3.24,6.17h0q0-.43,0-0.85,0-.18,0-0.37t0-.38q0-.19,0-0.36t0-.32v-3.9h1.57v8.24Z"/><path class="cls-2" d="M85.39,119.33H83.65v-6.79H81.58v-1.45h5.87v1.45H85.39v6.79Z"/><path class="cls-2" d="M91.81,119.33H88.06v-1l1-.46v-5.33l-1-.46v-1h3.75v1l-1,.46v5.33l1,0.46v1Z"/><path class="cls-2" d="M99.59,115.13a5.37,5.37,0,0,1-.28,1.83,3.31,3.31,0,0,1-2.14,2.11,5.52,5.52,0,0,1-1.78.26H93.22v-8.24h2.41a4.87,4.87,0,0,1,1.64.26,3.35,3.35,0,0,1,1.25.77,3.39,3.39,0,0,1,.8,1.27A5,5,0,0,1,99.59,115.13Zm-1.77,0a4.48,4.48,0,0,0-.14-1.19,2.27,2.27,0,0,0-.4-0.83,1.6,1.6,0,0,0-.64-0.48,2.26,2.26,0,0,0-.87-0.16H95v5.37h0.64a2,2,0,0,0,1.66-.68A3.16,3.16,0,0,0,97.82,115.17Z"/><path class="cls-2" d="M105.89,119.33l-0.56-2h-2.84l-0.57,2h-1.76l2.68-8.27H105l2.69,8.27h-1.76Zm-1-3.43-0.53-1.8-0.1-.33-0.14-.51q-0.08-.28-0.14-0.56t-0.1-.48l-0.06.29-0.08.36-0.1.38-0.1.36-0.08.3-0.05.19-0.52,1.8h2Z"/></svg>