<svg id="Camada_1" data-name="Camada 1" xmlns="http://www.w3.org/2000/svg" viewBox="0 0 150 150"><defs><style>.cls-1{fill:#2d6690;}.cls-2{fill:#fff;}</style></defs><title>sem-titulo-6</title><circle class="cls-1" cx="75" cy="75" r="75"/><path class="cls-2" d="M107.24,85.69c-26.65,32.41-68.65,37.93-68.89,3.88C43.93,106.39,65.44,119.19,107.24,85.69Z"/><path class="cls-2" d="M51.85,77.69a10.21,10.21,0,0,1-3.93,5.26c-1.89,1.23-4.6,1.92-8.67,1.92s-11.49-.28-9.66-9,9.38-9,13.43-9,10.09,0.5,9.62,7.22H45.1c0.07-1.21-.38-3-3-3-2.75,0-4.74,1.35-5.45,4.78s0.66,4.78,3.13,4.78a4.5,4.5,0,0,0,4.5-2.91h7.53Z"/><path class="cls-2" d="M55.43,67.36h9.4l0.73,9.83h0l4.81-9.83h9.4L76.32,84.27H70.26l2.51-12.08h0L66.66,84.27H61.59l-1-12.08h0L58,84.27H51.93Z"/><path class="cls-2" d="M83.1,67.36h9.4l0.73,9.83h0l4.81-9.83h9.4L104,84.27H97.93l2.51-12.08h0L94.33,84.27H89.26l-1-12.08h0L85.66,84.27H79.59Z"/><path class="cls-2" d="M110.84,67.36h6.68L114,84.27h-6.68Z"/><path class="cls-2" d="M47,64c26.88-32.23,68.92-37.44,68.92-3.39C110.44,43.72,89,30.77,47,64Z"/><circle class="cls-2" cx="115.08" cy="60.58" r="5.62"/></svg>