<svg xmlns="http://www.w3.org/2000/svg" viewBox="0 0 64.2 64.33"><defs><style>.cls-1{isolation:isolate;}.cls-2{mix-blend-mode:multiply;}.cls-3{fill:#fff;}</style></defs><title>sem-titulo-8</title><g class="cls-1"><g id="Camada_1" data-name="Camada 1"><g class="cls-2"><path class="cls-3" d="M35.36,27.65V27.57l0,0.08h0Z"/><path class="cls-3" d="M32.1,0.07a32.1,32.1,0,1,0,32.1,32.1A32.1,32.1,0,0,0,32.1.07ZM23.87,46.67h-7.4V24.42h7.4V46.67Zm-3.7-25.29h0a3.86,3.86,0,1,1,.1-7.69A3.86,3.86,0,1,1,20.17,21.38ZM50.54,46.67h-7.4V34.77c0-3-1.07-5-3.75-5a4,4,0,0,0-3.79,2.71,5.06,5.06,0,0,0-.24,1.8V46.67H28s0.1-20.16,0-22.25h7.4v3.15A7.34,7.34,0,0,1,42,23.9c4.87,0,8.52,3.18,8.52,10V46.67Z"/></g></g></g></svg>