<svg id="Camada_1" data-name="Camada 1" xmlns="http://www.w3.org/2000/svg" viewBox="0 0 136.21 136.17"><defs><style>.cls-1{fill:#2b668f;}.cls-2{fill:#fff;}</style></defs><title>sem-titulo-2</title><circle class="cls-1" cx="68" cy="68" r="68.21"/><path class="cls-2" d="M97.75,99.2H38.25a5.15,5.15,0,0,1-5.15-5.15V46.39a5.15,5.15,0,0,1,5.15-5.15h59.5a5.15,5.15,0,0,1,5.15,5.15V94.05a5.16,5.16,0,0,1-5.15,5.15h0ZM38.25,44.67a1.71,1.71,0,0,0-1.72,1.71V94.05a1.72,1.72,0,0,0,1.72,1.72h59.5a1.72,1.72,0,0,0,1.72-1.72V46.39a1.71,1.71,0,0,0-1.72-1.71H38.25Z"/><path class="cls-2" d="M91.81,89H44.08a5.15,5.15,0,0,1-5.15-5.15V51.58a5.15,5.15,0,0,1,5.15-5.15H91.81A5.15,5.15,0,0,1,97,51.58V83.9A5.15,5.15,0,0,1,91.81,89h0ZM44.08,49.86a1.72,1.72,0,0,0-1.72,1.72V83.89a1.72,1.72,0,0,0,1.72,1.72H91.81a1.72,1.72,0,0,0,1.72-1.72V51.58a1.72,1.72,0,0,0-1.72-1.72H44.08Z"/><path class="cls-2" d="M84.73,26.51a1.56,1.56,0,0,0-2.16-.45L68.25,35.39,53.93,26.05a1.56,1.56,0,0,0-1.7,2.61l15,9.79a1.55,1.55,0,0,0,.85.25l0.15,0,0.15,0a1.55,1.55,0,0,0,.85-0.25l15-9.79A1.56,1.56,0,0,0,84.73,26.51Z"/><path class="cls-2" d="M85.11,92.21a1.7,1.7,0,1,1-1.7-1.7A1.71,1.71,0,0,1,85.11,92.21Z"/><path class="cls-2" d="M91.83,92.21a1.7,1.7,0,1,1-1.7-1.7A1.7,1.7,0,0,1,91.83,92.21Z"/></svg>