<svg id="Camada_1" data-name="Camada 1" xmlns="http://www.w3.org/2000/svg" viewBox="0 0 150 150"><defs><style>.cls-1{fill:#2d6690;}.cls-2{fill:#fff;}</style></defs><title>sem-titulo-6</title><circle class="cls-1" cx="75" cy="75" r="75"/><path class="cls-2" d="M93,50.13H56.16a2.78,2.78,0,0,1-2.78-2.78V29.65a2.78,2.78,0,0,1,2.78-2.78H93a2.78,2.78,0,0,1,2.78,2.78v17.7A2.78,2.78,0,0,1,93,50.13ZM56.16,29.27a0.38,0.38,0,0,0-.38.38v17.7a0.38,0.38,0,0,0,.38.38H93a0.38,0.38,0,0,0,.38-0.38V29.65A0.38,0.38,0,0,0,93,29.27H56.16Z"/><path class="cls-2" d="M95.72,64.31H53.45a2.85,2.85,0,0,1-2.71-3.74l2.33-7.12a2.84,2.84,0,0,1,2.71-2h37.6a2.85,2.85,0,0,1,2.71,2l2.33,7.12A2.85,2.85,0,0,1,95.72,64.31ZM55.78,53.89a0.46,0.46,0,0,0-.43.32L53,61.32a0.46,0.46,0,0,0,.43.6H95.72a0.46,0.46,0,0,0,.43-0.6L93.82,54.2a0.46,0.46,0,0,0-.43-0.31H55.78Z"/><path class="cls-2" d="M63.6,98.33H26.76A2.78,2.78,0,0,1,24,95.55V77.86a2.78,2.78,0,0,1,2.78-2.78H63.6a2.78,2.78,0,0,1,2.78,2.78v17.7A2.78,2.78,0,0,1,63.6,98.33ZM26.76,77.47a0.38,0.38,0,0,0-.38.38v17.7a0.38,0.38,0,0,0,.38.38H63.6A0.38,0.38,0,0,0,64,95.55V77.86a0.38,0.38,0,0,0-.38-0.38H26.76Z"/><path class="cls-2" d="M66.32,112.52H24a2.85,2.85,0,0,1-2.71-3.74l2.33-7.12a2.84,2.84,0,0,1,2.71-2H64a2.85,2.85,0,0,1,2.71,2L69,108.78A2.85,2.85,0,0,1,66.32,112.52ZM26.38,102.09a0.46,0.46,0,0,0-.43.32l-2.33,7.12a0.46,0.46,0,0,0,.43.6H66.32a0.46,0.46,0,0,0,.43-0.6l-2.33-7.12a0.46,0.46,0,0,0-.43-0.31H26.38Z"/><path class="cls-2" d="M124.11,98.33H87.27a2.78,2.78,0,0,1-2.78-2.78V77.86a2.78,2.78,0,0,1,2.78-2.78h36.84a2.78,2.78,0,0,1,2.78,2.78v17.7A2.78,2.78,0,0,1,124.11,98.33ZM87.27,77.47a0.38,0.38,0,0,0-.38.38v17.7a0.38,0.38,0,0,0,.38.38h36.84a0.38,0.38,0,0,0,.38-0.38V77.86a0.38,0.38,0,0,0-.38-0.38H87.27Z"/><path class="cls-2" d="M126.83,112.52H84.56a2.85,2.85,0,0,1-2.71-3.74l2.33-7.12a2.84,2.84,0,0,1,2.71-2h37.6a2.85,2.85,0,0,1,2.71,2l2.33,7.12A2.85,2.85,0,0,1,126.83,112.52ZM86.89,102.09a0.46,0.46,0,0,0-.43.32l-2.33,7.12a0.46,0.46,0,0,0,.43.6h42.27a0.46,0.46,0,0,0,.43-0.6l-2.33-7.12a0.46,0.46,0,0,0-.43-0.31H86.89Z"/><rect class="cls-2" x="73.39" y="66.14" width="2.39" height="3.87"/><rect class="cls-2" x="45.18" y="69.73" width="59.02" height="2.39"/></svg>