<?xml version="1.0" encoding="utf-8"?>
<!-- Generator: Adobe Illustrator 19.2.1, SVG Export Plug-In . SVG Version: 6.00 Build 0)  -->
<svg version="1.1" id="Camada_1" xmlns="http://www.w3.org/2000/svg" xmlns:xlink="http://www.w3.org/1999/xlink" x="0px" y="0px"
	 viewBox="0 0 48 48" style="enable-background:new 0 0 48 48;" xml:space="preserve">
<style type="text/css">
	.st0{fill:#FFFFFF;}
</style>
<g>
	<path class="st0" d="M34.5,16.6c-0.4-0.3-1-0.2-1.4,0.2L26.7,26l-6.6-2.7l-6.4,6.2c-0.4,0.4-0.4,1,0,1.4c0.2,0.2,0.4,0.3,0.7,0.3
		c0.2,0,0.5-0.1,0.7-0.3l5.5-5.3l6.8,2.8L34.8,18C35.1,17.5,35,16.9,34.5,16.6z"/>
	<path class="st0" d="M24,0C10.8,0,0,10.8,0,24s10.8,24,24,24s24-10.8,24-24S37.2,0,24,0z M37.1,31.7c0,1.8-1.4,3.2-3.2,3.2h-5.4
		l2.5,4.8c0.2,0.5,0.1,1.1-0.4,1.3c-0.1,0.1-0.3,0.1-0.4,0.1c-0.3,0-0.7-0.2-0.8-0.5l-2.8-5.4c-0.1-0.1-0.1-0.2-0.1-0.3h-4.9
		c0,0.1,0,0.2-0.1,0.3l-2.8,5.4c-0.2,0.3-0.5,0.5-0.8,0.5c-0.1,0-0.3,0-0.4-0.1c-0.5-0.2-0.6-0.8-0.4-1.3l2.5-4.8h-5.4
		c-1.8,0-3.2-1.5-3.2-3.2V13.8c0-0.4,0.3-0.6,0.6-0.6h24.9c0.4,0,0.6,0.3,0.6,0.6V31.7z M38.6,11.9H9.4c-0.5,0-1-0.4-1-1s0.4-1,1-1
		h29.3c0.5,0,1,0.4,1,1S39.2,11.9,38.6,11.9z"/>
</g>
</svg>
