<svg id="Camada_1" data-name="Camada 1" xmlns="http://www.w3.org/2000/svg" viewBox="0 0 150 150"><defs><style>.cls-1{fill:#fff;}</style></defs><title>TVC</title><path class="cls-1" d="M88.14,57.86a18.42,18.42,0,1,0,13,5.39A18.41,18.41,0,0,0,88.14,57.86Zm7.12,27.79-7.12-5.19-7,5.19,2.65-8.35-7-5.19H85.5l2.65-8.24,2.75,8.24h8.75L92.52,77.3Z"/><path class="cls-1" d="M75,0a75,75,0,1,0,75,75A75,75,0,0,0,75,0Zm7.24,106a2.52,2.52,0,0,1-2.54,2.54H32A2.52,2.52,0,0,1,29.41,106V43.71A2.52,2.52,0,0,1,32,41.17H79.69a2.52,2.52,0,0,1,2.54,2.54v6.41a30,30,0,0,0-5.09,1.73v-5.6H34.5v57.1H77.15v-2.75a30,30,0,0,0,5.09,1.73V106ZM41.73,87V82.7H62.29A23.41,23.41,0,0,0,63.71,87h-22Zm25.14,5.39c0.71,0.92,1.53,1.83,2.34,2.75,0.2,0.2.51,0.41,0.71,0.61v0.92H41.73V92.37H66.87ZM41.73,77.3V73H61.68c-0.1,1-.2,2.14-0.2,3.16V77.3H41.73ZM62.8,67.63H41.73V63.36h23A23,23,0,0,0,62.8,67.63ZM41.73,58V53.69H69.92v3c-0.2.2-.51,0.41-0.71,0.61s-0.41.51-.61,0.71H41.73ZM119,104.68l-2.54,2.54a5.59,5.59,0,0,1-7.84,0L101,99.59l-2.44-2.44a22.6,22.6,0,0,1-10.38,2.44,23.32,23.32,0,0,1-16.59-6.82,23.67,23.67,0,0,1-6.82-16.59,23.32,23.32,0,0,1,6.82-16.59,23.67,23.67,0,0,1,16.59-6.82,23.32,23.32,0,0,1,16.59,6.82,23.67,23.67,0,0,1,6.82,16.59A24,24,0,0,1,109,86.87l2.44,2.44L119,96.85A5.59,5.59,0,0,1,119,104.68Z"/></svg>