<svg id="Camada_1" data-name="Camada 1" xmlns="http://www.w3.org/2000/svg" viewBox="0 0 150 150"><defs><style>.cls-1{fill:#fff;}</style></defs><title>TVC</title><path class="cls-1" d="M75,0a75,75,0,1,0,75,75A75,75,0,0,0,75,0ZM93,105.49a7.25,7.25,0,0,1-7.25,7.25H44.82a7.25,7.25,0,0,1-7.25-7.25V64.1a7.25,7.25,0,0,1,7.25-7.25h9v8.91H48.18a1.7,1.7,0,0,0-1.7,1.7v34.69a1.7,1.7,0,0,0,1.7,1.7H82.36a1.7,1.7,0,0,0,1.7-1.7V67.45a1.7,1.7,0,0,0-1.7-1.7h-13V56.84H85.71A7.25,7.25,0,0,1,93,64.1v41.39ZM112.43,85.9a7.25,7.25,0,0,1-7.25,7.25h-9V84.24h5.67a1.7,1.7,0,0,0,1.7-1.7V47.86a1.7,1.7,0,0,0-1.7-1.7H67.64a1.7,1.7,0,0,0-1.7,1.7V82.55a1.7,1.7,0,0,0,1.7,1.7h13v8.91H64.29A7.25,7.25,0,0,1,57,85.9V44.51a7.25,7.25,0,0,1,7.25-7.25h40.89a7.25,7.25,0,0,1,7.25,7.25V85.9Z"/></svg>