<svg id="Camada_1" data-name="Camada 1" xmlns="http://www.w3.org/2000/svg" viewBox="0 0 150 150"><defs><style>.cls-1{fill:#fff;}</style></defs><title>TVC</title><path class="cls-1" d="M75,0a75,75,0,1,0,75,75A75,75,0,0,0,75,0ZM59.47,96.67H44a3.31,3.31,0,0,1-3.3-3.3V43.91a3.31,3.31,0,0,1,3.3-3.3H51.4V38.17a3,3,0,0,1,3-3h2.22a3,3,0,0,1,3,3v2.44H77.78V38.17a3,3,0,0,1,3-3H83a3,3,0,0,1,3,3v2.44h7.42a3.31,3.31,0,0,1,3.3,3.3v10.9H45.63V91.08H59.47v5.59Zm10.42,0.91A3.17,3.17,0,0,1,67,95.69,22,22,0,0,1,96.16,66.53l0.07,0-0.9-4.34a2.85,2.85,0,0,1,5.58-1.16l2,9.4a2.85,2.85,0,0,1-1,2.83l-7.53,5.9a2.85,2.85,0,0,1-3.52-4.49l3-2.33-0.17-.06a15.71,15.71,0,0,0-20.8,20.8A3.17,3.17,0,0,1,69.89,97.57Zm33,4.81a21.89,21.89,0,0,1-15.53,6.46,22.4,22.4,0,0,1-8.66-1.76l0.9,4.32a2.85,2.85,0,0,1-2.21,3.37,3,3,0,0,1-.58.06A2.85,2.85,0,0,1,74,112.57l-2-9.4a2.85,2.85,0,0,1,1-2.82l7.53-5.9a2.85,2.85,0,1,1,3.52,4.49l-3,2.32a15.7,15.7,0,0,0,20.43-21,3.17,3.17,0,1,1,5.79-2.57A22,22,0,0,1,102.85,102.39Z"/></svg>