<svg id="Camada_1" data-name="Camada 1" xmlns="http://www.w3.org/2000/svg" viewBox="0 0 150 150"><defs><style>.cls-1{fill:#fff;}</style></defs><title>Icones Ti grad</title><path class="cls-1" d="M112,53.5A5.54,5.54,0,0,0,106.44,48H43.54A5.54,5.54,0,0,0,38,53.5v43A5.54,5.54,0,0,0,43.54,102h62.92A5.54,5.54,0,0,0,112,96.49h0v-43Zm-5.57,43.66a2.33,2.33,0,0,1-3.29.09L82.41,77.57l-5.81,5.2a2.32,2.32,0,0,1-3.1,0l-5.65-5L47,97.23a2.33,2.33,0,0,1-1.59.62,2.38,2.38,0,0,1-1.71-.74,2.34,2.34,0,0,1,.1-3.29L64.35,74.61,43.74,56.19a2.33,2.33,0,1,1,3.1-3.48l22.29,20a3.53,3.53,0,0,1,.38.33,0.09,0.09,0,0,0,0,.05L75,77.93l28.08-25.21a2.33,2.33,0,1,1,3.12,3.46L85.87,74.45l20.45,19.42A2.33,2.33,0,0,1,106.41,97.16Z"/><path class="cls-1" d="M75,0a75,75,0,1,0,75,75A75,75,0,0,0,75,0Zm41.62,96.49a10.19,10.19,0,0,1-10.18,10.18H43.54A10.19,10.19,0,0,1,33.35,96.49v-43A10.19,10.19,0,0,1,43.54,43.3h62.92a10.18,10.18,0,0,1,10.17,10.2v43Z"/></svg>