<svg id="Camada_1" data-name="Camada 1" xmlns="http://www.w3.org/2000/svg" viewBox="0 0 150 150"><defs><style>.cls-1{fill:#fff;}</style></defs><title>Sem título-6</title><path class="cls-1" d="M105.71,47.14H103v2.71a6.07,6.07,0,0,1-6.07,6.07H88.16a6.07,6.07,0,0,1-6.07-6.07V47.14H67.91v2.71a6.08,6.08,0,0,1-6.07,6.07H53.06A6.07,6.07,0,0,1,47,49.84V47.14H44.29a2.71,2.71,0,0,0-2.71,2.71v57a2.71,2.71,0,0,0,2.71,2.71h61.42a2.71,2.71,0,0,0,2.71-2.71v-57A2.71,2.71,0,0,0,105.71,47.14Zm-35.1,49L55.07,80.55l9-9,6.58,6.58L86,62.82l9,9Z"/><path class="cls-1" d="M75,0a75,75,0,1,0,75,75A75,75,0,0,0,75,0ZM86.48,41.65a4.59,4.59,0,0,1,4.59-4.59H94a4.59,4.59,0,0,1,4.59,4.59V44.6A4.59,4.59,0,0,1,94,49.19H91.08a4.59,4.59,0,0,1-4.59-4.59V41.65Zm-35.1-.71a3.89,3.89,0,0,1,3.89-3.89h4.36a3.89,3.89,0,0,1,3.89,3.89V45.3a3.89,3.89,0,0,1-3.89,3.89H55.27a3.89,3.89,0,0,1-3.89-3.89V40.94Zm60.4,65.94a6.07,6.07,0,0,1-6.07,6.07H44.29a6.07,6.07,0,0,1-6.07-6.07v-57a6.08,6.08,0,0,1,6.07-6.07h6.07v6.07a2.71,2.71,0,0,0,2.71,2.71h8.77a2.71,2.71,0,0,0,2.71-2.71V43.77H85.46v6.07a2.71,2.71,0,0,0,2.71,2.71h8.77a2.71,2.71,0,0,0,2.71-2.71V43.77h6.07a6.08,6.08,0,0,1,6.07,6.07v57Z"/></svg>