<svg id="Camada_1" data-name="Camada 1" xmlns="http://www.w3.org/2000/svg" viewBox="0 0 150 150"><defs><style>.cls-1{fill:#fff;}</style></defs><title>Icones Ti grad</title><path class="cls-1" d="M73.77,65.52a9.77,9.77,0,1,0,9.77,9.77A9.78,9.78,0,0,0,73.77,65.52Z"/><path class="cls-1" d="M75,0a75,75,0,1,0,75,75A75,75,0,0,0,75,0Zm28.14,53.37a7.26,7.26,0,0,1-2.73-.54L88.49,64.75A18.09,18.09,0,0,1,85.36,89.2l7.21,8.7a7.25,7.25,0,1,1-4.32,3.58l-7.77-9.37a17.9,17.9,0,0,1-6.72,1.3c-0.43,0-.88,0-1.34-0.05l-1.87,5.28a7.23,7.23,0,1,1-5.35-1.7l1.73-4.87a18.26,18.26,0,0,1-8-6.37l-15.5,11a7.24,7.24,0,1,1-3.25-4.57L56.45,80.58a18.07,18.07,0,0,1,3.83-17.36L52.9,54.75a7.25,7.25,0,1,1,4.26-3.65l7.46,8.57a18.06,18.06,0,0,1,19.93,1.08L96.44,48.87A7.23,7.23,0,1,1,103.14,53.37Z"/></svg>