<svg id="Camada_1" data-name="Camada 1" xmlns="http://www.w3.org/2000/svg" viewBox="0 0 150 150"><defs><style>.cls-1{fill:#2d6690;}</style></defs><title>icones-solucoes</title><path class="cls-1" d="M120.05,41.26H63a3.42,3.42,0,0,0-3.42,3.42V76A3.42,3.42,0,0,0,63,79.41h9v7.95l9-7.95h38.95A3.42,3.42,0,0,0,123.47,76V44.68A3.42,3.42,0,0,0,120.05,41.26Zm-3.22,27.92H66.53V65.86h50.31v3.32Zm0-9.12H66.53V56.74h50.31v3.32Zm0-9.12H66.53V47.62h50.31v3.32Z"/><path class="cls-1" d="M75,0.17A74.83,74.83,0,1,0,149.83,75,74.83,74.83,0,0,0,75,.17ZM92,101.7a6.74,6.74,0,0,1-6.73,6.74h-5.7v12L66,108.43H28.28a6.74,6.74,0,0,1-6.74-6.74V70.39a6.74,6.74,0,0,1,6.74-6.74H52.43V67H28.28a3.42,3.42,0,0,0-3.42,3.42V101.7a3.42,3.42,0,0,0,3.42,3.42H67.23l9,7.95v-7.95h9a3.42,3.42,0,0,0,3.42-3.42V85.49H92V101.7ZM126.79,76a6.74,6.74,0,0,1-6.73,6.74H82.36l-13.62,12v-12H63A6.74,6.74,0,0,1,56.3,76V44.68A6.74,6.74,0,0,1,63,37.94h57a6.74,6.74,0,0,1,6.73,6.74V76Z"/></svg>