<svg id="Camada_1" data-name="Camada 1" xmlns="http://www.w3.org/2000/svg" viewBox="0 0 71.67 64.33"><defs><style>.cls-1{fill:#3f8cb2;}.cls-2{fill:#0070b3;}.cls-3{fill:none;}.cls-4{fill:#161616;opacity:0.5;}.cls-5{fill:#ccc;}</style></defs><title>ícones</title><path class="cls-1" d="M40.39,52.9H37.58V48.82H34.09V52.9H31.28V54H21.44v3.49h9.84v1.08h9.11V57.47h9.83V54H40.39V52.9Zm0,0"/><path class="cls-2" d="M51.39,13.11a1.31,1.31,0,0,1-.95-0.53A11.4,11.4,0,0,0,41.34,8L40.66,8a1.3,1.3,0,0,1-.87-0.26,12.71,12.71,0,0,0-19.13,4.72,1.32,1.32,0,0,1-1,.74,11.33,11.33,0,0,0-.76,22.3V32.12a3.67,3.67,0,0,1,.21-1.2,6.86,6.86,0,0,1,2.14-13.38l0.57,0a2.23,2.23,0,0,0,2.34-1.68A8.25,8.25,0,0,1,37.91,12a2.23,2.23,0,0,0,2,.59,6.86,6.86,0,0,1,7.58,3.74,2.23,2.23,0,0,0,2.23,1.25,6.86,6.86,0,0,1,2.83,13.35,3.67,3.67,0,0,1,.21,1.19v3.37a11.33,11.33,0,0,0-1.38-22.37h0Zm0,0"/><rect class="cls-3" x="9.92" y="5.17" width="51.83" height="53.99"/><path class="cls-4" d="M49,21.9H22.65a1.53,1.53,0,0,0-1.53,1.53v5.2a1.53,1.53,0,0,0,1.53,1.53H49a1.53,1.53,0,0,0,1.53-1.53v-5.2A1.53,1.53,0,0,0,49,21.9h0ZM23.88,25.53a0.94,0.94,0,1,1,.94-0.94,0.94,0.94,0,0,1-.94.94h0Zm22.65,2.72H39.86V26h6.66v2.21Zm0,0"/><path class="cls-4" d="M49,31H22.65a1.53,1.53,0,0,0-1.53,1.53v5.2a1.53,1.53,0,0,0,1.53,1.53H49a1.53,1.53,0,0,0,1.53-1.53v-5.2A1.53,1.53,0,0,0,49,31h0ZM23.88,34.62a0.94,0.94,0,1,1,.94-0.94,0.94,0.94,0,0,1-.94.94h0Zm22.65,2.72H39.86V35.12h6.66v2.21Zm0,0"/><path class="cls-4" d="M49,40.09H22.65a1.53,1.53,0,0,0-1.53,1.53v5.2a1.53,1.53,0,0,0,1.53,1.53H49a1.53,1.53,0,0,0,1.53-1.53v-5.2A1.53,1.53,0,0,0,49,40.09h0ZM23.88,43.71a0.94,0.94,0,1,1,.94-0.94,0.94,0.94,0,0,1-.94.94h0Zm22.65,2.72H39.86V44.21h6.66v2.21Zm0,0"/><path class="cls-5" d="M49,21.5H22.65A1.53,1.53,0,0,0,21.12,23v5.2a1.53,1.53,0,0,0,1.53,1.53H49a1.53,1.53,0,0,0,1.53-1.53V23A1.53,1.53,0,0,0,49,21.5h0ZM23.88,25.12a0.94,0.94,0,1,1,.94-0.94,0.94,0.94,0,0,1-.94.94h0Zm22.65,2.72H39.86V25.62h6.66v2.21Zm0,0"/><path class="cls-5" d="M49,30.59H22.65a1.53,1.53,0,0,0-1.53,1.53v5.2a1.53,1.53,0,0,0,1.53,1.53H49a1.53,1.53,0,0,0,1.53-1.53v-5.2A1.53,1.53,0,0,0,49,30.59h0ZM23.88,34.21a0.94,0.94,0,1,1,.94-0.94,0.94,0.94,0,0,1-.94.94h0Zm22.65,2.72H39.86V34.71h6.66v2.21Zm0,0"/><path class="cls-5" d="M49,39.68H22.65a1.53,1.53,0,0,0-1.53,1.53v5.2a1.53,1.53,0,0,0,1.53,1.53H49a1.53,1.53,0,0,0,1.53-1.53v-5.2A1.53,1.53,0,0,0,49,39.68h0ZM23.88,43.3a0.94,0.94,0,1,1,.94-0.94,0.94,0.94,0,0,1-.94.94h0ZM46.52,46H39.86V43.81h6.66V46Zm0,0"/></svg>