<svg id="Camada_1" data-name="Camada 1" xmlns="http://www.w3.org/2000/svg" viewBox="0 0 150 150"><defs><style>.cls-1{fill:#fff;}</style></defs><title>Icones Ti grad</title><rect class="cls-1" x="53.89" y="37.02" width="43.81" height="24.81"/><path class="cls-1" d="M34.65,100.23A5.36,5.36,0,0,0,40,105.58h8.21V84.48a2.59,2.59,0,0,1,2.59-2.59h50a2.59,2.59,0,0,1,2.59,2.59v21.11h8.21a5.36,5.36,0,0,0,5.35-5.35v-21H34.65v21Z"/><path class="cls-1" d="M53.39,114.7H98.21V87.07H53.39V114.7Zm6.72-21.94H90.45a2.59,2.59,0,1,1,0,5.18H60.12A2.59,2.59,0,0,1,60.12,92.76Zm0,11.07H74.29a2.59,2.59,0,1,1,0,5.18H60.12A2.59,2.59,0,0,1,60.12,103.83Z"/><path class="cls-1" d="M75,0a75,75,0,1,0,75,75A75,75,0,0,0,75,0Zm47.13,100.23a10.55,10.55,0,0,1-10.54,10.54h-8.21v6.53a2.59,2.59,0,0,1-2.59,2.59h-50a2.59,2.59,0,0,1-2.59-2.59v-6.53H40a10.55,10.55,0,0,1-10.54-10.54V72.37A10.55,10.55,0,0,1,40,61.84h8.71V34.43a2.59,2.59,0,0,1,2.59-2.59h49a2.59,2.59,0,0,1,2.59,2.59V61.84h8.71a10.55,10.55,0,0,1,10.54,10.54v27.85Z"/><path class="cls-1" d="M111.6,67H40a5.36,5.36,0,0,0-5.35,5.35v1.72H117V72.37A5.36,5.36,0,0,0,111.6,67Zm0.79,5.37a2.59,2.59,0,1,1,.76-1.83A2.61,2.61,0,0,1,112.39,72.39Z"/></svg>