<svg id="Camada_1" data-name="Camada 1" xmlns="http://www.w3.org/2000/svg" viewBox="0 0 150 150"><defs><style>.cls-1{fill:#fff;}</style></defs><title>Icones Ti grad</title><path class="cls-1" d="M41,45.7v28a44.3,44.3,0,0,0,34,43.21A44.3,44.3,0,0,0,109,73.7v-28A66.93,66.93,0,0,1,75,33.76,66.9,66.9,0,0,1,41,45.7Zm60.11,5.68,1,0V74.09A34.74,34.74,0,0,1,75.29,108l-0.24.06L74.69,108A34.74,34.74,0,0,1,47.85,74.09V51.43l1,0a47,47,0,0,0,25.53-8.9L75,42l0.62,0.44A47,47,0,0,0,101.15,51.38Z"/><path class="cls-1" d="M75,0a75,75,0,1,0,75,75A75,75,0,0,0,75,0Zm37.11,73.7A47.43,47.43,0,0,1,75.44,120l-0.36.08L74.57,120A47.43,47.43,0,0,1,37.89,73.7v-31l1.5-.07A63.78,63.78,0,0,0,74.08,30.55L75,29.88l0.92,0.67A63.8,63.8,0,0,0,110.6,42.64l1.5,0.07v31Z"/><path class="cls-1" d="M68,68.06V72h-2.5v17.2h19V72H82V68.06a6.87,6.87,0,0,0-6.83-6.89H74.81A6.87,6.87,0,0,0,68,68.06Zm11.4,0V72H70.62V68.06a4.21,4.21,0,0,1,4.19-4.22h0.38A4.2,4.2,0,0,1,79.38,68.06Z"/></svg>