<svg id="Camada_1" data-name="Camada 1" xmlns="http://www.w3.org/2000/svg" viewBox="0 0 150 150"><defs><style>.cls-1{fill:#fff;}</style></defs><title>Icones Ti grad</title><path class="cls-1" d="M60.08,92.78c-0.84-1.3-2.88-3.62-4-3s-1.4,3-2.78,3.89-5,.84-5.27,2,0.54,2.3.28,4.07-1.4,3.6-.65,4.44,6.38,1.1,8.61,2,7.11,3,8.87,2.5a5.53,5.53,0,0,0,2.31-2.88c0.37-1.66-.82-3.51-2.13-4.91S60.9,94.06,60.08,92.78Z"/><path class="cls-1" d="M69.68,55.55a10.37,10.37,0,0,0,1.17-1l-0.14,0c-0.84.14-1.66-.78-1.88-2.05s0.29-2.39,1.12-2.53,1.66,0.8,1.88,2a3,3,0,0,1-.23,1.83c0.15-.16.33-0.29,0.51-0.45a3.2,3.2,0,0,1,1.15-.65,6.2,6.2,0,0,0,.12-1.2c0-2.3-1.28-4.16-2.84-4.16s-2.83,1.85-2.83,4.16A4.34,4.34,0,0,0,69.68,55.55Z"/><path class="cls-1" d="M69.45,57.78c-0.47.81,1.4,2.33,2.39,3s1.52,1.17,2.45,1,3.85-1.92,5.19-2.73,1.86-.82,2-1.48-1-1.27-2-1.61a48.21,48.21,0,0,0-4.66-1.69c-1-.18-2.64,1.21-3.28,1.81S69.45,57.78,69.45,57.78Z"/><path class="cls-1" d="M78.16,53.72a3.07,3.07,0,0,1-.33-1.38,2,2,0,1,1,3.77,0,2.53,2.53,0,0,1-1.21,2.3l1,0.41a4.55,4.55,0,0,0,2-3.93c0-2.43-1.6-4.4-3.59-4.4s-3.59,2-3.59,4.4a5.36,5.36,0,0,0,.37,2Z"/><path class="cls-1" d="M91,88.85a21.28,21.28,0,0,0,.47-8.57c-0.7-4.86-7.64-20.13-8.45-20.83s-6.26,3.36-8.69,4.06S68.39,60,68.39,60c0.57,1.74-.68,5.67-2.31,7.52S63.42,75,61.8,77.5s-2.67,7.64-1.4,10.66,8.34,6.37,8.69,8.79A2.42,2.42,0,0,1,67,99.74l3.12,3.58s2.78,0.59,8.34-.22,9.15-5.79,9.15-5.79A69,69,0,0,1,88,89.77C88.3,88.15,91,88.85,91,88.85Z"/><path class="cls-1" d="M103.39,98c-1.35-.72-2.07-2.78-2-4.23a1.86,1.86,0,0,0-.81-1.88,9.35,9.35,0,0,1-1.54,2.23c-0.9.9-3.87,2.16-5.93,1.26s-1.71-4.31-1.71-4.31a1.55,1.55,0,0,0-1.17.18c-0.45.36-.1,2.78,0,4.59a35.79,35.79,0,0,1-1.09,7.83c-0.62,2.89.64,4.86,2.08,5.31s3.77-1.09,5.56-3,7.83-4.32,8.92-5.31S104.74,98.7,103.39,98Z"/><path class="cls-1" d="M75,0a75,75,0,1,0,75,75A75,75,0,0,0,75,0Zm31.24,103c-3.12,1.74-8.68,4.52-10.77,6.72A6.09,6.09,0,0,1,88.65,111a6.18,6.18,0,0,1-2.31-2.66,36,36,0,0,0-8.56-.91,50.35,50.35,0,0,0-8.57,1A4.42,4.42,0,0,1,64.33,111c-3.69-.45-8.11-3-12-3.46s-8-1.27-7.18-3.93,1.51-3.82.81-5.9-0.7-3.95,2.19-4.54,4.52-1.38,5.33-3.11a3.84,3.84,0,0,1,1.86-2.1,6.09,6.09,0,0,1,.45-5.08c1.52-2.67,3-9.15,5.11-12.29s5.22-6.85,5.67-7.87,0.58-3.82.34-7.75S65.16,42.66,70,39.3s13.89-3.82,17.37,4.05,0.23,14,4.06,19.34,8.79,12.38,10.3,16.77-0.11,9.74-.11,9.74a5.51,5.51,0,0,1,1.74,4c-0.12,2.44,1.49,3.71,3.46,4.52S109.39,101.23,106.24,103Z"/></svg>