<svg id="Camada_1" data-name="Camada 1" xmlns="http://www.w3.org/2000/svg" viewBox="0 0 71.67 64.33"><defs><style>.cls-1{fill:none;}.cls-2{fill:#0070b3;}.cls-3{fill:#3f8cb2;}.cls-4{fill:#ccc;}</style></defs><title>ícones</title><rect class="cls-1" x="14.98" y="5.2" width="55.69" height="53.93"/><path class="cls-2" d="M43.4,5.2a26.63,26.63,0,0,0-4.84.44,12.11,12.11,0,0,1,3.66,2.51c0.39,0,.79,0,1.18,0a21,21,0,0,1,12.83,4.06c3.17,2.44,4.91,5.62,4.91,9a10.77,10.77,0,0,1-3.38,7.6l-0.67.68-0.14.94-1.18,7.87-5.83-4-1-.69-1.19.22a23.79,23.79,0,0,1-4.35.4,24,24,0,0,1-3.47-.25l-0.36.06-1.11,1L42.3,37l1.1,0a26.58,26.58,0,0,0,4.89-.45l8,5.47a1.3,1.3,0,0,0,2-.88l1.57-10.42a13.69,13.69,0,0,0,4.22-9.65c0-8.8-9.25-15.93-20.65-15.93h0Zm0,0"/><path class="cls-3" d="M47.41,41.54c-1.67-1.15-7.52-4.28-10-5.61l-0.05,0a0.82,0.82,0,0,0-.89.08A10.62,10.62,0,0,1,32.19,38a0.82,0.82,0,0,0-.59.51l-1.55,4.08-1.55-4.08A0.82,0.82,0,0,0,27.92,38,10.62,10.62,0,0,1,23.66,36a0.82,0.82,0,0,0-.89-0.08c-2.47,1.32-8.39,4.51-10.06,5.63-2.83,1.91-4.06,8.8-4.28,10.16a0.82,0.82,0,0,0,0,.4c0.1,0.29,2.7,7,21.59,7s21.49-6.71,21.59-7a0.82,0.82,0,0,0,0-.4c-0.59-3.7-1.82-8.46-4.28-10.15h0Zm0,0"/><path class="cls-3" d="M14.35,29.41H17a1.79,1.79,0,0,0,1.79-1.79V20a1.79,1.79,0,0,0-.89-1.55C18.46,12.3,20.85,8,30.06,8c5.28,0,8.58,1.36,10.38,4.27a14.73,14.73,0,0,1,1.78,6.25A1.79,1.79,0,0,0,41.35,20v7.58a1.79,1.79,0,0,0,1.39,1.74c-1.16.76-3.55,1.53-8.51,1.53l-1.26,0a1.53,1.53,0,0,0-1.36-.83H29.43a1.53,1.53,0,1,0,0,3.06h2.19a1.53,1.53,0,0,0,1.24-.64l1.35,0c5.59,0,9.14-1,10.58-2.85L45,29.41h0.81a1.79,1.79,0,0,0,1.79-1.79V20a1.79,1.79,0,0,0-1.79-1.79h-1a16.76,16.76,0,0,0-2.16-7.34c-2.28-3.69-6.39-5.48-12.56-5.48S19.77,7.23,17.49,10.92a16.77,16.77,0,0,0-2.16,7.34h-1A1.79,1.79,0,0,0,12.56,20v7.58a1.79,1.79,0,0,0,1.79,1.79h0Zm0,0"/><path class="cls-4" d="M19.73,29.34c2.46,5.42,7.72,7.79,10.33,7.79a11.7,11.7,0,0,0,7-3.26Q35.74,34,34.21,34H33.44a3,3,0,0,1-1.82.62H29.43a3,3,0,1,1,0-6h2.19a3,3,0,0,1,2.08.84h0.54a24.31,24.31,0,0,0,5.9-.57,3.27,3.27,0,0,1-.24-1.24V20a3.26,3.26,0,0,1,.8-2.13A12.27,12.27,0,0,0,39.2,13c-1.51-2.44-4.41-3.57-9.14-3.57-3.92,0-6.63.81-8.28,2.49-1.28,1.3-2,3.15-2.37,6A3.25,3.25,0,0,1,20.22,20v7.58a3.22,3.22,0,0,1-.49,1.71h0Zm0,0"/></svg>