<?xml version="1.0" encoding="utf-8"?>
<!-- Generator: Adobe Illustrator 20.0.0, SVG Export Plug-In . SVG Version: 6.00 Build 0)  -->
<svg version="1.1" id="Camada_1" xmlns="http://www.w3.org/2000/svg" xmlns:xlink="http://www.w3.org/1999/xlink" x="0px" y="0px"
	 viewBox="0 0 500 281" style="enable-background:new 0 0 500 281;" xml:space="preserve">
<style type="text/css">
	.st0{opacity:0.5;fill:#C5C5C5;enable-background:new    ;}
	.st1{opacity:0.25;}
	.st2{fill:#7A7A7A;}
	.st3{fill:#005C9E;}
	.st4{fill:#4C5763;}
	.st5{fill:#646463;}
	.st6{fill:#EDEDED;}
	.st7{fill:#9B9D9D;}
	.st8{fill:#FCFCFC;}
	.st9{fill:#11588B;}
	.st10{fill:#8BADC6;}
	.st11{fill:#72B8DE;}
	.st12{fill:#D97F28;}
	.st13{fill:#9DCEE7;}
	.st14{fill:#E29F58;}
	.st15{fill:url(#SVGID_1_);}
	.st16{fill:#1D1A15;}
	.st17{fill:url(#SVGID_2_);}
	.st18{fill:url(#SVGID_3_);}
	.st19{fill:#365E94;}
	.st20{fill:#552361;}
	.st21{fill:url(#SVGID_4_);}
	.st22{fill:url(#SVGID_5_);}
	.st23{fill:url(#SVGID_6_);}
	.st24{fill:#FFFFFF;}
	.st25{fill:url(#SVGID_7_);}
	.st26{fill:url(#SVGID_8_);}
	.st27{fill:url(#SVGID_9_);}
	.st28{fill:url(#SVGID_10_);}
	.st29{fill:url(#SVGID_11_);}
	.st30{fill:url(#SVGID_12_);}
	.st31{fill:#4C79AF;}
	.st32{fill:#565556;}
	.st33{fill:none;stroke:#005C9E;stroke-width:5;stroke-linecap:round;stroke-miterlimit:10;}
	.st34{fill:#F2F2F2;}
	.st35{fill:none;stroke:#005C9E;stroke-width:2;stroke-linecap:round;stroke-miterlimit:10;}
	.st36{fill:none;stroke:#005C9E;stroke-width:5;stroke-miterlimit:10;}
	.st37{fill:url(#SVGID_13_);}
	.st38{fill:url(#SVGID_14_);}
	.st39{fill:url(#SVGID_15_);}
	.st40{fill:url(#SVGID_16_);}
	.st41{fill:url(#SVGID_17_);}
	.st42{fill:url(#SVGID_18_);}
	.st43{fill:#4A4A49;}
	.st44{fill:url(#SVGID_19_);}
	.st45{fill:url(#SVGID_20_);}
	.st46{fill:url(#SVGID_21_);}
	.st47{fill:url(#SVGID_22_);}
	.st48{fill:url(#SVGID_23_);}
	.st49{fill:url(#SVGID_24_);}
</style>
<path class="st3" d="M89,145.2c-26.4,0-47.8,21.8-47.8,47.8h95.7C136.8,167,115.4,145.2,89,145.2z"/>
<line class="st33" x1="0" y1="192.2" x2="490.8" y2="192.2"/>
<g>
	<path class="st34" d="M63.8,181.6h3.8v-12.1c0-0.4,0-0.7,0-1.1l-3.2,2.7c-0.1,0.1-0.2,0.1-0.2,0.1c-0.1,0-0.2,0-0.2,0
		c-0.1,0-0.2,0-0.3-0.1c-0.1-0.1-0.2-0.1-0.2-0.2l-0.7-1l5.3-4.6h1.8v16.1h3.5v1.7h-9.5V181.6z"/>
	<path class="st34" d="M81.4,176c-0.7,0-1.3-0.1-1.9-0.3c-0.6-0.2-1.1-0.6-1.6-1c-0.5-0.4-0.8-1-1.1-1.6c-0.3-0.6-0.4-1.4-0.4-2.2
		c0-0.8,0.1-1.5,0.4-2.2c0.3-0.7,0.7-1.3,1.2-1.8c0.5-0.5,1.1-0.9,1.9-1.2c0.7-0.3,1.5-0.4,2.4-0.4c0.9,0,1.6,0.1,2.3,0.4
		s1.3,0.7,1.8,1.2c0.5,0.5,0.9,1.1,1.1,1.8c0.3,0.7,0.4,1.5,0.4,2.3c0,0.5,0,1-0.1,1.5c-0.1,0.5-0.2,0.9-0.4,1.3
		c-0.2,0.4-0.4,0.9-0.7,1.3c-0.3,0.4-0.5,0.9-0.9,1.3l-4.3,6.3c-0.1,0.2-0.3,0.3-0.5,0.4c-0.2,0.1-0.4,0.1-0.7,0.1h-2l5.4-7.1
		c0.2-0.2,0.4-0.5,0.5-0.7c0.2-0.2,0.3-0.4,0.4-0.6c-0.5,0.4-1,0.6-1.5,0.8S82.1,176,81.4,176z M85.9,170.8c0-0.6-0.1-1.1-0.3-1.5
		c-0.2-0.5-0.4-0.8-0.7-1.1s-0.7-0.6-1.1-0.7c-0.4-0.2-0.9-0.3-1.4-0.3c-0.5,0-1,0.1-1.5,0.3s-0.8,0.4-1.2,0.7s-0.6,0.7-0.7,1.1
		s-0.3,0.9-0.3,1.4c0,0.6,0.1,1.1,0.2,1.5c0.2,0.4,0.4,0.8,0.7,1.1c0.3,0.3,0.7,0.5,1.1,0.7c0.4,0.2,0.9,0.2,1.5,0.2
		c0.6,0,1.1-0.1,1.6-0.3c0.5-0.2,0.8-0.5,1.2-0.8c0.3-0.3,0.6-0.7,0.7-1.1S85.9,171.2,85.9,170.8z"/>
	<path class="st34" d="M95.8,176c-0.7,0-1.3-0.1-1.9-0.3c-0.6-0.2-1.1-0.6-1.6-1c-0.5-0.4-0.8-1-1.1-1.6c-0.3-0.6-0.4-1.4-0.4-2.2
		c0-0.8,0.1-1.5,0.4-2.2c0.3-0.7,0.7-1.3,1.2-1.8c0.5-0.5,1.1-0.9,1.9-1.2c0.7-0.3,1.5-0.4,2.4-0.4c0.9,0,1.6,0.1,2.3,0.4
		s1.3,0.7,1.8,1.2c0.5,0.5,0.9,1.1,1.1,1.8c0.3,0.7,0.4,1.5,0.4,2.3c0,0.5,0,1-0.1,1.5c-0.1,0.5-0.2,0.9-0.4,1.3
		c-0.2,0.4-0.4,0.9-0.7,1.3c-0.3,0.4-0.5,0.9-0.9,1.3l-4.3,6.3c-0.1,0.2-0.3,0.3-0.5,0.4c-0.2,0.1-0.4,0.1-0.7,0.1h-2l5.4-7.1
		c0.2-0.2,0.4-0.5,0.5-0.7c0.2-0.2,0.3-0.4,0.4-0.6c-0.5,0.4-1,0.6-1.5,0.8S96.4,176,95.8,176z M100.3,170.8c0-0.6-0.1-1.1-0.3-1.5
		c-0.2-0.5-0.4-0.8-0.7-1.1s-0.7-0.6-1.1-0.7c-0.4-0.2-0.9-0.3-1.4-0.3c-0.5,0-1,0.1-1.5,0.3s-0.8,0.4-1.2,0.7s-0.6,0.7-0.7,1.1
		s-0.3,0.9-0.3,1.4c0,0.6,0.1,1.1,0.2,1.5c0.2,0.4,0.4,0.8,0.7,1.1c0.3,0.3,0.7,0.5,1.1,0.7c0.4,0.2,0.9,0.2,1.5,0.2
		c0.6,0,1.1-0.1,1.6-0.3c0.5-0.2,0.8-0.5,1.2-0.8c0.3-0.3,0.6-0.7,0.7-1.1S100.3,171.2,100.3,170.8z"/>
	<path class="st34" d="M114.6,176.8h2.7v1.3c0,0.1,0,0.2-0.1,0.3c-0.1,0.1-0.2,0.1-0.4,0.1h-2.2v4.7h-1.9v-4.7h-7.9
		c-0.2,0-0.3,0-0.4-0.1c-0.1-0.1-0.2-0.2-0.2-0.4l-0.2-1.1l8.6-11.5h2.1V176.8z M112.6,169.5c0-0.2,0-0.4,0-0.7c0-0.2,0-0.5,0.1-0.8
		l-6.5,8.8h6.4V169.5z"/>
</g>
<line class="st35" x1="88.9" y1="149.3" x2="88.9" y2="116.5"/>
<circle class="st3" cx="88.8" cy="107.4" r="9.3"/>
<line class="st35" x1="250" y1="149.3" x2="250" y2="116.5"/>
<circle class="st3" cx="250" cy="107.4" r="9.3"/>
<g>
	<path class="st3" d="M102.6,218.7c-0.2-0.2-0.4-0.3-0.8-0.3c-0.1,0-0.4,0.1-0.9,0.4c-0.4,0.3-0.9,0.5-1.4,0.8
		c-0.5,0.3-1.1,0.6-1.8,0.8c-0.7,0.3-1.4,0.4-1.9,0.4c-0.6,0-1.1-0.1-1.4-0.3c-1.4-0.6-2.6-1.1-3.6-1.4c-1-0.3-2.1-0.5-3.3-0.5
		c-2.1,0-4.4,0.7-7,2c-0.6,0.3-0.9,0.5-1.2,0.6l-0.3-1.8c0.6-0.5,0.9-1.2,0.9-2c0-1.4-1.2-2.6-2.6-2.6c-1.4,0-2.6,1.2-2.6,2.6
		c0,0.9,0.5,1.8,1.3,2.3l3.6,26.3c0.1,0.8,0.8,1.3,1.6,1.3c0.1,0,0.1,0,0.2,0c0.9-0.1,1.4-0.9,1.3-1.8l-1.4-10.5
		c2.6-1.3,4.9-1.9,6.8-1.9c0.8,0,1.6,0.1,2.4,0.4c0.8,0.3,1.4,0.5,1.9,0.8c0.5,0.3,1.1,0.6,1.8,0.8c0.7,0.3,1.4,0.4,2.1,0.4
		c1.7,0,3.8-0.6,6.1-1.9c0.3-0.1,0.5-0.3,0.6-0.4c0.1-0.1,0.2-0.4,0.2-0.6v-12.8C102.9,219.1,102.8,218.9,102.6,218.7L102.6,218.7z"
		/>
</g>
<path class="st36" d="M89.3,273.8h-1.7c-24.7,0-44.7-20-44.7-44.7V193h91v36.2C134,253.8,114,273.8,89.3,273.8z"/>
<path class="st3" d="M250,145.2c-26.4,0-47.8,21.8-47.8,47.8h95.7C297.8,167,276.4,145.2,250,145.2z"/>
<g>
	<path class="st34" d="M224.8,181.6h3.8v-12.1c0-0.4,0-0.7,0-1.1l-3.2,2.7c-0.1,0.1-0.2,0.1-0.2,0.1c-0.1,0-0.2,0-0.2,0
		c-0.1,0-0.2,0-0.3-0.1c-0.1-0.1-0.2-0.1-0.2-0.2l-0.7-1l5.3-4.6h1.8v16.1h3.5v1.7h-9.5V181.6z"/>
	<path class="st34" d="M242.4,176c-0.7,0-1.3-0.1-1.9-0.3c-0.6-0.2-1.1-0.6-1.6-1c-0.5-0.4-0.8-1-1.1-1.6c-0.3-0.6-0.4-1.4-0.4-2.2
		c0-0.8,0.1-1.5,0.4-2.2c0.3-0.7,0.7-1.3,1.2-1.8c0.5-0.5,1.1-0.9,1.9-1.2c0.7-0.3,1.5-0.4,2.4-0.4c0.9,0,1.6,0.1,2.3,0.4
		s1.3,0.7,1.8,1.2c0.5,0.5,0.9,1.1,1.1,1.8c0.3,0.7,0.4,1.5,0.4,2.3c0,0.5,0,1-0.1,1.5c-0.1,0.5-0.2,0.9-0.4,1.3
		c-0.2,0.4-0.4,0.9-0.7,1.3c-0.3,0.4-0.5,0.9-0.9,1.3l-4.3,6.3c-0.1,0.2-0.3,0.3-0.5,0.4c-0.2,0.1-0.4,0.1-0.7,0.1h-2l5.4-7.1
		c0.2-0.2,0.4-0.5,0.5-0.7c0.2-0.2,0.3-0.4,0.4-0.6c-0.5,0.4-1,0.6-1.5,0.8S243.1,176,242.4,176z M246.9,170.8
		c0-0.6-0.1-1.1-0.3-1.5c-0.2-0.5-0.4-0.8-0.7-1.1s-0.7-0.6-1.1-0.7c-0.4-0.2-0.9-0.3-1.4-0.3c-0.5,0-1,0.1-1.5,0.3
		s-0.8,0.4-1.2,0.7s-0.6,0.7-0.7,1.1s-0.3,0.9-0.3,1.4c0,0.6,0.1,1.1,0.2,1.5c0.2,0.4,0.4,0.8,0.7,1.1c0.3,0.3,0.7,0.5,1.1,0.7
		c0.4,0.2,0.9,0.2,1.5,0.2c0.6,0,1.1-0.1,1.6-0.3c0.5-0.2,0.8-0.5,1.2-0.8c0.3-0.3,0.6-0.7,0.7-1.1S246.9,171.2,246.9,170.8z"/>
	<path class="st34" d="M256.8,176c-0.7,0-1.3-0.1-1.9-0.3c-0.6-0.2-1.1-0.6-1.6-1c-0.5-0.4-0.8-1-1.1-1.6c-0.3-0.6-0.4-1.4-0.4-2.2
		c0-0.8,0.1-1.5,0.4-2.2c0.3-0.7,0.7-1.3,1.2-1.8c0.5-0.5,1.1-0.9,1.9-1.2c0.7-0.3,1.5-0.4,2.4-0.4c0.9,0,1.6,0.1,2.3,0.4
		c0.7,0.3,1.3,0.7,1.8,1.2c0.5,0.5,0.9,1.1,1.1,1.8c0.3,0.7,0.4,1.5,0.4,2.3c0,0.5,0,1-0.1,1.5s-0.2,0.9-0.4,1.3
		c-0.2,0.4-0.4,0.9-0.7,1.3c-0.3,0.4-0.5,0.9-0.9,1.3l-4.3,6.3c-0.1,0.2-0.3,0.3-0.5,0.4c-0.2,0.1-0.4,0.1-0.7,0.1h-2l5.4-7.1
		c0.2-0.2,0.4-0.5,0.5-0.7c0.2-0.2,0.3-0.4,0.4-0.6c-0.5,0.4-1,0.6-1.5,0.8C258.1,175.9,257.4,176,256.8,176z M261.3,170.8
		c0-0.6-0.1-1.1-0.3-1.5c-0.2-0.5-0.4-0.8-0.7-1.1s-0.7-0.6-1.1-0.7c-0.4-0.2-0.9-0.3-1.4-0.3c-0.5,0-1,0.1-1.5,0.3
		c-0.5,0.2-0.8,0.4-1.2,0.7s-0.6,0.7-0.7,1.1s-0.3,0.9-0.3,1.4c0,0.6,0.1,1.1,0.2,1.5c0.2,0.4,0.4,0.8,0.7,1.1
		c0.3,0.3,0.7,0.5,1.1,0.7c0.4,0.2,0.9,0.2,1.5,0.2c0.6,0,1.1-0.1,1.6-0.3c0.5-0.2,0.8-0.5,1.2-0.8c0.3-0.3,0.6-0.7,0.7-1.1
		C261.2,171.7,261.3,171.2,261.3,170.8z"/>
	<path class="st34" d="M271.6,183.5c-0.9,0-1.7-0.1-2.4-0.4c-0.7-0.2-1.4-0.6-1.9-1s-0.9-1-1.2-1.6c-0.3-0.6-0.4-1.3-0.4-2.1
		c0-1.1,0.3-2.1,0.9-2.8s1.4-1.3,2.6-1.6c-0.9-0.3-1.6-0.9-2.1-1.6c-0.5-0.7-0.7-1.5-0.7-2.5c0-0.7,0.1-1.3,0.4-1.8
		c0.3-0.6,0.6-1.1,1.1-1.5s1-0.8,1.7-1c0.7-0.2,1.4-0.4,2.2-0.4c0.8,0,1.5,0.1,2.2,0.4c0.7,0.2,1.2,0.6,1.7,1s0.8,0.9,1.1,1.5
		c0.3,0.6,0.4,1.2,0.4,1.8c0,1-0.2,1.8-0.7,2.5c-0.5,0.7-1.2,1.2-2.1,1.6c1.1,0.3,2,0.8,2.6,1.6s0.9,1.7,0.9,2.8
		c0,0.8-0.1,1.5-0.4,2.1c-0.3,0.6-0.7,1.2-1.2,1.6c-0.5,0.4-1.2,0.8-1.9,1C273.3,183.3,272.5,183.5,271.6,183.5z M271.6,181.7
		c0.6,0,1.1-0.1,1.6-0.2c0.5-0.2,0.8-0.4,1.2-0.7c0.3-0.3,0.6-0.6,0.7-1.1c0.2-0.4,0.3-0.9,0.3-1.4c0-0.6-0.1-1.1-0.3-1.6
		c-0.2-0.4-0.5-0.8-0.8-1.1c-0.3-0.3-0.7-0.5-1.2-0.6c-0.4-0.1-0.9-0.2-1.4-0.2c-0.5,0-1,0.1-1.4,0.2c-0.4,0.1-0.8,0.3-1.2,0.6
		c-0.3,0.3-0.6,0.6-0.8,1.1c-0.2,0.4-0.3,1-0.3,1.6c0,0.5,0.1,0.9,0.3,1.4c0.2,0.4,0.4,0.8,0.7,1.1c0.3,0.3,0.7,0.5,1.2,0.7
		C270.5,181.6,271,181.7,271.6,181.7z M271.6,173.2c0.6,0,1.1-0.1,1.5-0.3c0.4-0.2,0.7-0.4,1-0.7c0.3-0.3,0.4-0.6,0.6-1
		c0.1-0.4,0.2-0.8,0.2-1.2c0-0.4-0.1-0.8-0.2-1.2c-0.1-0.4-0.3-0.7-0.6-1c-0.3-0.3-0.6-0.5-1-0.6s-0.9-0.2-1.4-0.2
		c-0.5,0-1,0.1-1.4,0.2s-0.7,0.4-1,0.6c-0.3,0.3-0.5,0.6-0.6,1c-0.1,0.4-0.2,0.8-0.2,1.2c0,0.4,0.1,0.8,0.2,1.2
		c0.1,0.4,0.3,0.7,0.6,1c0.3,0.3,0.6,0.5,1,0.7C270.5,173.1,271,173.2,271.6,173.2z"/>
</g>
<path class="st36" d="M250.8,273.8h-1.7c-24.7,0-44.7-20-44.7-44.7V193h91v36.2C295.5,253.8,275.5,273.8,250.8,273.8z"/>
<path class="st3" d="M411,145.2c-26.4,0-47.8,21.8-47.8,47.8h95.7C458.8,167,437.4,145.2,411,145.2z"/>
<g>
	<path class="st34" d="M389.7,165.3c0.8,0,1.5,0.1,2.1,0.3c0.7,0.2,1.2,0.5,1.7,1s0.8,0.9,1.1,1.6c0.3,0.6,0.4,1.3,0.4,2.1
		c0,0.7-0.1,1.3-0.3,1.8c-0.2,0.6-0.5,1.1-0.8,1.6c-0.3,0.5-0.7,1-1.2,1.5c-0.4,0.5-0.9,1-1.4,1.5l-4.7,4.8c0.3-0.1,0.7-0.2,1-0.2
		c0.3-0.1,0.7-0.1,1-0.1h6c0.2,0,0.4,0.1,0.6,0.2c0.1,0.1,0.2,0.3,0.2,0.5v1.3h-11.9v-0.8c0-0.2,0-0.3,0.1-0.5
		c0.1-0.2,0.2-0.3,0.3-0.5l5.7-5.7c0.5-0.5,0.9-0.9,1.3-1.4c0.4-0.4,0.7-0.9,1-1.3c0.3-0.4,0.5-0.9,0.6-1.4c0.1-0.5,0.2-0.9,0.2-1.5
		c0-0.5-0.1-1-0.2-1.4c-0.2-0.4-0.4-0.7-0.7-1c-0.3-0.3-0.6-0.4-1-0.6c-0.4-0.1-0.8-0.2-1.3-0.2c-0.4,0-0.9,0.1-1.2,0.2
		c-0.4,0.1-0.7,0.3-1,0.6c-0.3,0.2-0.5,0.5-0.7,0.8c-0.2,0.3-0.3,0.7-0.4,1.1c-0.1,0.2-0.2,0.4-0.3,0.5c-0.1,0.1-0.3,0.2-0.5,0.2
		c0,0-0.1,0-0.1,0c0,0-0.1,0-0.2,0l-1.2-0.2c0.1-0.8,0.3-1.5,0.7-2.2s0.8-1.1,1.3-1.6s1.1-0.7,1.7-1
		C388.2,165.4,388.9,165.3,389.7,165.3z"/>
	<path class="st34" d="M410.3,174.4c0,1.6-0.2,2.9-0.5,4c-0.3,1.1-0.8,2.1-1.4,2.8c-0.6,0.7-1.3,1.3-2.1,1.7
		c-0.8,0.4-1.6,0.5-2.5,0.5c-0.9,0-1.8-0.2-2.5-0.5c-0.8-0.4-1.5-0.9-2-1.7c-0.6-0.7-1-1.7-1.4-2.8c-0.3-1.1-0.5-2.5-0.5-4
		c0-1.6,0.2-2.9,0.5-4s0.8-2.1,1.4-2.8c0.6-0.7,1.3-1.3,2-1.7c0.8-0.4,1.6-0.5,2.5-0.5c0.9,0,1.7,0.2,2.5,0.5
		c0.8,0.4,1.5,0.9,2.1,1.7c0.6,0.7,1,1.7,1.4,2.8S410.3,172.8,410.3,174.4z M408,174.4c0-1.4-0.1-2.5-0.3-3.4
		c-0.2-0.9-0.5-1.7-0.9-2.2s-0.8-1-1.3-1.2s-1-0.4-1.6-0.4c-0.5,0-1.1,0.1-1.6,0.4c-0.5,0.2-0.9,0.6-1.3,1.2
		c-0.4,0.6-0.7,1.3-0.9,2.2c-0.2,0.9-0.3,2.1-0.3,3.4s0.1,2.5,0.3,3.4s0.5,1.7,0.9,2.2c0.4,0.6,0.8,1,1.3,1.2c0.5,0.2,1,0.4,1.6,0.4
		c0.5,0,1.1-0.1,1.6-0.4s0.9-0.6,1.3-1.2s0.7-1.3,0.9-2.2S408,175.7,408,174.4z"/>
	<path class="st34" d="M424.6,174.4c0,1.6-0.2,2.9-0.5,4c-0.3,1.1-0.8,2.1-1.4,2.8c-0.6,0.7-1.3,1.3-2.1,1.7
		c-0.8,0.4-1.6,0.5-2.5,0.5c-0.9,0-1.8-0.2-2.5-0.5c-0.8-0.4-1.5-0.9-2-1.7c-0.6-0.7-1-1.7-1.4-2.8c-0.3-1.1-0.5-2.5-0.5-4
		c0-1.6,0.2-2.9,0.5-4s0.8-2.1,1.4-2.8c0.6-0.7,1.3-1.3,2-1.7c0.8-0.4,1.6-0.5,2.5-0.5c0.9,0,1.7,0.2,2.5,0.5
		c0.8,0.4,1.5,0.9,2.1,1.7c0.6,0.7,1,1.7,1.4,2.8S424.6,172.8,424.6,174.4z M422.4,174.4c0-1.4-0.1-2.5-0.3-3.4
		c-0.2-0.9-0.5-1.7-0.9-2.2c-0.4-0.6-0.8-1-1.3-1.2c-0.5-0.2-1-0.4-1.6-0.4s-1.1,0.1-1.6,0.4c-0.5,0.2-0.9,0.6-1.3,1.2
		c-0.4,0.6-0.7,1.3-0.9,2.2c-0.2,0.9-0.3,2.1-0.3,3.4s0.1,2.5,0.3,3.4s0.5,1.7,0.9,2.2c0.4,0.6,0.8,1,1.3,1.2c0.5,0.2,1,0.4,1.6,0.4
		s1.1-0.1,1.6-0.4c0.5-0.2,0.9-0.6,1.3-1.2c0.4-0.6,0.7-1.3,0.9-2.2S422.4,175.7,422.4,174.4z"/>
	<path class="st34" d="M432.6,183.5c-0.9,0-1.7-0.1-2.4-0.4c-0.7-0.2-1.4-0.6-1.9-1s-0.9-1-1.2-1.6c-0.3-0.6-0.4-1.3-0.4-2.1
		c0-1.1,0.3-2.1,0.9-2.8s1.4-1.3,2.6-1.6c-0.9-0.3-1.6-0.9-2.1-1.6c-0.5-0.7-0.7-1.5-0.7-2.5c0-0.7,0.1-1.3,0.4-1.8
		c0.3-0.6,0.6-1.1,1.1-1.5s1-0.8,1.7-1c0.7-0.2,1.4-0.4,2.2-0.4c0.8,0,1.5,0.1,2.2,0.4c0.7,0.2,1.2,0.6,1.7,1s0.8,0.9,1.1,1.5
		c0.3,0.6,0.4,1.2,0.4,1.8c0,1-0.2,1.8-0.7,2.5c-0.5,0.7-1.2,1.2-2.1,1.6c1.1,0.3,2,0.8,2.6,1.6s0.9,1.7,0.9,2.8
		c0,0.8-0.1,1.5-0.4,2.1c-0.3,0.6-0.7,1.2-1.2,1.6c-0.5,0.4-1.2,0.8-1.9,1C434.3,183.3,433.5,183.5,432.6,183.5z M432.6,181.7
		c0.6,0,1.1-0.1,1.6-0.2c0.5-0.2,0.8-0.4,1.2-0.7c0.3-0.3,0.6-0.6,0.7-1.1c0.2-0.4,0.3-0.9,0.3-1.4c0-0.6-0.1-1.1-0.3-1.6
		c-0.2-0.4-0.5-0.8-0.8-1.1c-0.3-0.3-0.7-0.5-1.2-0.6c-0.4-0.1-0.9-0.2-1.4-0.2c-0.5,0-1,0.1-1.4,0.2c-0.4,0.1-0.8,0.3-1.2,0.6
		c-0.3,0.3-0.6,0.6-0.8,1.1c-0.2,0.4-0.3,1-0.3,1.6c0,0.5,0.1,0.9,0.3,1.4c0.2,0.4,0.4,0.8,0.7,1.1c0.3,0.3,0.7,0.5,1.2,0.7
		C431.5,181.6,432,181.7,432.6,181.7z M432.6,173.2c0.6,0,1.1-0.1,1.5-0.3c0.4-0.2,0.7-0.4,1-0.7c0.3-0.3,0.4-0.6,0.6-1
		c0.1-0.4,0.2-0.8,0.2-1.2c0-0.4-0.1-0.8-0.2-1.2c-0.1-0.4-0.3-0.7-0.6-1c-0.3-0.3-0.6-0.5-1-0.6s-0.9-0.2-1.4-0.2
		c-0.5,0-1,0.1-1.4,0.2s-0.7,0.4-1,0.6c-0.3,0.3-0.5,0.6-0.6,1c-0.1,0.4-0.2,0.8-0.2,1.2c0,0.4,0.1,0.8,0.2,1.2
		c0.1,0.4,0.3,0.7,0.6,1c0.3,0.3,0.6,0.5,1,0.7C431.5,173.1,432,173.2,432.6,173.2z"/>
</g>
<line class="st35" x1="411" y1="149.3" x2="411" y2="116.5"/>
<circle class="st3" cx="411" cy="107.4" r="9.3"/>
<path class="st36" d="M411.8,273.8h-1.7c-24.7,0-44.7-20-44.7-44.7V193h91v36.2C456.5,253.8,436.5,273.8,411.8,273.8z"/>
<g>
	<path class="st3" d="M266.4,214.7h-33.3c-1,0-1.8,0.8-1.8,1.8v20.9c0,1,0.8,1.8,1.8,1.8h12.5v4.1h-4.9c-0.9,0-1.6,0.8-1.6,1.6
		c0,0.9,0.8,1.6,1.6,1.6h18.1c0.9,0,1.6-0.8,1.6-1.6c0-0.9-0.8-1.6-1.6-1.6h-4.9v-4.1h12.5c1,0,1.8-0.8,1.8-1.8v-20.9
		C268.2,215.5,267.4,214.7,266.4,214.7L266.4,214.7z M265.5,236.5H234v-19.1h31.6V236.5z"/>
	<path class="st3" d="M239.7,228l5.6,2.6c0.1,0.1,0.3,0.1,0.4,0.1c0.2,0,0.4-0.1,0.6-0.2c0.3-0.2,0.5-0.6,0.5-1l0,0
		c0-0.4-0.3-0.8-0.6-1l-3.6-1.6l3.6-1.6c0.4-0.2,0.6-0.6,0.6-1l0,0c0-0.4-0.2-0.7-0.5-1c-0.2-0.1-0.4-0.2-0.6-0.2
		c-0.2,0-0.3,0.1-0.4,0.1l-5.6,2.6c-0.4,0.2-0.6,0.6-0.6,1v0.1C239.1,227.4,239.4,227.8,239.7,228L239.7,228z"/>
	<path class="st3" d="M247,233.3c0.2,0.3,0.5,0.4,0.9,0.4l0,0c0.5,0,0.9-0.3,1-0.8l3.7-11.5c0.1-0.3,0.1-0.7-0.1-1
		c-0.2-0.3-0.5-0.4-0.9-0.4l0,0c-0.5,0-0.9,0.3-1,0.8l-3.7,11.5C246.7,232.7,246.8,233,247,233.3L247,233.3z"/>
	<path class="st3" d="M252.5,224.3c0,0.4,0.3,0.8,0.6,1l3.6,1.6l-3.6,1.6c-0.4,0.2-0.6,0.6-0.6,1l0,0c0,0.4,0.2,0.7,0.5,1
		c0.2,0.1,0.4,0.2,0.6,0.2c0.2,0,0.3-0.1,0.4-0.1l5.6-2.6c0.4-0.2,0.6-0.6,0.6-1V227c0-0.4-0.3-0.8-0.6-1l-5.6-2.6
		c-0.1-0.1-0.3-0.1-0.4-0.1c-0.2,0-0.4,0.1-0.6,0.2C252.7,223.5,252.5,223.9,252.5,224.3L252.5,224.3z"/>
</g>
<g>
	<path class="st7" d="M373.6,223.5l12.3-7l12.3,7v14.3l-12.3,7.2l-12.4-7.2L373.6,223.5z"/>
	<path class="st7" d="M402.7,232h4.2v0.8h-1.5v4.9h-1.1v-4.9h-1.5L402.7,232L402.7,232z M410,235.5v0.4h-3c0,0.4,0.1,0.6,0.4,0.8
		c0.2,0.2,0.6,0.3,1,0.3c0.2,0,0.4,0,0.6-0.1c0.2-0.1,0.4-0.1,0.6-0.2v0.8c-0.2,0.1-0.4,0.1-0.6,0.2c-0.2,0.1-0.5,0.1-0.8,0.1
		c-0.7,0-1.3-0.2-1.6-0.6c-0.4-0.4-0.6-1-0.6-1.7c0-0.6,0.2-1.1,0.6-1.5c0.4-0.4,0.8-0.6,1.5-0.6c0.6,0,1.1,0.2,1.4,0.6
		C409.8,234.3,410,234.9,410,235.5L410,235.5z M409,235.2c0-0.4-0.1-0.6-0.3-0.8s-0.4-0.3-0.6-0.3c-0.3,0-0.5,0.1-0.7,0.3
		c-0.2,0.2-0.3,0.5-0.4,0.8H409z M413.7,233.6l-0.1,0.8c-0.2-0.1-0.4-0.1-0.5-0.1s-0.3-0.1-0.4-0.1c-0.4,0-0.7,0.1-1,0.4
		c-0.2,0.2-0.4,0.6-0.4,1c0,0.4,0.1,0.7,0.4,1c0.2,0.3,0.6,0.4,1,0.4c0.1,0,0.3,0,0.4-0.1c0.1-0.1,0.3-0.1,0.5-0.2l0.1,0.8
		c-0.3,0.1-0.6,0.1-0.7,0.2c-0.1,0-0.4,0.1-0.5,0.1c-0.7,0-1.2-0.2-1.6-0.6c-0.4-0.4-0.6-0.9-0.6-1.6c0-0.6,0.2-1.1,0.6-1.5
		c0.4-0.4,1-0.6,1.6-0.6c0.2,0,0.6,0.1,0.9,0.1C413.5,233.6,413.6,233.6,413.7,233.6L413.7,233.6z M414.3,231.5h1.1v6.1h-1.1V231.5z
		 M418.3,234.2c-0.4,0-0.6,0.1-0.8,0.4c-0.2,0.3-0.3,0.6-0.3,1c0,0.4,0.1,0.8,0.3,1c0.2,0.3,0.5,0.4,0.8,0.4c0.4,0,0.6-0.1,0.8-0.4
		c0.2-0.3,0.3-0.6,0.3-1c0-0.4-0.1-0.8-0.3-1.1C418.9,234.3,418.6,234.2,418.3,234.2L418.3,234.2z M418.3,233.4
		c0.7,0,1.3,0.2,1.6,0.6c0.4,0.4,0.6,0.9,0.6,1.6s-0.2,1.2-0.6,1.6c-0.4,0.4-0.9,0.6-1.6,0.6c-0.7,0-1.2-0.2-1.6-0.6
		c-0.4-0.4-0.6-0.9-0.6-1.6s0.2-1.2,0.6-1.6C417.1,233.6,417.6,233.4,418.3,233.4L418.3,233.4z M418.5,231.5h0.9l-1.2,1.5h-0.5
		L418.5,231.5z M423.1,234.3c-0.3,0-0.6,0.1-0.7,0.4c-0.2,0.2-0.3,0.6-0.3,0.9c0,0.4,0.1,0.7,0.3,1c0.2,0.2,0.4,0.4,0.7,0.4
		c0.3,0,0.6-0.1,0.7-0.4c0.2-0.2,0.3-0.6,0.3-0.9c0-0.4-0.1-0.8-0.3-1C423.7,234.3,423.4,234.3,423.1,234.3L423.1,234.3z
		 M424.2,234.3v-0.7h1v3.7c0,0.8-0.2,1.3-0.6,1.8c-0.4,0.4-1,0.6-1.8,0.6c-0.3,0-0.5,0-0.8-0.1c-0.2-0.1-0.5-0.1-0.7-0.2l0.1-0.8
		c0.2,0.1,0.4,0.2,0.6,0.3c0.2,0.1,0.4,0.1,0.6,0.1c0.4,0,0.8-0.1,1-0.4c0.2-0.2,0.4-0.6,0.4-1V237c-0.2,0.3-0.4,0.5-0.6,0.6
		c-0.2,0.1-0.5,0.2-0.8,0.2c-0.6,0-1-0.2-1.3-0.6c-0.4-0.4-0.5-0.9-0.5-1.5c0-0.6,0.1-1.1,0.5-1.5c0.4-0.4,0.8-0.6,1.3-0.6
		c0.3,0,0.6,0.1,0.8,0.2C423.8,233.8,424,234,424.2,234.3L424.2,234.3z M426.1,233.5h1.1v4.2h-1.1V233.5z M426.1,231.7h1.1v1.1h-1.1
		V231.7z M431.3,233.6l-0.1,0.8c-0.2-0.1-0.4-0.1-0.5-0.1s-0.3-0.1-0.4-0.1c-0.4,0-0.7,0.1-1,0.4c-0.2,0.2-0.4,0.6-0.4,1
		c0,0.4,0.1,0.7,0.4,1c0.2,0.3,0.6,0.4,1,0.4c0.1,0,0.3,0,0.4-0.1c0.1-0.1,0.3-0.1,0.5-0.2l0.1,0.8c-0.3,0.1-0.6,0.1-0.7,0.2
		c-0.1,0-0.4,0.1-0.5,0.1c-0.7,0-1.2-0.2-1.6-0.6c-0.4-0.4-0.6-0.9-0.6-1.6c0-0.6,0.2-1.1,0.6-1.5c0.4-0.4,1-0.6,1.6-0.6
		c0.2,0,0.6,0.1,0.9,0.1C431.1,233.6,431.2,233.6,431.3,233.6L431.3,233.6z M434,235.7c-0.4,0-0.8,0.1-1,0.2
		c-0.2,0.1-0.4,0.3-0.4,0.6c0,0.2,0.1,0.4,0.2,0.4c0.1,0.1,0.3,0.1,0.5,0.1c0.3,0,0.6-0.1,0.7-0.3c0.2-0.2,0.3-0.5,0.3-0.8v-0.2
		L434,235.7L434,235.7z M435.4,235.3v2.4h-0.9V237c-0.1,0.3-0.4,0.4-0.6,0.6c-0.2,0.1-0.5,0.2-0.8,0.2c-0.4,0-0.8-0.1-1-0.4
		c-0.3-0.2-0.4-0.6-0.4-0.9c0-0.5,0.2-0.8,0.6-1.1c0.4-0.2,0.9-0.4,1.6-0.4h0.6V235c0-0.3-0.1-0.5-0.3-0.6c-0.2-0.1-0.4-0.2-0.8-0.2
		c-0.2,0-0.4,0-0.6,0.1c-0.2,0.1-0.4,0.1-0.6,0.3v-0.8c0.3-0.1,0.5-0.2,0.7-0.2c0.2-0.1,0.5-0.1,0.7-0.1c0.6,0,1.1,0.1,1.3,0.4
		C435.2,234.2,435.4,234.7,435.4,235.3L435.4,235.3z"/>
	<path class="st7" d="M403.3,224.5h1.1v3.4c0,0.6,0.1,1,0.3,1.2c0.2,0.3,0.5,0.4,0.8,0.4c0.4,0,0.7-0.1,0.9-0.4
		c0.2-0.3,0.3-0.7,0.3-1.2v-3.3h1.1v3.3c0,0.8-0.2,1.5-0.6,1.9c-0.4,0.4-1,0.6-1.7,0.6c-0.8,0-1.3-0.2-1.7-0.6
		c-0.4-0.4-0.6-1.1-0.6-1.8V224.5z M412.8,227.7v2.5h-1.1v-2.3c0-0.4-0.1-0.7-0.2-0.8c-0.1-0.2-0.4-0.3-0.6-0.3
		c-0.3,0-0.6,0.1-0.7,0.4c-0.2,0.2-0.3,0.6-0.3,1v2h-1.1V226h1v0.8c0.1-0.3,0.4-0.5,0.6-0.6c0.3-0.1,0.6-0.2,0.8-0.2
		c0.5,0,0.8,0.1,1.1,0.4C412.6,226.7,412.8,227.1,412.8,227.7L412.8,227.7z M413.6,226h1.1v4.2h-1.1V226z M413.6,224.1h1.1v1.1h-1.1
		V224.1z M415.2,226h1.1l1,3.2l1-3.2h1.1l-1.5,4.2h-1.3L415.2,226z M423.5,228.1v0.4h-3c0,0.4,0.1,0.6,0.4,0.8
		c0.2,0.2,0.6,0.3,1,0.3c0.2,0,0.4,0,0.6-0.1c0.2-0.1,0.4-0.1,0.6-0.2v0.8c-0.2,0.1-0.4,0.1-0.6,0.2c-0.2,0.1-0.5,0.1-0.8,0.1
		c-0.7,0-1.3-0.2-1.6-0.6c-0.4-0.4-0.6-1-0.6-1.7c0-0.6,0.2-1.1,0.6-1.5c0.4-0.4,0.8-0.6,1.5-0.6c0.6,0,1.1,0.2,1.4,0.6
		C423.3,226.9,423.5,227.4,423.5,228.1L423.5,228.1z M422.5,227.7c0-0.4-0.1-0.6-0.3-0.8c-0.1-0.2-0.4-0.3-0.6-0.3
		c-0.3,0-0.5,0.1-0.7,0.3c-0.2,0.2-0.3,0.5-0.4,0.8H422.5z M426.6,225.9l-0.1,1c-0.1,0-0.1,0-0.2-0.1c-0.1,0-0.1,0-0.2,0
		c-0.4,0-0.6,0.1-0.8,0.4c-0.2,0.2-0.3,0.6-0.3,1.1v2h-1v-4.2h1v0.8c0.1-0.3,0.3-0.6,0.5-0.7c0.2-0.1,0.4-0.2,0.7-0.2
		c0.1,0,0.1,0,0.1,0C426.4,225.9,426.5,225.9,426.6,225.9L426.6,225.9z M429.7,226.2l-0.1,0.8c-0.2-0.1-0.4-0.1-0.6-0.2
		c-0.2-0.1-0.4-0.1-0.6-0.1c-0.2,0-0.4,0-0.4,0.1c-0.1,0.1-0.1,0.1-0.1,0.3c0,0.2,0.2,0.4,0.6,0.6c0.1,0,0.1,0.1,0.1,0.1
		c0.4,0.2,0.8,0.4,0.9,0.6c0.1,0.2,0.3,0.4,0.3,0.7c0,0.4-0.1,0.7-0.5,0.9c-0.3,0.2-0.8,0.4-1.3,0.4c-0.2,0-0.4,0-0.7-0.1
		c-0.2-0.1-0.4-0.1-0.6-0.1l0.1-0.8c0.2,0.1,0.4,0.1,0.6,0.2c0.2,0.1,0.4,0.1,0.6,0.1c0.2,0,0.4-0.1,0.5-0.1
		c0.1-0.1,0.1-0.1,0.1-0.3c0-0.2-0.3-0.4-0.8-0.7l0,0c-0.4-0.2-0.7-0.4-0.8-0.6c-0.1-0.1-0.2-0.4-0.2-0.6c0-0.4,0.1-0.6,0.5-0.9
		c0.3-0.2,0.7-0.4,1.2-0.4c0.1,0,0.3,0,0.4,0.1C429.2,226,429.4,226,429.7,226.2L429.7,226.2z M430.5,226h1.1v4.2h-1.1V226z
		 M430.5,224.1h1.1v1.1h-1.1V224.1z M434.4,226.7c-0.3,0-0.5,0.1-0.7,0.4c-0.2,0.3-0.3,0.6-0.3,1s0.1,0.8,0.3,1
		c0.2,0.2,0.4,0.4,0.7,0.4c0.3,0,0.6-0.1,0.8-0.4c0.2-0.2,0.3-0.6,0.3-1s-0.1-0.8-0.3-1C434.9,226.9,434.7,226.7,434.4,226.7
		L434.4,226.7z M435.4,224h1.1v6.1h-1v-0.8c-0.1,0.3-0.4,0.6-0.6,0.7c-0.3,0.1-0.6,0.2-0.8,0.2c-0.5,0-0.9-0.2-1.3-0.6
		c-0.4-0.4-0.5-0.9-0.5-1.6c0-0.6,0.1-1.1,0.5-1.5c0.4-0.4,0.7-0.6,1.3-0.6c0.3,0,0.6,0.1,0.8,0.2c0.2,0.1,0.4,0.3,0.6,0.6
		L435.4,224L435.4,224z M439.6,228.2c-0.4,0-0.8,0.1-1,0.2c-0.2,0.1-0.4,0.3-0.4,0.6c0,0.2,0.1,0.4,0.2,0.4c0.1,0.1,0.3,0.1,0.5,0.1
		c0.3,0,0.6-0.1,0.7-0.3c0.2-0.2,0.3-0.5,0.3-0.8v-0.3H439.6z M441,227.8v2.4h-0.9v-0.7c-0.1,0.3-0.4,0.4-0.6,0.6
		c-0.2,0.1-0.5,0.2-0.8,0.2c-0.4,0-0.8-0.1-1-0.4c-0.3-0.2-0.4-0.6-0.4-0.9c0-0.5,0.2-0.8,0.6-1.1c0.4-0.2,0.9-0.4,1.6-0.4h0.6v-0.1
		c0-0.3-0.1-0.5-0.3-0.6c-0.2-0.1-0.4-0.2-0.8-0.2c-0.2,0-0.4,0-0.6,0.1c-0.2,0.1-0.4,0.1-0.6,0.3v-0.8c0.3-0.1,0.5-0.2,0.7-0.2
		c0.2-0.1,0.5-0.1,0.7-0.1c0.6,0,1.1,0.1,1.3,0.4C440.9,226.7,441,227.1,441,227.8L441,227.8z M443.7,226.7c-0.3,0-0.5,0.1-0.7,0.4
		c-0.2,0.3-0.3,0.6-0.3,1s0.1,0.8,0.3,1c0.2,0.2,0.4,0.4,0.7,0.4c0.3,0,0.6-0.1,0.8-0.4c0.2-0.2,0.3-0.6,0.3-1s-0.1-0.8-0.3-1
		C444.3,226.9,444,226.7,443.7,226.7L443.7,226.7z M444.8,224h1.1v6.1h-1v-0.8c-0.1,0.3-0.4,0.6-0.6,0.7c-0.3,0.1-0.6,0.2-0.8,0.2
		c-0.5,0-0.9-0.2-1.3-0.6c-0.4-0.4-0.5-0.9-0.5-1.6c0-0.6,0.1-1.1,0.5-1.5c0.4-0.4,0.7-0.6,1.3-0.6c0.3,0,0.6,0.1,0.8,0.2
		c0.2,0.1,0.4,0.3,0.6,0.6L444.8,224L444.8,224z M450.5,228.1v0.4h-3c0,0.4,0.1,0.6,0.4,0.8c0.2,0.2,0.6,0.3,1,0.3
		c0.2,0,0.4,0,0.6-0.1c0.2-0.1,0.4-0.1,0.6-0.2v0.8c-0.2,0.1-0.4,0.1-0.6,0.2c-0.2,0.1-0.5,0.1-0.8,0.1c-0.7,0-1.3-0.2-1.6-0.6
		c-0.4-0.4-0.6-1-0.6-1.7c0-0.6,0.2-1.1,0.6-1.5c0.4-0.4,0.8-0.6,1.5-0.6c0.6,0,1.1,0.2,1.4,0.6
		C450.4,226.9,450.5,227.4,450.5,228.1L450.5,228.1z M449.6,227.7c0-0.4-0.1-0.6-0.3-0.8c-0.1-0.2-0.4-0.3-0.6-0.3
		c-0.3,0-0.5,0.1-0.7,0.3s-0.3,0.5-0.4,0.8H449.6z"/>
	<path class="st7" d="M404.4,219.3l-0.3,1.3l0,0c0.1,0,0.1,0,0.2,0c0.4,0,0.6-0.1,0.8-0.2c0.1-0.1,0.3-0.3,0.3-0.6
		c0-0.2-0.1-0.3-0.2-0.4c-0.1-0.1-0.3-0.1-0.6-0.1L404.4,219.3L404.4,219.3z M404,218.8h0.8c0.4,0,0.6,0.1,0.8,0.2
		c0.2,0.1,0.3,0.4,0.3,0.7c0,0.4-0.1,0.6-0.4,0.8c-0.3,0.2-0.6,0.3-1.1,0.3c-0.1,0-0.1,0-0.2,0c-0.1,0-0.1,0-0.2,0l-0.4,1.5h-0.5
		L404,218.8z M407.8,219.8l-0.1,0.4c-0.1,0-0.1,0-0.1,0c-0.1,0-0.1,0-0.1,0c-0.2,0-0.4,0.1-0.5,0.2c-0.1,0.1-0.2,0.4-0.3,0.7
		l-0.3,1.3h-0.5l0.6-2.6h0.4l-0.1,0.4c0.1-0.1,0.3-0.3,0.4-0.4c0.1-0.1,0.3-0.1,0.4-0.1c0.1,0,0.1,0,0.1,0
		C407.7,219.8,407.8,219.8,407.8,219.8L407.8,219.8z M409.7,220.9c0-0.2-0.1-0.4-0.2-0.6c-0.1-0.1-0.3-0.2-0.5-0.2
		c-0.1,0-0.2,0-0.3,0.1c-0.1,0.1-0.1,0.1-0.3,0.1c-0.1,0.1-0.2,0.3-0.3,0.4c-0.1,0.1-0.1,0.4-0.1,0.6c0,0.2,0.1,0.4,0.2,0.6
		c0.1,0.1,0.3,0.2,0.5,0.2c0.3,0,0.5-0.1,0.6-0.4C409.6,221.5,409.7,221.2,409.7,220.9L409.7,220.9z M409.1,219.8
		c0.4,0,0.6,0.1,0.8,0.3c0.2,0.2,0.3,0.5,0.3,0.8c0,0.2-0.1,0.4-0.1,0.6c-0.1,0.2-0.2,0.4-0.4,0.5c-0.1,0.1-0.3,0.3-0.5,0.4
		c-0.2,0.1-0.4,0.1-0.6,0.1c-0.4,0-0.6-0.1-0.8-0.3c-0.2-0.2-0.3-0.5-0.3-0.8c0-0.2,0-0.4,0.1-0.6c0.1-0.2,0.2-0.4,0.4-0.6
		c0.1-0.1,0.3-0.2,0.4-0.3C408.7,219.8,408.9,219.8,409.1,219.8L409.1,219.8z M411.6,219.2h-0.5l0.1-0.6h0.5L411.6,219.2z
		 M410.9,219.8h0.5l-0.6,2.8c-0.1,0.3-0.1,0.5-0.3,0.6c-0.1,0.1-0.3,0.2-0.6,0.2c-0.1,0-0.1,0-0.2,0c-0.1,0-0.1,0-0.2,0l0.1-0.4
		c0.1,0,0.1,0,0.1,0c0.1,0,0.1,0,0.1,0c0.1,0,0.2-0.1,0.3-0.1s0.1-0.2,0.1-0.4L410.9,219.8z M413.9,221.2h-1.8v0.1v0.1
		c0,0.2,0.1,0.4,0.2,0.6c0.1,0.1,0.4,0.2,0.6,0.2c0.1,0,0.2,0,0.4-0.1c0.1,0,0.2-0.1,0.4-0.1l-0.1,0.4c-0.1,0.1-0.3,0.1-0.4,0.1
		c-0.1,0-0.3,0.1-0.4,0.1c-0.4,0-0.6-0.1-0.8-0.3c-0.2-0.2-0.3-0.5-0.3-0.8c0-0.2,0-0.4,0.1-0.6c0.1-0.2,0.1-0.4,0.3-0.5
		c0.1-0.1,0.3-0.3,0.4-0.4c0.1-0.1,0.4-0.1,0.6-0.1c0.3,0,0.6,0.1,0.7,0.3c0.1,0.2,0.3,0.4,0.3,0.8
		C413.9,221,413.9,221.1,413.9,221.2C414,221.1,413.9,221.2,413.9,221.2L413.9,221.2z M413.5,220.9L413.5,220.9v-0.1
		c0-0.2-0.1-0.4-0.1-0.5c-0.1-0.1-0.2-0.1-0.4-0.1c-0.2,0-0.4,0.1-0.5,0.2c-0.1,0.1-0.3,0.4-0.4,0.6L413.5,220.9L413.5,220.9z
		 M415.4,219l-0.1,0.8h0.6l-0.1,0.4h-0.6l-0.3,1.3c0,0.1,0,0.1,0,0.1s0,0.1,0,0.1c0,0.1,0,0.1,0.1,0.2c0.1,0.1,0.1,0.1,0.2,0.1
		c0,0,0.1,0,0.1,0c0.1,0,0.1,0,0.1-0.1l-0.1,0.4c-0.1,0-0.1,0-0.1,0c-0.1,0-0.1,0-0.1,0c-0.2,0-0.4-0.1-0.5-0.1
		c-0.1-0.1-0.1-0.3-0.1-0.4c0-0.1,0-0.1,0-0.1s0-0.1,0-0.1l0.3-1.3h-0.6l0.1-0.4h0.5l0.1-0.6L415.4,219z M418,220.9
		c0-0.2-0.1-0.4-0.2-0.6c-0.1-0.1-0.3-0.2-0.5-0.2c-0.1,0-0.2,0-0.3,0.1c-0.1,0.1-0.1,0.1-0.3,0.1c-0.1,0.1-0.2,0.3-0.3,0.4
		c-0.1,0.1-0.1,0.4-0.1,0.6c0,0.2,0.1,0.4,0.2,0.6c0.1,0.1,0.3,0.2,0.5,0.2c0.3,0,0.5-0.1,0.6-0.4C417.8,221.5,418,221.2,418,220.9
		L418,220.9z M417.3,219.8c0.4,0,0.6,0.1,0.8,0.3c0.2,0.2,0.3,0.5,0.3,0.8c0,0.2-0.1,0.4-0.1,0.6s-0.2,0.4-0.4,0.5
		c-0.1,0.1-0.3,0.3-0.5,0.4s-0.4,0.1-0.6,0.1c-0.4,0-0.6-0.1-0.8-0.3s-0.3-0.5-0.3-0.8c0-0.2,0.1-0.4,0.1-0.6
		c0.1-0.2,0.2-0.4,0.4-0.6c0.1-0.1,0.3-0.2,0.4-0.3C416.9,219.8,417.1,219.8,417.3,219.8L417.3,219.8z"/>
	<polygon class="st8" points="375.4,224.6 385.8,218.6 396.2,224.6 396.2,236.7 385.8,242.8 375.3,236.6 	"/>
	<polygon class="st9" points="386.2,231 395,225.9 395,236 386.2,241.2 	"/>
	<path class="st10" d="M386.4,240.7v-9.5l8.3-4.8C394.5,233.7,387.6,231.5,386.4,240.7L386.4,240.7z"/>
	<polygon class="st11" points="385.3,231 376.4,225.9 376.4,236 385.3,241.2 	"/>
	<polygon class="st12" points="385.7,230.4 394.5,225.2 385.8,220.2 376.9,225.3 	"/>
	<path class="st13" d="M385,240.6v-9.5l-8.3-4.8C377,233.6,383.8,231.4,385,240.6L385,240.6z"/>
	<path class="st14" d="M393.3,225.5l-7.5,4.4l-7.6-4.4C382.6,226.9,385,230.1,393.3,225.5L393.3,225.5z"/>
</g>
<polygon class="st3" points="500,194.7 485,194.7 485,179.9 "/>
<polygon class="st3" points="500,194.7 485,194.7 485,179.9 "/>
<g>
	<path class="st3" d="M51.5,17.3V19h-5.1v3.4h4.3v1.7h-4.3v4.7h-2.2V17.3H51.5z"/>
	<path class="st3" d="M54.4,20.7v5.2c0,0.5,0.1,0.9,0.3,1.2s0.6,0.4,1,0.4c0.3,0,0.7-0.1,1-0.2c0.3-0.2,0.6-0.4,0.8-0.6v-5.9h2v8.2
		h-1.2c-0.3,0-0.4-0.1-0.5-0.4l-0.1-0.7c-0.2,0.2-0.3,0.3-0.5,0.5c-0.2,0.1-0.4,0.3-0.6,0.4c-0.2,0.1-0.4,0.2-0.7,0.2
		S55.5,29,55.2,29c-0.4,0-0.8-0.1-1.2-0.2c-0.3-0.2-0.6-0.4-0.9-0.6c-0.2-0.3-0.4-0.6-0.5-1c-0.1-0.4-0.2-0.8-0.2-1.3v-5.2H54.4z"/>
	<path class="st3" d="M61.7,28.9v-8.2h1.2c0.3,0,0.4,0.1,0.5,0.4l0.1,0.6c0.2-0.2,0.3-0.3,0.5-0.5c0.2-0.1,0.4-0.3,0.6-0.4
		c0.2-0.1,0.4-0.2,0.7-0.2s0.5-0.1,0.8-0.1c0.4,0,0.8,0.1,1.2,0.2c0.3,0.2,0.6,0.4,0.9,0.6s0.4,0.6,0.5,1c0.1,0.4,0.2,0.8,0.2,1.3
		v5.2h-2v-5.2c0-0.5-0.1-0.9-0.3-1.2c-0.2-0.3-0.6-0.4-1-0.4c-0.3,0-0.7,0.1-1,0.2c-0.3,0.2-0.6,0.4-0.8,0.6v5.9H61.7z"/>
	<path class="st3" d="M76.6,28.9c-0.3,0-0.4-0.1-0.5-0.4l-0.2-0.8c-0.2,0.2-0.3,0.4-0.5,0.5c-0.2,0.2-0.4,0.3-0.6,0.4
		c-0.2,0.1-0.4,0.2-0.7,0.3C73.8,29,73.6,29,73.3,29c-0.4,0-0.9-0.1-1.2-0.3c-0.4-0.2-0.7-0.5-1-0.8c-0.3-0.4-0.5-0.8-0.6-1.3
		c-0.1-0.5-0.2-1.1-0.2-1.8c0-0.6,0.1-1.2,0.2-1.7c0.2-0.5,0.4-1,0.7-1.4c0.3-0.4,0.7-0.7,1.1-0.9s0.9-0.3,1.5-0.3
		c0.5,0,0.9,0.1,1.2,0.2c0.3,0.1,0.6,0.3,0.9,0.6V17h2v11.9H76.6z M74,27.4c0.4,0,0.8-0.1,1-0.3s0.6-0.4,0.8-0.7v-3.7
		c-0.2-0.3-0.5-0.5-0.7-0.6c-0.3-0.1-0.5-0.2-0.9-0.2c-0.3,0-0.6,0.1-0.8,0.2c-0.2,0.1-0.4,0.3-0.6,0.5c-0.2,0.2-0.3,0.5-0.4,0.9
		c-0.1,0.3-0.1,0.8-0.1,1.2c0,0.5,0,0.9,0.1,1.2c0.1,0.3,0.2,0.6,0.3,0.8s0.3,0.4,0.5,0.5S73.7,27.4,74,27.4z"/>
	<path class="st3" d="M86.4,28.9h-0.9c-0.2,0-0.3,0-0.4-0.1c-0.1-0.1-0.2-0.2-0.2-0.3l-0.2-0.6c-0.2,0.2-0.4,0.4-0.6,0.5
		c-0.2,0.1-0.4,0.3-0.6,0.4c-0.2,0.1-0.4,0.2-0.7,0.2c-0.2,0-0.5,0.1-0.8,0.1c-0.3,0-0.7,0-1-0.1c-0.3-0.1-0.5-0.2-0.8-0.4
		c-0.2-0.2-0.4-0.4-0.5-0.7c-0.1-0.3-0.2-0.6-0.2-1c0-0.3,0.1-0.6,0.2-0.9s0.4-0.6,0.8-0.8c0.4-0.2,0.9-0.4,1.5-0.6s1.4-0.2,2.3-0.2
		v-0.5c0-0.6-0.1-1-0.3-1.2c-0.2-0.3-0.6-0.4-1-0.4c-0.3,0-0.6,0-0.8,0.1c-0.2,0.1-0.4,0.2-0.6,0.3c-0.2,0.1-0.3,0.2-0.4,0.3
		c-0.1,0.1-0.3,0.1-0.4,0.1c-0.1,0-0.2,0-0.3-0.1s-0.2-0.2-0.2-0.3l-0.4-0.6c0.9-0.9,2.1-1.3,3.4-1.3c0.5,0,0.9,0.1,1.3,0.2
		s0.7,0.4,1,0.7c0.3,0.3,0.5,0.6,0.6,1c0.1,0.4,0.2,0.8,0.2,1.3V28.9z M82.5,27.7c0.2,0,0.4,0,0.6-0.1c0.2,0,0.3-0.1,0.5-0.2
		c0.2-0.1,0.3-0.2,0.4-0.3c0.1-0.1,0.3-0.2,0.4-0.4v-1.4c-0.6,0-1.1,0-1.4,0.1c-0.4,0.1-0.7,0.2-0.9,0.3c-0.2,0.1-0.4,0.2-0.5,0.4
		s-0.1,0.3-0.1,0.5c0,0.3,0.1,0.6,0.3,0.7C81.9,27.6,82.2,27.7,82.5,27.7z"/>
	<path class="st3" d="M90.5,30.7c0,0,0.1,0,0.1,0s0.1,0,0.1,0c0.1,0,0.1,0,0.2,0c0.1,0,0.1,0,0.2,0c0.2,0,0.3,0,0.4-0.1
		s0.1-0.1,0.1-0.2c0-0.2-0.1-0.3-0.3-0.3S90.9,30,90.5,30l0.3-1c-0.4-0.1-0.8-0.2-1.2-0.4s-0.7-0.5-1-0.9s-0.5-0.8-0.6-1.3
		s-0.2-1-0.2-1.6c0-0.6,0.1-1.2,0.3-1.7c0.2-0.5,0.4-1,0.8-1.3s0.8-0.7,1.2-0.9c0.5-0.2,1.1-0.3,1.7-0.3c0.6,0,1.2,0.1,1.6,0.3
		c0.5,0.2,0.9,0.5,1.2,0.8l-0.5,0.7c-0.1,0.1-0.1,0.1-0.2,0.2c-0.1,0-0.1,0.1-0.2,0.1c-0.1,0-0.2,0-0.3-0.1
		c-0.1-0.1-0.2-0.1-0.3-0.2s-0.3-0.1-0.5-0.2c-0.2-0.1-0.4-0.1-0.7-0.1c-0.3,0-0.7,0.1-0.9,0.2c-0.3,0.1-0.5,0.3-0.7,0.5
		c-0.2,0.2-0.3,0.5-0.4,0.9c-0.1,0.3-0.1,0.7-0.1,1.1c0,0.4,0,0.8,0.1,1.2c0.1,0.3,0.2,0.6,0.4,0.9c0.2,0.2,0.4,0.4,0.6,0.5
		c0.3,0.1,0.5,0.2,0.8,0.2c0.3,0,0.6,0,0.8-0.1c0.2-0.1,0.4-0.2,0.5-0.3c0.1-0.1,0.2-0.2,0.3-0.3s0.2-0.1,0.3-0.1
		c0.1,0,0.3,0.1,0.4,0.2l0.6,0.7c-0.4,0.4-0.8,0.7-1.2,0.9C93,28.8,92.5,28.9,92,29l-0.1,0.4c0.5,0.1,0.8,0.3,1,0.5s0.3,0.4,0.3,0.7
		c0,0.2,0,0.3-0.1,0.5c-0.1,0.1-0.2,0.3-0.4,0.4c-0.2,0.1-0.4,0.2-0.6,0.2c-0.2,0.1-0.5,0.1-0.8,0.1c-0.2,0-0.4,0-0.6,0
		s-0.4-0.1-0.6-0.1l0.2-0.6C90.3,30.8,90.4,30.7,90.5,30.7z"/>
	<path class="st3" d="M102.4,28.9h-0.9c-0.2,0-0.3,0-0.4-0.1c-0.1-0.1-0.2-0.2-0.2-0.3l-0.2-0.6c-0.2,0.2-0.4,0.4-0.6,0.5
		c-0.2,0.1-0.4,0.3-0.6,0.4c-0.2,0.1-0.4,0.2-0.7,0.2c-0.2,0-0.5,0.1-0.8,0.1c-0.3,0-0.7,0-1-0.1c-0.3-0.1-0.5-0.2-0.8-0.4
		c-0.2-0.2-0.4-0.4-0.5-0.7c-0.1-0.3-0.2-0.6-0.2-1c0-0.3,0.1-0.6,0.2-0.9s0.4-0.6,0.8-0.8c0.4-0.2,0.9-0.4,1.5-0.6s1.4-0.2,2.3-0.2
		v-0.5c0-0.6-0.1-1-0.3-1.2c-0.2-0.3-0.6-0.4-1-0.4c-0.3,0-0.6,0-0.8,0.1c-0.2,0.1-0.4,0.2-0.6,0.3c-0.2,0.1-0.3,0.2-0.4,0.3
		c-0.1,0.1-0.3,0.1-0.4,0.1c-0.1,0-0.2,0-0.3-0.1s-0.2-0.2-0.2-0.3l-0.4-0.6c0.9-0.9,2.1-1.3,3.4-1.3c0.5,0,0.9,0.1,1.3,0.2
		s0.7,0.4,1,0.7c0.3,0.3,0.5,0.6,0.6,1c0.1,0.4,0.2,0.8,0.2,1.3V28.9z M100.1,18c0.2,0,0.3,0,0.4-0.1c0.1-0.1,0.1-0.2,0.1-0.5h1.2
		c0,0.3,0,0.6-0.1,0.8c-0.1,0.2-0.2,0.5-0.3,0.6s-0.3,0.3-0.5,0.4c-0.2,0.1-0.4,0.1-0.7,0.1c-0.2,0-0.4,0-0.5-0.1
		c-0.2-0.1-0.3-0.1-0.5-0.2s-0.3-0.2-0.4-0.2c-0.1-0.1-0.2-0.1-0.3-0.1c-0.2,0-0.3,0-0.4,0.1c-0.1,0.1-0.1,0.3-0.1,0.5h-1.2
		c0-0.3,0-0.6,0.1-0.8c0.1-0.2,0.2-0.5,0.3-0.6c0.1-0.2,0.3-0.3,0.5-0.4c0.2-0.1,0.4-0.1,0.7-0.1c0.2,0,0.4,0,0.5,0.1
		s0.3,0.1,0.5,0.2s0.3,0.2,0.4,0.2S100,18,100.1,18z M98.5,27.7c0.2,0,0.4,0,0.6-0.1c0.2,0,0.3-0.1,0.5-0.2c0.2-0.1,0.3-0.2,0.4-0.3
		c0.1-0.1,0.3-0.2,0.4-0.4v-1.4c-0.6,0-1.1,0-1.4,0.1c-0.4,0.1-0.7,0.2-0.9,0.3c-0.2,0.1-0.4,0.2-0.5,0.4s-0.1,0.3-0.1,0.5
		c0,0.3,0.1,0.6,0.3,0.7C97.9,27.6,98.2,27.7,98.5,27.7z"/>
	<path class="st3" d="M107.8,20.6c0.6,0,1.2,0.1,1.7,0.3s0.9,0.5,1.3,0.8c0.4,0.4,0.6,0.8,0.8,1.3c0.2,0.5,0.3,1.1,0.3,1.8
		c0,0.7-0.1,1.2-0.3,1.8c-0.2,0.5-0.5,1-0.8,1.3c-0.4,0.4-0.8,0.7-1.3,0.8s-1.1,0.3-1.7,0.3s-1.2-0.1-1.7-0.3
		c-0.5-0.2-0.9-0.5-1.3-0.8c-0.4-0.4-0.6-0.8-0.8-1.3c-0.2-0.5-0.3-1.1-0.3-1.8c0-0.6,0.1-1.2,0.3-1.8c0.2-0.5,0.5-1,0.8-1.3
		c0.4-0.4,0.8-0.6,1.3-0.8C106.6,20.7,107.2,20.6,107.8,20.6z M107.8,27.5c0.7,0,1.2-0.2,1.5-0.7c0.3-0.5,0.5-1.1,0.5-2
		c0-0.9-0.2-1.6-0.5-2c-0.3-0.5-0.8-0.7-1.5-0.7c-0.7,0-1.2,0.2-1.5,0.7s-0.5,1.1-0.5,2c0,0.9,0.2,1.5,0.5,2
		C106.6,27.3,107.1,27.5,107.8,27.5z"/>
	<path class="st3" d="M122.3,28.9c-0.3,0-0.4-0.1-0.5-0.4l-0.2-0.8c-0.2,0.2-0.3,0.4-0.5,0.5c-0.2,0.2-0.4,0.3-0.6,0.4
		c-0.2,0.1-0.4,0.2-0.7,0.3c-0.2,0.1-0.5,0.1-0.8,0.1c-0.4,0-0.9-0.1-1.2-0.3c-0.4-0.2-0.7-0.5-1-0.8c-0.3-0.4-0.5-0.8-0.6-1.3
		c-0.1-0.5-0.2-1.1-0.2-1.8c0-0.6,0.1-1.2,0.2-1.7c0.2-0.5,0.4-1,0.7-1.4c0.3-0.4,0.7-0.7,1.1-0.9s0.9-0.3,1.5-0.3
		c0.5,0,0.9,0.1,1.2,0.2c0.3,0.1,0.6,0.3,0.9,0.6V17h2v11.9H122.3z M119.6,27.4c0.4,0,0.8-0.1,1-0.3s0.6-0.4,0.8-0.7v-3.7
		c-0.2-0.3-0.5-0.5-0.7-0.6c-0.3-0.1-0.5-0.2-0.9-0.2c-0.3,0-0.6,0.1-0.8,0.2c-0.2,0.1-0.4,0.3-0.6,0.5c-0.2,0.2-0.3,0.5-0.4,0.9
		c-0.1,0.3-0.1,0.8-0.1,1.2c0,0.5,0,0.9,0.1,1.2c0.1,0.3,0.2,0.6,0.3,0.8s0.3,0.4,0.5,0.5S119.4,27.4,119.6,27.4z"/>
	<path class="st3" d="M132.1,28.9h-0.9c-0.2,0-0.3,0-0.4-0.1c-0.1-0.1-0.2-0.2-0.2-0.3l-0.2-0.6c-0.2,0.2-0.4,0.4-0.6,0.5
		c-0.2,0.1-0.4,0.3-0.6,0.4c-0.2,0.1-0.4,0.2-0.7,0.2c-0.2,0-0.5,0.1-0.8,0.1c-0.3,0-0.7,0-1-0.1c-0.3-0.1-0.5-0.2-0.8-0.4
		c-0.2-0.2-0.4-0.4-0.5-0.7c-0.1-0.3-0.2-0.6-0.2-1c0-0.3,0.1-0.6,0.2-0.9s0.4-0.6,0.8-0.8c0.4-0.2,0.9-0.4,1.5-0.6s1.4-0.2,2.3-0.2
		v-0.5c0-0.6-0.1-1-0.3-1.2c-0.2-0.3-0.6-0.4-1-0.4c-0.3,0-0.6,0-0.8,0.1c-0.2,0.1-0.4,0.2-0.6,0.3c-0.2,0.1-0.3,0.2-0.4,0.3
		c-0.1,0.1-0.3,0.1-0.4,0.1c-0.1,0-0.2,0-0.3-0.1s-0.2-0.2-0.2-0.3l-0.4-0.6c0.9-0.9,2.1-1.3,3.4-1.3c0.5,0,0.9,0.1,1.3,0.2
		s0.7,0.4,1,0.7c0.3,0.3,0.5,0.6,0.6,1c0.1,0.4,0.2,0.8,0.2,1.3V28.9z M128.2,27.7c0.2,0,0.4,0,0.6-0.1c0.2,0,0.3-0.1,0.5-0.2
		c0.2-0.1,0.3-0.2,0.4-0.3c0.1-0.1,0.3-0.2,0.4-0.4v-1.4c-0.6,0-1.1,0-1.4,0.1c-0.4,0.1-0.7,0.2-0.9,0.3c-0.2,0.1-0.4,0.2-0.5,0.4
		s-0.1,0.3-0.1,0.5c0,0.3,0.1,0.6,0.3,0.7C127.6,27.6,127.9,27.7,128.2,27.7z"/>
	<path class="st3" d="M47,48.2c-0.7,0-1.3-0.2-1.6-0.6c-0.4-0.4-0.6-1-0.6-1.7v-4.6h-0.8c-0.1,0-0.2,0-0.3-0.1
		c-0.1-0.1-0.1-0.2-0.1-0.3v-0.8l1.3-0.2l0.4-2.2c0-0.1,0.1-0.2,0.1-0.2c0.1-0.1,0.2-0.1,0.3-0.1h1V40h2.2v1.4h-2.2v4.4
		c0,0.3,0.1,0.5,0.2,0.6c0.1,0.1,0.3,0.2,0.5,0.2c0.1,0,0.2,0,0.3,0s0.2-0.1,0.2-0.1c0.1,0,0.1-0.1,0.2-0.1c0,0,0.1,0,0.1,0
		c0.1,0,0.1,0,0.1,0c0,0,0.1,0.1,0.1,0.1l0.6,1c-0.3,0.2-0.6,0.4-1,0.5C47.8,48.2,47.4,48.2,47,48.2z"/>
	<path class="st3" d="M53.9,39.8c0.5,0,1,0.1,1.4,0.2s0.8,0.4,1.1,0.7c0.3,0.3,0.6,0.7,0.7,1.2c0.2,0.5,0.3,1,0.3,1.6
		c0,0.1,0,0.3,0,0.4s0,0.2-0.1,0.2c0,0.1-0.1,0.1-0.1,0.1c-0.1,0-0.1,0-0.2,0h-5.1c0.1,0.8,0.3,1.5,0.7,1.9s0.9,0.6,1.6,0.6
		c0.3,0,0.6,0,0.8-0.1c0.2-0.1,0.4-0.2,0.6-0.2c0.2-0.1,0.3-0.2,0.5-0.2c0.1-0.1,0.3-0.1,0.4-0.1c0.1,0,0.1,0,0.2,0
		c0.1,0,0.1,0.1,0.2,0.1l0.6,0.7c-0.2,0.3-0.5,0.5-0.7,0.6c-0.3,0.2-0.6,0.3-0.9,0.4c-0.3,0.1-0.6,0.2-0.9,0.2
		c-0.3,0-0.6,0.1-0.9,0.1c-0.6,0-1.1-0.1-1.6-0.3c-0.5-0.2-0.9-0.5-1.3-0.8s-0.6-0.8-0.9-1.4s-0.3-1.2-0.3-1.9
		c0-0.6,0.1-1.1,0.3-1.6c0.2-0.5,0.4-0.9,0.8-1.3c0.3-0.4,0.8-0.7,1.2-0.9C52.7,39.9,53.3,39.8,53.9,39.8z M53.9,41.2
		c-0.6,0-1,0.2-1.4,0.5C52.2,42,52,42.4,51.9,43h3.7c0-0.3,0-0.5-0.1-0.7c-0.1-0.2-0.2-0.4-0.3-0.6s-0.3-0.3-0.5-0.4
		C54.5,41.2,54.2,41.2,53.9,41.2z"/>
	<path class="st3" d="M64.8,41.6c-0.1,0.1-0.1,0.1-0.2,0.2c-0.1,0-0.1,0.1-0.2,0.1c-0.1,0-0.2,0-0.3-0.1c-0.1-0.1-0.2-0.1-0.3-0.2
		s-0.3-0.1-0.5-0.2c-0.2-0.1-0.4-0.1-0.7-0.1c-0.3,0-0.7,0.1-0.9,0.2c-0.3,0.1-0.5,0.3-0.7,0.5c-0.2,0.2-0.3,0.5-0.4,0.9
		c-0.1,0.3-0.1,0.7-0.1,1.1c0,0.4,0,0.8,0.1,1.2c0.1,0.3,0.2,0.6,0.4,0.9c0.2,0.2,0.4,0.4,0.6,0.5c0.3,0.1,0.5,0.2,0.8,0.2
		c0.3,0,0.6,0,0.8-0.1c0.2-0.1,0.4-0.2,0.5-0.3c0.1-0.1,0.2-0.2,0.3-0.3s0.2-0.1,0.3-0.1c0.2,0,0.3,0.1,0.4,0.2l0.6,0.7
		c-0.2,0.3-0.5,0.5-0.7,0.6c-0.3,0.2-0.5,0.3-0.8,0.4c-0.3,0.1-0.6,0.2-0.9,0.2c-0.3,0-0.6,0.1-0.9,0.1c-0.5,0-1-0.1-1.4-0.3
		c-0.4-0.2-0.8-0.5-1.2-0.8c-0.3-0.4-0.6-0.8-0.8-1.3s-0.3-1.1-0.3-1.8c0-0.6,0.1-1.2,0.3-1.7c0.2-0.5,0.4-1,0.8-1.3
		s0.8-0.7,1.2-0.9c0.5-0.2,1.1-0.3,1.7-0.3c0.6,0,1.2,0.1,1.6,0.3c0.5,0.2,0.9,0.5,1.2,0.8L64.8,41.6z"/>
	<path class="st3" d="M68.8,36.2v11.9h-2V36.2H68.8z"/>
	<path class="st3" d="M74.5,39.8c0.6,0,1.2,0.1,1.7,0.3s0.9,0.5,1.3,0.8c0.4,0.4,0.6,0.8,0.8,1.3c0.2,0.5,0.3,1.1,0.3,1.8
		c0,0.7-0.1,1.2-0.3,1.8c-0.2,0.5-0.5,1-0.8,1.3c-0.4,0.4-0.8,0.7-1.3,0.8s-1.1,0.3-1.7,0.3s-1.2-0.1-1.7-0.3
		c-0.5-0.2-0.9-0.5-1.3-0.8c-0.4-0.4-0.6-0.8-0.8-1.3c-0.2-0.5-0.3-1.1-0.3-1.8c0-0.6,0.1-1.2,0.3-1.8c0.2-0.5,0.5-1,0.8-1.3
		c0.4-0.4,0.8-0.6,1.3-0.8C73.3,39.9,73.9,39.8,74.5,39.8z M74.5,46.7c0.7,0,1.2-0.2,1.5-0.7c0.3-0.5,0.5-1.1,0.5-2
		c0-0.9-0.2-1.6-0.5-2c-0.3-0.5-0.8-0.7-1.5-0.7c-0.7,0-1.2,0.2-1.5,0.7s-0.5,1.1-0.5,2c0,0.9,0.2,1.5,0.5,2
		C73.3,46.5,73.8,46.7,74.5,46.7z M77.3,36.4l-2,2.1c-0.1,0.1-0.2,0.2-0.3,0.2s-0.2,0.1-0.4,0.1h-1.2l1.1-1.9
		c0.1-0.1,0.2-0.2,0.3-0.3c0.1-0.1,0.3-0.1,0.5-0.1H77.3z"/>
	<path class="st3" d="M82.9,39.7c0.4,0,0.7,0,1,0.1c0.3,0.1,0.6,0.2,0.8,0.3h2.4v0.7c0,0.1,0,0.2-0.1,0.3s-0.2,0.1-0.3,0.1L86,41.5
		c0.1,0.1,0.1,0.3,0.1,0.4c0,0.2,0,0.3,0,0.5c0,0.4-0.1,0.8-0.2,1.1s-0.4,0.6-0.7,0.8s-0.6,0.4-1,0.5C83.8,45,83.4,45,82.9,45
		c-0.3,0-0.6,0-0.9-0.1c-0.3,0.2-0.4,0.3-0.4,0.5c0,0.2,0.1,0.3,0.2,0.4s0.4,0.1,0.6,0.2s0.5,0,0.8,0c0.3,0,0.6,0,1,0
		c0.3,0,0.7,0.1,1,0.1c0.3,0.1,0.6,0.2,0.8,0.3s0.4,0.3,0.6,0.6c0.2,0.2,0.2,0.6,0.2,1c0,0.4-0.1,0.7-0.3,1.1s-0.4,0.6-0.8,0.9
		c-0.3,0.3-0.8,0.5-1.2,0.6C84.1,50.9,83.6,51,83,51c-0.6,0-1.2-0.1-1.6-0.2s-0.8-0.3-1.1-0.5c-0.3-0.2-0.5-0.4-0.7-0.7
		c-0.1-0.3-0.2-0.5-0.2-0.8c0-0.4,0.1-0.7,0.4-1c0.2-0.3,0.6-0.5,1-0.6c-0.2-0.1-0.4-0.3-0.5-0.4c-0.1-0.2-0.2-0.4-0.2-0.7
		c0-0.1,0-0.2,0.1-0.4c0-0.1,0.1-0.3,0.2-0.4s0.2-0.2,0.3-0.4c0.1-0.1,0.3-0.2,0.5-0.3c-0.4-0.2-0.7-0.5-1-0.9s-0.4-0.8-0.4-1.3
		c0-0.4,0.1-0.8,0.2-1.1s0.4-0.6,0.7-0.8c0.3-0.2,0.6-0.4,1-0.5C82,39.8,82.5,39.7,82.9,39.7z M85.1,48.4c0-0.2,0-0.3-0.1-0.4
		c-0.1-0.1-0.2-0.2-0.4-0.2c-0.2-0.1-0.4-0.1-0.6-0.1c-0.2,0-0.5,0-0.7,0s-0.5,0-0.8,0s-0.5,0-0.8-0.1c-0.2,0.1-0.4,0.3-0.5,0.4
		c-0.1,0.2-0.2,0.4-0.2,0.6c0,0.1,0,0.3,0.1,0.4c0.1,0.1,0.2,0.2,0.3,0.3c0.2,0.1,0.4,0.2,0.6,0.2c0.3,0.1,0.6,0.1,0.9,0.1
		c0.4,0,0.7,0,1-0.1c0.3-0.1,0.5-0.1,0.7-0.2s0.3-0.2,0.4-0.4S85.1,48.6,85.1,48.4z M82.9,43.8c0.2,0,0.5,0,0.6-0.1
		c0.2-0.1,0.3-0.2,0.5-0.3c0.1-0.1,0.2-0.3,0.3-0.4c0.1-0.2,0.1-0.3,0.1-0.5c0-0.4-0.1-0.7-0.4-1s-0.6-0.4-1.1-0.4s-0.8,0.1-1.1,0.4
		c-0.2,0.2-0.4,0.6-0.4,1c0,0.2,0,0.4,0.1,0.5c0.1,0.2,0.2,0.3,0.3,0.4c0.1,0.1,0.3,0.2,0.5,0.3C82.5,43.8,82.7,43.8,82.9,43.8z"/>
	<path class="st3" d="M90.8,37.5c0,0.2,0,0.3-0.1,0.5s-0.2,0.3-0.3,0.4c-0.1,0.1-0.2,0.2-0.4,0.3s-0.3,0.1-0.5,0.1
		c-0.2,0-0.3,0-0.5-0.1c-0.2-0.1-0.3-0.2-0.4-0.3c-0.1-0.1-0.2-0.2-0.3-0.4c-0.1-0.1-0.1-0.3-0.1-0.5c0-0.2,0-0.3,0.1-0.5
		c0.1-0.2,0.2-0.3,0.3-0.4c0.1-0.1,0.2-0.2,0.4-0.3c0.2-0.1,0.3-0.1,0.5-0.1c0.2,0,0.3,0,0.5,0.1c0.2,0.1,0.3,0.2,0.4,0.3
		c0.1,0.1,0.2,0.2,0.3,0.4C90.7,37.1,90.8,37.3,90.8,37.5z M90.5,39.9v8.2h-2v-8.2H90.5z"/>
	<path class="st3" d="M98.5,41.6c-0.1,0.1-0.1,0.1-0.2,0.2c-0.1,0-0.1,0.1-0.2,0.1c-0.1,0-0.2,0-0.3-0.1c-0.1-0.1-0.2-0.1-0.3-0.2
		s-0.3-0.1-0.5-0.2c-0.2-0.1-0.4-0.1-0.7-0.1c-0.3,0-0.7,0.1-0.9,0.2c-0.3,0.1-0.5,0.3-0.7,0.5c-0.2,0.2-0.3,0.5-0.4,0.9
		c-0.1,0.3-0.1,0.7-0.1,1.1c0,0.4,0,0.8,0.1,1.2c0.1,0.3,0.2,0.6,0.4,0.9c0.2,0.2,0.4,0.4,0.6,0.5c0.3,0.1,0.5,0.2,0.8,0.2
		c0.3,0,0.6,0,0.8-0.1c0.2-0.1,0.4-0.2,0.5-0.3c0.1-0.1,0.2-0.2,0.3-0.3S98,46,98.1,46c0.2,0,0.3,0.1,0.4,0.2l0.6,0.7
		c-0.2,0.3-0.5,0.5-0.7,0.6c-0.3,0.2-0.5,0.3-0.8,0.4c-0.3,0.1-0.6,0.2-0.9,0.2c-0.3,0-0.6,0.1-0.9,0.1c-0.5,0-1-0.1-1.4-0.3
		c-0.4-0.2-0.8-0.5-1.2-0.8c-0.3-0.4-0.6-0.8-0.8-1.3s-0.3-1.1-0.3-1.8c0-0.6,0.1-1.2,0.3-1.7c0.2-0.5,0.4-1,0.8-1.3
		s0.8-0.7,1.2-0.9c0.5-0.2,1.1-0.3,1.7-0.3c0.6,0,1.2,0.1,1.6,0.3c0.5,0.2,0.9,0.5,1.2,0.8L98.5,41.6z"/>
	<path class="st3" d="M106.8,48.1h-0.9c-0.2,0-0.3,0-0.4-0.1c-0.1-0.1-0.2-0.2-0.2-0.3l-0.2-0.6c-0.2,0.2-0.4,0.4-0.6,0.5
		c-0.2,0.1-0.4,0.3-0.6,0.4c-0.2,0.1-0.4,0.2-0.7,0.2c-0.2,0-0.5,0.1-0.8,0.1c-0.3,0-0.7,0-1-0.1c-0.3-0.1-0.5-0.2-0.8-0.4
		c-0.2-0.2-0.4-0.4-0.5-0.7c-0.1-0.3-0.2-0.6-0.2-1c0-0.3,0.1-0.6,0.2-0.9s0.4-0.6,0.8-0.8c0.4-0.2,0.9-0.4,1.5-0.6s1.4-0.2,2.3-0.2
		v-0.5c0-0.6-0.1-1-0.3-1.2c-0.2-0.3-0.6-0.4-1-0.4c-0.3,0-0.6,0-0.8,0.1c-0.2,0.1-0.4,0.2-0.6,0.3c-0.2,0.1-0.3,0.2-0.4,0.3
		c-0.1,0.1-0.3,0.1-0.4,0.1c-0.1,0-0.2,0-0.3-0.1s-0.2-0.2-0.2-0.3l-0.4-0.6c0.9-0.9,2.1-1.3,3.4-1.3c0.5,0,0.9,0.1,1.3,0.2
		s0.7,0.4,1,0.7c0.3,0.3,0.5,0.6,0.6,1c0.1,0.4,0.2,0.8,0.2,1.3V48.1z M102.9,46.9c0.2,0,0.4,0,0.6-0.1c0.2,0,0.3-0.1,0.5-0.2
		c0.2-0.1,0.3-0.2,0.4-0.3c0.1-0.1,0.3-0.2,0.4-0.4v-1.4c-0.6,0-1.1,0-1.4,0.1c-0.4,0.1-0.7,0.2-0.9,0.3c-0.2,0.1-0.4,0.2-0.5,0.4
		s-0.1,0.3-0.1,0.5c0,0.3,0.1,0.6,0.3,0.7C102.3,46.8,102.6,46.9,102.9,46.9z"/>
	<path class="st3" d="M115.2,39.8c0.5,0,1,0.1,1.4,0.2s0.8,0.4,1.1,0.7c0.3,0.3,0.6,0.7,0.7,1.2c0.2,0.5,0.3,1,0.3,1.6
		c0,0.1,0,0.3,0,0.4s0,0.2-0.1,0.2c0,0.1-0.1,0.1-0.1,0.1c-0.1,0-0.1,0-0.2,0h-5.1c0.1,0.8,0.3,1.5,0.7,1.9s0.9,0.6,1.6,0.6
		c0.3,0,0.6,0,0.8-0.1c0.2-0.1,0.4-0.2,0.6-0.2c0.2-0.1,0.3-0.2,0.5-0.2c0.1-0.1,0.3-0.1,0.4-0.1c0.1,0,0.1,0,0.2,0
		c0.1,0,0.1,0.1,0.2,0.1l0.6,0.7c-0.2,0.3-0.5,0.5-0.7,0.6c-0.3,0.2-0.6,0.3-0.9,0.4c-0.3,0.1-0.6,0.2-0.9,0.2
		c-0.3,0-0.6,0.1-0.9,0.1c-0.6,0-1.1-0.1-1.6-0.3c-0.5-0.2-0.9-0.5-1.3-0.8s-0.6-0.8-0.9-1.4s-0.3-1.2-0.3-1.9
		c0-0.6,0.1-1.1,0.3-1.6c0.2-0.5,0.4-0.9,0.8-1.3c0.3-0.4,0.8-0.7,1.2-0.9C114,39.9,114.6,39.8,115.2,39.8z M115.2,41.2
		c-0.6,0-1,0.2-1.4,0.5c-0.3,0.3-0.5,0.8-0.6,1.4h3.7c0-0.3,0-0.5-0.1-0.7c-0.1-0.2-0.2-0.4-0.3-0.6s-0.3-0.3-0.5-0.4
		C115.8,41.2,115.5,41.2,115.2,41.2z"/>
	<path class="st3" d="M120.4,48.1v-8.2h1.2c0.3,0,0.4,0.1,0.5,0.4l0.1,0.6c0.1-0.2,0.3-0.3,0.5-0.4c0.2-0.1,0.3-0.2,0.5-0.3
		c0.2-0.1,0.4-0.2,0.6-0.2c0.2-0.1,0.4-0.1,0.7-0.1c0.5,0,0.9,0.1,1.3,0.4s0.6,0.7,0.7,1.1c0.1-0.3,0.3-0.5,0.5-0.7s0.4-0.4,0.6-0.5
		c0.2-0.1,0.5-0.2,0.7-0.3c0.3-0.1,0.5-0.1,0.8-0.1c0.5,0,0.9,0.1,1.2,0.2s0.6,0.3,0.9,0.6c0.2,0.3,0.4,0.6,0.5,1s0.2,0.8,0.2,1.3
		v5.2h-2v-5.2c0-0.5-0.1-0.9-0.3-1.2c-0.2-0.3-0.6-0.4-1-0.4c-0.2,0-0.4,0-0.6,0.1s-0.3,0.2-0.5,0.3c-0.1,0.1-0.2,0.3-0.3,0.5
		c-0.1,0.2-0.1,0.4-0.1,0.7v5.2h-2v-5.2c0-0.5-0.1-0.9-0.3-1.2s-0.5-0.4-1-0.4c-0.3,0-0.5,0.1-0.8,0.2s-0.5,0.3-0.7,0.6v6H120.4z"/>
	<path class="st3" d="M42.3,67.3V55.7h4c0.8,0,1.4,0.1,1.9,0.2c0.5,0.1,1,0.3,1.3,0.6c0.3,0.3,0.6,0.6,0.8,1
		c0.2,0.4,0.2,0.8,0.2,1.3c0,0.3,0,0.5-0.1,0.8s-0.2,0.5-0.4,0.7s-0.4,0.4-0.6,0.6c-0.3,0.2-0.6,0.3-0.9,0.4
		c1.6,0.4,2.4,1.2,2.4,2.6c0,0.5-0.1,0.9-0.3,1.4s-0.5,0.8-0.8,1.1c-0.4,0.3-0.8,0.5-1.3,0.7c-0.5,0.2-1.1,0.3-1.8,0.3H42.3z
		 M44.5,60.7h1.7c0.7,0,1.3-0.1,1.7-0.4c0.4-0.3,0.6-0.7,0.6-1.3c0-0.6-0.2-1-0.5-1.3c-0.3-0.3-0.9-0.4-1.6-0.4h-1.8V60.7z
		 M44.5,62.2v3.4h2.2c0.4,0,0.7,0,1-0.1c0.3-0.1,0.5-0.2,0.6-0.4c0.2-0.2,0.3-0.3,0.4-0.6c0.1-0.2,0.1-0.4,0.1-0.7
		c0-0.3,0-0.5-0.1-0.7s-0.2-0.4-0.4-0.5c-0.2-0.1-0.4-0.2-0.7-0.3c-0.3-0.1-0.6-0.1-1-0.1H44.5z"/>
	<path class="st3" d="M54.7,55.4v11.9h-2V55.4H54.7z"/>
	<path class="st3" d="M58.8,59.1v5.2c0,0.5,0.1,0.9,0.3,1.2s0.6,0.4,1,0.4c0.3,0,0.7-0.1,1-0.2c0.3-0.2,0.6-0.4,0.8-0.6v-5.9h2v8.2
		h-1.2c-0.3,0-0.4-0.1-0.5-0.4l-0.1-0.7c-0.2,0.2-0.3,0.3-0.5,0.5c-0.2,0.1-0.4,0.3-0.6,0.4c-0.2,0.1-0.4,0.2-0.7,0.2
		s-0.5,0.1-0.8,0.1c-0.4,0-0.8-0.1-1.2-0.2c-0.3-0.2-0.6-0.4-0.9-0.6c-0.2-0.3-0.4-0.6-0.5-1c-0.1-0.4-0.2-0.8-0.2-1.3v-5.2H58.8z"
		/>
	<path class="st3" d="M66.1,67.3v-8.2h1.2c0.3,0,0.4,0.1,0.5,0.4l0.1,0.6c0.1-0.2,0.3-0.3,0.5-0.4c0.2-0.1,0.3-0.2,0.5-0.3
		c0.2-0.1,0.4-0.2,0.6-0.2c0.2-0.1,0.4-0.1,0.7-0.1c0.5,0,0.9,0.1,1.3,0.4s0.6,0.7,0.7,1.1c0.1-0.3,0.3-0.5,0.5-0.7s0.4-0.4,0.6-0.5
		c0.2-0.1,0.5-0.2,0.7-0.3c0.3-0.1,0.5-0.1,0.8-0.1c0.5,0,0.9,0.1,1.2,0.2s0.6,0.3,0.9,0.6c0.2,0.3,0.4,0.6,0.5,1s0.2,0.8,0.2,1.3
		v5.2h-2v-5.2c0-0.5-0.1-0.9-0.3-1.2c-0.2-0.3-0.6-0.4-1-0.4c-0.2,0-0.4,0-0.6,0.1s-0.3,0.2-0.5,0.3c-0.1,0.1-0.2,0.3-0.3,0.5
		c-0.1,0.2-0.1,0.4-0.1,0.7v5.2h-2v-5.2c0-0.5-0.1-0.9-0.3-1.2s-0.5-0.4-1-0.4c-0.3,0-0.5,0.1-0.8,0.2S68.3,61,68,61.3v6H66.1z"/>
	<path class="st3" d="M82.9,59c0.5,0,1,0.1,1.4,0.2s0.8,0.4,1.1,0.7c0.3,0.3,0.6,0.7,0.7,1.2c0.2,0.5,0.3,1,0.3,1.6
		c0,0.1,0,0.3,0,0.4s0,0.2-0.1,0.2c0,0.1-0.1,0.1-0.1,0.1c-0.1,0-0.1,0-0.2,0H81c0.1,0.8,0.3,1.5,0.7,1.9s0.9,0.6,1.6,0.6
		c0.3,0,0.6,0,0.8-0.1c0.2-0.1,0.4-0.2,0.6-0.2c0.2-0.1,0.3-0.2,0.5-0.2c0.1-0.1,0.3-0.1,0.4-0.1c0.1,0,0.1,0,0.2,0
		c0.1,0,0.1,0.1,0.2,0.1l0.6,0.7c-0.2,0.3-0.5,0.5-0.7,0.6c-0.3,0.2-0.6,0.3-0.9,0.4c-0.3,0.1-0.6,0.2-0.9,0.2
		c-0.3,0-0.6,0.1-0.9,0.1c-0.6,0-1.1-0.1-1.6-0.3c-0.5-0.2-0.9-0.5-1.3-0.8s-0.6-0.8-0.9-1.4S79,63.7,79,63c0-0.6,0.1-1.1,0.3-1.6
		c0.2-0.5,0.4-0.9,0.8-1.3c0.3-0.4,0.8-0.7,1.2-0.9C81.8,59.1,82.3,59,82.9,59z M83,60.4c-0.6,0-1,0.2-1.4,0.5
		c-0.3,0.3-0.5,0.8-0.6,1.4h3.7c0-0.3,0-0.5-0.1-0.7c-0.1-0.2-0.2-0.4-0.3-0.6s-0.3-0.3-0.5-0.4C83.5,60.4,83.3,60.4,83,60.4z"/>
	<path class="st3" d="M88.1,67.3v-8.2h1.2c0.3,0,0.4,0.1,0.5,0.4l0.1,0.6c0.2-0.2,0.3-0.3,0.5-0.5c0.2-0.1,0.4-0.3,0.6-0.4
		c0.2-0.1,0.4-0.2,0.7-0.2s0.5-0.1,0.8-0.1c0.4,0,0.8,0.1,1.2,0.2c0.3,0.2,0.6,0.4,0.9,0.6s0.4,0.6,0.5,1c0.1,0.4,0.2,0.8,0.2,1.3
		v5.2h-2v-5.2c0-0.5-0.1-0.9-0.3-1.2c-0.2-0.3-0.6-0.4-1-0.4c-0.3,0-0.7,0.1-1,0.2c-0.3,0.2-0.6,0.4-0.8,0.6v5.9H88.1z"/>
	<path class="st3" d="M103.6,67.3h-0.9c-0.2,0-0.3,0-0.4-0.1c-0.1-0.1-0.2-0.2-0.2-0.3l-0.2-0.6c-0.2,0.2-0.4,0.4-0.6,0.5
		c-0.2,0.1-0.4,0.3-0.6,0.4c-0.2,0.1-0.4,0.2-0.7,0.2c-0.2,0-0.5,0.1-0.8,0.1c-0.3,0-0.7,0-1-0.1c-0.3-0.1-0.5-0.2-0.8-0.4
		c-0.2-0.2-0.4-0.4-0.5-0.7c-0.1-0.3-0.2-0.6-0.2-1c0-0.3,0.1-0.6,0.2-0.9s0.4-0.6,0.8-0.8c0.4-0.2,0.9-0.4,1.5-0.6s1.4-0.2,2.3-0.2
		v-0.5c0-0.6-0.1-1-0.3-1.2c-0.2-0.3-0.6-0.4-1-0.4c-0.3,0-0.6,0-0.8,0.1c-0.2,0.1-0.4,0.2-0.6,0.3c-0.2,0.1-0.3,0.2-0.4,0.3
		c-0.1,0.1-0.3,0.1-0.4,0.1c-0.1,0-0.2,0-0.3-0.1s-0.2-0.2-0.2-0.3l-0.4-0.6c0.9-0.9,2.1-1.3,3.4-1.3c0.5,0,0.9,0.1,1.3,0.2
		s0.7,0.4,1,0.7c0.3,0.3,0.5,0.6,0.6,1c0.1,0.4,0.2,0.8,0.2,1.3V67.3z M99.8,66.1c0.2,0,0.4,0,0.6-0.1c0.2,0,0.3-0.1,0.5-0.2
		c0.2-0.1,0.3-0.2,0.4-0.3c0.1-0.1,0.3-0.2,0.4-0.4v-1.4c-0.6,0-1.1,0-1.4,0.1c-0.4,0.1-0.7,0.2-0.9,0.3c-0.2,0.1-0.4,0.2-0.5,0.4
		s-0.1,0.3-0.1,0.5c0,0.3,0.1,0.6,0.3,0.7C99.2,66,99.4,66.1,99.8,66.1z"/>
	<path class="st3" d="M107.7,55.4v11.9h-2V55.4H107.7z"/>
	<path class="st3" d="M109.5,66.1c0-0.1,0-0.3,0.1-0.4c0.1-0.1,0.1-0.2,0.2-0.3c0.1-0.1,0.2-0.2,0.4-0.2s0.3-0.1,0.5-0.1
		c0.2,0,0.4,0,0.5,0.1c0.1,0.1,0.3,0.2,0.4,0.3c0.1,0.1,0.2,0.3,0.2,0.4c0,0.2,0.1,0.3,0.1,0.5c0,0.3,0,0.5-0.1,0.8
		c-0.1,0.3-0.2,0.6-0.3,0.8s-0.3,0.6-0.6,0.8c-0.2,0.3-0.5,0.5-0.8,0.7l-0.3-0.3c-0.1-0.1-0.1-0.2-0.1-0.3c0,0,0-0.1,0-0.1
		c0-0.1,0.1-0.1,0.1-0.1c0.1-0.1,0.1-0.1,0.2-0.2c0.1-0.1,0.2-0.2,0.3-0.3s0.2-0.3,0.2-0.4c0.1-0.1,0.1-0.3,0.2-0.5
		c-0.2,0-0.3,0-0.5-0.1s-0.3-0.1-0.4-0.3s-0.2-0.2-0.2-0.4C109.5,66.4,109.5,66.2,109.5,66.1z"/>
	<path class="st3" d="M122.9,57.8c-0.1,0.1-0.1,0.2-0.2,0.2c-0.1,0-0.2,0.1-0.3,0.1c-0.1,0-0.2,0-0.4-0.1c-0.1-0.1-0.3-0.2-0.5-0.3
		c-0.2-0.1-0.4-0.2-0.6-0.3c-0.2-0.1-0.5-0.1-0.9-0.1c-0.3,0-0.6,0-0.8,0.1c-0.2,0.1-0.4,0.2-0.6,0.3c-0.2,0.1-0.3,0.3-0.3,0.5
		s-0.1,0.4-0.1,0.6c0,0.3,0.1,0.5,0.2,0.7c0.2,0.2,0.4,0.3,0.6,0.5c0.3,0.1,0.5,0.2,0.9,0.3s0.6,0.2,1,0.3c0.3,0.1,0.7,0.2,1,0.4
		c0.3,0.2,0.6,0.3,0.9,0.6c0.3,0.2,0.5,0.5,0.6,0.9s0.2,0.7,0.2,1.2c0,0.5-0.1,1-0.3,1.5s-0.4,0.9-0.8,1.2c-0.3,0.3-0.8,0.6-1.3,0.8
		s-1.1,0.3-1.7,0.3c-0.4,0-0.7,0-1.1-0.1c-0.4-0.1-0.7-0.2-1-0.3c-0.3-0.1-0.6-0.3-0.9-0.5c-0.3-0.2-0.5-0.4-0.8-0.6l0.6-1
		c0.1-0.1,0.1-0.1,0.2-0.2c0.1-0.1,0.2-0.1,0.3-0.1c0.1,0,0.3,0.1,0.4,0.2c0.2,0.1,0.3,0.2,0.5,0.4c0.2,0.1,0.5,0.3,0.7,0.4
		s0.6,0.2,1,0.2c0.6,0,1.1-0.1,1.4-0.4c0.3-0.3,0.5-0.7,0.5-1.3c0-0.3-0.1-0.6-0.2-0.7c-0.2-0.2-0.4-0.4-0.6-0.5
		c-0.3-0.1-0.5-0.2-0.9-0.3c-0.3-0.1-0.6-0.2-1-0.3s-0.7-0.2-1-0.4s-0.6-0.3-0.9-0.6c-0.3-0.2-0.5-0.5-0.6-0.9s-0.2-0.8-0.2-1.3
		c0-0.4,0.1-0.8,0.3-1.2c0.2-0.4,0.4-0.8,0.7-1.1c0.3-0.3,0.7-0.6,1.2-0.7c0.5-0.2,1-0.3,1.6-0.3c0.7,0,1.3,0.1,1.9,0.3
		c0.6,0.2,1.1,0.5,1.5,0.9L122.9,57.8z"/>
	<path class="st3" d="M133.2,64.6c0.1,0,0.2,0,0.3,0.1l0.8,0.9c-0.5,0.6-1,1-1.7,1.3c-0.7,0.3-1.5,0.5-2.5,0.5
		c-0.9,0-1.6-0.1-2.3-0.4c-0.7-0.3-1.3-0.7-1.8-1.2s-0.9-1.1-1.1-1.9c-0.3-0.7-0.4-1.5-0.4-2.4c0-0.9,0.1-1.7,0.4-2.4
		c0.3-0.7,0.7-1.3,1.2-1.9c0.5-0.5,1.1-0.9,1.9-1.2c0.7-0.3,1.5-0.4,2.4-0.4c0.9,0,1.6,0.1,2.3,0.4c0.6,0.3,1.2,0.6,1.7,1.1l-0.7,1
		c0,0.1-0.1,0.1-0.2,0.2c-0.1,0-0.2,0.1-0.3,0.1c-0.1,0-0.2,0-0.4-0.1c-0.1-0.1-0.3-0.2-0.5-0.3c-0.2-0.1-0.4-0.2-0.7-0.3
		c-0.3-0.1-0.7-0.1-1.1-0.1c-0.5,0-1,0.1-1.5,0.3s-0.8,0.5-1.2,0.8c-0.3,0.4-0.6,0.8-0.8,1.3c-0.2,0.5-0.3,1.1-0.3,1.7
		c0,0.7,0.1,1.2,0.3,1.7c0.2,0.5,0.4,0.9,0.7,1.3c0.3,0.3,0.7,0.6,1.1,0.8c0.4,0.2,0.9,0.3,1.4,0.3c0.3,0,0.6,0,0.8,0
		s0.5-0.1,0.7-0.2c0.2-0.1,0.4-0.2,0.6-0.3s0.4-0.2,0.5-0.4c0.1,0,0.1-0.1,0.2-0.1C133.1,64.6,133.2,64.6,133.2,64.6z"/>
</g>
<g>
	<path class="st3" d="M220.3,26.2c0.1,0,0.2,0,0.3,0.1l0.8,0.9c-0.5,0.6-1,1-1.7,1.3c-0.7,0.3-1.5,0.5-2.5,0.5
		c-0.9,0-1.6-0.1-2.3-0.4c-0.7-0.3-1.3-0.7-1.8-1.2s-0.9-1.1-1.1-1.9c-0.3-0.7-0.4-1.5-0.4-2.4c0-0.9,0.1-1.7,0.4-2.4
		c0.3-0.7,0.7-1.3,1.2-1.9c0.5-0.5,1.1-0.9,1.9-1.2c0.7-0.3,1.5-0.4,2.4-0.4c0.9,0,1.6,0.1,2.3,0.4c0.6,0.3,1.2,0.6,1.7,1.1l-0.7,1
		c0,0.1-0.1,0.1-0.2,0.2c-0.1,0-0.2,0.1-0.3,0.1c-0.1,0-0.2,0-0.4-0.1c-0.1-0.1-0.3-0.2-0.5-0.3c-0.2-0.1-0.4-0.2-0.7-0.3
		c-0.3-0.1-0.7-0.1-1.1-0.1c-0.5,0-1,0.1-1.5,0.3s-0.8,0.5-1.2,0.8c-0.3,0.4-0.6,0.8-0.8,1.3c-0.2,0.5-0.3,1.1-0.3,1.7
		c0,0.7,0.1,1.2,0.3,1.7c0.2,0.5,0.4,0.9,0.7,1.3c0.3,0.3,0.7,0.6,1.1,0.8c0.4,0.2,0.9,0.3,1.4,0.3c0.3,0,0.6,0,0.8,0
		s0.5-0.1,0.7-0.2c0.2-0.1,0.4-0.2,0.6-0.3s0.4-0.2,0.5-0.4c0.1,0,0.1-0.1,0.2-0.1C220.2,26.2,220.2,26.2,220.3,26.2z"/>
	<path class="st3" d="M223,28.9v-8.2h1.2c0.2,0,0.3,0,0.4,0.1c0.1,0.1,0.1,0.2,0.2,0.4l0.1,1c0.3-0.5,0.6-0.9,1-1.2
		c0.4-0.3,0.8-0.4,1.3-0.4c0.4,0,0.7,0.1,1,0.3l-0.3,1.5c0,0.1-0.1,0.2-0.1,0.2c-0.1,0-0.1,0.1-0.2,0.1c-0.1,0-0.2,0-0.3-0.1
		c-0.1,0-0.3-0.1-0.6-0.1c-0.4,0-0.8,0.1-1.1,0.3c-0.3,0.2-0.5,0.6-0.7,1v5.1H223z"/>
	<path class="st3" d="M231.9,18.3c0,0.2,0,0.3-0.1,0.5s-0.2,0.3-0.3,0.4c-0.1,0.1-0.2,0.2-0.4,0.3s-0.3,0.1-0.5,0.1
		c-0.2,0-0.3,0-0.5-0.1c-0.2-0.1-0.3-0.2-0.4-0.3c-0.1-0.1-0.2-0.2-0.3-0.4c-0.1-0.1-0.1-0.3-0.1-0.5c0-0.2,0-0.3,0.1-0.5
		c0.1-0.2,0.2-0.3,0.3-0.4c0.1-0.1,0.2-0.2,0.4-0.3c0.2-0.1,0.3-0.1,0.5-0.1c0.2,0,0.3,0,0.5,0.1c0.2,0.1,0.3,0.2,0.4,0.3
		c0.1,0.1,0.2,0.2,0.3,0.4C231.9,17.9,231.9,18.1,231.9,18.3z M231.6,20.7v8.2h-2v-8.2H231.6z"/>
	<path class="st3" d="M240.3,28.9h-0.9c-0.2,0-0.3,0-0.4-0.1c-0.1-0.1-0.2-0.2-0.2-0.3l-0.2-0.6c-0.2,0.2-0.4,0.4-0.6,0.5
		c-0.2,0.1-0.4,0.3-0.6,0.4c-0.2,0.1-0.4,0.2-0.7,0.2c-0.2,0-0.5,0.1-0.8,0.1c-0.3,0-0.7,0-1-0.1c-0.3-0.1-0.5-0.2-0.8-0.4
		c-0.2-0.2-0.4-0.4-0.5-0.7c-0.1-0.3-0.2-0.6-0.2-1c0-0.3,0.1-0.6,0.2-0.9s0.4-0.6,0.8-0.8c0.4-0.2,0.9-0.4,1.5-0.6s1.4-0.2,2.3-0.2
		v-0.5c0-0.6-0.1-1-0.3-1.2c-0.2-0.3-0.6-0.4-1-0.4c-0.3,0-0.6,0-0.8,0.1c-0.2,0.1-0.4,0.2-0.6,0.3c-0.2,0.1-0.3,0.2-0.4,0.3
		c-0.1,0.1-0.3,0.1-0.4,0.1c-0.1,0-0.2,0-0.3-0.1s-0.2-0.2-0.2-0.3l-0.4-0.6c0.9-0.9,2.1-1.3,3.4-1.3c0.5,0,0.9,0.1,1.3,0.2
		s0.7,0.4,1,0.7c0.3,0.3,0.5,0.6,0.6,1c0.1,0.4,0.2,0.8,0.2,1.3V28.9z M236.4,27.7c0.2,0,0.4,0,0.6-0.1c0.2,0,0.3-0.1,0.5-0.2
		c0.2-0.1,0.3-0.2,0.4-0.3c0.1-0.1,0.3-0.2,0.4-0.4v-1.4c-0.6,0-1.1,0-1.4,0.1c-0.4,0.1-0.7,0.2-0.9,0.3c-0.2,0.1-0.4,0.2-0.5,0.4
		s-0.1,0.3-0.1,0.5c0,0.3,0.1,0.6,0.3,0.7C235.8,27.6,236.1,27.7,236.4,27.7z"/>
	<path class="st3" d="M244.4,30.7c0,0,0.1,0,0.1,0s0.1,0,0.1,0c0.1,0,0.1,0,0.2,0c0.1,0,0.1,0,0.2,0c0.2,0,0.3,0,0.4-0.1
		s0.1-0.1,0.1-0.2c0-0.2-0.1-0.3-0.3-0.3s-0.5-0.1-0.9-0.2l0.3-1c-0.4-0.1-0.8-0.2-1.2-0.4s-0.7-0.5-1-0.9s-0.5-0.8-0.6-1.3
		s-0.2-1-0.2-1.6c0-0.6,0.1-1.2,0.3-1.7c0.2-0.5,0.4-1,0.8-1.3s0.8-0.7,1.2-0.9c0.5-0.2,1.1-0.3,1.7-0.3c0.6,0,1.2,0.1,1.6,0.3
		c0.5,0.2,0.9,0.5,1.2,0.8l-0.5,0.7c-0.1,0.1-0.1,0.1-0.2,0.2c-0.1,0-0.1,0.1-0.2,0.1c-0.1,0-0.2,0-0.3-0.1
		c-0.1-0.1-0.2-0.1-0.3-0.2s-0.3-0.1-0.5-0.2c-0.2-0.1-0.4-0.1-0.7-0.1c-0.3,0-0.7,0.1-0.9,0.2c-0.3,0.1-0.5,0.3-0.7,0.5
		c-0.2,0.2-0.3,0.5-0.4,0.9c-0.1,0.3-0.1,0.7-0.1,1.1c0,0.4,0,0.8,0.1,1.2c0.1,0.3,0.2,0.6,0.4,0.9c0.2,0.2,0.4,0.4,0.6,0.5
		c0.3,0.1,0.5,0.2,0.8,0.2c0.3,0,0.6,0,0.8-0.1c0.2-0.1,0.4-0.2,0.5-0.3c0.1-0.1,0.2-0.2,0.3-0.3s0.2-0.1,0.3-0.1
		c0.1,0,0.3,0.1,0.4,0.2l0.6,0.7c-0.4,0.4-0.8,0.7-1.2,0.9c-0.5,0.2-0.9,0.3-1.4,0.4l-0.1,0.4c0.5,0.1,0.8,0.3,1,0.5
		s0.3,0.4,0.3,0.7c0,0.2,0,0.3-0.1,0.5c-0.1,0.1-0.2,0.3-0.4,0.4c-0.2,0.1-0.4,0.2-0.6,0.2c-0.2,0.1-0.5,0.1-0.8,0.1
		c-0.2,0-0.4,0-0.6,0s-0.4-0.1-0.6-0.1l0.2-0.6C244.2,30.8,244.3,30.7,244.4,30.7z"/>
	<path class="st3" d="M256.3,28.9h-0.9c-0.2,0-0.3,0-0.4-0.1c-0.1-0.1-0.2-0.2-0.2-0.3l-0.2-0.6c-0.2,0.2-0.4,0.4-0.6,0.5
		c-0.2,0.1-0.4,0.3-0.6,0.4s-0.4,0.2-0.7,0.2c-0.2,0-0.5,0.1-0.8,0.1c-0.3,0-0.7,0-1-0.1c-0.3-0.1-0.5-0.2-0.8-0.4
		c-0.2-0.2-0.4-0.4-0.5-0.7c-0.1-0.3-0.2-0.6-0.2-1c0-0.3,0.1-0.6,0.2-0.9s0.4-0.6,0.8-0.8c0.4-0.2,0.9-0.4,1.5-0.6
		c0.6-0.2,1.4-0.2,2.3-0.2v-0.5c0-0.6-0.1-1-0.3-1.2c-0.2-0.3-0.6-0.4-1-0.4c-0.3,0-0.6,0-0.8,0.1c-0.2,0.1-0.4,0.2-0.6,0.3
		c-0.2,0.1-0.3,0.2-0.4,0.3c-0.1,0.1-0.3,0.1-0.4,0.1c-0.1,0-0.2,0-0.3-0.1s-0.2-0.2-0.2-0.3l-0.4-0.6c0.9-0.9,2.1-1.3,3.4-1.3
		c0.5,0,0.9,0.1,1.3,0.2s0.7,0.4,1,0.7c0.3,0.3,0.5,0.6,0.6,1c0.1,0.4,0.2,0.8,0.2,1.3V28.9z M254,18c0.2,0,0.3,0,0.4-0.1
		s0.1-0.2,0.1-0.5h1.2c0,0.3,0,0.6-0.1,0.8c-0.1,0.2-0.2,0.5-0.3,0.6c-0.1,0.2-0.3,0.3-0.5,0.4c-0.2,0.1-0.4,0.1-0.7,0.1
		c-0.2,0-0.4,0-0.5-0.1s-0.3-0.1-0.5-0.2c-0.1-0.1-0.3-0.2-0.4-0.2s-0.2-0.1-0.3-0.1c-0.2,0-0.3,0-0.4,0.1c-0.1,0.1-0.1,0.3-0.1,0.5
		h-1.2c0-0.3,0-0.6,0.1-0.8c0.1-0.2,0.2-0.5,0.3-0.6c0.1-0.2,0.3-0.3,0.5-0.4c0.2-0.1,0.4-0.1,0.7-0.1c0.2,0,0.4,0,0.5,0.1
		s0.3,0.1,0.5,0.2c0.1,0.1,0.3,0.2,0.4,0.2C253.8,18,253.9,18,254,18z M252.4,27.7c0.2,0,0.4,0,0.6-0.1c0.2,0,0.3-0.1,0.5-0.2
		c0.2-0.1,0.3-0.2,0.4-0.3c0.1-0.1,0.3-0.2,0.4-0.4v-1.4c-0.6,0-1.1,0-1.4,0.1c-0.4,0.1-0.7,0.2-0.9,0.3c-0.2,0.1-0.4,0.2-0.5,0.4
		s-0.1,0.3-0.1,0.5c0,0.3,0.1,0.6,0.3,0.7C251.8,27.6,252.1,27.7,252.4,27.7z"/>
	<path class="st3" d="M261.7,20.6c0.6,0,1.2,0.1,1.7,0.3c0.5,0.2,0.9,0.5,1.3,0.8c0.4,0.4,0.6,0.8,0.8,1.3c0.2,0.5,0.3,1.1,0.3,1.8
		c0,0.7-0.1,1.2-0.3,1.8c-0.2,0.5-0.5,1-0.8,1.3c-0.4,0.4-0.8,0.7-1.3,0.8c-0.5,0.2-1.1,0.3-1.7,0.3s-1.2-0.1-1.7-0.3
		s-0.9-0.5-1.3-0.8c-0.4-0.4-0.6-0.8-0.8-1.3c-0.2-0.5-0.3-1.1-0.3-1.8c0-0.6,0.1-1.2,0.3-1.8c0.2-0.5,0.5-1,0.8-1.3
		c0.4-0.4,0.8-0.6,1.3-0.8S261.1,20.6,261.7,20.6z M261.7,27.5c0.7,0,1.2-0.2,1.5-0.7c0.3-0.5,0.5-1.1,0.5-2c0-0.9-0.2-1.6-0.5-2
		c-0.3-0.5-0.8-0.7-1.5-0.7c-0.7,0-1.2,0.2-1.5,0.7c-0.3,0.5-0.5,1.1-0.5,2c0,0.9,0.2,1.5,0.5,2C260.5,27.3,261,27.5,261.7,27.5z"/>
	<path class="st3" d="M276.2,28.9c-0.3,0-0.4-0.1-0.5-0.4l-0.2-0.8c-0.2,0.2-0.3,0.4-0.5,0.5c-0.2,0.2-0.4,0.3-0.6,0.4
		c-0.2,0.1-0.4,0.2-0.7,0.3c-0.2,0.1-0.5,0.1-0.8,0.1c-0.4,0-0.9-0.1-1.2-0.3s-0.7-0.5-1-0.8c-0.3-0.4-0.5-0.8-0.6-1.3
		c-0.1-0.5-0.2-1.1-0.2-1.8c0-0.6,0.1-1.2,0.2-1.7c0.2-0.5,0.4-1,0.7-1.4c0.3-0.4,0.7-0.7,1.1-0.9c0.4-0.2,0.9-0.3,1.5-0.3
		c0.5,0,0.9,0.1,1.2,0.2c0.3,0.1,0.6,0.3,0.9,0.6V17h2v11.9H276.2z M273.5,27.4c0.4,0,0.8-0.1,1-0.3s0.6-0.4,0.8-0.7v-3.7
		c-0.2-0.3-0.5-0.5-0.7-0.6c-0.3-0.1-0.5-0.2-0.9-0.2c-0.3,0-0.6,0.1-0.8,0.2c-0.2,0.1-0.4,0.3-0.6,0.5s-0.3,0.5-0.4,0.9
		c-0.1,0.3-0.1,0.8-0.1,1.2c0,0.5,0,0.9,0.1,1.2c0.1,0.3,0.2,0.6,0.3,0.8c0.1,0.2,0.3,0.4,0.5,0.5S273.3,27.4,273.5,27.4z"/>
	<path class="st3" d="M285.9,28.9h-0.9c-0.2,0-0.3,0-0.4-0.1c-0.1-0.1-0.2-0.2-0.2-0.3l-0.2-0.6c-0.2,0.2-0.4,0.4-0.6,0.5
		c-0.2,0.1-0.4,0.3-0.6,0.4s-0.4,0.2-0.7,0.2c-0.2,0-0.5,0.1-0.8,0.1c-0.3,0-0.7,0-1-0.1c-0.3-0.1-0.5-0.2-0.8-0.4
		c-0.2-0.2-0.4-0.4-0.5-0.7c-0.1-0.3-0.2-0.6-0.2-1c0-0.3,0.1-0.6,0.2-0.9c0.2-0.3,0.4-0.6,0.8-0.8c0.4-0.2,0.9-0.4,1.5-0.6
		c0.6-0.2,1.4-0.2,2.3-0.2v-0.5c0-0.6-0.1-1-0.3-1.2c-0.2-0.3-0.6-0.4-1-0.4c-0.3,0-0.6,0-0.8,0.1c-0.2,0.1-0.4,0.2-0.6,0.3
		c-0.2,0.1-0.3,0.2-0.4,0.3c-0.1,0.1-0.3,0.1-0.4,0.1c-0.1,0-0.2,0-0.3-0.1c-0.1-0.1-0.2-0.2-0.2-0.3l-0.4-0.6
		c0.9-0.9,2.1-1.3,3.4-1.3c0.5,0,0.9,0.1,1.3,0.2s0.7,0.4,1,0.7c0.3,0.3,0.5,0.6,0.6,1c0.1,0.4,0.2,0.8,0.2,1.3V28.9z M282.1,27.7
		c0.2,0,0.4,0,0.6-0.1c0.2,0,0.3-0.1,0.5-0.2c0.2-0.1,0.3-0.2,0.4-0.3c0.1-0.1,0.3-0.2,0.4-0.4v-1.4c-0.6,0-1.1,0-1.4,0.1
		c-0.4,0.1-0.7,0.2-0.9,0.3c-0.2,0.1-0.4,0.2-0.5,0.4s-0.1,0.3-0.1,0.5c0,0.3,0.1,0.6,0.3,0.7C281.5,27.6,281.8,27.7,282.1,27.7z"/>
	<path class="st3" d="M221.8,50.8V39.9h1.2c0.1,0,0.2,0,0.3,0.1c0.1,0.1,0.1,0.1,0.2,0.3l0.2,0.8c0.3-0.4,0.7-0.7,1.1-0.9
		s0.9-0.4,1.5-0.4c0.4,0,0.9,0.1,1.2,0.3c0.4,0.2,0.7,0.5,1,0.8c0.3,0.4,0.5,0.8,0.6,1.3c0.1,0.5,0.2,1.1,0.2,1.8
		c0,0.6-0.1,1.2-0.2,1.7c-0.2,0.5-0.4,1-0.7,1.4c-0.3,0.4-0.7,0.7-1.1,0.9s-0.9,0.3-1.5,0.3c-0.5,0-0.9-0.1-1.2-0.2
		c-0.3-0.1-0.6-0.3-0.9-0.6v3.4H221.8z M225.6,41.3c-0.4,0-0.8,0.1-1.1,0.3c-0.3,0.2-0.6,0.4-0.8,0.7V46c0.2,0.3,0.5,0.5,0.7,0.6
		c0.3,0.1,0.5,0.2,0.9,0.2c0.3,0,0.6-0.1,0.8-0.2c0.2-0.1,0.4-0.3,0.6-0.5c0.2-0.2,0.3-0.5,0.4-0.9c0.1-0.3,0.1-0.8,0.1-1.2
		c0-0.5,0-0.9-0.1-1.2c-0.1-0.3-0.2-0.6-0.3-0.8s-0.3-0.4-0.5-0.5C226.1,41.3,225.9,41.3,225.6,41.3z"/>
	<path class="st3" d="M230.8,48.1v-8.2h1.2c0.2,0,0.3,0,0.4,0.1c0.1,0.1,0.1,0.2,0.2,0.4l0.1,1c0.3-0.5,0.6-0.9,1-1.2
		c0.4-0.3,0.8-0.4,1.3-0.4c0.4,0,0.7,0.1,1,0.3l-0.3,1.5c0,0.1-0.1,0.2-0.1,0.2c-0.1,0-0.1,0.1-0.2,0.1c-0.1,0-0.2,0-0.3-0.1
		c-0.1,0-0.3-0.1-0.6-0.1c-0.4,0-0.8,0.1-1.1,0.3c-0.3,0.2-0.5,0.6-0.7,1v5.1H230.8z"/>
	<path class="st3" d="M239.7,37.5c0,0.2,0,0.3-0.1,0.5s-0.2,0.3-0.3,0.4c-0.1,0.1-0.2,0.2-0.4,0.3s-0.3,0.1-0.5,0.1
		c-0.2,0-0.3,0-0.5-0.1c-0.2-0.1-0.3-0.2-0.4-0.3c-0.1-0.1-0.2-0.2-0.3-0.4c-0.1-0.1-0.1-0.3-0.1-0.5c0-0.2,0-0.3,0.1-0.5
		c0.1-0.2,0.2-0.3,0.3-0.4c0.1-0.1,0.2-0.2,0.4-0.3c0.2-0.1,0.3-0.1,0.5-0.1c0.2,0,0.3,0,0.5,0.1c0.2,0.1,0.3,0.2,0.4,0.3
		c0.1,0.1,0.2,0.2,0.3,0.4C239.7,37.1,239.7,37.3,239.7,37.5z M239.5,39.9v8.2h-2v-8.2H239.5z"/>
	<path class="st3" d="M241.7,48.1v-8.2h1.2c0.3,0,0.4,0.1,0.5,0.4l0.1,0.6c0.2-0.2,0.3-0.3,0.5-0.5c0.2-0.1,0.4-0.3,0.6-0.4
		c0.2-0.1,0.4-0.2,0.7-0.2s0.5-0.1,0.8-0.1c0.4,0,0.8,0.1,1.2,0.2c0.3,0.2,0.6,0.4,0.9,0.6s0.4,0.6,0.5,1c0.1,0.4,0.2,0.8,0.2,1.3
		v5.2h-2v-5.2c0-0.5-0.1-0.9-0.3-1.2c-0.2-0.3-0.6-0.4-1-0.4c-0.3,0-0.7,0.1-1,0.2c-0.3,0.2-0.6,0.4-0.8,0.6v5.9H241.7z"/>
	<path class="st3" d="M254.2,39.8c0.5,0,1,0.1,1.4,0.2s0.8,0.4,1.1,0.7c0.3,0.3,0.6,0.7,0.7,1.2c0.2,0.5,0.3,1,0.3,1.6
		c0,0.1,0,0.3,0,0.4c0,0.1,0,0.2-0.1,0.2c0,0.1-0.1,0.1-0.1,0.1c-0.1,0-0.1,0-0.2,0h-5.1c0.1,0.8,0.3,1.5,0.7,1.9s0.9,0.6,1.6,0.6
		c0.3,0,0.6,0,0.8-0.1c0.2-0.1,0.4-0.2,0.6-0.2c0.2-0.1,0.3-0.2,0.5-0.2c0.1-0.1,0.3-0.1,0.4-0.1c0.1,0,0.1,0,0.2,0
		c0.1,0,0.1,0.1,0.2,0.1l0.6,0.7c-0.2,0.3-0.5,0.5-0.7,0.6c-0.3,0.2-0.6,0.3-0.9,0.4c-0.3,0.1-0.6,0.2-0.9,0.2
		c-0.3,0-0.6,0.1-0.9,0.1c-0.6,0-1.1-0.1-1.6-0.3c-0.5-0.2-0.9-0.5-1.3-0.8c-0.4-0.4-0.6-0.8-0.9-1.4s-0.3-1.2-0.3-1.9
		c0-0.6,0.1-1.1,0.3-1.6c0.2-0.5,0.4-0.9,0.8-1.3c0.3-0.4,0.8-0.7,1.2-0.9C253,39.9,253.6,39.8,254.2,39.8z M254.2,41.2
		c-0.6,0-1,0.2-1.4,0.5s-0.5,0.8-0.6,1.4h3.7c0-0.3,0-0.5-0.1-0.7c-0.1-0.2-0.2-0.4-0.3-0.6c-0.1-0.2-0.3-0.3-0.5-0.4
		C254.8,41.2,254.5,41.2,254.2,41.2z"/>
	<path class="st3" d="M261.7,37.5c0,0.2,0,0.3-0.1,0.5s-0.2,0.3-0.3,0.4c-0.1,0.1-0.3,0.2-0.4,0.3c-0.2,0.1-0.3,0.1-0.5,0.1
		c-0.2,0-0.3,0-0.5-0.1c-0.2-0.1-0.3-0.2-0.4-0.3c-0.1-0.1-0.2-0.2-0.3-0.4c-0.1-0.1-0.1-0.3-0.1-0.5c0-0.2,0-0.3,0.1-0.5
		c0.1-0.2,0.2-0.3,0.3-0.4s0.2-0.2,0.4-0.3c0.2-0.1,0.3-0.1,0.5-0.1c0.2,0,0.3,0,0.5,0.1c0.2,0.1,0.3,0.2,0.4,0.3
		c0.1,0.1,0.2,0.2,0.3,0.4C261.7,37.1,261.7,37.3,261.7,37.5z M261.4,39.9v8.2h-2v-8.2H261.4z"/>
	<path class="st3" d="M263.7,48.1v-8.2h1.2c0.2,0,0.3,0,0.4,0.1c0.1,0.1,0.1,0.2,0.2,0.4l0.1,1c0.3-0.5,0.6-0.9,1-1.2
		c0.4-0.3,0.8-0.4,1.3-0.4c0.4,0,0.7,0.1,1,0.3l-0.3,1.5c0,0.1-0.1,0.2-0.1,0.2c-0.1,0-0.1,0.1-0.2,0.1c-0.1,0-0.2,0-0.3-0.1
		c-0.1,0-0.3-0.1-0.6-0.1c-0.4,0-0.8,0.1-1.1,0.3c-0.3,0.2-0.5,0.6-0.7,1v5.1H263.7z"/>
	<path class="st3" d="M276.4,48.1h-0.9c-0.2,0-0.3,0-0.4-0.1s-0.2-0.2-0.2-0.3l-0.2-0.6c-0.2,0.2-0.4,0.4-0.6,0.5
		c-0.2,0.1-0.4,0.3-0.6,0.4c-0.2,0.1-0.4,0.2-0.7,0.2s-0.5,0.1-0.8,0.1c-0.3,0-0.7,0-1-0.1s-0.5-0.2-0.8-0.4s-0.4-0.4-0.5-0.7
		s-0.2-0.6-0.2-1c0-0.3,0.1-0.6,0.2-0.9c0.2-0.3,0.4-0.6,0.8-0.8c0.4-0.2,0.9-0.4,1.5-0.6c0.6-0.2,1.4-0.2,2.3-0.2v-0.5
		c0-0.6-0.1-1-0.3-1.2c-0.2-0.3-0.6-0.4-1-0.4c-0.3,0-0.6,0-0.8,0.1c-0.2,0.1-0.4,0.2-0.6,0.3c-0.2,0.1-0.3,0.2-0.4,0.3
		c-0.1,0.1-0.3,0.1-0.4,0.1c-0.1,0-0.2,0-0.3-0.1c-0.1-0.1-0.2-0.2-0.2-0.3l-0.4-0.6c0.9-0.9,2.1-1.3,3.4-1.3c0.5,0,0.9,0.1,1.3,0.2
		s0.7,0.4,1,0.7c0.3,0.3,0.5,0.6,0.6,1s0.2,0.8,0.2,1.3V48.1z M272.6,46.9c0.2,0,0.4,0,0.6-0.1s0.3-0.1,0.5-0.2
		c0.2-0.1,0.3-0.2,0.4-0.3c0.1-0.1,0.3-0.2,0.4-0.4v-1.4c-0.6,0-1.1,0-1.4,0.1s-0.7,0.2-0.9,0.3c-0.2,0.1-0.4,0.2-0.5,0.4
		s-0.1,0.3-0.1,0.5c0,0.3,0.1,0.6,0.3,0.7C272,46.8,272.2,46.9,272.6,46.9z"/>
	<path class="st3" d="M215,67.3v-6.7l-0.7-0.1c-0.2,0-0.3-0.1-0.4-0.2c-0.1-0.1-0.1-0.2-0.1-0.3v-0.8h1.2v-0.6
		c0-0.5,0.1-0.9,0.2-1.3c0.1-0.4,0.3-0.7,0.6-1s0.6-0.5,1-0.6c0.4-0.1,0.8-0.2,1.3-0.2c0.4,0,0.7,0.1,1.1,0.2l0,1
		c0,0.2-0.1,0.3-0.2,0.3s-0.3,0.1-0.5,0.1c-0.2,0-0.4,0-0.6,0.1c-0.2,0.1-0.3,0.1-0.5,0.3c-0.1,0.1-0.2,0.3-0.3,0.5
		c-0.1,0.2-0.1,0.5-0.1,0.8v0.5h2.1v1.4H217v6.7H215z"/>
	<path class="st3" d="M226.7,67.3h-0.9c-0.2,0-0.3,0-0.4-0.1c-0.1-0.1-0.2-0.2-0.2-0.3l-0.2-0.6c-0.2,0.2-0.4,0.4-0.6,0.5
		c-0.2,0.1-0.4,0.3-0.6,0.4c-0.2,0.1-0.4,0.2-0.7,0.2c-0.2,0-0.5,0.1-0.8,0.1c-0.3,0-0.7,0-1-0.1c-0.3-0.1-0.5-0.2-0.8-0.4
		c-0.2-0.2-0.4-0.4-0.5-0.7c-0.1-0.3-0.2-0.6-0.2-1c0-0.3,0.1-0.6,0.2-0.9s0.4-0.6,0.8-0.8c0.4-0.2,0.9-0.4,1.5-0.6s1.4-0.2,2.3-0.2
		v-0.5c0-0.6-0.1-1-0.3-1.2c-0.2-0.3-0.6-0.4-1-0.4c-0.3,0-0.6,0-0.8,0.1c-0.2,0.1-0.4,0.2-0.6,0.3c-0.2,0.1-0.3,0.2-0.4,0.3
		c-0.1,0.1-0.3,0.1-0.4,0.1c-0.1,0-0.2,0-0.3-0.1s-0.2-0.2-0.2-0.3l-0.4-0.6c0.9-0.9,2.1-1.3,3.4-1.3c0.5,0,0.9,0.1,1.3,0.2
		s0.7,0.4,1,0.7c0.3,0.3,0.5,0.6,0.6,1c0.1,0.4,0.2,0.8,0.2,1.3V67.3z M222.9,66.1c0.2,0,0.4,0,0.6-0.1c0.2,0,0.3-0.1,0.5-0.2
		c0.2-0.1,0.3-0.2,0.4-0.3c0.1-0.1,0.3-0.2,0.4-0.4v-1.4c-0.6,0-1.1,0-1.4,0.1c-0.4,0.1-0.7,0.2-0.9,0.3c-0.2,0.1-0.4,0.2-0.5,0.4
		s-0.1,0.3-0.1,0.5c0,0.3,0.1,0.6,0.3,0.7C222.3,66,222.6,66.1,222.9,66.1z M226.4,55.6l-2,2.1c-0.1,0.1-0.2,0.2-0.3,0.2
		c-0.1,0-0.2,0.1-0.4,0.1h-1.2l1.1-1.9c0.1-0.1,0.2-0.2,0.3-0.3c0.1-0.1,0.3-0.1,0.5-0.1H226.4z"/>
	<path class="st3" d="M228.7,67.3V55.4h2v4.7c0.3-0.3,0.7-0.6,1.1-0.8c0.4-0.2,0.9-0.3,1.4-0.3c0.4,0,0.9,0.1,1.2,0.3
		c0.4,0.2,0.7,0.5,1,0.8c0.3,0.4,0.5,0.8,0.6,1.3c0.1,0.5,0.2,1.1,0.2,1.8c0,0.6-0.1,1.2-0.2,1.7c-0.2,0.5-0.4,1-0.7,1.4
		c-0.3,0.4-0.7,0.7-1.1,0.9s-0.9,0.3-1.5,0.3c-0.3,0-0.5,0-0.7-0.1s-0.4-0.1-0.6-0.2c-0.2-0.1-0.3-0.2-0.5-0.3
		c-0.1-0.1-0.3-0.3-0.4-0.4l-0.1,0.6c0,0.1-0.1,0.2-0.2,0.3c-0.1,0.1-0.2,0.1-0.3,0.1H228.7z M232.5,60.5c-0.4,0-0.8,0.1-1.1,0.3
		c-0.3,0.2-0.6,0.4-0.8,0.7v3.7c0.2,0.3,0.5,0.5,0.7,0.6c0.3,0.1,0.6,0.2,0.9,0.2c0.3,0,0.6-0.1,0.8-0.2c0.2-0.1,0.4-0.3,0.6-0.5
		c0.2-0.2,0.3-0.5,0.4-0.9c0.1-0.3,0.1-0.8,0.1-1.2c0-0.5,0-0.9-0.1-1.2c-0.1-0.3-0.2-0.6-0.3-0.8s-0.3-0.4-0.5-0.5
		C233,60.5,232.8,60.5,232.5,60.5z"/>
	<path class="st3" d="M237.8,67.3v-8.2h1.2c0.2,0,0.3,0,0.4,0.1c0.1,0.1,0.1,0.2,0.2,0.4l0.1,1c0.3-0.5,0.6-0.9,1-1.2
		c0.4-0.3,0.8-0.4,1.3-0.4c0.4,0,0.7,0.1,1,0.3l-0.3,1.5c0,0.1-0.1,0.2-0.1,0.2c-0.1,0-0.1,0.1-0.2,0.1c-0.1,0-0.2,0-0.3-0.1
		c-0.1,0-0.3-0.1-0.6-0.1c-0.4,0-0.8,0.1-1.1,0.3c-0.3,0.2-0.5,0.6-0.7,1v5.1H237.8z"/>
	<path class="st3" d="M246.7,56.7c0,0.2,0,0.3-0.1,0.5s-0.2,0.3-0.3,0.4c-0.1,0.1-0.2,0.2-0.4,0.3s-0.3,0.1-0.5,0.1
		c-0.2,0-0.3,0-0.5-0.1c-0.2-0.1-0.3-0.2-0.4-0.3c-0.1-0.1-0.2-0.2-0.3-0.4c-0.1-0.1-0.1-0.3-0.1-0.5c0-0.2,0-0.3,0.1-0.5
		c0.1-0.2,0.2-0.3,0.3-0.4c0.1-0.1,0.2-0.2,0.4-0.3c0.2-0.1,0.3-0.1,0.5-0.1c0.2,0,0.3,0,0.5,0.1c0.2,0.1,0.3,0.2,0.4,0.3
		c0.1,0.1,0.2,0.2,0.3,0.4C246.7,56.3,246.7,56.5,246.7,56.7z M246.4,59.1v8.2h-2v-8.2H246.4z"/>
	<path class="st3" d="M254.4,60.8c-0.1,0.1-0.1,0.1-0.2,0.2c-0.1,0-0.1,0.1-0.2,0.1c-0.1,0-0.2,0-0.3-0.1c-0.1-0.1-0.2-0.1-0.3-0.2
		c-0.1-0.1-0.3-0.1-0.5-0.2c-0.2-0.1-0.4-0.1-0.7-0.1c-0.3,0-0.7,0.1-0.9,0.2c-0.3,0.1-0.5,0.3-0.7,0.5c-0.2,0.2-0.3,0.5-0.4,0.9
		c-0.1,0.3-0.1,0.7-0.1,1.1c0,0.4,0,0.8,0.1,1.2c0.1,0.3,0.2,0.6,0.4,0.9c0.2,0.2,0.4,0.4,0.6,0.5c0.3,0.1,0.5,0.2,0.8,0.2
		s0.6,0,0.8-0.1c0.2-0.1,0.4-0.2,0.5-0.3c0.1-0.1,0.3-0.2,0.3-0.3s0.2-0.1,0.3-0.1c0.2,0,0.3,0.1,0.4,0.2l0.6,0.7
		c-0.2,0.3-0.5,0.5-0.7,0.6c-0.3,0.2-0.5,0.3-0.8,0.4c-0.3,0.1-0.6,0.2-0.9,0.2c-0.3,0-0.6,0.1-0.9,0.1c-0.5,0-1-0.1-1.4-0.3
		c-0.4-0.2-0.8-0.5-1.2-0.8c-0.3-0.4-0.6-0.8-0.8-1.3s-0.3-1.1-0.3-1.8c0-0.6,0.1-1.2,0.3-1.7c0.2-0.5,0.4-1,0.8-1.3
		s0.8-0.7,1.2-0.9c0.5-0.2,1.1-0.3,1.7-0.3c0.6,0,1.2,0.1,1.6,0.3s0.9,0.5,1.2,0.8L254.4,60.8z"/>
	<path class="st3" d="M262.7,67.3h-0.9c-0.2,0-0.3,0-0.4-0.1c-0.1-0.1-0.2-0.2-0.2-0.3l-0.2-0.6c-0.2,0.2-0.4,0.4-0.6,0.5
		c-0.2,0.1-0.4,0.3-0.6,0.4s-0.4,0.2-0.7,0.2c-0.2,0-0.5,0.1-0.8,0.1c-0.3,0-0.7,0-1-0.1c-0.3-0.1-0.5-0.2-0.8-0.4
		c-0.2-0.2-0.4-0.4-0.5-0.7c-0.1-0.3-0.2-0.6-0.2-1c0-0.3,0.1-0.6,0.2-0.9c0.2-0.3,0.4-0.6,0.8-0.8c0.4-0.2,0.9-0.4,1.5-0.6
		c0.6-0.2,1.4-0.2,2.3-0.2v-0.5c0-0.6-0.1-1-0.3-1.2c-0.2-0.3-0.6-0.4-1-0.4c-0.3,0-0.6,0-0.8,0.1c-0.2,0.1-0.4,0.2-0.6,0.3
		c-0.2,0.1-0.3,0.2-0.4,0.3c-0.1,0.1-0.3,0.1-0.4,0.1c-0.1,0-0.2,0-0.3-0.1c-0.1-0.1-0.2-0.2-0.2-0.3l-0.4-0.6
		c0.9-0.9,2.1-1.3,3.4-1.3c0.5,0,0.9,0.1,1.3,0.2s0.7,0.4,1,0.7c0.3,0.3,0.5,0.6,0.6,1c0.1,0.4,0.2,0.8,0.2,1.3V67.3z M258.9,66.1
		c0.2,0,0.4,0,0.6-0.1c0.2,0,0.3-0.1,0.5-0.2c0.2-0.1,0.3-0.2,0.4-0.3c0.1-0.1,0.3-0.2,0.4-0.4v-1.4c-0.6,0-1.1,0-1.4,0.1
		c-0.4,0.1-0.7,0.2-0.9,0.3c-0.2,0.1-0.4,0.2-0.5,0.4s-0.1,0.3-0.1,0.5c0,0.3,0.1,0.6,0.3,0.7C258.3,66,258.6,66.1,258.9,66.1z"/>
	<path class="st3" d="M273.5,67.3c-0.3,0-0.4-0.1-0.5-0.4l-0.2-0.8c-0.2,0.2-0.3,0.4-0.5,0.5c-0.2,0.2-0.4,0.3-0.6,0.4
		c-0.2,0.1-0.4,0.2-0.7,0.3c-0.2,0.1-0.5,0.1-0.8,0.1c-0.4,0-0.9-0.1-1.2-0.3s-0.7-0.5-1-0.8c-0.3-0.4-0.5-0.8-0.6-1.3
		c-0.1-0.5-0.2-1.1-0.2-1.8c0-0.6,0.1-1.2,0.2-1.7c0.2-0.5,0.4-1,0.7-1.4c0.3-0.4,0.7-0.7,1.1-0.9c0.4-0.2,0.9-0.3,1.5-0.3
		c0.5,0,0.9,0.1,1.2,0.2c0.3,0.1,0.6,0.3,0.9,0.6v-4.3h2v11.9H273.5z M270.9,65.8c0.4,0,0.8-0.1,1-0.3s0.6-0.4,0.8-0.7v-3.7
		c-0.2-0.3-0.5-0.5-0.7-0.6c-0.3-0.1-0.5-0.2-0.9-0.2c-0.3,0-0.6,0.1-0.8,0.2c-0.2,0.1-0.4,0.3-0.6,0.5s-0.3,0.5-0.4,0.9
		c-0.1,0.3-0.1,0.8-0.1,1.2c0,0.5,0,0.9,0.1,1.2c0.1,0.3,0.2,0.6,0.3,0.8c0.1,0.2,0.3,0.4,0.5,0.5S270.6,65.8,270.9,65.8z"/>
	<path class="st3" d="M280.3,59c0.5,0,1,0.1,1.4,0.2s0.8,0.4,1.1,0.7c0.3,0.3,0.6,0.7,0.7,1.2c0.2,0.5,0.3,1,0.3,1.6
		c0,0.1,0,0.3,0,0.4c0,0.1,0,0.2-0.1,0.2c0,0.1-0.1,0.1-0.1,0.1c-0.1,0-0.1,0-0.2,0h-5.1c0.1,0.8,0.3,1.5,0.7,1.9s0.9,0.6,1.6,0.6
		c0.3,0,0.6,0,0.8-0.1c0.2-0.1,0.4-0.2,0.6-0.2c0.2-0.1,0.3-0.2,0.5-0.2c0.1-0.1,0.3-0.1,0.4-0.1c0.1,0,0.1,0,0.2,0
		c0.1,0,0.1,0.1,0.2,0.1l0.6,0.7c-0.2,0.3-0.5,0.5-0.7,0.6c-0.3,0.2-0.6,0.3-0.9,0.4c-0.3,0.1-0.6,0.2-0.9,0.2
		c-0.3,0-0.6,0.1-0.9,0.1c-0.6,0-1.1-0.1-1.6-0.3c-0.5-0.2-0.9-0.5-1.3-0.8c-0.4-0.4-0.6-0.8-0.9-1.4s-0.3-1.2-0.3-1.9
		c0-0.6,0.1-1.1,0.3-1.6c0.2-0.5,0.4-0.9,0.8-1.3c0.3-0.4,0.8-0.7,1.2-0.9C279.1,59.1,279.7,59,280.3,59z M280.3,60.4
		c-0.6,0-1,0.2-1.4,0.5s-0.5,0.8-0.6,1.4h3.7c0-0.3,0-0.5-0.1-0.7c-0.1-0.2-0.2-0.4-0.3-0.6c-0.1-0.2-0.3-0.3-0.5-0.4
		C280.9,60.4,280.6,60.4,280.3,60.4z"/>
	<path class="st3" d="M222.9,79.9c-0.1,0.1-0.1,0.1-0.2,0.2c-0.1,0-0.1,0.1-0.2,0.1c-0.1,0-0.2,0-0.3-0.1c-0.1-0.1-0.2-0.1-0.4-0.2
		s-0.3-0.1-0.5-0.2c-0.2-0.1-0.4-0.1-0.7-0.1c-0.4,0-0.7,0.1-0.9,0.2c-0.2,0.2-0.3,0.4-0.3,0.6c0,0.2,0.1,0.3,0.2,0.4
		s0.3,0.2,0.5,0.3c0.2,0.1,0.4,0.2,0.6,0.2c0.2,0.1,0.5,0.2,0.7,0.2c0.3,0.1,0.5,0.2,0.7,0.3c0.2,0.1,0.5,0.2,0.6,0.4
		s0.3,0.4,0.5,0.6c0.1,0.2,0.2,0.5,0.2,0.8c0,0.4-0.1,0.8-0.2,1.1s-0.4,0.6-0.6,0.9c-0.3,0.2-0.6,0.4-1,0.6
		c-0.4,0.1-0.9,0.2-1.4,0.2c-0.3,0-0.6,0-0.8-0.1s-0.5-0.1-0.8-0.2s-0.5-0.2-0.7-0.3c-0.2-0.1-0.4-0.3-0.6-0.4l0.5-0.8
		c0.1-0.1,0.1-0.2,0.2-0.2s0.2-0.1,0.3-0.1c0.1,0,0.2,0,0.3,0.1s0.2,0.1,0.4,0.2c0.1,0.1,0.3,0.2,0.5,0.2s0.4,0.1,0.7,0.1
		c0.2,0,0.4,0,0.6-0.1c0.2-0.1,0.3-0.1,0.4-0.2c0.1-0.1,0.2-0.2,0.2-0.3s0.1-0.2,0.1-0.4c0-0.2-0.1-0.3-0.2-0.5
		c-0.1-0.1-0.3-0.2-0.5-0.3c-0.2-0.1-0.4-0.2-0.6-0.2s-0.5-0.2-0.7-0.2c-0.3-0.1-0.5-0.2-0.7-0.3c-0.2-0.1-0.5-0.3-0.6-0.4
		c-0.2-0.2-0.3-0.4-0.5-0.6s-0.2-0.6-0.2-0.9c0-0.3,0.1-0.7,0.2-1s0.3-0.6,0.6-0.8c0.3-0.2,0.6-0.4,1-0.5s0.8-0.2,1.3-0.2
		c0.6,0,1.1,0.1,1.5,0.3c0.5,0.2,0.9,0.4,1.2,0.7L222.9,79.9z"/>
	<path class="st3" d="M228.5,78.2c0.6,0,1.2,0.1,1.7,0.3s0.9,0.5,1.3,0.8c0.4,0.4,0.6,0.8,0.8,1.3c0.2,0.5,0.3,1.1,0.3,1.8
		c0,0.7-0.1,1.2-0.3,1.8c-0.2,0.5-0.5,1-0.8,1.3c-0.4,0.4-0.8,0.7-1.3,0.8s-1.1,0.3-1.7,0.3s-1.2-0.1-1.7-0.3
		c-0.5-0.2-0.9-0.5-1.3-0.8c-0.4-0.4-0.6-0.8-0.8-1.3c-0.2-0.5-0.3-1.1-0.3-1.8c0-0.6,0.1-1.2,0.3-1.8c0.2-0.5,0.5-1,0.8-1.3
		c0.4-0.4,0.8-0.6,1.3-0.8C227.4,78.3,227.9,78.2,228.5,78.2z M228.5,85.1c0.7,0,1.2-0.2,1.5-0.7c0.3-0.5,0.5-1.1,0.5-2
		c0-0.9-0.2-1.6-0.5-2c-0.3-0.5-0.8-0.7-1.5-0.7c-0.7,0-1.2,0.2-1.5,0.7s-0.5,1.1-0.5,2c0,0.9,0.2,1.5,0.5,2
		C227.3,84.9,227.9,85.1,228.5,85.1z"/>
	<path class="st3" d="M234.5,86.5v-6.7l-0.7-0.1c-0.2,0-0.3-0.1-0.4-0.2c-0.1-0.1-0.1-0.2-0.1-0.3v-0.8h1.2v-0.6
		c0-0.5,0.1-0.9,0.2-1.3c0.1-0.4,0.3-0.7,0.6-1s0.6-0.5,1-0.6c0.4-0.1,0.8-0.2,1.3-0.2c0.4,0,0.7,0.1,1.1,0.2l0,1
		c0,0.2-0.1,0.3-0.2,0.3s-0.3,0.1-0.5,0.1c-0.2,0-0.4,0-0.6,0.1c-0.2,0.1-0.3,0.1-0.5,0.3c-0.1,0.1-0.2,0.3-0.3,0.5
		c-0.1,0.2-0.1,0.5-0.1,0.8v0.5h2.1v1.4h-2.1v6.7H234.5z"/>
	<path class="st3" d="M242.4,86.6c-0.7,0-1.3-0.2-1.6-0.6c-0.4-0.4-0.6-1-0.6-1.7v-4.6h-0.8c-0.1,0-0.2,0-0.3-0.1
		c-0.1-0.1-0.1-0.2-0.1-0.3v-0.8l1.3-0.2l0.4-2.2c0-0.1,0.1-0.2,0.1-0.2c0.1-0.1,0.2-0.1,0.3-0.1h1v2.6h2.2v1.4h-2.2v4.4
		c0,0.3,0.1,0.5,0.2,0.6c0.1,0.1,0.3,0.2,0.5,0.2c0.1,0,0.2,0,0.3,0s0.2-0.1,0.2-0.1c0.1,0,0.1-0.1,0.2-0.1c0,0,0.1,0,0.1,0
		c0.1,0,0.1,0,0.1,0c0,0,0.1,0.1,0.1,0.1l0.6,1c-0.3,0.2-0.6,0.4-1,0.5C243.2,86.6,242.8,86.6,242.4,86.6z"/>
	<path class="st3" d="M244.9,78.3h1.6c0.1,0,0.3,0,0.4,0.1c0.1,0.1,0.2,0.2,0.2,0.3l1.2,4.4c0.1,0.2,0.1,0.5,0.2,0.7
		s0.1,0.5,0.1,0.7c0.1-0.2,0.1-0.5,0.2-0.7c0.1-0.2,0.1-0.5,0.2-0.7l1.4-4.4c0-0.1,0.1-0.2,0.2-0.3c0.1-0.1,0.2-0.1,0.3-0.1h0.9
		c0.1,0,0.3,0,0.4,0.1c0.1,0.1,0.2,0.2,0.2,0.3l1.3,4.5c0.1,0.2,0.1,0.5,0.2,0.7s0.1,0.4,0.2,0.7c0-0.2,0.1-0.5,0.1-0.7
		c0-0.2,0.1-0.5,0.2-0.7l1.2-4.4c0-0.1,0.1-0.2,0.2-0.3c0.1-0.1,0.2-0.1,0.4-0.1h1.5l-2.6,8.2h-1.6c-0.2,0-0.3-0.1-0.4-0.4l-1.5-4.7
		c0-0.2-0.1-0.3-0.1-0.5c0-0.2-0.1-0.3-0.1-0.5c0,0.2-0.1,0.3-0.1,0.5s-0.1,0.3-0.1,0.5l-1.5,4.7c-0.1,0.2-0.2,0.4-0.4,0.4h-1.5
		L244.9,78.3z"/>
	<path class="st3" d="M265,86.5h-0.9c-0.2,0-0.3,0-0.4-0.1s-0.2-0.2-0.2-0.3l-0.2-0.6c-0.2,0.2-0.4,0.4-0.6,0.5
		c-0.2,0.1-0.4,0.3-0.6,0.4c-0.2,0.1-0.4,0.2-0.7,0.2s-0.5,0.1-0.8,0.1c-0.3,0-0.7,0-1-0.1s-0.5-0.2-0.8-0.4s-0.4-0.4-0.5-0.7
		s-0.2-0.6-0.2-1c0-0.3,0.1-0.6,0.2-0.9c0.2-0.3,0.4-0.6,0.8-0.8c0.4-0.2,0.9-0.4,1.5-0.6c0.6-0.2,1.4-0.2,2.3-0.2v-0.5
		c0-0.6-0.1-1-0.3-1.2c-0.2-0.3-0.6-0.4-1-0.4c-0.3,0-0.6,0-0.8,0.1c-0.2,0.1-0.4,0.2-0.6,0.3c-0.2,0.1-0.3,0.2-0.4,0.3
		c-0.1,0.1-0.3,0.1-0.4,0.1c-0.1,0-0.2,0-0.3-0.1c-0.1-0.1-0.2-0.2-0.2-0.3l-0.4-0.6c0.9-0.9,2.1-1.3,3.4-1.3c0.5,0,0.9,0.1,1.3,0.2
		s0.7,0.4,1,0.7c0.3,0.3,0.5,0.6,0.6,1s0.2,0.8,0.2,1.3V86.5z M261.2,85.3c0.2,0,0.4,0,0.6-0.1s0.3-0.1,0.5-0.2
		c0.2-0.1,0.3-0.2,0.4-0.3c0.1-0.1,0.3-0.2,0.4-0.4V83c-0.6,0-1.1,0-1.4,0.1s-0.7,0.2-0.9,0.3c-0.2,0.1-0.4,0.2-0.5,0.4
		s-0.1,0.3-0.1,0.5c0,0.3,0.1,0.6,0.3,0.7C260.6,85.2,260.9,85.3,261.2,85.3z"/>
	<path class="st3" d="M267,86.5v-8.2h1.2c0.2,0,0.3,0,0.4,0.1c0.1,0.1,0.1,0.2,0.2,0.4l0.1,1c0.3-0.5,0.6-0.9,1-1.2s0.8-0.4,1.3-0.4
		c0.4,0,0.7,0.1,1,0.3l-0.3,1.5c0,0.1-0.1,0.2-0.1,0.2c-0.1,0-0.1,0.1-0.2,0.1c-0.1,0-0.2,0-0.3-0.1c-0.1,0-0.3-0.1-0.6-0.1
		c-0.4,0-0.8,0.1-1.1,0.3c-0.3,0.2-0.5,0.6-0.7,1v5.1H267z"/>
	<path class="st3" d="M276.9,78.2c0.5,0,1,0.1,1.4,0.2s0.8,0.4,1.1,0.7c0.3,0.3,0.6,0.7,0.7,1.2c0.2,0.5,0.3,1,0.3,1.6
		c0,0.1,0,0.3,0,0.4c0,0.1,0,0.2-0.1,0.2c0,0.1-0.1,0.1-0.1,0.1c-0.1,0-0.1,0-0.2,0h-5.1c0.1,0.8,0.3,1.5,0.7,1.9s0.9,0.6,1.6,0.6
		c0.3,0,0.6,0,0.8-0.1c0.2-0.1,0.4-0.2,0.6-0.2c0.2-0.1,0.3-0.2,0.5-0.2c0.1-0.1,0.3-0.1,0.4-0.1c0.1,0,0.1,0,0.2,0
		c0.1,0,0.1,0.1,0.2,0.1l0.6,0.7c-0.2,0.3-0.5,0.5-0.7,0.6c-0.3,0.2-0.6,0.3-0.9,0.4c-0.3,0.1-0.6,0.2-0.9,0.2
		c-0.3,0-0.6,0.1-0.9,0.1c-0.6,0-1.1-0.1-1.6-0.3c-0.5-0.2-0.9-0.5-1.3-0.8c-0.4-0.4-0.6-0.8-0.9-1.4s-0.3-1.2-0.3-1.9
		c0-0.6,0.1-1.1,0.3-1.6c0.2-0.5,0.4-0.9,0.8-1.3c0.3-0.4,0.8-0.7,1.2-0.9C275.7,78.3,276.3,78.2,276.9,78.2z M276.9,79.6
		c-0.6,0-1,0.2-1.4,0.5s-0.5,0.8-0.6,1.4h3.7c0-0.3,0-0.5-0.1-0.7c-0.1-0.2-0.2-0.4-0.3-0.6c-0.1-0.2-0.3-0.3-0.5-0.4
		C277.5,79.6,277.2,79.6,276.9,79.6z"/>
</g>
<g>
	<path class="st3" d="M382.3,26.2c0.1,0,0.2,0,0.3,0.1l0.8,0.9c-0.5,0.6-1,1-1.7,1.3c-0.7,0.3-1.5,0.5-2.5,0.5
		c-0.9,0-1.6-0.1-2.3-0.4c-0.7-0.3-1.3-0.7-1.8-1.2s-0.9-1.1-1.1-1.9c-0.3-0.7-0.4-1.5-0.4-2.4c0-0.9,0.1-1.7,0.4-2.4
		s0.7-1.3,1.2-1.9s1.1-0.9,1.9-1.2c0.7-0.3,1.5-0.4,2.4-0.4c0.9,0,1.6,0.1,2.3,0.4c0.6,0.3,1.2,0.6,1.7,1.1l-0.7,1
		c0,0.1-0.1,0.1-0.2,0.2c-0.1,0-0.2,0.1-0.3,0.1c-0.1,0-0.2,0-0.4-0.1c-0.1-0.1-0.3-0.2-0.5-0.3c-0.2-0.1-0.4-0.2-0.7-0.3
		c-0.3-0.1-0.7-0.1-1.1-0.1c-0.5,0-1,0.1-1.5,0.3s-0.8,0.5-1.2,0.8c-0.3,0.4-0.6,0.8-0.8,1.3s-0.3,1.1-0.3,1.7
		c0,0.7,0.1,1.2,0.3,1.7s0.4,0.9,0.7,1.3s0.7,0.6,1.1,0.8c0.4,0.2,0.9,0.3,1.4,0.3c0.3,0,0.6,0,0.8,0s0.5-0.1,0.7-0.2
		c0.2-0.1,0.4-0.2,0.6-0.3s0.4-0.2,0.5-0.4c0.1,0,0.1-0.1,0.2-0.1S382.2,26.2,382.3,26.2z"/>
	<path class="st3" d="M385,28.9v-8.2h1.2c0.2,0,0.3,0,0.4,0.1c0.1,0.1,0.1,0.2,0.2,0.4l0.1,1c0.3-0.5,0.6-0.9,1-1.2
		c0.4-0.3,0.8-0.4,1.3-0.4c0.4,0,0.7,0.1,1,0.3l-0.3,1.5c0,0.1-0.1,0.2-0.1,0.2c-0.1,0-0.1,0.1-0.2,0.1c-0.1,0-0.2,0-0.3-0.1
		c-0.1,0-0.3-0.1-0.6-0.1c-0.4,0-0.8,0.1-1.1,0.3c-0.3,0.2-0.5,0.6-0.7,1v5.1H385z"/>
	<path class="st3" d="M393.9,18.3c0,0.2,0,0.3-0.1,0.5s-0.2,0.3-0.3,0.4c-0.1,0.1-0.3,0.2-0.4,0.3c-0.2,0.1-0.3,0.1-0.5,0.1
		c-0.2,0-0.3,0-0.5-0.1c-0.2-0.1-0.3-0.2-0.4-0.3c-0.1-0.1-0.2-0.2-0.3-0.4c-0.1-0.1-0.1-0.3-0.1-0.5c0-0.2,0-0.3,0.1-0.5
		c0.1-0.2,0.2-0.3,0.3-0.4s0.2-0.2,0.4-0.3c0.2-0.1,0.3-0.1,0.5-0.1c0.2,0,0.3,0,0.5,0.1c0.2,0.1,0.3,0.2,0.4,0.3
		c0.1,0.1,0.2,0.2,0.3,0.4C393.9,17.9,393.9,18.1,393.9,18.3z M393.6,20.7v8.2h-2v-8.2H393.6z"/>
	<path class="st3" d="M402.3,28.9h-0.9c-0.2,0-0.3,0-0.4-0.1c-0.1-0.1-0.2-0.2-0.2-0.3l-0.2-0.6c-0.2,0.2-0.4,0.4-0.6,0.5
		c-0.2,0.1-0.4,0.3-0.6,0.4s-0.4,0.2-0.7,0.2c-0.2,0-0.5,0.1-0.8,0.1c-0.3,0-0.7,0-1-0.1c-0.3-0.1-0.5-0.2-0.8-0.4
		c-0.2-0.2-0.4-0.4-0.5-0.7c-0.1-0.3-0.2-0.6-0.2-1c0-0.3,0.1-0.6,0.2-0.9c0.2-0.3,0.4-0.6,0.8-0.8c0.4-0.2,0.9-0.4,1.5-0.6
		c0.6-0.2,1.4-0.2,2.3-0.2v-0.5c0-0.6-0.1-1-0.3-1.2c-0.2-0.3-0.6-0.4-1-0.4c-0.3,0-0.6,0-0.8,0.1c-0.2,0.1-0.4,0.2-0.6,0.3
		c-0.2,0.1-0.3,0.2-0.4,0.3c-0.1,0.1-0.3,0.1-0.4,0.1c-0.1,0-0.2,0-0.3-0.1c-0.1-0.1-0.2-0.2-0.2-0.3l-0.4-0.6
		c0.9-0.9,2.1-1.3,3.4-1.3c0.5,0,0.9,0.1,1.3,0.2s0.7,0.4,1,0.7c0.3,0.3,0.5,0.6,0.6,1c0.1,0.4,0.2,0.8,0.2,1.3V28.9z M398.4,27.7
		c0.2,0,0.4,0,0.6-0.1c0.2,0,0.3-0.1,0.5-0.2c0.2-0.1,0.3-0.2,0.4-0.3c0.1-0.1,0.3-0.2,0.4-0.4v-1.4c-0.6,0-1.1,0-1.4,0.1
		c-0.4,0.1-0.7,0.2-0.9,0.3c-0.2,0.1-0.4,0.2-0.5,0.4s-0.1,0.3-0.1,0.5c0,0.3,0.1,0.6,0.3,0.7C397.8,27.6,398.1,27.7,398.4,27.7z"/>
	<path class="st3" d="M406.4,30.7c0,0,0.1,0,0.1,0s0.1,0,0.1,0c0,0,0.1,0,0.2,0c0.1,0,0.1,0,0.2,0c0.2,0,0.3,0,0.4-0.1
		s0.1-0.1,0.1-0.2c0-0.2-0.1-0.3-0.3-0.3c-0.2-0.1-0.5-0.1-0.9-0.2l0.3-1c-0.4-0.1-0.8-0.2-1.2-0.4c-0.4-0.2-0.7-0.5-1-0.9
		c-0.3-0.4-0.5-0.8-0.6-1.3c-0.2-0.5-0.2-1-0.2-1.6c0-0.6,0.1-1.2,0.3-1.7s0.4-1,0.8-1.3s0.8-0.7,1.2-0.9c0.5-0.2,1.1-0.3,1.7-0.3
		c0.6,0,1.2,0.1,1.6,0.3s0.9,0.5,1.2,0.8l-0.5,0.7c-0.1,0.1-0.1,0.1-0.2,0.2c-0.1,0-0.1,0.1-0.2,0.1c-0.1,0-0.2,0-0.3-0.1
		c-0.1-0.1-0.2-0.1-0.3-0.2c-0.1-0.1-0.3-0.1-0.5-0.2c-0.2-0.1-0.4-0.1-0.7-0.1c-0.3,0-0.7,0.1-0.9,0.2c-0.3,0.1-0.5,0.3-0.7,0.5
		c-0.2,0.2-0.3,0.5-0.4,0.9c-0.1,0.3-0.1,0.7-0.1,1.1c0,0.4,0,0.8,0.1,1.2c0.1,0.3,0.2,0.6,0.4,0.9c0.2,0.2,0.4,0.4,0.6,0.5
		c0.3,0.1,0.5,0.2,0.8,0.2s0.6,0,0.8-0.1c0.2-0.1,0.4-0.2,0.5-0.3c0.1-0.1,0.3-0.2,0.3-0.3s0.2-0.1,0.3-0.1c0.1,0,0.3,0.1,0.4,0.2
		l0.6,0.7c-0.4,0.4-0.8,0.7-1.2,0.9c-0.5,0.2-0.9,0.3-1.4,0.4l-0.1,0.4c0.5,0.1,0.8,0.3,1,0.5c0.2,0.2,0.3,0.4,0.3,0.7
		c0,0.2,0,0.3-0.1,0.5c-0.1,0.1-0.2,0.3-0.4,0.4c-0.2,0.1-0.4,0.2-0.6,0.2s-0.5,0.1-0.8,0.1c-0.2,0-0.4,0-0.6,0s-0.4-0.1-0.6-0.1
		l0.2-0.6C406.2,30.8,406.3,30.7,406.4,30.7z"/>
	<path class="st3" d="M418.3,28.9h-0.9c-0.2,0-0.3,0-0.4-0.1c-0.1-0.1-0.2-0.2-0.2-0.3l-0.2-0.6c-0.2,0.2-0.4,0.4-0.6,0.5
		c-0.2,0.1-0.4,0.3-0.6,0.4s-0.4,0.2-0.7,0.2c-0.2,0-0.5,0.1-0.8,0.1c-0.3,0-0.7,0-1-0.1c-0.3-0.1-0.5-0.2-0.8-0.4
		c-0.2-0.2-0.4-0.4-0.5-0.7c-0.1-0.3-0.2-0.6-0.2-1c0-0.3,0.1-0.6,0.2-0.9c0.2-0.3,0.4-0.6,0.8-0.8c0.4-0.2,0.9-0.4,1.5-0.6
		c0.6-0.2,1.4-0.2,2.3-0.2v-0.5c0-0.6-0.1-1-0.3-1.2c-0.2-0.3-0.6-0.4-1-0.4c-0.3,0-0.6,0-0.8,0.1c-0.2,0.1-0.4,0.2-0.6,0.3
		c-0.2,0.1-0.3,0.2-0.4,0.3c-0.1,0.1-0.3,0.1-0.4,0.1c-0.1,0-0.2,0-0.3-0.1c-0.1-0.1-0.2-0.2-0.2-0.3l-0.4-0.6
		c0.9-0.9,2.1-1.3,3.4-1.3c0.5,0,0.9,0.1,1.3,0.2s0.7,0.4,1,0.7c0.3,0.3,0.5,0.6,0.6,1c0.1,0.4,0.2,0.8,0.2,1.3V28.9z M416,18
		c0.2,0,0.3,0,0.4-0.1s0.1-0.2,0.1-0.5h1.2c0,0.3,0,0.6-0.1,0.8c-0.1,0.2-0.2,0.5-0.3,0.6c-0.1,0.2-0.3,0.3-0.5,0.4
		c-0.2,0.1-0.4,0.1-0.7,0.1c-0.2,0-0.4,0-0.5-0.1s-0.3-0.1-0.5-0.2c-0.1-0.1-0.3-0.2-0.4-0.2s-0.2-0.1-0.3-0.1c-0.2,0-0.3,0-0.4,0.1
		c-0.1,0.1-0.1,0.3-0.1,0.5h-1.2c0-0.3,0-0.6,0.1-0.8c0.1-0.2,0.2-0.5,0.3-0.6c0.1-0.2,0.3-0.3,0.5-0.4c0.2-0.1,0.4-0.1,0.7-0.1
		c0.2,0,0.4,0,0.5,0.1s0.3,0.1,0.5,0.2c0.1,0.1,0.3,0.2,0.4,0.2C415.8,18,415.9,18,416,18z M414.4,27.7c0.2,0,0.4,0,0.6-0.1
		c0.2,0,0.3-0.1,0.5-0.2c0.2-0.1,0.3-0.2,0.4-0.3c0.1-0.1,0.3-0.2,0.4-0.4v-1.4c-0.6,0-1.1,0-1.4,0.1c-0.4,0.1-0.7,0.2-0.9,0.3
		c-0.2,0.1-0.4,0.2-0.5,0.4s-0.1,0.3-0.1,0.5c0,0.3,0.1,0.6,0.3,0.7C413.8,27.6,414.1,27.7,414.4,27.7z"/>
	<path class="st3" d="M423.7,20.6c0.6,0,1.2,0.1,1.7,0.3c0.5,0.2,0.9,0.5,1.3,0.8c0.4,0.4,0.6,0.8,0.8,1.3c0.2,0.5,0.3,1.1,0.3,1.8
		c0,0.7-0.1,1.2-0.3,1.8c-0.2,0.5-0.5,1-0.8,1.3c-0.4,0.4-0.8,0.7-1.3,0.8c-0.5,0.2-1.1,0.3-1.7,0.3s-1.2-0.1-1.7-0.3
		s-0.9-0.5-1.3-0.8c-0.4-0.4-0.6-0.8-0.8-1.3c-0.2-0.5-0.3-1.1-0.3-1.8c0-0.6,0.1-1.2,0.3-1.8c0.2-0.5,0.5-1,0.8-1.3
		c0.4-0.4,0.8-0.6,1.3-0.8S423.1,20.6,423.7,20.6z M423.7,27.5c0.7,0,1.2-0.2,1.5-0.7c0.3-0.5,0.5-1.1,0.5-2c0-0.9-0.2-1.6-0.5-2
		c-0.3-0.5-0.8-0.7-1.5-0.7c-0.7,0-1.2,0.2-1.5,0.7c-0.3,0.5-0.5,1.1-0.5,2c0,0.9,0.2,1.5,0.5,2C422.5,27.3,423,27.5,423.7,27.5z"/>
	<path class="st3" d="M438.2,28.9c-0.3,0-0.4-0.1-0.5-0.4l-0.2-0.8c-0.2,0.2-0.3,0.4-0.5,0.5c-0.2,0.2-0.4,0.3-0.6,0.4
		c-0.2,0.1-0.4,0.2-0.7,0.3c-0.2,0.1-0.5,0.1-0.8,0.1c-0.4,0-0.9-0.1-1.2-0.3s-0.7-0.5-1-0.8c-0.3-0.4-0.5-0.8-0.6-1.3
		c-0.1-0.5-0.2-1.1-0.2-1.8c0-0.6,0.1-1.2,0.2-1.7c0.2-0.5,0.4-1,0.7-1.4c0.3-0.4,0.7-0.7,1.1-0.9c0.4-0.2,0.9-0.3,1.5-0.3
		c0.5,0,0.9,0.1,1.2,0.2c0.3,0.1,0.6,0.3,0.9,0.6V17h2v11.9H438.2z M435.5,27.4c0.4,0,0.8-0.1,1-0.3s0.6-0.4,0.8-0.7v-3.7
		c-0.2-0.3-0.5-0.5-0.7-0.6c-0.3-0.1-0.5-0.2-0.9-0.2c-0.3,0-0.6,0.1-0.8,0.2c-0.2,0.1-0.4,0.3-0.6,0.5s-0.3,0.5-0.4,0.9
		c-0.1,0.3-0.1,0.8-0.1,1.2c0,0.5,0,0.9,0.1,1.2c0.1,0.3,0.2,0.6,0.3,0.8c0.1,0.2,0.3,0.4,0.5,0.5S435.3,27.4,435.5,27.4z"/>
	<path class="st3" d="M447.9,28.9h-0.9c-0.2,0-0.3,0-0.4-0.1c-0.1-0.1-0.2-0.2-0.2-0.3l-0.2-0.6c-0.2,0.2-0.4,0.4-0.6,0.5
		c-0.2,0.1-0.4,0.3-0.6,0.4s-0.4,0.2-0.7,0.2c-0.2,0-0.5,0.1-0.8,0.1c-0.3,0-0.7,0-1-0.1c-0.3-0.1-0.5-0.2-0.8-0.4
		c-0.2-0.2-0.4-0.4-0.5-0.7c-0.1-0.3-0.2-0.6-0.2-1c0-0.3,0.1-0.6,0.2-0.9c0.2-0.3,0.4-0.6,0.8-0.8c0.4-0.2,0.9-0.4,1.5-0.6
		c0.6-0.2,1.4-0.2,2.3-0.2v-0.5c0-0.6-0.1-1-0.3-1.2c-0.2-0.3-0.6-0.4-1-0.4c-0.3,0-0.6,0-0.8,0.1c-0.2,0.1-0.4,0.2-0.6,0.3
		c-0.2,0.1-0.3,0.2-0.4,0.3c-0.1,0.1-0.3,0.1-0.4,0.1c-0.1,0-0.2,0-0.3-0.1c-0.1-0.1-0.2-0.2-0.2-0.3l-0.4-0.6
		c0.9-0.9,2.1-1.3,3.4-1.3c0.5,0,0.9,0.1,1.3,0.2s0.7,0.4,1,0.7c0.3,0.3,0.5,0.6,0.6,1c0.1,0.4,0.2,0.8,0.2,1.3V28.9z M444.1,27.7
		c0.2,0,0.4,0,0.6-0.1c0.2,0,0.3-0.1,0.5-0.2c0.2-0.1,0.3-0.2,0.4-0.3c0.1-0.1,0.3-0.2,0.4-0.4v-1.4c-0.6,0-1.1,0-1.4,0.1
		c-0.4,0.1-0.7,0.2-0.9,0.3c-0.2,0.1-0.4,0.2-0.5,0.4s-0.1,0.3-0.1,0.5c0,0.3,0.1,0.6,0.3,0.7C443.5,27.6,443.8,27.7,444.1,27.7z"/>
	<path class="st3" d="M369.4,46.4c0.4,0,0.8-0.1,1.1-0.2s0.6-0.3,0.8-0.6c0.2-0.3,0.4-0.6,0.5-0.9c0.1-0.4,0.2-0.8,0.2-1.2v-6.9h2.2
		v6.9c0,0.7-0.1,1.3-0.3,1.9c-0.2,0.6-0.5,1.1-1,1.5s-0.9,0.8-1.5,1c-0.6,0.2-1.3,0.4-2,0.4c-0.7,0-1.4-0.1-2-0.4
		c-0.6-0.2-1.1-0.6-1.5-1c-0.4-0.4-0.7-0.9-1-1.5c-0.2-0.6-0.3-1.2-0.3-1.9v-6.9h2.2v6.9c0,0.4,0.1,0.8,0.2,1.2
		c0.1,0.4,0.3,0.7,0.5,0.9c0.2,0.3,0.5,0.4,0.8,0.6S368.9,46.4,369.4,46.4z"/>
	<path class="st3" d="M376.2,48.1v-8.2h1.2c0.3,0,0.4,0.1,0.5,0.4l0.1,0.6c0.2-0.2,0.3-0.3,0.5-0.5c0.2-0.1,0.4-0.3,0.6-0.4
		c0.2-0.1,0.4-0.2,0.7-0.2c0.2-0.1,0.5-0.1,0.8-0.1c0.4,0,0.8,0.1,1.2,0.2c0.3,0.2,0.6,0.4,0.9,0.6c0.2,0.3,0.4,0.6,0.5,1
		c0.1,0.4,0.2,0.8,0.2,1.3v5.2h-2v-5.2c0-0.5-0.1-0.9-0.3-1.2c-0.2-0.3-0.6-0.4-1-0.4c-0.3,0-0.7,0.1-1,0.2
		c-0.3,0.2-0.6,0.4-0.8,0.6v5.9H376.2z"/>
	<path class="st3" d="M387.7,37.5c0,0.2,0,0.3-0.1,0.5s-0.2,0.3-0.3,0.4c-0.1,0.1-0.3,0.2-0.4,0.3c-0.2,0.1-0.3,0.1-0.5,0.1
		c-0.2,0-0.3,0-0.5-0.1c-0.2-0.1-0.3-0.2-0.4-0.3c-0.1-0.1-0.2-0.2-0.3-0.4c-0.1-0.1-0.1-0.3-0.1-0.5c0-0.2,0-0.3,0.1-0.5
		c0.1-0.2,0.2-0.3,0.3-0.4s0.2-0.2,0.4-0.3c0.2-0.1,0.3-0.1,0.5-0.1c0.2,0,0.3,0,0.5,0.1c0.2,0.1,0.3,0.2,0.4,0.3
		c0.1,0.1,0.2,0.2,0.3,0.4C387.7,37.1,387.7,37.3,387.7,37.5z M387.4,39.9v8.2h-2v-8.2H387.4z"/>
	<path class="st3" d="M393.8,48.1H392l-3.3-8.2h1.6c0.1,0,0.3,0,0.4,0.1c0.1,0.1,0.2,0.2,0.2,0.3l1.6,4.4c0.1,0.3,0.2,0.5,0.2,0.8
		s0.1,0.5,0.2,0.7c0-0.2,0.1-0.5,0.2-0.7s0.1-0.5,0.2-0.8l1.6-4.4c0-0.1,0.1-0.2,0.2-0.3c0.1-0.1,0.2-0.1,0.3-0.1h1.6L393.8,48.1z"
		/>
	<path class="st3" d="M401.3,39.8c0.5,0,1,0.1,1.4,0.2s0.8,0.4,1.1,0.7c0.3,0.3,0.6,0.7,0.7,1.2c0.2,0.5,0.3,1,0.3,1.6
		c0,0.1,0,0.3,0,0.4c0,0.1,0,0.2-0.1,0.2c0,0.1-0.1,0.1-0.1,0.1c-0.1,0-0.1,0-0.2,0h-5.1c0.1,0.8,0.3,1.5,0.7,1.9s0.9,0.6,1.6,0.6
		c0.3,0,0.6,0,0.8-0.1c0.2-0.1,0.4-0.2,0.6-0.2c0.2-0.1,0.3-0.2,0.5-0.2c0.1-0.1,0.3-0.1,0.4-0.1c0.1,0,0.1,0,0.2,0
		c0.1,0,0.1,0.1,0.2,0.1l0.6,0.7c-0.2,0.3-0.5,0.5-0.7,0.6c-0.3,0.2-0.6,0.3-0.9,0.4c-0.3,0.1-0.6,0.2-0.9,0.2
		c-0.3,0-0.6,0.1-0.9,0.1c-0.6,0-1.1-0.1-1.6-0.3c-0.5-0.2-0.9-0.5-1.3-0.8c-0.4-0.4-0.6-0.8-0.9-1.4s-0.3-1.2-0.3-1.9
		c0-0.6,0.1-1.1,0.3-1.6c0.2-0.5,0.4-0.9,0.8-1.3c0.3-0.4,0.8-0.7,1.2-0.9C400.2,39.9,400.7,39.8,401.3,39.8z M401.4,41.2
		c-0.6,0-1,0.2-1.4,0.5s-0.5,0.8-0.6,1.4h3.7c0-0.3,0-0.5-0.1-0.7c-0.1-0.2-0.2-0.4-0.3-0.6c-0.1-0.2-0.3-0.3-0.5-0.4
		C401.9,41.2,401.7,41.2,401.4,41.2z"/>
	<path class="st3" d="M406.5,48.1v-8.2h1.2c0.2,0,0.3,0,0.4,0.1c0.1,0.1,0.1,0.2,0.2,0.4l0.1,1c0.3-0.5,0.6-0.9,1-1.2
		c0.4-0.3,0.8-0.4,1.3-0.4c0.4,0,0.7,0.1,1,0.3l-0.3,1.5c0,0.1-0.1,0.2-0.1,0.2c-0.1,0-0.1,0.1-0.2,0.1c-0.1,0-0.2,0-0.3-0.1
		c-0.1,0-0.3-0.1-0.6-0.1c-0.4,0-0.8,0.1-1.1,0.3c-0.3,0.2-0.5,0.6-0.7,1v5.1H406.5z"/>
	<path class="st3" d="M417.9,41.5c-0.1,0.1-0.1,0.1-0.2,0.2c-0.1,0-0.1,0.1-0.2,0.1c-0.1,0-0.2,0-0.3-0.1c-0.1-0.1-0.2-0.1-0.4-0.2
		c-0.1-0.1-0.3-0.1-0.5-0.2c-0.2-0.1-0.4-0.1-0.7-0.1c-0.4,0-0.7,0.1-0.9,0.2c-0.2,0.2-0.3,0.4-0.3,0.6c0,0.2,0.1,0.3,0.2,0.4
		c0.1,0.1,0.3,0.2,0.5,0.3c0.2,0.1,0.4,0.2,0.6,0.2s0.5,0.2,0.7,0.2c0.3,0.1,0.5,0.2,0.7,0.3c0.2,0.1,0.5,0.2,0.6,0.4
		s0.3,0.4,0.5,0.6c0.1,0.2,0.2,0.5,0.2,0.8c0,0.4-0.1,0.8-0.2,1.1c-0.1,0.3-0.4,0.6-0.6,0.9c-0.3,0.2-0.6,0.4-1,0.6
		s-0.9,0.2-1.4,0.2c-0.3,0-0.6,0-0.8-0.1s-0.5-0.1-0.8-0.2s-0.5-0.2-0.7-0.3c-0.2-0.1-0.4-0.3-0.6-0.4l0.5-0.8
		c0.1-0.1,0.1-0.2,0.2-0.2s0.2-0.1,0.3-0.1s0.2,0,0.3,0.1s0.2,0.1,0.4,0.2c0.1,0.1,0.3,0.2,0.5,0.2c0.2,0.1,0.4,0.1,0.7,0.1
		c0.2,0,0.4,0,0.6-0.1c0.2-0.1,0.3-0.1,0.4-0.2c0.1-0.1,0.2-0.2,0.2-0.3s0.1-0.2,0.1-0.4c0-0.2-0.1-0.3-0.2-0.5
		c-0.1-0.1-0.3-0.2-0.5-0.3c-0.2-0.1-0.4-0.2-0.6-0.2c-0.2-0.1-0.5-0.2-0.7-0.2c-0.3-0.1-0.5-0.2-0.7-0.3c-0.2-0.1-0.5-0.3-0.6-0.4
		c-0.2-0.2-0.3-0.4-0.5-0.6c-0.1-0.3-0.2-0.6-0.2-0.9c0-0.3,0.1-0.7,0.2-1c0.1-0.3,0.3-0.6,0.6-0.8c0.3-0.2,0.6-0.4,1-0.5
		s0.8-0.2,1.3-0.2c0.6,0,1.1,0.1,1.5,0.3s0.9,0.4,1.2,0.7L417.9,41.5z"/>
	<path class="st3" d="M422.4,37.5c0,0.2,0,0.3-0.1,0.5s-0.2,0.3-0.3,0.4c-0.1,0.1-0.3,0.2-0.4,0.3c-0.2,0.1-0.3,0.1-0.5,0.1
		c-0.2,0-0.3,0-0.5-0.1c-0.2-0.1-0.3-0.2-0.4-0.3c-0.1-0.1-0.2-0.2-0.3-0.4c-0.1-0.1-0.1-0.3-0.1-0.5c0-0.2,0-0.3,0.1-0.5
		c0.1-0.2,0.2-0.3,0.3-0.4s0.2-0.2,0.4-0.3c0.2-0.1,0.3-0.1,0.5-0.1c0.2,0,0.3,0,0.5,0.1c0.2,0.1,0.3,0.2,0.4,0.3
		c0.1,0.1,0.2,0.2,0.3,0.4C422.4,37.1,422.4,37.3,422.4,37.5z M422.1,39.9v8.2h-2v-8.2H422.1z"/>
	<path class="st3" d="M430.1,48.1c-0.3,0-0.4-0.1-0.5-0.4l-0.2-0.8c-0.2,0.2-0.3,0.4-0.5,0.5c-0.2,0.2-0.4,0.3-0.6,0.4
		c-0.2,0.1-0.4,0.2-0.7,0.3c-0.2,0.1-0.5,0.1-0.8,0.1c-0.4,0-0.9-0.1-1.2-0.3s-0.7-0.5-1-0.8c-0.3-0.4-0.5-0.8-0.6-1.3
		c-0.1-0.5-0.2-1.1-0.2-1.8c0-0.6,0.1-1.2,0.2-1.7c0.2-0.5,0.4-1,0.7-1.4c0.3-0.4,0.7-0.7,1.1-0.9c0.4-0.2,0.9-0.3,1.5-0.3
		c0.5,0,0.9,0.1,1.2,0.2c0.3,0.1,0.6,0.3,0.9,0.6v-4.3h2v11.9H430.1z M427.5,46.6c0.4,0,0.8-0.1,1-0.3s0.6-0.4,0.8-0.7V42
		c-0.2-0.3-0.5-0.5-0.7-0.6c-0.3-0.1-0.5-0.2-0.9-0.2c-0.3,0-0.6,0.1-0.8,0.2c-0.2,0.1-0.4,0.3-0.6,0.5s-0.3,0.5-0.4,0.9
		c-0.1,0.3-0.1,0.8-0.1,1.2c0,0.5,0,0.9,0.1,1.2c0.1,0.3,0.2,0.6,0.3,0.8c0.1,0.2,0.3,0.4,0.5,0.5S427.2,46.6,427.5,46.6z"/>
	<path class="st3" d="M439.9,48.1H439c-0.2,0-0.3,0-0.4-0.1c-0.1-0.1-0.2-0.2-0.2-0.3l-0.2-0.6c-0.2,0.2-0.4,0.4-0.6,0.5
		c-0.2,0.1-0.4,0.3-0.6,0.4s-0.4,0.2-0.7,0.2c-0.2,0-0.5,0.1-0.8,0.1c-0.3,0-0.7,0-1-0.1c-0.3-0.1-0.5-0.2-0.8-0.4
		c-0.2-0.2-0.4-0.4-0.5-0.7c-0.1-0.3-0.2-0.6-0.2-1c0-0.3,0.1-0.6,0.2-0.9c0.2-0.3,0.4-0.6,0.8-0.8c0.4-0.2,0.9-0.4,1.5-0.6
		c0.6-0.2,1.4-0.2,2.3-0.2v-0.5c0-0.6-0.1-1-0.3-1.2c-0.2-0.3-0.6-0.4-1-0.4c-0.3,0-0.6,0-0.8,0.1c-0.2,0.1-0.4,0.2-0.6,0.3
		c-0.2,0.1-0.3,0.2-0.4,0.3c-0.1,0.1-0.3,0.1-0.4,0.1c-0.1,0-0.2,0-0.3-0.1c-0.1-0.1-0.2-0.2-0.2-0.3l-0.4-0.6
		c0.9-0.9,2.1-1.3,3.4-1.3c0.5,0,0.9,0.1,1.3,0.2s0.7,0.4,1,0.7c0.3,0.3,0.5,0.6,0.6,1c0.1,0.4,0.2,0.8,0.2,1.3V48.1z M436.1,46.9
		c0.2,0,0.4,0,0.6-0.1c0.2,0,0.3-0.1,0.5-0.2c0.2-0.1,0.3-0.2,0.4-0.3c0.1-0.1,0.3-0.2,0.4-0.4v-1.4c-0.6,0-1.1,0-1.4,0.1
		c-0.4,0.1-0.7,0.2-0.9,0.3c-0.2,0.1-0.4,0.2-0.5,0.4s-0.1,0.3-0.1,0.5c0,0.3,0.1,0.6,0.3,0.7C435.5,46.8,435.7,46.9,436.1,46.9z"/>
	<path class="st3" d="M447.6,48.1c-0.3,0-0.4-0.1-0.5-0.4l-0.2-0.8c-0.2,0.2-0.3,0.4-0.5,0.5c-0.2,0.2-0.4,0.3-0.6,0.4
		c-0.2,0.1-0.4,0.2-0.7,0.3c-0.2,0.1-0.5,0.1-0.8,0.1c-0.4,0-0.9-0.1-1.2-0.3s-0.7-0.5-1-0.8c-0.3-0.4-0.5-0.8-0.6-1.3
		c-0.1-0.5-0.2-1.1-0.2-1.8c0-0.6,0.1-1.2,0.2-1.7c0.2-0.5,0.4-1,0.7-1.4c0.3-0.4,0.7-0.7,1.1-0.9c0.4-0.2,0.9-0.3,1.5-0.3
		c0.5,0,0.9,0.1,1.2,0.2c0.3,0.1,0.6,0.3,0.9,0.6v-4.3h2v11.9H447.6z M445,46.6c0.4,0,0.8-0.1,1-0.3s0.6-0.4,0.8-0.7V42
		c-0.2-0.3-0.5-0.5-0.7-0.6c-0.3-0.1-0.5-0.2-0.9-0.2c-0.3,0-0.6,0.1-0.8,0.2c-0.2,0.1-0.4,0.3-0.6,0.5s-0.3,0.5-0.4,0.9
		c-0.1,0.3-0.1,0.8-0.1,1.2c0,0.5,0,0.9,0.1,1.2c0.1,0.3,0.2,0.6,0.3,0.8c0.1,0.2,0.3,0.4,0.5,0.5S444.7,46.6,445,46.6z"/>
	<path class="st3" d="M454.4,39.8c0.5,0,1,0.1,1.4,0.2s0.8,0.4,1.1,0.7c0.3,0.3,0.6,0.7,0.7,1.2c0.2,0.5,0.3,1,0.3,1.6
		c0,0.1,0,0.3,0,0.4c0,0.1,0,0.2-0.1,0.2c0,0.1-0.1,0.1-0.1,0.1c-0.1,0-0.1,0-0.2,0h-5.1c0.1,0.8,0.3,1.5,0.7,1.9s0.9,0.6,1.6,0.6
		c0.3,0,0.6,0,0.8-0.1c0.2-0.1,0.4-0.2,0.6-0.2c0.2-0.1,0.3-0.2,0.5-0.2c0.1-0.1,0.3-0.1,0.4-0.1c0.1,0,0.1,0,0.2,0
		c0.1,0,0.1,0.1,0.2,0.1l0.6,0.7c-0.2,0.3-0.5,0.5-0.7,0.6c-0.3,0.2-0.6,0.3-0.9,0.4c-0.3,0.1-0.6,0.2-0.9,0.2
		c-0.3,0-0.6,0.1-0.9,0.1c-0.6,0-1.1-0.1-1.6-0.3c-0.5-0.2-0.9-0.5-1.3-0.8c-0.4-0.4-0.6-0.8-0.9-1.4s-0.3-1.2-0.3-1.9
		c0-0.6,0.1-1.1,0.3-1.6c0.2-0.5,0.4-0.9,0.8-1.3c0.3-0.4,0.8-0.7,1.2-0.9C453.2,39.9,453.8,39.8,454.4,39.8z M454.4,41.2
		c-0.6,0-1,0.2-1.4,0.5s-0.5,0.8-0.6,1.4h3.7c0-0.3,0-0.5-0.1-0.7c-0.1-0.2-0.2-0.4-0.3-0.6c-0.1-0.2-0.3-0.3-0.5-0.4
		C455,41.2,454.7,41.2,454.4,41.2z"/>
	<path class="st3" d="M387.3,55.7v1.8h-3.5v9.8h-2.2v-9.8h-3.5v-1.8H387.3z"/>
	<path class="st3" d="M390.3,59c0.5,0,1,0.1,1.4,0.2s0.8,0.4,1.1,0.7c0.3,0.3,0.6,0.7,0.7,1.2c0.2,0.5,0.3,1,0.3,1.6
		c0,0.1,0,0.3,0,0.4c0,0.1,0,0.2-0.1,0.2c0,0.1-0.1,0.1-0.1,0.1c-0.1,0-0.1,0-0.2,0h-5.1c0.1,0.8,0.3,1.5,0.7,1.9s0.9,0.6,1.6,0.6
		c0.3,0,0.6,0,0.8-0.1c0.2-0.1,0.4-0.2,0.6-0.2c0.2-0.1,0.3-0.2,0.5-0.2c0.1-0.1,0.3-0.1,0.4-0.1c0.1,0,0.1,0,0.2,0
		c0.1,0,0.1,0.1,0.2,0.1l0.6,0.7c-0.2,0.3-0.5,0.5-0.7,0.6c-0.3,0.2-0.6,0.3-0.9,0.4c-0.3,0.1-0.6,0.2-0.9,0.2
		c-0.3,0-0.6,0.1-0.9,0.1c-0.6,0-1.1-0.1-1.6-0.3c-0.5-0.2-0.9-0.5-1.3-0.8c-0.4-0.4-0.6-0.8-0.9-1.4s-0.3-1.2-0.3-1.9
		c0-0.6,0.1-1.1,0.3-1.6c0.2-0.5,0.4-0.9,0.8-1.3c0.3-0.4,0.8-0.7,1.2-0.9C389.1,59.1,389.7,59,390.3,59z M390.3,60.4
		c-0.6,0-1,0.2-1.4,0.5s-0.5,0.8-0.6,1.4h3.7c0-0.3,0-0.5-0.1-0.7c-0.1-0.2-0.2-0.4-0.3-0.6c-0.1-0.2-0.3-0.3-0.5-0.4
		C390.9,60.4,390.6,60.4,390.3,60.4z"/>
	<path class="st3" d="M401.2,60.8c-0.1,0.1-0.1,0.1-0.2,0.2c-0.1,0-0.1,0.1-0.2,0.1c-0.1,0-0.2,0-0.3-0.1c-0.1-0.1-0.2-0.1-0.3-0.2
		c-0.1-0.1-0.3-0.1-0.5-0.2c-0.2-0.1-0.4-0.1-0.7-0.1c-0.3,0-0.7,0.1-0.9,0.2c-0.3,0.1-0.5,0.3-0.7,0.5c-0.2,0.2-0.3,0.5-0.4,0.9
		c-0.1,0.3-0.1,0.7-0.1,1.1c0,0.4,0,0.8,0.1,1.2c0.1,0.3,0.2,0.6,0.4,0.9c0.2,0.2,0.4,0.4,0.6,0.5c0.3,0.1,0.5,0.2,0.8,0.2
		s0.6,0,0.8-0.1c0.2-0.1,0.4-0.2,0.5-0.3c0.1-0.1,0.3-0.2,0.3-0.3s0.2-0.1,0.3-0.1c0.2,0,0.3,0.1,0.4,0.2l0.6,0.7
		c-0.2,0.3-0.5,0.5-0.7,0.6c-0.3,0.2-0.5,0.3-0.8,0.4c-0.3,0.1-0.6,0.2-0.9,0.2c-0.3,0-0.6,0.1-0.9,0.1c-0.5,0-1-0.1-1.4-0.3
		s-0.8-0.5-1.2-0.8c-0.3-0.4-0.6-0.8-0.8-1.3c-0.2-0.5-0.3-1.1-0.3-1.8c0-0.6,0.1-1.2,0.3-1.7s0.4-1,0.8-1.3s0.8-0.7,1.2-0.9
		c0.5-0.2,1.1-0.3,1.7-0.3c0.6,0,1.2,0.1,1.6,0.3s0.9,0.5,1.2,0.8L401.2,60.8z"/>
	<path class="st3" d="M405.2,55.4v11.9h-2V55.4H405.2z"/>
	<path class="st3" d="M410.9,59c0.6,0,1.2,0.1,1.7,0.3c0.5,0.2,0.9,0.5,1.3,0.8c0.4,0.4,0.6,0.8,0.8,1.3c0.2,0.5,0.3,1.1,0.3,1.8
		c0,0.7-0.1,1.2-0.3,1.8c-0.2,0.5-0.5,1-0.8,1.3c-0.4,0.4-0.8,0.7-1.3,0.8c-0.5,0.2-1.1,0.3-1.7,0.3s-1.2-0.1-1.7-0.3
		s-0.9-0.5-1.3-0.8c-0.4-0.4-0.6-0.8-0.8-1.3c-0.2-0.5-0.3-1.1-0.3-1.8c0-0.6,0.1-1.2,0.3-1.8c0.2-0.5,0.5-1,0.8-1.3
		c0.4-0.4,0.8-0.6,1.3-0.8S410.3,59,410.9,59z M410.9,65.9c0.7,0,1.2-0.2,1.5-0.7c0.3-0.5,0.5-1.1,0.5-2c0-0.9-0.2-1.6-0.5-2
		c-0.3-0.5-0.8-0.7-1.5-0.7c-0.7,0-1.2,0.2-1.5,0.7c-0.3,0.5-0.5,1.1-0.5,2c0,0.9,0.2,1.5,0.5,2C409.7,65.7,410.2,65.9,410.9,65.9z
		 M413.7,55.6l-2,2.1c-0.1,0.1-0.2,0.2-0.3,0.2c-0.1,0-0.2,0.1-0.4,0.1h-1.2L411,56c0.1-0.1,0.2-0.2,0.3-0.3s0.3-0.1,0.5-0.1H413.7z
		"/>
	<path class="st3" d="M419.3,58.9c0.4,0,0.7,0,1,0.1s0.6,0.2,0.8,0.3h2.4v0.7c0,0.1,0,0.2-0.1,0.3c-0.1,0.1-0.2,0.1-0.3,0.1
		l-0.7,0.1c0.1,0.1,0.1,0.3,0.1,0.4c0,0.2,0,0.3,0,0.5c0,0.4-0.1,0.8-0.2,1.1c-0.2,0.3-0.4,0.6-0.7,0.8s-0.6,0.4-1,0.5
		c-0.4,0.1-0.8,0.2-1.3,0.2c-0.3,0-0.6,0-0.9-0.1c-0.3,0.2-0.4,0.3-0.4,0.5c0,0.2,0.1,0.3,0.2,0.4c0.2,0.1,0.4,0.1,0.6,0.2
		s0.5,0,0.8,0c0.3,0,0.6,0,1,0c0.3,0,0.7,0.1,1,0.1c0.3,0.1,0.6,0.2,0.8,0.3s0.4,0.3,0.6,0.6c0.2,0.2,0.2,0.6,0.2,1
		c0,0.4-0.1,0.7-0.3,1.1s-0.4,0.6-0.8,0.9s-0.8,0.5-1.2,0.6c-0.5,0.2-1.1,0.2-1.7,0.2c-0.6,0-1.2-0.1-1.6-0.2
		c-0.5-0.1-0.8-0.3-1.1-0.5c-0.3-0.2-0.5-0.4-0.7-0.7c-0.1-0.3-0.2-0.5-0.2-0.8c0-0.4,0.1-0.7,0.4-1c0.2-0.3,0.6-0.5,1-0.6
		c-0.2-0.1-0.4-0.3-0.5-0.4c-0.1-0.2-0.2-0.4-0.2-0.7c0-0.1,0-0.2,0.1-0.4s0.1-0.3,0.2-0.4s0.2-0.2,0.3-0.4c0.1-0.1,0.3-0.2,0.5-0.3
		c-0.4-0.2-0.7-0.5-1-0.9s-0.4-0.8-0.4-1.3c0-0.4,0.1-0.8,0.2-1.1c0.2-0.3,0.4-0.6,0.7-0.8c0.3-0.2,0.6-0.4,1-0.5
		S418.9,58.9,419.3,58.9z M421.5,67.6c0-0.2,0-0.3-0.1-0.4S421.1,67,421,67c-0.2-0.1-0.4-0.1-0.6-0.1c-0.2,0-0.5,0-0.7,0
		s-0.5,0-0.8,0c-0.3,0-0.5,0-0.8-0.1c-0.2,0.1-0.4,0.3-0.5,0.4s-0.2,0.4-0.2,0.6c0,0.1,0,0.3,0.1,0.4c0.1,0.1,0.2,0.2,0.3,0.3
		c0.2,0.1,0.4,0.2,0.6,0.2c0.3,0.1,0.6,0.1,0.9,0.1c0.4,0,0.7,0,1-0.1c0.3-0.1,0.5-0.1,0.7-0.2c0.2-0.1,0.3-0.2,0.4-0.4
		S421.5,67.8,421.5,67.6z M419.3,63c0.2,0,0.5,0,0.6-0.1c0.2-0.1,0.3-0.2,0.5-0.3c0.1-0.1,0.2-0.3,0.3-0.4c0.1-0.2,0.1-0.3,0.1-0.5
		c0-0.4-0.1-0.7-0.4-1c-0.2-0.2-0.6-0.4-1.1-0.4s-0.8,0.1-1.1,0.4c-0.2,0.2-0.4,0.6-0.4,1c0,0.2,0,0.4,0.1,0.5
		c0.1,0.2,0.2,0.3,0.3,0.4c0.1,0.1,0.3,0.2,0.5,0.3C418.9,63,419.1,63,419.3,63z"/>
	<path class="st3" d="M427.2,56.7c0,0.2,0,0.3-0.1,0.5s-0.2,0.3-0.3,0.4c-0.1,0.1-0.2,0.2-0.4,0.3c-0.2,0.1-0.3,0.1-0.5,0.1
		c-0.2,0-0.3,0-0.5-0.1s-0.3-0.2-0.4-0.3c-0.1-0.1-0.2-0.2-0.3-0.4s-0.1-0.3-0.1-0.5c0-0.2,0-0.3,0.1-0.5c0.1-0.2,0.2-0.3,0.3-0.4
		c0.1-0.1,0.2-0.2,0.4-0.3c0.2-0.1,0.3-0.1,0.5-0.1c0.2,0,0.3,0,0.5,0.1c0.2,0.1,0.3,0.2,0.4,0.3s0.2,0.2,0.3,0.4
		C427.1,56.3,427.2,56.5,427.2,56.7z M426.9,59.1v8.2h-2v-8.2H426.9z"/>
	<path class="st3" d="M434.9,60.8c-0.1,0.1-0.1,0.1-0.2,0.2s-0.1,0.1-0.2,0.1c-0.1,0-0.2,0-0.3-0.1c-0.1-0.1-0.2-0.1-0.3-0.2
		c-0.1-0.1-0.3-0.1-0.5-0.2c-0.2-0.1-0.4-0.1-0.7-0.1c-0.3,0-0.7,0.1-0.9,0.2c-0.3,0.1-0.5,0.3-0.7,0.5c-0.2,0.2-0.3,0.5-0.4,0.9
		s-0.1,0.7-0.1,1.1c0,0.4,0,0.8,0.1,1.2c0.1,0.3,0.2,0.6,0.4,0.9c0.2,0.2,0.4,0.4,0.6,0.5c0.3,0.1,0.5,0.2,0.8,0.2
		c0.3,0,0.6,0,0.8-0.1s0.4-0.2,0.5-0.3c0.1-0.1,0.2-0.2,0.3-0.3s0.2-0.1,0.3-0.1c0.2,0,0.3,0.1,0.4,0.2l0.6,0.7
		c-0.2,0.3-0.5,0.5-0.7,0.6c-0.3,0.2-0.5,0.3-0.8,0.4c-0.3,0.1-0.6,0.2-0.9,0.2c-0.3,0-0.6,0.1-0.9,0.1c-0.5,0-1-0.1-1.4-0.3
		c-0.4-0.2-0.8-0.5-1.2-0.8c-0.3-0.4-0.6-0.8-0.8-1.3c-0.2-0.5-0.3-1.1-0.3-1.8c0-0.6,0.1-1.2,0.3-1.7c0.2-0.5,0.4-1,0.8-1.3
		s0.8-0.7,1.2-0.9c0.5-0.2,1.1-0.3,1.7-0.3c0.6,0,1.2,0.1,1.6,0.3c0.5,0.2,0.9,0.5,1.2,0.8L434.9,60.8z"/>
	<path class="st3" d="M443.2,67.3h-0.9c-0.2,0-0.3,0-0.4-0.1s-0.2-0.2-0.2-0.3l-0.2-0.6c-0.2,0.2-0.4,0.4-0.6,0.5
		c-0.2,0.1-0.4,0.3-0.6,0.4c-0.2,0.1-0.4,0.2-0.7,0.2s-0.5,0.1-0.8,0.1c-0.3,0-0.7,0-1-0.1s-0.5-0.2-0.8-0.4s-0.4-0.4-0.5-0.7
		s-0.2-0.6-0.2-1c0-0.3,0.1-0.6,0.2-0.9c0.2-0.3,0.4-0.6,0.8-0.8c0.4-0.2,0.9-0.4,1.5-0.6c0.6-0.2,1.4-0.2,2.3-0.2v-0.5
		c0-0.6-0.1-1-0.3-1.2c-0.2-0.3-0.6-0.4-1-0.4c-0.3,0-0.6,0-0.8,0.1c-0.2,0.1-0.4,0.2-0.6,0.3c-0.2,0.1-0.3,0.2-0.4,0.3
		c-0.1,0.1-0.3,0.1-0.4,0.1c-0.1,0-0.2,0-0.3-0.1c-0.1-0.1-0.2-0.2-0.2-0.3l-0.4-0.6c0.9-0.9,2.1-1.3,3.4-1.3c0.5,0,0.9,0.1,1.3,0.2
		s0.7,0.4,1,0.7c0.3,0.3,0.5,0.6,0.6,1s0.2,0.8,0.2,1.3V67.3z M439.3,66.1c0.2,0,0.4,0,0.6-0.1s0.3-0.1,0.5-0.2
		c0.2-0.1,0.3-0.2,0.4-0.3c0.1-0.1,0.3-0.2,0.4-0.4v-1.4c-0.6,0-1.1,0-1.4,0.1s-0.7,0.2-0.9,0.3c-0.2,0.1-0.4,0.2-0.5,0.4
		s-0.1,0.3-0.1,0.5c0,0.3,0.1,0.6,0.3,0.7C438.7,66,439,66.1,439.3,66.1z"/>
</g>
</svg>
