<?xml version="1.0" encoding="utf-8"?>
<!-- Generator: Adobe Illustrator 19.2.1, SVG Export Plug-In . SVG Version: 6.00 Build 0)  -->
<svg version="1.1" id="Camada_1" xmlns="http://www.w3.org/2000/svg" xmlns:xlink="http://www.w3.org/1999/xlink" x="0px" y="0px"
	 viewBox="0 0 905.1 151.3" style="enable-background:new 0 0 905.1 151.3;" xml:space="preserve">
<style type="text/css">
	.st0{fill:#FFFFFF;}
</style>
<g>
	<path class="st0" d="M208.5,10.2c-0.2,0.2-0.5,0.3-0.8,0.3h-7.8v21.6c0,0.3-0.1,0.6-0.4,0.9c-0.2,0.2-0.5,0.4-0.9,0.4
		c-0.3,0-0.6-0.1-0.9-0.4c-0.2-0.2-0.4-0.5-0.4-0.9V10.5h-7.8c-0.3,0-0.6-0.1-0.8-0.3s-0.3-0.5-0.3-0.8s0.1-0.6,0.3-0.8
		s0.5-0.3,0.8-0.3h18c0.3,0,0.6,0.1,0.8,0.3s0.3,0.5,0.3,0.8C208.8,9.7,208.7,10,208.5,10.2L208.5,10.2z"/>
	<path class="st0" d="M223.9,21.7c-0.3-0.7-0.7-1.3-1.3-1.8c-0.5-0.5-1.1-0.9-1.8-1.2s-1.4-0.4-2.2-0.4s-1.6,0.1-2.3,0.4
		c-0.7,0.3-1.3,0.7-1.8,1.2s-0.9,1.1-1.3,1.7c-0.3,0.7-0.5,1.4-0.6,2.2h11.9C224.4,23.1,224.2,22.4,223.9,21.7L223.9,21.7z
		 M225.8,25.6L225.8,25.6h-13.3c0,0.8,0.2,1.6,0.5,2.4c0.3,0.7,0.8,1.4,1.3,1.9c0.6,0.5,1.2,1,1.9,1.3s1.5,0.5,2.4,0.5
		c1.2,0,2.3-0.2,3.2-0.7s1.6-1.1,2.3-1.9c0.2-0.2,0.5-0.4,0.7-0.4s0.4,0.1,0.6,0.2c0.2,0.2,0.3,0.4,0.3,0.7c0,0.2-0.1,0.4-0.2,0.6
		c-0.3,0.4-0.7,0.8-1.2,1.2s-1,0.8-1.6,1.1s-1.3,0.6-2,0.7c-0.7,0.2-1.4,0.3-2.2,0.3c-1.2,0-2.3-0.2-3.3-0.7c-1-0.4-1.9-1-2.7-1.8
		s-1.4-1.7-1.8-2.7c-0.4-1-0.7-2.2-0.7-3.3c0-1.2,0.2-2.3,0.6-3.3c0.4-1,1-1.9,1.7-2.7s1.6-1.4,2.6-1.8c1-0.4,2.1-0.7,3.3-0.7
		s2.2,0.2,3.2,0.7c1,0.4,1.8,1,2.6,1.8c0.7,0.8,1.3,1.6,1.7,2.6s0.6,2.1,0.6,3.2C226.7,25.3,226.4,25.6,225.8,25.6L225.8,25.6z"/>
	<path class="st0" d="M243.9,30.2c-0.7,0.9-1.7,1.7-2.9,2.3c-1.2,0.6-2.4,0.9-3.8,0.9c-1.2,0-2.3-0.2-3.3-0.6c-1-0.4-1.9-1-2.7-1.8
		c-0.8-0.8-1.4-1.7-1.8-2.7s-0.7-2.2-0.7-3.4s0.2-2.3,0.7-3.4c0.4-1,1.1-1.9,1.8-2.7c0.8-0.8,1.7-1.3,2.7-1.8c1-0.4,2.1-0.6,3.3-0.6
		c2.2,0,4.2,0.8,5.9,2.3c0.2,0.2,0.3,0.5,0.3,0.7s-0.1,0.4-0.2,0.6c-0.2,0.2-0.4,0.3-0.7,0.3c-0.2,0-0.4-0.1-0.6-0.2
		c-0.7-0.6-1.5-1-2.2-1.4c-0.8-0.3-1.6-0.5-2.4-0.5c-0.9,0-1.7,0.2-2.5,0.5s-1.4,0.8-2,1.4c-0.6,0.6-1,1.3-1.3,2.1s-0.5,1.6-0.5,2.6
		c0,0.9,0.2,1.8,0.5,2.6s0.8,1.5,1.3,2.1c0.6,0.6,1.2,1.1,2,1.4c0.8,0.3,1.6,0.5,2.5,0.5c1.2,0,2.2-0.3,3-0.8s1.6-1.1,2.2-1.8
		c0.2-0.2,0.4-0.3,0.7-0.3c0.3,0,0.5,0.1,0.7,0.3s0.3,0.4,0.3,0.7C244.1,29.8,244,30.1,243.9,30.2L243.9,30.2z"/>
	<path class="st0" d="M250.3,33c-0.2,0.2-0.5,0.3-0.8,0.3s-0.6-0.1-0.8-0.3c-0.2-0.2-0.3-0.5-0.3-0.8V9c0-0.3,0.1-0.6,0.3-0.8
		c0.2-0.2,0.5-0.3,0.8-0.3s0.6,0.1,0.8,0.3c0.2,0.2,0.3,0.5,0.3,0.8v23.2C250.6,32.6,250.5,32.8,250.3,33L250.3,33z"/>
	<path class="st0" d="M268.9,11l-4.8,3.5c-0.1,0.1-0.3,0.1-0.4,0.1c-0.3,0-0.6-0.1-0.7-0.4c-0.1-0.2-0.1-0.4-0.1-0.5
		c0-0.3,0.1-0.5,0.3-0.7l4.8-3.4c0.1-0.1,0.3-0.1,0.5-0.1c0.3,0,0.5,0.1,0.7,0.3c0.1,0.2,0.2,0.3,0.2,0.5
		C269.3,10.6,269.2,10.8,268.9,11L268.9,11z M269.4,22.4L269.4,22.4c-0.3-0.8-0.8-1.5-1.3-2.1c-0.6-0.6-1.2-1.1-2-1.4
		c-0.8-0.3-1.6-0.5-2.5-0.5s-1.7,0.2-2.5,0.5s-1.4,0.8-2,1.4c-0.6,0.6-1,1.3-1.3,2.1s-0.5,1.6-0.5,2.5s0.2,1.7,0.5,2.5
		s0.8,1.5,1.3,2.1c0.6,0.6,1.2,1.1,2,1.4c0.8,0.3,1.6,0.5,2.5,0.5s1.7-0.2,2.5-0.5s1.4-0.8,2-1.4c0.6-0.6,1-1.3,1.3-2.1
		s0.5-1.6,0.5-2.5C269.8,24.1,269.7,23.2,269.4,22.4L269.4,22.4z M271.4,28.3L271.4,28.3c-0.4,1-1.1,1.9-1.8,2.7
		c-0.8,0.8-1.7,1.4-2.7,1.8c-1,0.4-2.1,0.7-3.3,0.7c-1.2,0-2.3-0.2-3.3-0.7c-1-0.4-1.9-1.1-2.7-1.8c-0.8-0.8-1.4-1.7-1.8-2.7
		c-0.4-1-0.7-2.1-0.7-3.3s0.2-2.3,0.7-3.3c0.4-1,1.1-1.9,1.8-2.7c0.8-0.8,1.7-1.4,2.7-1.8c1-0.4,2.1-0.7,3.3-0.7
		c1.2,0,2.3,0.2,3.3,0.7c1,0.4,1.9,1.1,2.7,1.8c0.8,0.8,1.4,1.7,1.8,2.7s0.7,2.1,0.7,3.3C272,26.1,271.8,27.3,271.4,28.3L271.4,28.3
		z"/>
	<path class="st0" d="M288.6,22.4c-0.3-0.8-0.8-1.5-1.3-2.1c-0.6-0.6-1.2-1.1-2-1.4c-0.8-0.3-1.6-0.5-2.5-0.5s-1.7,0.2-2.5,0.5
		s-1.4,0.8-2,1.4c-0.6,0.6-1,1.3-1.3,2.1s-0.5,1.6-0.5,2.5s0.2,1.7,0.5,2.5s0.8,1.5,1.3,2.1c0.6,0.6,1.2,1,2,1.4
		c0.8,0.3,1.6,0.5,2.5,0.5s1.7-0.2,2.5-0.5s1.4-0.8,2-1.4c0.6-0.6,1-1.3,1.3-2.1s0.5-1.6,0.5-2.5S288.9,23.2,288.6,22.4L288.6,22.4z
		 M290.7,35L290.7,35c-0.4,1-0.9,2-1.6,2.7c-0.7,0.8-1.6,1.4-2.7,1.8c-1.1,0.4-2.4,0.7-3.9,0.7c-1.1,0-2.2-0.1-3.3-0.3
		c-1-0.2-2-0.5-3-0.9c-0.4-0.2-0.6-0.5-0.6-0.8c0-0.1,0-0.2,0.1-0.4c0.2-0.4,0.4-0.6,0.8-0.6c0.1,0,0.2,0,0.4,0.1
		c1.8,0.6,3.6,1,5.5,1c1.1,0,2.1-0.2,2.9-0.5s1.5-0.8,2.1-1.3c0.5-0.6,1-1.2,1.2-2c0.3-0.8,0.4-1.6,0.4-2.5v-2.2
		c-0.6,1.1-1.4,1.9-2.6,2.6c-1.2,0.6-2.4,1-3.9,1c-1.1,0-2.2-0.2-3.2-0.7c-1-0.4-1.9-1-2.7-1.8c-0.8-0.8-1.4-1.6-1.8-2.7
		c-0.4-1-0.7-2.1-0.7-3.4c0-1.2,0.2-2.3,0.7-3.3c0.4-1,1-1.9,1.8-2.7s1.6-1.4,2.7-1.8c1-0.4,2.1-0.6,3.3-0.6c1.4,0,2.7,0.3,3.8,1
		c1.1,0.7,2,1.5,2.6,2.6v-2.3c0-0.3,0.1-0.6,0.3-0.8c0.2-0.2,0.5-0.3,0.8-0.3s0.6,0.1,0.8,0.3c0.2,0.2,0.3,0.5,0.3,0.8v13.9
		C291.3,32.9,291.1,34,290.7,35L290.7,35z"/>
	<path class="st0" d="M299.7,33c-0.2,0.2-0.5,0.3-0.8,0.3s-0.6-0.1-0.8-0.3c-0.2-0.2-0.3-0.5-0.3-0.8V17.7c0-0.3,0.1-0.6,0.3-0.8
		c0.2-0.2,0.5-0.3,0.8-0.3s0.6,0.1,0.8,0.3c0.2,0.2,0.3,0.5,0.3,0.8v14.5C300,32.5,299.9,32.8,299.7,33L299.7,33z M299.9,11.9
		L299.9,11.9c-0.2,0.3-0.6,0.4-0.9,0.4c-0.4,0-0.7-0.1-1-0.4c-0.3-0.3-0.4-0.6-0.4-0.9s0.1-0.7,0.4-0.9c0.3-0.3,0.6-0.4,1-0.4
		s0.7,0.1,0.9,0.4c0.2,0.3,0.4,0.6,0.4,0.9S300.1,11.6,299.9,11.9L299.9,11.9z"/>
	<path class="st0" d="M319.8,30.2c-0.7,0.9-1.7,1.7-2.9,2.3c-1.2,0.6-2.4,0.9-3.8,0.9c-1.2,0-2.3-0.2-3.3-0.6c-1-0.4-1.9-1-2.7-1.8
		c-0.8-0.8-1.4-1.7-1.8-2.7s-0.7-2.2-0.7-3.4s0.2-2.3,0.7-3.4c0.4-1,1.1-1.9,1.8-2.7c0.8-0.8,1.7-1.3,2.7-1.8c1-0.4,2.1-0.6,3.3-0.6
		c2.2,0,4.2,0.8,5.9,2.3c0.2,0.2,0.3,0.5,0.3,0.7s-0.1,0.4-0.2,0.6c-0.2,0.2-0.4,0.3-0.7,0.3c-0.2,0-0.4-0.1-0.6-0.2
		c-0.7-0.6-1.5-1-2.2-1.4c-0.8-0.3-1.6-0.5-2.4-0.5c-0.9,0-1.7,0.2-2.5,0.5s-1.4,0.8-2,1.4c-0.6,0.6-1,1.3-1.3,2.1s-0.5,1.6-0.5,2.6
		c0,0.9,0.2,1.8,0.5,2.6s0.8,1.5,1.3,2.1c0.6,0.6,1.2,1.1,2,1.4c0.8,0.3,1.6,0.5,2.5,0.5c1.2,0,2.2-0.3,3-0.8s1.6-1.1,2.2-1.8
		c0.2-0.2,0.4-0.3,0.7-0.3c0.3,0,0.5,0.1,0.7,0.3s0.3,0.4,0.3,0.7C320.1,29.8,320,30.1,319.8,30.2L319.8,30.2z"/>
	<path class="st0" d="M334.4,26.4c-0.3-0.4-0.6-0.8-1.1-1.1s-1-0.5-1.6-0.6s-1.2-0.2-1.9-0.2c-0.6,0-1.3,0.1-1.9,0.2
		c-0.6,0.1-1.1,0.3-1.6,0.6s-0.8,0.7-1.1,1.1c-0.3,0.5-0.4,1-0.4,1.7c0,0.6,0.1,1.2,0.4,1.7s0.7,0.8,1.1,1.1c0.5,0.3,1,0.5,1.6,0.6
		s1.1,0.2,1.7,0.2c0.7,0,1.3-0.1,2-0.3c0.6-0.2,1.2-0.4,1.6-0.8c0.5-0.3,0.8-0.7,1.1-1.1c0.3-0.4,0.4-0.9,0.4-1.5
		C334.8,27.4,334.6,26.8,334.4,26.4L334.4,26.4z M336.7,33L336.7,33c-0.2,0.2-0.5,0.3-0.8,0.3s-0.6-0.1-0.8-0.3
		c-0.2-0.2-0.3-0.5-0.3-0.8v-1c-0.5,0.6-1.2,1.2-2.2,1.6c-1,0.4-2.1,0.7-3.3,0.7c-0.9,0-1.8-0.1-2.6-0.4c-0.8-0.3-1.5-0.6-2.1-1.1
		c-0.6-0.5-1.1-1-1.4-1.7s-0.5-1.4-0.5-2.2s0.2-1.6,0.5-2.3s0.8-1.2,1.4-1.7s1.3-0.8,2.1-1c0.8-0.2,1.7-0.4,2.6-0.4
		c1.2,0,2.3,0.2,3.2,0.5c1,0.3,1.7,0.8,2.3,1.4v-1.9c0-1.6-0.5-2.7-1.3-3.4c-0.8-0.6-2.1-1-3.9-1c-1,0-1.9,0.1-2.7,0.3
		c-0.8,0.2-1.7,0.5-2.4,0.8c-0.2,0.1-0.3,0.1-0.4,0.1c-0.4,0-0.7-0.2-0.8-0.5c-0.1-0.1-0.1-0.2-0.1-0.4c0-0.3,0.2-0.6,0.5-0.8
		c0.4-0.2,0.9-0.5,1.5-0.7c0.5-0.2,1.1-0.3,1.6-0.4c0.6-0.1,1.1-0.2,1.6-0.2s1-0.1,1.5-0.1c2.3,0,4.1,0.5,5.3,1.5
		c1.3,1,1.9,2.6,1.9,4.9v9.4C337,32.5,336.9,32.8,336.7,33L336.7,33z"/>
	<path class="st0" d="M128.5,48.5c-16.6,0-30.1,13.5-30.1,30.1s13.5,30.1,30.1,30.1s30.1-13.5,30.1-30.1S145.1,48.5,128.5,48.5
		L128.5,48.5z"/>
	<path class="st0" d="M93.9,51.7c1.6-3,4.1-9,4-13.8c-0.2-5.2-1.9-11.4-10-14.1c0,0-7.9-2.8-13.2-0.9c0,0,3-15.4-15.4-21.2
		c-9.2-2.9-15.5-2.2-24.1,2.2C26.5,8.3-0.7,33.3,0,75.3c0.6,37.8,19.1,61.9,28.8,72.4c3.4,3.7,7.3,4.5,11.3,2.6
		c2.9-1.4,3.4-6.5,0.5-11.5c-2.9-4.9-19.4-24.7-20.3-62.7C19.4,40.3,42,16.9,46.2,13.7c5.1-4,9.4-4.5,12-3.5c4,1.5,6.7,5.8,2.9,11.9
		C57.2,28.2,38.3,46,38.3,75.6c0,32.1,12.1,44.5,18.9,53.2c3.2,4.1,7.9,6,12,3.7c3.9-2.1,2.5-7-0.1-10.9
		c-11.9-17.7-13-28.1-12.8-45.5c0.2-20.2,12-36.1,15.9-41.4c3.3-4.4,7.4-5.3,10.6-3.8c3.2,1.5,3.9,6,1,10.6
		c-3.4,5.3-12.2,20-12.4,34c-0.2,13,5.8,28.3,14.5,37.4c1.8,1.8,6.8,4.9,10.2,2.9c3.2-1.9,3.2-6.3,0.8-9.7
		c-7.5-10.6-9.8-16.5-10.1-29.6C86.5,72.2,88.4,61.9,93.9,51.7L93.9,51.7z"/>
	<path class="st0" d="M193.4,94c-8.2,0-14.9-7.1-14.9-15.8c0-8.8,6.7-15.9,14.9-15.9s14.9,7.1,14.9,15.9
		C208.3,86.9,201.6,94,193.4,94L193.4,94z M196.1,48.5L196.1,48.5c-6.4,0-12.2,2.6-16.8,6.9V25c0-4.3-3.5-7.8-7.8-7.8
		s-7.8,3.5-7.8,7.8c0,0-0.1,19.5,0,26.3c0.1,6.1,2.9,7.4,4.8,14.8c0.9,3.4,1.4,7,1.4,10.7c0,5.5-0.9,10.7-2.9,15.4
		c-1.2,3-3.2,4.9-3.2,7.5c0,3.8,3.7,7,7.6,7c3.7,0,6.8-2.6,7.6-6.1c4.6,4.4,10.5,7.1,17,7.1c14.5,0,26.2-13.3,26.2-29.6
		C222.3,61.8,210.5,48.5,196.1,48.5L196.1,48.5z"/>
	<path class="st0" d="M275.4,49.3c-4.3,0-7.8,3.5-7.8,7.8V74v6.7c0,0-0.1,3.2-0.5,4.4c-1,3.1-3.7,8.5-11.6,8.5
		c-11,0-12.1-10.5-12.1-19.7V57c0-4.3-3.5-7.8-7.8-7.8s-7.8,3.5-7.8,7.8v17v9.8c0,0,0,4.1,0.4,5.6c1,4.8,4.9,15.4,19,18.4
		c0,0,12.7,2.3,20.4-8.2v0.4c0,4.3,3.5,7.8,7.8,7.8s7.8-3.5,7.8-7.8V84v-0.9V74v-0.8V57.1C283.2,52.8,279.7,49.3,275.4,49.3
		L275.4,49.3z"/>
	<path class="st0" d="M326.7,62c7.8,2.9,9.9-0.6,10.6-2c1.2-2.8-0.4-6.6-5.1-8.6c-6.4-2.7-18.7-5.7-29.7,0
		c-9.7,5.1-9.9,13.6-7.2,19.4c2.5,5.4,6.1,6.5,10.5,8.5c3.1,1.4,5.6,2.4,9.6,4.2c5.9,2.6,11.5,4.2,9.1,8.8
		c-1.9,3.5-10.1,3.7-14.9,2.3c-2.3-0.7-5.3-1.9-8.6-3.3c-3.3-1.4-6.7-2.1-9.3,2.4c0,0-1.5,2.9,0.3,5.8c0.6,1,2,2.1,3.8,3.2
		c5.2,3.1,14.5,5,21.8,4.7c16.2-0.6,22.1-10.3,21.5-19.7c-0.5-7.4-6.6-11.4-16.9-14.8c0,0-6.4-2.6-10.4-4.1
		c-2.4-0.9-4.4-2.9-3.4-5.6C309.8,58.8,319.2,59.2,326.7,62L326.7,62z"/>
	<path class="st0" d="M380.2,62c7.8,2.9,9.9-0.6,10.6-2c1.2-2.8-0.4-6.6-5.1-8.6c-6.4-2.7-18.7-5.7-29.7,0
		c-9.7,5.1-9.9,13.6-7.2,19.4c2.5,5.4,6.1,6.5,10.5,8.5c3.1,1.4,5.6,2.4,9.6,4.2c5.9,2.6,11.5,4.2,9,8.8c-1.9,3.5-10,3.7-14.9,2.3
		c-2.3-0.7-5.3-1.9-8.6-3.3c-3.3-1.4-6.7-2.1-9.3,2.4c0,0-1.5,2.9,0.3,5.8c0.6,1,2,2.1,3.8,3.2c5.2,3.1,14.5,5,21.8,4.7
		c16.2-0.6,22.1-10.3,21.5-19.7c-0.5-7.4-6.6-11.4-16.9-14.8c0,0-6.4-2.6-10.4-4.1c-2.4-0.9-4.4-2.9-3.4-5.6
		C363.4,58.8,372.8,59.2,380.2,62L380.2,62z"/>
	<path class="st0" d="M425.6,106.2V75.6h21.3c3.5,0,6.6-0.6,9.4-1.7c2.7-1.1,5.1-2.7,7-4.7s3.3-4.3,4.3-6.8c1-2.6,1.5-5.3,1.5-8.3
		c0-2.9-0.5-5.7-1.5-8.3s-2.4-4.9-4.3-6.8c-1.9-2-4.2-3.6-7-4.7c-2.8-1.1-5.9-1.7-9.4-1.7h-27.6v73.6L425.6,106.2L425.6,106.2z
		 M446.2,69.9h-20.6V38.3h20.6c3.3,0,6.1,0.7,8.6,2c2.4,1.3,4.3,3.2,5.6,5.5c1.3,2.4,2,5.1,2,8.2c0,3.1-0.7,5.8-2,8.2
		c-1.3,2.4-3.2,4.2-5.6,5.6C452.4,69.2,449.5,69.9,446.2,69.9L446.2,69.9z"/>
	<polygon class="st0" points="487.8,106.2 487.8,32.6 482.1,32.6 482.1,106.2 	"/>
	<path class="st0" d="M545.3,106.2V68.8c0-3-0.5-5.6-1.5-7.8c-1-2.2-2.4-4-4.1-5.3c-1.8-1.4-3.8-2.4-6.2-3.1c-2.3-0.7-4.9-1-7.6-1
		c-2.9,0-5.6,0.3-8,1s-4.7,1.7-6.7,3c-2,1.3-4,3-5.8,5l3.2,4c2.4-2.8,5-4.8,7.7-6c2.7-1.3,5.7-1.9,9.1-1.9c2,0,3.8,0.3,5.5,0.8
		s3.2,1.3,4.5,2.4c1.3,1,2.3,2.3,3.1,3.9c0.7,1.5,1.1,3.3,1.1,5.3v10.8c-2.3-2.6-5-4.5-8-5.7c-3-1.3-6.4-1.9-10.1-1.9
		c-2.3,0-4.6,0.4-6.8,1.1c-2.2,0.8-4.2,1.9-6,3.3c-1.8,1.5-3.2,3.3-4.2,5.5s-1.6,4.7-1.6,7.6s0.6,5.4,1.6,7.6c1.1,2.2,2.5,4,4.3,5.6
		c1.8,1.5,3.8,2.6,6,3.4s4.5,1.2,6.8,1.2c3.7,0,7-0.6,10-1.9s5.7-3.2,8.1-5.7v6.3h5.6V106.2z M523.5,103c-2.9,0-5.5-0.6-7.7-1.7
		s-3.9-2.7-5.1-4.6c-1.2-2-1.8-4.2-1.8-6.7c0-2.6,0.6-4.8,1.8-6.8s2.9-3.5,5.1-4.7c2.2-1.1,4.7-1.7,7.7-1.7c2.2,0,4.2,0.3,6.2,0.8
		s3.8,1.4,5.5,2.4c1.7,1.1,3.2,2.5,4.4,4.1v11.7c-1.3,1.6-2.7,2.9-4.4,4s-3.5,1.9-5.5,2.4C527.7,102.8,525.6,103,523.5,103
		L523.5,103z"/>
	<path class="st0" d="M574.8,107.6c2.2,0,4-0.3,5.4-0.9s2.6-1.4,3.7-2.4l-2.2-4.4c-0.6,0.7-1.5,1.3-2.5,1.8s-2.2,0.8-3.5,0.8
		s-2.3-0.3-3.1-0.9s-1.4-1.5-1.8-2.5c-0.4-1.1-0.6-2.4-0.6-3.8V58H581v-5.1h-10.8V38.3h-5.8v14.6h-8.8V58h8.8v38
		c0,3.7,0.9,6.5,2.6,8.5C568.6,106.5,571.3,107.5,574.8,107.6L574.8,107.6z"/>
	<path class="st0" d="M633.2,106.2V68.8c0-3-0.5-5.6-1.5-7.8c-1-2.2-2.4-4-4.1-5.3c-1.8-1.4-3.8-2.4-6.2-3.1c-2.3-0.7-4.9-1-7.6-1
		c-2.9,0-5.6,0.3-8,1s-4.7,1.7-6.7,3s-4,3-5.8,5l3.2,4c2.4-2.8,5-4.8,7.7-6c2.7-1.3,5.7-1.9,9.1-1.9c2,0,3.8,0.3,5.5,0.8
		s3.2,1.3,4.5,2.4c1.3,1,2.3,2.3,3.1,3.9c0.7,1.5,1.1,3.3,1.1,5.3v10.8c-2.3-2.6-5-4.5-8-5.7c-3-1.3-6.4-1.9-10.1-1.9
		c-2.3,0-4.6,0.4-6.8,1.1c-2.2,0.8-4.2,1.9-6,3.3c-1.8,1.5-3.2,3.3-4.2,5.5s-1.6,4.7-1.6,7.6s0.6,5.4,1.6,7.6c1.1,2.2,2.5,4,4.3,5.6
		c1.8,1.5,3.8,2.6,6,3.4s4.5,1.2,6.8,1.2c3.7,0,7-0.6,10-1.9s5.7-3.2,8.1-5.7v6.3h5.6V106.2z M611.3,103c-2.9,0-5.5-0.6-7.7-1.7
		s-3.9-2.7-5.1-4.6c-1.2-2-1.8-4.2-1.8-6.7c0-2.6,0.6-4.8,1.8-6.8s2.9-3.5,5.1-4.7c2.2-1.1,4.7-1.7,7.7-1.7c2.2,0,4.2,0.3,6.2,0.8
		s3.8,1.4,5.5,2.4c1.7,1.1,3.2,2.5,4.4,4.1v11.7c-1.3,1.6-2.7,2.9-4.4,4s-3.5,1.9-5.5,2.4C615.5,102.8,613.5,103,611.3,103
		L611.3,103z"/>
	<path class="st0" d="M658.8,106.2V58h10.8v-5.1h-10.8V48c0-3.6,0.8-6.4,2.3-8.4s3.8-3,6.9-3c1.4,0,2.7,0.3,3.8,0.8s2.1,1.2,3,2
		l2.8-4.2c-1.7-1.5-3.3-2.5-4.9-3c-1.6-0.5-3.3-0.8-5.2-0.8c-3,0-5.6,0.7-7.7,2c-2.2,1.3-3.8,3.2-5,5.7s-1.7,5.4-1.8,8.9v4.9h-8.8
		V58h8.8v48.2H658.8L658.8,106.2z"/>
	<path class="st0" d="M702.8,107.6c4,0,7.5-0.8,10.7-2.2c3.2-1.4,5.9-3.4,8.1-6c2.2-2.6,4-5.5,5.1-8.9c1.2-3.4,1.8-7,1.8-10.9
		s-0.6-7.6-1.8-10.9c-1.2-3.4-2.9-6.3-5.1-8.9c-2.2-2.5-4.9-4.5-8.1-6c-3.1-1.4-6.7-2.2-10.7-2.2c-3.9,0-7.4,0.8-10.5,2.2
		s-5.8,3.4-8,6c-2.2,2.5-3.9,5.5-5.1,8.9c-1.2,3.4-1.8,7-1.8,10.9s0.6,7.6,1.8,10.9c1.2,3.4,2.9,6.3,5.1,8.9c2.2,2.6,4.9,4.6,8,6
		C695.4,106.8,698.9,107.5,702.8,107.6L702.8,107.6z M702.8,102.4c-3.1,0-5.8-0.7-8.2-1.9c-2.4-1.2-4.5-2.9-6.1-5.1
		c-1.7-2.1-2.9-4.6-3.8-7.3c-0.8-2.7-1.3-5.6-1.3-8.6s0.4-5.8,1.3-8.5c0.9-2.7,2.1-5.1,3.8-7.3c1.7-2.1,3.7-3.8,6.1-5
		c2.4-1.2,5.2-1.9,8.2-1.9c3.1,0,5.9,0.7,8.4,1.9c2.4,1.2,4.5,2.9,6.1,5c1.7,2.1,2.9,4.6,3.8,7.3c0.9,2.7,1.3,5.6,1.3,8.5
		c0,3-0.4,5.9-1.3,8.6c-0.8,2.7-2.1,5.2-3.8,7.3c-1.7,2.1-3.7,3.8-6.1,5.1C708.8,101.7,706,102.4,702.8,102.4L702.8,102.4z"/>
	<path class="st0" d="M749.1,106.2V67.3c0.6-1.2,1.5-2.3,2.6-3.4c1.1-1.1,2.4-2.1,3.8-3.1c1.4-0.9,2.9-1.6,4.4-2.2
		c1.5-0.5,2.9-0.8,4.3-0.8c0.5,0,1,0,1.5,0c0.4,0,0.9,0.1,1.4,0.2v-6.3c-2.5,0-4.8,0.5-7,1.3c-2.2,0.9-4.2,2.1-6,3.6
		c-1.9,1.5-3.5,3.3-5,5.3v-9.2h-5.7V106h5.7V106.2z"/>
	<path class="st0" d="M847.5,106.2V67.8c0-5.4-1.2-9.4-3.6-12.1c-2.4-2.7-6.1-4.1-11-4.1c-1.9,0-3.7,0.3-5.5,0.9
		c-1.8,0.6-3.5,1.3-5,2.3c-1.6,1-3,2-4.2,3.2s-2.2,2.4-3,3.7c-0.4-1.8-1.2-3.4-2.4-4.9s-2.7-2.7-4.6-3.7c-1.9-0.9-4.3-1.4-7-1.5
		c-1.9,0-3.8,0.3-5.6,1c-1.8,0.6-3.5,1.5-5,2.4c-1.5,1-2.9,2-4,3.1c-1.1,1-2,2-2.5,2.9v-8.1h-5.7v53.3h5.7V66
		c1.1-1.6,2.5-3.1,4.1-4.5c1.7-1.4,3.5-2.5,5.4-3.3s3.9-1.3,5.8-1.3c2.5,0,4.5,0.5,6.1,1.5s2.7,2.4,3.4,4.2c0.7,1.8,1.1,4,1.1,6.5
		v37.3h5.9V66c1-1.6,2.4-3.1,4-4.5c1.7-1.4,3.5-2.5,5.4-3.3c2-0.8,3.9-1.3,5.8-1.3c2.5,0,4.5,0.5,6.1,1.5s2.7,2.4,3.5,4.2
		c0.7,1.8,1.1,4,1.1,6.5v37.3h5.7V106.2z"/>
	<path class="st0" d="M905.1,106.2V68.8c0-3-0.5-5.6-1.5-7.8c-1-2.2-2.4-4-4.1-5.3c-1.8-1.4-3.8-2.4-6.2-3.1c-2.3-0.7-4.9-1-7.6-1
		c-2.9,0-5.6,0.3-8,1s-4.7,1.7-6.7,3s-4,3-5.8,5l3.2,4c2.4-2.8,5-4.8,7.7-6c2.7-1.3,5.7-1.9,9.1-1.9c2,0,3.8,0.3,5.5,0.8
		s3.2,1.3,4.5,2.4c1.3,1,2.3,2.3,3.1,3.9c0.7,1.5,1.1,3.3,1.1,5.3v10.8c-2.3-2.6-5-4.5-8-5.7c-3-1.3-6.4-1.9-10.1-1.9
		c-2.3,0-4.6,0.4-6.8,1.1c-2.2,0.8-4.2,1.9-6,3.3c-1.8,1.5-3.2,3.3-4.2,5.5s-1.6,4.7-1.6,7.6s0.6,5.4,1.6,7.6c1.1,2.2,2.5,4,4.3,5.6
		c1.8,1.5,3.8,2.6,6,3.4s4.5,1.2,6.8,1.2c3.7,0,7-0.6,10-1.9s5.7-3.2,8.1-5.7v6.3h5.6V106.2z M883.2,103c-2.9,0-5.5-0.6-7.7-1.7
		s-3.9-2.7-5.1-4.6c-1.2-2-1.8-4.2-1.8-6.7c0-2.6,0.6-4.8,1.8-6.8s2.9-3.5,5.1-4.7c2.2-1.1,4.7-1.7,7.7-1.7c2.2,0,4.2,0.3,6.2,0.8
		s3.8,1.4,5.5,2.4c1.7,1.1,3.2,2.5,4.4,4.1v11.7c-1.3,1.6-2.7,2.9-4.4,4s-3.5,1.9-5.5,2.4C887.4,102.8,885.3,103,883.2,103
		L883.2,103z"/>
</g>
</svg>
