<svg id="Camada_1" data-name="Camada 1" xmlns="http://www.w3.org/2000/svg" viewBox="0 0 150 150"><defs><style>.cls-1{fill:#fff;}</style></defs><title>Sem título-6</title><rect class="cls-1" x="59.63" y="59.63" width="15.37" height="20.49"/><rect class="cls-1" x="85.24" y="75" width="15.37" height="5.12"/><rect class="cls-1" x="59.63" y="90.37" width="40.98" height="5.12"/><rect class="cls-1" x="85.24" y="59.63" width="15.37" height="5.12"/><path class="cls-1" d="M75,0a75,75,0,1,0,75,75A75,75,0,0,0,75,0Zm41,105.73A10.24,10.24,0,0,1,105.73,116H44.27A10.24,10.24,0,0,1,34,105.73V39.15A5.12,5.12,0,0,1,39.15,34h61.47a5.12,5.12,0,0,1,5.12,5.12H39.15v66.59a5.12,5.12,0,0,0,5.12,5.12V49.39a5.12,5.12,0,0,1,5.12-5.12h61.47A5.12,5.12,0,0,1,116,49.39v56.34Z"/></svg>