<svg id="Camada_1" data-name="Camada 1" xmlns="http://www.w3.org/2000/svg" viewBox="0 0 135.79 135.79"><defs><style>.cls-1{fill:#f2f2f2;}.cls-2{fill:#38648e;}</style></defs><title>sem-titulo-7</title><circle class="cls-1" cx="67.89" cy="67.9" r="67.9"/><path class="cls-2" d="M71.54,44.67a0.34,0.34,0,0,1-.24.1H69v6.48a0.35,0.35,0,0,1-.11.26,0.38,0.38,0,0,1-.53,0,0.35,0.35,0,0,1-.1-0.26V44.77H65.87a0.33,0.33,0,1,1,0-.67H71.3a0.35,0.35,0,0,1,.24.09A0.34,0.34,0,0,1,71.54,44.67Z"/><path class="cls-2" d="M76.17,48.13a1.77,1.77,0,0,0-.38-0.53,1.72,1.72,0,0,0-1.22-.48,1.74,1.74,0,0,0-1.22.48,1.9,1.9,0,0,0-.39.52,2,2,0,0,0-.18.66h3.57a2,2,0,0,0-.18-0.65h0Zm0.59,1.16h-4a1.87,1.87,0,0,0,.16.71,1.92,1.92,0,0,0,.4.57,1.86,1.86,0,0,0,1.31.53,1.94,1.94,0,0,0,1-.22,2.65,2.65,0,0,0,.7-0.56,0.28,0.28,0,0,1,.21-0.11,0.3,0.3,0,0,1,.18.07,0.28,0.28,0,0,1,.1.21,0.27,0.27,0,0,1-.07.18,2.74,2.74,0,0,1-.36.37,2.57,2.57,0,0,1-.49.33,3.16,3.16,0,0,1-.59.22,2.65,2.65,0,0,1-.67.08,2.46,2.46,0,0,1-1-.2,2.52,2.52,0,0,1-1.34-1.35,2.53,2.53,0,0,1-.2-1,2.62,2.62,0,0,1,.19-1,2.46,2.46,0,0,1,2.3-1.55,2.35,2.35,0,0,1,1,.2,2.46,2.46,0,0,1,1.29,1.33,2.56,2.56,0,0,1,.18,1A0.22,0.22,0,0,1,76.76,49.28Z"/><path class="cls-2" d="M82.18,50.69a2.59,2.59,0,0,1-.86.7,2.45,2.45,0,0,1-1.14.27,2.52,2.52,0,0,1-1-.2,2.51,2.51,0,0,1-1.36-1.34,2.61,2.61,0,0,1-.2-1,2.57,2.57,0,0,1,.2-1,2.45,2.45,0,0,1,.55-0.81,2.58,2.58,0,0,1,3.57,0,0.31,0.31,0,0,1,.1.21,0.26,0.26,0,0,1-.07.18,0.28,0.28,0,0,1-.21.1,0.29,0.29,0,0,1-.18-0.06,3.33,3.33,0,0,0-.67-0.41,1.8,1.8,0,0,0-.73-0.15,1.84,1.84,0,0,0-.75.16,1.92,1.92,0,0,0-.59.42,2,2,0,0,0-.4.63,2.08,2.08,0,0,0,0,1.54,2,2,0,0,0,.4.63,1.93,1.93,0,0,0,.59.42,1.82,1.82,0,0,0,.75.15,1.75,1.75,0,0,0,.91-0.23,3.05,3.05,0,0,0,.67-0.54,0.25,0.25,0,0,1,.2-0.09,0.27,0.27,0,0,1,.2.08,0.28,0.28,0,0,1,.08.2A0.27,0.27,0,0,1,82.18,50.69Z"/><path class="cls-2" d="M84.1,51.53a0.31,0.31,0,0,1-.24.09,0.36,0.36,0,0,1-.25-0.09,0.3,0.3,0,0,1-.1-0.23v-7a0.32,0.32,0,0,1,.1-0.24A0.35,0.35,0,0,1,83.87,44a0.31,0.31,0,0,1,.24.09,0.35,0.35,0,0,1,.09.24v7A0.33,0.33,0,0,1,84.1,51.53Z"/><path class="cls-2" d="M89.71,44.91l-1.44,1a0.22,0.22,0,0,1-.13,0,0.24,0.24,0,0,1-.22-0.11,0.32,0.32,0,0,1,0-.14,0.28,0.28,0,0,1,.1-0.21l1.44-1a0.25,0.25,0,0,1,.16,0,0.23,0.23,0,0,1,.2.1,0.28,0.28,0,0,1,.06.16,0.25,0.25,0,0,1-.11.21h0Zm0.12,3.43h0a2,2,0,0,0-.4-0.62,1.85,1.85,0,0,0-2.7,0,2,2,0,0,0,0,2.76,1.88,1.88,0,0,0,.6.42,1.88,1.88,0,0,0,1.5,0,1.87,1.87,0,0,0,.61-0.42,2,2,0,0,0,.4-2.14h0Zm0.6,1.76h0a2.6,2.6,0,0,1-.55.81,2.57,2.57,0,0,1-.81.55,2.57,2.57,0,0,1-2,0,2.57,2.57,0,0,1-1.36-1.36,2.58,2.58,0,0,1,0-2,2.57,2.57,0,0,1,1.36-1.35,2.59,2.59,0,0,1,2,0,2.56,2.56,0,0,1,1.36,1.35A2.56,2.56,0,0,1,90.44,50.1Z"/><path class="cls-2" d="M95.62,48.33a2.05,2.05,0,0,0-.4-0.62,1.79,1.79,0,0,0-.6-0.42,1.89,1.89,0,0,0-.75-0.15,1.86,1.86,0,0,0-.75.15,1.72,1.72,0,0,0-.6.42,2,2,0,0,0-.4.62,2,2,0,0,0-.15.75,2,2,0,0,0,.15.76,1.92,1.92,0,0,0,.4.62,1.85,1.85,0,0,0,.6.42,1.82,1.82,0,0,0,.75.16,1.85,1.85,0,0,0,.75-0.16,1.93,1.93,0,0,0,.6-0.42,2,2,0,0,0,.4-0.62,2,2,0,0,0,.14-0.76,2,2,0,0,0-.14-0.75h0Zm0.64,3.8h0a2.2,2.2,0,0,1-.49.82,2.34,2.34,0,0,1-.82.55,3.09,3.09,0,0,1-1.16.2,6,6,0,0,1-1-.08,4,4,0,0,1-.89-0.26,0.28,0.28,0,0,1-.19-0.25,0.35,0.35,0,0,1,0-.11A0.26,0.26,0,0,1,92,52.82l0.11,0a4.93,4.93,0,0,0,1.66.29A2.43,2.43,0,0,0,94.65,53a1.67,1.67,0,0,0,.62-0.4,1.65,1.65,0,0,0,.37-0.6,2.28,2.28,0,0,0,.12-0.76V50.57a1.88,1.88,0,0,1-.78.77,2.34,2.34,0,0,1-1.17.29,2.43,2.43,0,0,1-1-.2,2.47,2.47,0,0,1-.8-0.53,2.59,2.59,0,0,1-.54-0.8,2.54,2.54,0,0,1-.2-1,2.48,2.48,0,0,1,.2-1,2.55,2.55,0,0,1,.54-0.8,2.48,2.48,0,0,1,.8-0.54,2.52,2.52,0,0,1,1-.19,2.21,2.21,0,0,1,1.14.3,2.1,2.1,0,0,1,.79.79V46.94a0.34,0.34,0,0,1,.09-0.24,0.33,0.33,0,0,1,.48,0,0.33,0.33,0,0,1,.1.24v4.18A3.1,3.1,0,0,1,96.26,52.13Z"/><path class="cls-2" d="M99,51.52a0.3,0.3,0,0,1-.23.09,0.34,0.34,0,0,1-.25-0.09,0.32,0.32,0,0,1-.1-0.24V46.93a0.31,0.31,0,0,1,.1-0.24,0.34,0.34,0,0,1,.25-0.1,0.3,0.3,0,0,1,.23.1,0.33,0.33,0,0,1,.09.24v4.35a0.34,0.34,0,0,1-.09.24h0Zm0-6.34h0a0.37,0.37,0,0,1-.28.12,0.41,0.41,0,0,1-.29-0.12,0.39,0.39,0,0,1,0-.57,0.4,0.4,0,0,1,.29-0.12,0.36,0.36,0,0,1,.28.12A0.42,0.42,0,0,1,99,45.19Z"/><path class="cls-2" d="M105,50.69a2.65,2.65,0,0,1-.86.7,2.47,2.47,0,0,1-1.14.27,2.56,2.56,0,0,1-1.81-.73,2.48,2.48,0,0,1-.55-0.81,2.55,2.55,0,0,1-.2-1,2.52,2.52,0,0,1,.2-1,2.44,2.44,0,0,1,.55-0.81,2.58,2.58,0,0,1,.81-0.53,2.59,2.59,0,0,1,2.76.51,0.32,0.32,0,0,1,.1.21,0.25,0.25,0,0,1-.07.18,0.28,0.28,0,0,1-.21.1,0.29,0.29,0,0,1-.18-0.06,3.32,3.32,0,0,0-.68-0.41,1.8,1.8,0,0,0-.73-0.15,1.83,1.83,0,0,0-.75.16,2,2,0,0,0-.6.42,2.08,2.08,0,0,0-.4,2.16,2.05,2.05,0,0,0,.4.63,2,2,0,0,0,.6.42,1.81,1.81,0,0,0,.75.15,1.75,1.75,0,0,0,.91-0.23,2.94,2.94,0,0,0,.67-0.54,0.26,0.26,0,0,1,.2-0.09,0.26,0.26,0,0,1,.28.28A0.29,0.29,0,0,1,105,50.69Z"/><path class="cls-2" d="M109.37,49.53A1,1,0,0,0,109,49.2a1.51,1.51,0,0,0-.48-0.18A2.9,2.9,0,0,0,108,49a2.59,2.59,0,0,0-.56.06,1.56,1.56,0,0,0-.47.19,1,1,0,0,0-.33.34,0.94,0.94,0,0,0-.12.5,0.92,0.92,0,0,0,.13.5,1.08,1.08,0,0,0,.34.34,1.45,1.45,0,0,0,.47.19,2.26,2.26,0,0,0,.51.06,2.07,2.07,0,0,0,.59-0.08,1.7,1.7,0,0,0,.49-0.23,1.11,1.11,0,0,0,.34-0.34,0.83,0.83,0,0,0,.12-0.45,0.94,0.94,0,0,0-.12-0.5h0Zm0.7,2h0a0.3,0.3,0,0,1-.23.09,0.34,0.34,0,0,1-.25-0.09,0.31,0.31,0,0,1-.1-0.24V51a1.66,1.66,0,0,1-.67.48,2.4,2.4,0,0,1-1,.2,2.42,2.42,0,0,1-.79-0.12,2.06,2.06,0,0,1-.63-0.34A1.52,1.52,0,0,1,106,50.7a1.46,1.46,0,0,1-.15-0.65,1.54,1.54,0,0,1,.15-0.68,1.49,1.49,0,0,1,.42-0.51,1.9,1.9,0,0,1,.63-0.31,2.8,2.8,0,0,1,.79-0.11,3.07,3.07,0,0,1,1,.14,1.64,1.64,0,0,1,.69.43V48.42a1.27,1.27,0,0,0-.39-1,1.91,1.91,0,0,0-1.17-.29,3.36,3.36,0,0,0-.81.1,4.33,4.33,0,0,0-.74.25,0.29,0.29,0,0,1-.12,0,0.25,0.25,0,0,1-.25-0.16,0.19,0.19,0,0,1,0-.12,0.27,0.27,0,0,1,.16-0.24,2.73,2.73,0,0,1,.43-0.2,3.39,3.39,0,0,1,.49-0.13l0.49-.07,0.44,0a2.51,2.51,0,0,1,1.6.46,1.75,1.75,0,0,1,.57,1.46v2.81A0.33,0.33,0,0,1,110.07,51.52Z"/><circle class="cls-2" cx="47.51" cy="65.22" r="9.04"/><path class="cls-2" d="M37.12,57.14A9.5,9.5,0,0,0,38.32,53a4.18,4.18,0,0,0-3-4.23,7.27,7.27,0,0,0-4-.27s0.9-4.63-4.62-6.36a8.46,8.46,0,0,0-7.24.66C16.88,44.11,8.7,51.63,8.91,64.24A32.55,32.55,0,0,0,17.58,86a2.69,2.69,0,0,0,3.39.78c0.88-.43,1-2,0.14-3.47A32.54,32.54,0,0,1,15,64.47a25.34,25.34,0,0,1,7.76-18.76c1.55-1.21,2.84-1.35,3.62-1.06,1.2,0.45,2,1.76.87,3.57S20.4,55.4,20.4,64.29c0,9.64,3.65,13.38,5.68,16,1,1.24,2.36,1.79,3.6,1.12s0.74-2.11,0-3.29c-3.56-5.32-3.92-8.45-3.86-13.68,0.07-6.06,3.6-10.84,4.77-12.43a2.57,2.57,0,0,1,3.18-1.14c1,0.45,1.17,1.8.3,3.18-1,1.6-3.67,6-3.74,10.22A17,17,0,0,0,34.65,75.5c0.53,0.55,2,1.47,3.08.86s1-1.89.24-2.91c-2.25-3.18-2.95-4.95-3-8.89A17.61,17.61,0,0,1,37.12,57.14Z"/><path class="cls-2" d="M67,69.85a4.77,4.77,0,1,1,4.48-4.76A4.63,4.63,0,0,1,67,69.85h0Zm0.81-13.67h0a7.31,7.31,0,0,0-5,2.07V49.12a2.34,2.34,0,0,0-4.69,0s0,5.85,0,7.91c0,1.83.87,2.21,1.46,4.46a12.81,12.81,0,0,1,.4,3.21,12,12,0,0,1-.86,4.62c-0.36.89-1,1.46-1,2.26a2.27,2.27,0,0,0,2.3,2.1,2.34,2.34,0,0,0,2.28-1.83A7.33,7.33,0,0,0,67.81,74c4.35,0,7.87-4,7.87-8.9S72.16,56.18,67.81,56.18Z"/><path class="cls-2" d="M91.66,56.42a2.34,2.34,0,0,0-2.34,2.34v7.1a7.74,7.74,0,0,1-.14,1.33,3.44,3.44,0,0,1-3.5,2.57c-3.3,0-3.63-3.15-3.63-5.92V58.76a2.34,2.34,0,0,0-4.69,0v8a13.36,13.36,0,0,0,.11,1.67A7,7,0,0,0,83.19,74a6.53,6.53,0,0,0,6.13-2.47v0.12a2.34,2.34,0,1,0,4.68,0V58.76A2.34,2.34,0,0,0,91.66,56.42Z"/><path class="cls-2" d="M107.05,60.23c2.35,0.88,3-.18,3.2-0.61,0.36-.83-0.11-2-1.53-2.59-1.94-.81-5.63-1.72-8.94,0a4.25,4.25,0,0,0-2.17,5.84c0.74,1.63,1.85,2,3.16,2.54l2.88,1.25c1.77,0.78,3.46,1.27,2.72,2.65-0.57,1-3,1.11-4.48.69-0.7-.2-1.59-0.59-2.58-1s-2-.63-2.79.72a1.86,1.86,0,0,0,.09,1.74,3.45,3.45,0,0,0,1.15,1,13.62,13.62,0,0,0,6.54,1.43c4.86-.18,6.64-3.1,6.47-5.93-0.14-2.22-2-3.42-5.09-4.46,0,0-1.92-.78-3.12-1.23a1.35,1.35,0,0,1-1-1.69C102,59.27,104.82,59.4,107.05,60.23Z"/><path class="cls-2" d="M123.14,60.23c2.36,0.88,3-.18,3.2-0.61,0.36-.83-0.11-2-1.53-2.59-1.94-.81-5.63-1.72-8.93,0a4.25,4.25,0,0,0-2.17,5.84c0.74,1.63,1.85,2,3.16,2.54l2.87,1.25c1.77,0.78,3.46,1.27,2.72,2.65-0.56,1-3,1.11-4.47.69-0.7-.2-1.59-0.59-2.59-1s-2-.63-2.79.72a1.86,1.86,0,0,0,.1,1.74,3.38,3.38,0,0,0,1.15,1,13.59,13.59,0,0,0,6.53,1.43c4.86-.18,6.64-3.1,6.47-5.93-0.14-2.22-2-3.42-5.09-4.46,0,0-1.92-.78-3.11-1.23a1.36,1.36,0,0,1-1-1.69C118.08,59.27,120.92,59.4,123.14,60.23Z"/><path class="cls-2" d="M38,84.23a6.34,6.34,0,0,1,6.47-6.6,5.73,5.73,0,0,1,4.65,2.26l-0.92.59a4.64,4.64,0,0,0-3.73-1.86,5.62,5.62,0,0,0,0,11.21A4.64,4.64,0,0,0,48.15,88l0.94,0.57a5.78,5.78,0,0,1-4.67,2.28A6.34,6.34,0,0,1,38,84.23Z"/><path class="cls-2" d="M58.05,86c0-2-1.2-3.94-3.39-3.94S51.3,83.93,51.3,86s1.22,4,3.37,4,3.39-1.89,3.39-4h0Zm-7.81,0h0c0-2.7,1.73-4.84,4.42-4.84s4.46,2.14,4.46,4.84-1.72,4.86-4.46,4.86S50.24,88.67,50.24,86Z"/><path class="cls-2" d="M67.46,90.61V84.35c0-1.78-.9-2.32-2.24-2.32a4,4,0,0,0-3,1.59v7h-1V81.36h1v1.4a4.68,4.68,0,0,1,3.33-1.63c1.88,0,2.91.92,2.91,3v6.47h-1Z"/><path class="cls-2" d="M70.28,89.36l0.59-.73a3.85,3.85,0,0,0,3,1.36c1.55,0,2.47-.8,2.47-1.88,0-2.53-5.84-1.09-5.84-4.42,0-1.42,1.2-2.57,3.29-2.57a4.25,4.25,0,0,1,3.31,1.36l-0.55.71A3.36,3.36,0,0,0,73.78,82c-1.43,0-2.3.73-2.3,1.68,0,2.32,5.82.9,5.82,4.46,0,1.49-1.15,2.72-3.46,2.72A4.43,4.43,0,0,1,70.28,89.36Z"/><path class="cls-2" d="M79.58,88.83V82.24H78V81.36h1.53V78.84h1v2.53h1.88v0.88H80.6v6.43a1,1,0,0,0,1,1.26,1.46,1.46,0,0,0,1-.44L83,90.26a2.09,2.09,0,0,1-1.57.57A1.72,1.72,0,0,1,79.58,88.83Z"/><path class="cls-2" d="M84.18,90.61V81.36h1V83a4,4,0,0,1,3.12-1.78v1.09a2.07,2.07,0,0,0-.5,0,3.53,3.53,0,0,0-2.62,1.65v6.74h-1Z"/><path class="cls-2" d="M96,90.61V89.25a4.64,4.64,0,0,1-3.33,1.59c-1.88,0-2.91-.88-2.91-3V81.36h1v6.28c0,1.8.9,2.29,2.24,2.29a4,4,0,0,0,3-1.53v-7h1v9.24H96Z"/><path class="cls-2" d="M101.75,93.63l0.32-.61a2.35,2.35,0,0,0,1.52.53,1.07,1.07,0,0,0,1.24-.86,0.7,0.7,0,0,0-.77-0.77,1.08,1.08,0,0,0-.79.34L102.77,92l0.4-1.15c-2.49-.21-4.06-2.28-4.06-4.84s1.76-4.84,4.48-4.84a3.81,3.81,0,0,1,3.27,1.57l-0.69.61A2.93,2.93,0,0,0,103.65,82c-2.16,0-3.49,1.72-3.49,3.94s1.32,4,3.49,4a2.94,2.94,0,0,0,2.53-1.3l0.69,0.61a3.75,3.75,0,0,1-3,1.59l-0.31.81a1.29,1.29,0,0,1,.71-0.21,1.19,1.19,0,0,1,1.26,1.26,1.7,1.7,0,0,1-1.93,1.49A3.09,3.09,0,0,1,101.75,93.63Z"/><path class="cls-2" d="M114.49,88.79v-2a3.41,3.41,0,0,0-2.79-1.28,2.3,2.3,0,1,0,0,4.57,3.45,3.45,0,0,0,2.79-1.26h0Zm-3.62-10.74h0c-0.57,0-1,.54-1,1.84h-0.67c0-1.44.63-2.57,1.78-2.57,1.42,0,1.38,2,2.39,2,0.58,0,1-.56,1-1.84H115c0,1.43-.61,2.56-1.78,2.56-1.41,0-1.38-2-2.39-2h0Zm3.62,12.55h0V89.52a4,4,0,0,1-3.14,1.32,3.09,3.09,0,0,1-3.23-3.08,3.06,3.06,0,0,1,3.23-3.06A4,4,0,0,1,114.49,86V84.14A2.19,2.19,0,0,0,112,82a3.6,3.6,0,0,0-2.91,1.36l-0.56-.69a4.49,4.49,0,0,1,3.56-1.55c1.88,0,3.37.9,3.37,3v6.51h-1Z"/><path class="cls-2" d="M125.4,86c0-2-1.2-3.94-3.39-3.94s-3.37,1.9-3.37,3.94,1.23,4,3.37,4,3.39-1.89,3.39-4h0Zm-7.81,0h0c0-2.7,1.72-4.84,4.42-4.84s4.46,2.14,4.46,4.84-1.72,4.86-4.46,4.86S117.59,88.67,117.59,86Z"/></svg>