<svg id="Camada_1" data-name="Camada 1" xmlns="http://www.w3.org/2000/svg" viewBox="0 0 150 150"><defs><style>.cls-1{fill:#2d6690;}.cls-2,.cls-3{fill:#fff;}.cls-3{font-size:27.22px;font-family:Exo 2;font-weight:700;}</style></defs><title>sem-titulo-6</title><circle class="cls-1" cx="75" cy="75" r="75"/><path class="cls-2" d="M100.76,84.12a27,27,0,0,1-6.41,10.23,27.4,27.4,0,0,1-38.7,0L62.1,87.9l-21-1.61,1.61,21,6.45-6.45a36.47,36.47,0,0,0,61.12-16.68h-9.56Z"/><path class="cls-2" d="M49.24,65.88a27,27,0,0,1,6.41-10.23,27.4,27.4,0,0,1,38.7,0L87.9,62.1l21,1.61-1.61-21L100.8,49.2A36.47,36.47,0,0,0,39.68,65.88h9.56Z"/><text class="cls-3" transform="translate(50.5 85)">EU<tspan x="34.22" y="0">P</tspan></text></svg>