<svg id="Camada_1" data-name="Camada 1" xmlns="http://www.w3.org/2000/svg" viewBox="0 0 135.79 135.79"><defs><style>.cls-1,.cls-2{fill:#f2f2f2;}.cls-2{fill-rule:evenodd;}</style></defs><title>sem-titulo-7</title><circle class="cls-1" cx="91.83" cy="40.06" r="2.87"/><circle class="cls-1" cx="91.83" cy="80.48" r="2.87"/><circle class="cls-1" cx="91.83" cy="60.27" r="2.87"/><path class="cls-2" d="M68,0a67.78,67.78,0,1,0,67.78,67.78A67.78,67.78,0,0,0,68,0ZM43.08,32.06H92.93a8.5,8.5,0,0,1,0,17H43.08A8.5,8.5,0,0,1,43.08,32.06Zm0,20H92.93a8.5,8.5,0,0,1,0,17H43.08A8.5,8.5,0,0,1,43.08,52.06Zm0,21H92.93c4.64,0,8.39,2.87,8.39,7.5s-3.75,7.5-8.39,7.5H43.08c-4.63,0-8.38-2.87-8.38-7.5S38.45,73.06,43.08,73.06Zm9.13,29h-22v-2h22v2Zm30,3h-28v-8h13v-6h3v6h12v8Zm24-3h-21v-2h21v2Z"/></svg>