<svg id="Camada_1" data-name="Camada 1" xmlns="http://www.w3.org/2000/svg" viewBox="0 0 135.79 135.79"><defs><style>.cls-1{fill:#38648e;fill-rule:evenodd;}</style></defs><title>sem-titulo-7</title><path class="cls-1" d="M67.89,0a67.9,67.9,0,1,0,67.9,67.9A67.9,67.9,0,0,0,67.89,0ZM109,101.74a2.38,2.38,0,0,1-2.67,2.32H29.45A2.2,2.2,0,0,1,27,101.74V34c0-1.48,1-3,2.45-3h76.8A3.08,3.08,0,0,1,109,34v67.7Z"/><path class="cls-1" d="M79.75,44a3.45,3.45,0,1,0-3.45-3.45A3.47,3.47,0,0,0,79.75,44Z"/><path class="cls-1" d="M90,44a3.45,3.45,0,0,0,0-6.89,3.36,3.36,0,0,0-3.45,3.45A3.47,3.47,0,0,0,90,44Z"/><path class="cls-1" d="M34.42,67.77c-0.82,0-1.42.08-2.42,0.16V99.06H51.6A20.31,20.31,0,0,0,34.42,67.77Z"/><path class="cls-1" d="M32,56.06h5.33A1.59,1.59,0,0,1,39,57.6v3.86c1,0.25,2.77.66,4.09,1.07l2-3.45a1.71,1.71,0,0,1,2.3-.57l5.74,3.28a1.71,1.71,0,0,1,.57,2.3l-1.89,3.28a20.73,20.73,0,0,1,3,3l3.45-2a1.64,1.64,0,0,1,2.3.58l3.28,5.76A1.66,1.66,0,0,1,63.25,77L60,78.95a14.35,14.35,0,0,1,1.15,4.12h3.94A1.78,1.78,0,0,1,67,84.51v6.65a2.17,2.17,0,0,1-1.94,1.9H61.2c-0.25,1-.66,2.65-1.07,4l3.36,1.82a1.58,1.58,0,0,0,.32.22H104v-49H32v6Z"/><path class="cls-1" d="M100.18,44.06a3.45,3.45,0,1,0-3.45-3.45A3.47,3.47,0,0,0,100.18,44.06Z"/></svg>