<svg id="Camada_1" data-name="Camada 1" xmlns="http://www.w3.org/2000/svg" viewBox="0 0 135.79 135.79"><defs><style>.cls-1{fill:#38648e;fill-rule:evenodd;}</style></defs><title>sem-titulo-7</title><path class="cls-1" d="M90,44a3.45,3.45,0,0,0,0-6.89,3.36,3.36,0,0,0-3.45,3.45A3.47,3.47,0,0,0,90,44Z"/><path class="cls-1" d="M100.18,44.06a3.45,3.45,0,1,0-3.45-3.45A3.47,3.47,0,0,0,100.18,44.06Z"/><path class="cls-1" d="M79.75,44a3.45,3.45,0,1,0-3.45-3.45A3.47,3.47,0,0,0,79.75,44Z"/><path class="cls-1" d="M32.21,99.06h71.42l-0.42.14V50.06h-71v49Zm46.38-29A2.3,2.3,0,0,1,77,67.71c0-1.43.78-2.25,1.87-2.25a3.72,3.72,0,0,1,1.87.53l13.84,7a2.45,2.45,0,0,1,0,4.28l-13.84,7a3.72,3.72,0,0,1-1.87.53C77.78,84.82,77,84,77,82.57a2.3,2.3,0,0,1,1.6-2.36l11-5.07ZM62.74,80.13L69,60.58c0.65-2.06,1-2.48,2.52-2.48A2.47,2.47,0,0,1,74,60.69a16.87,16.87,0,0,1-1,3.68L66.79,83.92c-0.65,2.06-1,2.48-2.52,2.48a2.47,2.47,0,0,1-2.48-2.59A16.87,16.87,0,0,1,62.74,80.13ZM41.2,73L55,66a3.72,3.72,0,0,1,1.87-.53c1.09,0,1.87.83,1.87,2.25a2.3,2.3,0,0,1-1.6,2.36l-11,5.07,11,5.07a2.3,2.3,0,0,1,1.6,2.36c0,1.43-.78,2.25-1.87,2.25A3.72,3.72,0,0,1,55,84.3l-13.84-7A2.45,2.45,0,0,1,41.2,73Z"/><path class="cls-1" d="M67.89,0a67.9,67.9,0,1,0,67.9,67.9A67.9,67.9,0,0,0,67.89,0Zm41.32,101.74c0,1.48-1.4,3.32-2.88,3.32H29.45c-1.48,0-2.24-1.84-2.24-3.32V34c0-1.48.76-2,2.24-2h76.8c1.48,0,3,.59,3,2v67.7Z"/></svg>