<svg xmlns="http://www.w3.org/2000/svg" viewBox="0 0 64.2 64.33"><defs><style>.cls-1{isolation:isolate;}.cls-2{fill:#fff;mix-blend-mode:multiply;}</style></defs><title>sem-titulo-8</title><g class="cls-1"><g id="Camada_1" data-name="Camada 1"><path class="cls-2" d="M32.13,0A32.13,32.13,0,1,0,64.27,32.13,32.13,32.13,0,0,0,32.13,0ZM24.39,45.68a13.55,13.55,0,1,1,0-27.1,13,13,0,0,1,9.08,3.54l-3.68,3.54a7.63,7.63,0,0,0-5.4-2.09,8.56,8.56,0,0,0,0,17.11c5.36,0,7.38-3.85,7.69-5.85H24.39V30.2h12.8a12.47,12.47,0,0,1,.21,2.25C37.4,40.19,32.21,45.68,24.39,45.68Zm29-11.61H49.56v3.87H45.68V34.07H41.81V30.2h3.87V26.33h3.87V30.2h3.87v3.87Z"/></g></g></svg>