<svg id="Camada_1" data-name="Camada 1" xmlns="http://www.w3.org/2000/svg" viewBox="0 0 150 150"><defs><style>.cls-1{fill:#2d6690;}</style></defs><title>sem-titulo-6</title><path class="cls-1" d="M49.52,87.52h0a62.92,62.92,0,0,0,14.74,3.12,14.88,14.88,0,0,1-.47-20.25V48.61c0-.13,0-0.27,0-0.4-8.9,2.36-15.45,7.72-19.12,15.56a39.1,39.1,0,0,0-3.36,16.68C41.34,83.18,44.41,85.65,49.52,87.52ZM45.87,64.17a2.16,2.16,0,0,1,.44-0.67,2,2,0,0,1,2.85,0c3.44,3.44,3.44,6.59,3.42,10.6V83.8a2,2,0,0,1-2,2,2,2,0,0,1-.4,0,2,2,0,0,1-1.61-2V74.09c0-3.65,0-5.49-2.24-7.74A2,2,0,0,1,45.87,64.17Z"/><path class="cls-1" d="M75,91.19A10.92,10.92,0,1,0,64.08,80.26,10.94,10.94,0,0,0,75,91.19Zm0-19.13a2,2,0,0,1,0,4,4.19,4.19,0,0,0-4.18,4.18,2,2,0,0,1-4,0A8.21,8.21,0,0,1,75,72.05Z"/><path class="cls-1" d="M82.18,67.15V48.61a4.7,4.7,0,0,0-4.7-4.7h-5a4.7,4.7,0,0,0-4.7,4.7h0V67.15A14.91,14.91,0,0,1,82.18,67.15Z"/><path class="cls-1" d="M86.2,70.39a14.9,14.9,0,0,1-.47,20.26,62.72,62.72,0,0,0,14.73-3.12h0c5.12-1.87,8.18-4.34,8.18-7.08A39.1,39.1,0,0,0,105.39,64c-3.64-8-10.23-13.4-19.21-15.81a3.82,3.82,0,0,1,0,.39V70.39Zm11.2,3.71c0-4,0-7.16,3.42-10.6a2,2,0,0,1,2.85,0,2,2,0,0,1,.55,1,1.94,1.94,0,0,1-.55,1.8c-2.24,2.26-2.24,4.1-2.24,7.75V83.8a2,2,0,0,1-1.61,2,2,2,0,0,1-.4,0,2,2,0,0,1-2-2V74.09Z"/><path class="cls-1" d="M112.29,82.82c-1.36,4.27-6.38,7.37-13.21,9.4s-15.47,3-24.09,3c-17.21,0-34.57-3.85-37.29-12.39a7.69,7.69,0,0,0-.56,2.27c-0.22,2.6,1,5.26,3.61,7.88C42,94.21,43,95.4,44,96.54c4.75,5.55,8.18,9.55,31,9.55s26.25-4,31-9.55c1-1.14,2-2.33,3.25-3.57,2.62-2.62,3.84-5.28,3.63-7.88A8.14,8.14,0,0,0,112.29,82.82Z"/><path class="cls-1" d="M75,0a75,75,0,1,0,75,75A75,75,0,0,0,75,0Zm37.08,95.82c-1.13,1.13-2.1,2.26-3,3.36-5.24,6.11-9.38,10.94-34,10.94s-28.8-4.83-34-10.94c-0.94-1.1-1.91-2.23-3-3.36-3.49-3.5-5.1-7.23-4.78-11.06a14.58,14.58,0,0,1,4.4-8.82C39,58.63,49.19,47,65.29,43.74a8.73,8.73,0,0,1,7.24-3.85h5a8.73,8.73,0,0,1,7.24,3.85C100.81,47,111,58.62,112.47,75.93a14.73,14.73,0,0,1,4.4,8.82C117.19,88.59,115.58,92.31,112.08,95.82Z"/></svg>