<svg id="Camada_1" data-name="Camada 1" xmlns="http://www.w3.org/2000/svg" viewBox="0 0 71.67 64.33"><defs><style>.cls-1{fill:#fff;}</style></defs><title>sem-titulo-8</title><path class="cls-1" d="M27.26,12.84q-8.18,1.54-11.5,11.86a32.42,32.42,0,0,0-1.66,10.08,7.27,7.27,0,0,0,.06,1q0.06,0.42.18,1.84H27.26V63.47H2V39.63q0-17.55,7-27A26,26,0,0,1,27.26,1.69V12.84Zm40,0a13.29,13.29,0,0,0-9.9,7.35,30.07,30.07,0,0,0-3.38,14.47q0,0.71.06,1.42a8.09,8.09,0,0,0,.3,1.54H67.22V63.47H41.84V39.63a52.59,52.59,0,0,1,5.93-25.2Q53.7,3.35,67.22,1.69V12.84Z"/></svg>