<svg id="Camada_1" data-name="Camada 1" xmlns="http://www.w3.org/2000/svg" viewBox="0 0 150 150"><defs><style>.cls-1{fill:#2d6690;}.cls-2{fill:#fff;}</style></defs><title>sem-titulo-6</title><circle class="cls-1" cx="75" cy="75" r="75"/><path class="cls-2" d="M130.37,75a18.87,18.87,0,1,0-35.49,8.9H55.13A18.87,18.87,0,1,0,37,93.77v0.12h76.27V93.81c-0.22,0-.44,0-0.66,0l-0.63,0A18.88,18.88,0,0,0,130.37,75ZM22.63,75A15.87,15.87,0,1,1,38.5,90.85,15.88,15.88,0,0,1,22.63,75ZM38.52,93.85c0.58,0,1.14,0,1.7-.09-0.55.05-1.11,0.09-1.68,0.09h0Zm3.29-.31q-0.56.1-1.13,0.17C41.07,93.67,41.44,93.6,41.81,93.54Zm69.69-2.69A15.87,15.87,0,1,1,127.37,75,15.88,15.88,0,0,1,111.5,90.85Z"/></svg>