<svg id="Camada_1" data-name="Camada 1" xmlns="http://www.w3.org/2000/svg" viewBox="0 0 150 150"><defs><style>.cls-1{fill:#2d6690;}</style></defs><title>sem-titulo-6</title><path class="cls-1" d="M44.85,77.69h9.43a2.69,2.69,0,0,0,0-5.39H44.85A2.69,2.69,0,1,0,44.85,77.69Z"/><circle class="cls-1" cx="96.29" cy="50.76" r="3.43"/><path class="cls-1" d="M44.85,53.45h9.43a2.69,2.69,0,0,0,0-5.39H44.85A2.69,2.69,0,1,0,44.85,53.45Z"/><path class="cls-1" d="M54.27,96.55H44.85a2.69,2.69,0,1,0,0,5.39h9.43A2.69,2.69,0,0,0,54.27,96.55Z"/><path class="cls-1" d="M109.66,83.79a1.08,1.08,0,0,0-1.52,0l-7.89,7.89-3.1-3.1a1.08,1.08,0,0,0-1.52,0l-1,1a1.08,1.08,0,0,0,0,1.52l4.82,4.81a1.08,1.08,0,0,0,1.52,0l9.6-9.6a1.08,1.08,0,0,0,0-1.52Z"/><path class="cls-1" d="M75,0a75,75,0,1,0,75,75A75,75,0,0,0,75,0ZM42.69,40.39h58.18a10.37,10.37,0,0,1,0,20.74H42.69A10.37,10.37,0,0,1,42.69,40.39Zm0,24.24h58.18a10.37,10.37,0,0,1,8.94,5.13A21,21,0,0,0,81.88,85.37H42.69A10.37,10.37,0,0,1,42.69,64.63Zm0,45a10.37,10.37,0,0,1,0-20.74H81.49c0,0.2,0,.4,0,0.61a21.07,21.07,0,0,0,15,20.13H42.69Zm59.81-5a15.17,15.17,0,1,1,15.17-15.17A15.17,15.17,0,0,1,102.5,104.65Z"/></svg>