<svg id="Camada_1" data-name="Camada 1" xmlns="http://www.w3.org/2000/svg" viewBox="0 0 745 171.54"><defs><style>.cls-1{fill:#fff;fill-rule:evenodd;}</style></defs><title>sem-titulo-3</title><polygon class="cls-1" points="738 65.52 660.9 60.02 720.34 70.16 738 65.52 738 65.52"/><path class="cls-1" d="M236.94,122.76q2-5.85,2.82-8.77t2.68-10.72q4-16.63,6.68-29.93t5.71-29.93q1.32-7.79,1.74-10.71t0.76-8.77q7.16,0.35,12.37.35t12.65-.35q-2,5.92-2.85,8.84t-2.72,10.65q-3.89,16.63-6.67,29.93-3.27,15.81-6.81,36.26l0.91,0.07,8.58,0.62a108.88,108.88,0,0,0,11.66-.07q7.06-.34,12-1a36.82,36.82,0,0,0-2.37,6.89,30.85,30.85,0,0,0-.42,6.82,49.47,49.47,0,0,0-8.45-.87q-6.93-.39-14.72-0.38h-9.12q-7.24,0-14.31.31t-10.12.8h0Z"/><path class="cls-1" d="M378.2,100.8q10-12.7,11.82-33.09c0.1-.88.16-1.85,0.21-2.89s0.07-2,.07-3q0-13.43-7.07-21.43t-19-8q-14.14,0-24.17,12.73T328.3,78.29q-0.07,1.33-.17,2.89t-0.11,3q0,13.43,7.11,21.4t19,8q14.13,0,24.11-12.7h0Zm-59.89,11q-12.74-11.69-12.74-31.39V80.17q0-1.32.07-3.06t0.21-3.27q2.09-21.92,19.21-36.71t40.44-14.8q21.57,0,34.45,11.8t12.81,31.49v0.21c0,0.93,0,2-.07,3.1s-0.12,2.22-.21,3.24Q410.39,94,393.2,108.84T352.83,123.6q-21.58,0-34.52-11.83h0Z"/><path class="cls-1" d="M470.3,123.6q-23.79,0-37-11.87T420,78.5q0.07-23.88,17.75-40t43.91-16.15a79.27,79.27,0,0,1,19,2.23,92.65,92.65,0,0,1,18.82,7q-2.15,3.76-3.54,6.54t-3.06,6.75l-2.29.52a29.25,29.25,0,0,0-11.34-9.65,35.08,35.08,0,0,0-15.45-3.33q-17.33,0-29.16,14.27T442.86,82q0,14.9,7.37,23.21t20.58,8.32a42,42,0,0,0,11.82-1.74L485.2,101,486,97.43q1.13-5.22,1.51-8.14t1-11.34q6.8,0.35,11.73.35t11.94-.35a72.23,72.23,0,0,0-2.77,7.59q-0.84,2.93-2.85,11.9l-0.69,3.41q-1.6,7.38-3.13,17.05a87.2,87.2,0,0,1-32.35,5.71h0Z"/><path class="cls-1" d="M523.5,102.51q3.9-16.29,6.61-29.52t5.64-29.58q1.32-7.72,1.74-10.65t0.77-8.84q7.17,0.35,12.39.35t12.67-.35q-2,5.92-2.85,8.84t-2.72,10.65q-3.82,16.28-6.61,29.51t-5.64,29.58q-1.32,7.72-1.71,10.65c-0.26,1.95-.49,4.89-0.73,8.84q-7.16-.35-12.39-0.35T518,122q2-5.92,2.86-8.84t2.64-10.65h0Z"/><path class="cls-1" d="M669.14,94.16l-4.79,8.35q-3.34,5.7-4.84,8.63T654.4,122q-4.93-.35-8.62-0.35T637,122q2.22-2.72,4.24-5.64t9.47-13.85Q661.53,86.57,670,73.28,683,52.75,699.74,23.86a45.4,45.4,0,0,0,5.67.41,48.69,48.69,0,0,0,5.81-.41q4,28.81,7.86,49.34,2.37,13.23,5.92,29.3,2.71,12,3.44,14.85T729.8,122q-7.37-.35-12.8-0.35t-12.87.35q0-6.05-.18-9t-1.21-10.51l-1.13-8.84-1.88-13.16-1.25-8.21-3.56-20.46h0L682.3,72.24l-5.2,8.63-8,13.29h0Z"/><path class="cls-1" d="M641.34,107.1q-1.6,3.27-2.68,5.67t-2.26,5.81a48.84,48.84,0,0,1-11.21,3.79,64.49,64.49,0,0,1-13.08,1.22q-20.82,0-33.86-12.91T565.2,77.53V77.24q0-23.31,16.81-39.11t41.66-15.8a65.43,65.43,0,0,1,17,2.2,72.79,72.79,0,0,1,16.53,6.85q-2.16,3.69-3.52,6.4t-3,6.68l-2.3.66a25.57,25.57,0,0,0-9.87-9.42,28.36,28.36,0,0,0-13.63-3.28q-15.78,0-26.53,14.06T587.57,81.35q0,15.25,7,23.7T614,113.51a42.8,42.8,0,0,0,13-1.92,46.73,46.73,0,0,0,12.14-6.08l2.16,1.59h0Z"/><polygon class="cls-1" points="734.78 85.33 738 65.52 720.34 70.16 620.46 88.15 734.78 85.33 734.78 85.33"/><path class="cls-1" d="M80.9,30.29a41.1,41.1,0,0,1,2.41-7.15,58.24,58.24,0,0,1-9,.88q-7.19.39-15.12,0.39H32.94q-7.93,0-15-.39t-8.5-.88a31.59,31.59,0,0,1-.57,7.08,34.33,34.33,0,0,1-2.41,7.16q5.17-.92,12.43-1.63T30.75,35h3.12q-3.76,22.1-7.3,39-2.76,13.46-6.73,30-1.77,7.44-2.62,10.41t-3,9.42q7.58-.36,13-0.35t12.68,0.35q0.35-6.45.78-9.42T42.22,104q3-16.79,5.74-30.1,3.61-17,8.78-38.89H57q4.53,0,11.54.71t11.76,1.63a31.57,31.57,0,0,1,.57-7.09h0Z"/><path class="cls-1" d="M122.06,65.63H105.76q3-13.6,7.35-29.82h12.13q5.1,0,11.26.39t9.28,0.88a33.7,33.7,0,0,1,.49-6.94,37.35,37.35,0,0,1,2.41-7,56.4,56.4,0,0,1-8.92.88q-7.22.39-15.16,0.39h-8.29q-7.37,0-14.46-.32a90,90,0,0,1-9.92-.82q-0.42,6-.81,9T89.4,43.11q-3.12,17.14-5.95,30.81T76.58,104.8q-1.9,7.86-2.71,10.84t-2.85,9a102.5,102.5,0,0,1,10.3-.82q7.18-.32,14.54-0.32h9.48q7.93,0,15,.39a50.37,50.37,0,0,1,8.61.89,32.36,32.36,0,0,1,.43-7.08,41,41,0,0,1,2.41-7.15q-4,.63-11.23,1.1t-12.86.46H97.26q3-19.55,6-35.06h16.37q4.25,0,9.53.35t8.11,0.78a32.18,32.18,0,0,1,.5-6.8,32.91,32.91,0,0,1,2.34-6.87q-3,.43-8.39.78t-9.67.35h0Z"/><path class="cls-1" d="M221.55,24.66a66.48,66.48,0,0,0-17.32-2.23q-25.28,0-42.39,16.08T144.73,78.31V78.6q0,20.61,13.28,33.75t34.46,13.14a65.53,65.53,0,0,0,13.32-1.24,49.53,49.53,0,0,0,11.4-3.86q1.2-3.47,2.3-5.91t2.73-5.77l-2.2-1.61a47.81,47.81,0,0,1-12.36,6.19,43.68,43.68,0,0,1-13.28,1.95q-12.74,0-19.81-8.61t-7.08-24.11q0-21.18,10.94-35.49t27-14.31A28.9,28.9,0,0,1,219.3,36a26.09,26.09,0,0,1,10,9.59l2.34-.68q1.71-4,3.09-6.8t3.59-6.52a73.59,73.59,0,0,0-16.82-7h0Z"/><path class="cls-1" d="M361.25,16.81q2.64-4.82,4.39-8.36T369.49,0q4.08,0.31,7.08.31T383.74,0L384,2.7l-7.84,5.68q-4.66,3.47-10.89,8.43h-4Z"/><path class="cls-1" d="M7.22,159.88v-7.53q-1.23,0-2.44.07a17.59,17.59,0,0,0-1.89.17,6,6,0,0,0,.07-1,6,6,0,0,0-.07-1q0.75,0.1,2.43.16t3.2,0.07H9.37q1.51,0,3.2-.07t2.43-.16a6.77,6.77,0,0,0,0,1.94,17.59,17.59,0,0,0-1.89-.17c-0.81,0-1.62-.06-2.44-0.07v7.53q0,2.64,0,4.11t0.15,3.23Q10,167.16,9,167.16T7,167.22q0.12-1.76.15-3.23t0-4.11h0Z"/><path class="cls-1" d="M17.39,167.35c0-.37.07-0.74,0.09-1.14s0-1,.07-1.8q0-2.4,0-5.41t0-5.4c0-.81,0-1.41-0.07-1.8s-0.05-.77-0.09-1.14q0.63,0.08,1.68.13t2,0.05h0.77q1.54,0,2.95-.06a12.74,12.74,0,0,0,1.75-.14,8.56,8.56,0,0,0,0,2.19,11.93,11.93,0,0,0-1.63-.16q-1.23-.06-2.49-0.06H21v5.26h1.85q1,0,2.08-.06a14,14,0,0,0,1.44-.13,7.63,7.63,0,0,0,0,2.08,13.47,13.47,0,0,0-1.44-.13c-0.7,0-1.4-.06-2.08-0.06H21v5.81h0.77c0.94,0,1.88,0,2.82-.07a16,16,0,0,0,1.88-.17,8.73,8.73,0,0,0,0,2.21q-1-.08-2.44-0.14t-2.26-.06H21c-0.61,0-1.26,0-2,.05s-1.26.08-1.68,0.13h0Z"/><path class="cls-1" d="M42.67,164.37c-0.14.4-.25,0.75-0.33,1s-0.16.66-.23,1.08a10.44,10.44,0,0,1-2.15.73,10.24,10.24,0,0,1-2.27.26,9.85,9.85,0,0,1-6.7-2.21,7.35,7.35,0,0,1-2.54-5.83A8.57,8.57,0,0,1,31,153a9.26,9.26,0,0,1,6.7-2.45,13.76,13.76,0,0,1,2.66.25,10.51,10.51,0,0,1,2.31.72c-0.15.51-.26,1-0.35,1.34s-0.18.83-.27,1.36l-0.25,0a5,5,0,0,0-1.73-1.62,4.57,4.57,0,0,0-2.24-.55,4.86,4.86,0,0,0-4,1.89A8,8,0,0,0,32.31,159a7.65,7.65,0,0,0,1.56,5.06A5.19,5.19,0,0,0,38.08,166a5.92,5.92,0,0,0,2.3-.43,6.43,6.43,0,0,0,2-1.34l0.31,0.17h0Z"/><path class="cls-1" d="M47.28,164.28c0,0.81,0,1.41.07,1.8s0.05,0.77.09,1.14a9.32,9.32,0,0,0-2.08,0c0-.36.07-0.74,0.09-1.14s0-1,.07-1.8q0-2.38,0-5.31t0-5.24q0-1.21-.07-1.8c0-.39-0.05-0.77-0.09-1.14a10.17,10.17,0,0,0,1.16.06,9.8,9.8,0,0,0,1.14-.06q2.23,2.81,5.85,6.74l4.28,4.57V159q0-2.94,0-5.31,0-1.2-.07-1.79t-0.09-1.15a9.31,9.31,0,0,0,2.08,0q-0.06.55-.09,1.14c0,0.39,0,1-.07,1.8q0,2.37,0,5.32,0,4.91.12,8.18a9.09,9.09,0,0,0-1-.07,9.35,9.35,0,0,0-1.06.07q-2.83-3.46-7.38-8.4l-2.85-3.05V159q0,2.94,0,5.3h0Z"/><path class="cls-1" d="M75.42,164a9.36,9.36,0,0,0,1.36-5.37,7.7,7.7,0,0,0-1.36-4.8,4.41,4.41,0,0,0-3.7-1.78A4.26,4.26,0,0,0,68,154a9.33,9.33,0,0,0-1.37,5.38A7.63,7.63,0,0,0,68,164.2,4.42,4.42,0,0,0,71.72,166a4.26,4.26,0,0,0,3.7-2h0Zm-10.17,1.29a7.49,7.49,0,0,1-2.45-5.85,8.4,8.4,0,0,1,8.92-8.9,9.27,9.27,0,0,1,6.48,2.21,7.52,7.52,0,0,1,2.44,5.85,8.4,8.4,0,0,1-8.92,8.89,9.28,9.28,0,0,1-6.47-2.21h0Z"/><path class="cls-1" d="M83.72,167.35c0-.37.07-0.74,0.09-1.14s0-1,.07-1.8q0-2.37,0-5.34t0-5.34c0-.81,0-1.41-0.07-1.8s-0.05-.77-0.09-1.14c0.56,0,1.19.06,1.91,0.06s1.37,0,1.94-.06a16,16,0,0,0-.16,2c0,0.87,0,2.35,0,4.47v8.38H88.2q1.41,0,2.82-.08a16.18,16.18,0,0,0,1.88-.17,6.83,6.83,0,0,0,0,2q-1-.08-2.45-0.14t-2.25-.06H87.37c-0.61,0-1.27,0-2,.05s-1.26.08-1.67,0.13h0Z"/><path class="cls-1" d="M107.11,164a9.35,9.35,0,0,0,1.36-5.37,7.69,7.69,0,0,0-1.36-4.8,4.41,4.41,0,0,0-3.69-1.78,4.27,4.27,0,0,0-3.69,2,9.34,9.34,0,0,0-1.37,5.38,7.64,7.64,0,0,0,1.37,4.79,4.42,4.42,0,0,0,3.69,1.77,4.26,4.26,0,0,0,3.69-2h0Zm-10.17,1.29a7.5,7.5,0,0,1-2.45-5.85,8.4,8.4,0,0,1,8.92-8.9,9.27,9.27,0,0,1,6.48,2.21,7.52,7.52,0,0,1,2.44,5.85,8.39,8.39,0,0,1-8.92,8.89,9.29,9.29,0,0,1-6.47-2.21h0Z"/><path class="cls-1" d="M123.71,167.49a10.08,10.08,0,0,1-6.79-2.2,7.29,7.29,0,0,1-2.57-5.83,8.53,8.53,0,0,1,2.57-6.48,9.44,9.44,0,0,1,6.79-2.45,14.56,14.56,0,0,1,3.12.35,12.29,12.29,0,0,1,2.83.95q-0.22.77-.35,1.33T129,154.54h-0.26a5.73,5.73,0,0,0-2-1.88,5.5,5.5,0,0,0-2.65-.63,5.22,5.22,0,0,0-4.3,2,8.47,8.47,0,0,0-1.6,5.42,6.88,6.88,0,0,0,1.56,4.75A5.35,5.35,0,0,0,124,166a9.54,9.54,0,0,0,2.27-.27,15.63,15.63,0,0,0,.23-2.82,15,15,0,0,0-.27-3c0.57,0,1.23,0,2,0s1.4,0,2-.08a5.61,5.61,0,0,0-.14,1c0,0.4,0,1,0,1.93v0.59c0,1,0,1.71,0,2.13a6.57,6.57,0,0,0,.13,1,19.19,19.19,0,0,1-6.41,1h0Z"/><path class="cls-1" d="M134,164.28q0-2.37,0-5.27t0-5.28c0-.8,0-1.4-0.07-1.79s-0.05-.77-0.09-1.15c0.57,0,1.21.06,1.92,0.06s1.37,0,1.94-.06c0,0.37-.07.74-0.09,1.14s0,1-.07,1.8q0,2.35,0,5.27t0,5.28c0,0.81,0,1.41.07,1.8s0.06,0.77.09,1.14q-0.85-.06-1.92-0.06c-0.72,0-1.37,0-1.93.06q0.06-.56.09-1.15c0-.39,0-1,0.07-1.78h0Z"/><path class="cls-1" d="M145.32,158.91l-0.7,1.78a17.06,17.06,0,0,0,2.05.09q1.14,0,2.17-.1l0-.09q-1.09-2.85-2.05-5.24h0q-0.68,1.64-1.44,3.56h0Zm-4.05,5.37q1-2.32,2.26-5.25,2.05-4.91,3.25-8.25a7.22,7.22,0,0,0,1.84,0q1.21,3.32,3.21,8.23,1.19,2.94,2.18,5.27,0.58,1.37.85,2t0.48,1c-0.62,0-1.33-.06-2.12-0.06s-1.49,0-2.11.06c-0.23-.86-0.41-1.48-0.53-1.87s-0.24-.75-0.37-1.07l-0.68-1.8q-1.43-.16-3.07-0.19a11.47,11.47,0,0,0-2.53.21q-0.38.9-.69,1.77c-0.08.19-.17,0.49-0.29,0.88s-0.3,1.08-.57,2.06a12.17,12.17,0,0,0-1.27-.06,12,12,0,0,0-1.26.06c0.14-.25.3-0.57,0.49-1s0.49-1,.91-2h0Z"/><path class="cls-1" d="M177.38,164.37q-0.21.6-.33,1t-0.23,1.08a10.46,10.46,0,0,1-2.15.73,10.25,10.25,0,0,1-2.27.26,9.85,9.85,0,0,1-6.7-2.21,7.36,7.36,0,0,1-2.54-5.83A8.57,8.57,0,0,1,165.7,153a9.26,9.26,0,0,1,6.7-2.45,13.75,13.75,0,0,1,2.66.25,10.49,10.49,0,0,1,2.31.72c-0.15.51-.26,1-0.35,1.34s-0.18.83-.27,1.36l-0.26,0a5,5,0,0,0-1.73-1.62,4.57,4.57,0,0,0-2.24-.55,4.86,4.86,0,0,0-4,1.89A8,8,0,0,0,167,159a7.66,7.66,0,0,0,1.56,5.06,5.2,5.2,0,0,0,4.21,1.87,5.94,5.94,0,0,0,2.3-.43,6.45,6.45,0,0,0,2-1.34l0.31,0.17h0Z"/><path class="cls-1" d="M191.64,164a9.35,9.35,0,0,0,1.36-5.37,7.69,7.69,0,0,0-1.36-4.8,4.41,4.41,0,0,0-3.7-1.78,4.27,4.27,0,0,0-3.69,2,9.33,9.33,0,0,0-1.37,5.38,7.64,7.64,0,0,0,1.37,4.79,4.42,4.42,0,0,0,3.69,1.77,4.26,4.26,0,0,0,3.7-2h0Zm-10.17,1.29a7.5,7.5,0,0,1-2.45-5.85,8.4,8.4,0,0,1,8.92-8.9,9.26,9.26,0,0,1,6.48,2.21,7.52,7.52,0,0,1,2.44,5.85,8.39,8.39,0,0,1-8.92,8.89,9.28,9.28,0,0,1-6.47-2.21h0Z"/><path class="cls-1" d="M201.08,164.28c-0.05.54-.09,1-0.11,1.4s0,0.9,0,1.53a10.9,10.9,0,0,0-2.25,0c0.12-.48.21-0.92,0.28-1.31s0.17-.93.28-1.62q0.37-2.37.78-5.3,0.69-4.91,1-8.19a7.44,7.44,0,0,0,1.87,0q1.08,2.75,3.08,6.69L208.4,162h0l1.55-2.91q2.58-4.93,4.06-8.35a6.89,6.89,0,0,0,1.8,0q0.3,3.29.93,8.21,0.37,2.94.72,5.29c0.12,0.81.22,1.41,0.3,1.8s0.15,0.77.24,1.14q-0.85-.06-1.94-0.06t-2,.06q0-1,0-1.63c0-.39-0.05-0.83-0.1-1.31q-0.21-2.39-.52-5.33l-0.3-2.75h0l-1.36,2.68q-2.47,4.94-3.87,8.35a1.42,1.42,0,0,0-.88,0q-1.42-3.42-3.93-8.36l-1.24-2.39h0L201.6,159q-0.32,2.95-.51,5.32h0Z"/><path class="cls-1" d="M227.38,167.35c0-.37.07-0.74,0.09-1.14s0-1,.07-1.8q0-2.4,0-5.41t0-5.4c0-.81,0-1.41-0.07-1.8s-0.06-.77-0.09-1.14q0.63,0.08,1.68.13t2,0.05h0.77q1.54,0,3-.06a12.74,12.74,0,0,0,1.75-.14,8.56,8.56,0,0,0,0,2.19,12,12,0,0,0-1.63-.16q-1.23-.06-2.49-0.06H231v5.26h1.85q1,0,2.08-.06a13.91,13.91,0,0,0,1.44-.13,7.73,7.73,0,0,0,0,2.08,13.38,13.38,0,0,0-1.44-.13c-0.7,0-1.4-.06-2.08-0.06H231v5.81h0.77c0.94,0,1.88,0,2.82-.07a16.06,16.06,0,0,0,1.88-.17,8.73,8.73,0,0,0,0,2.21q-1-.08-2.44-0.14t-2.26-.06H231c-0.61,0-1.26,0-2,.05s-1.26.08-1.68,0.13h0Z"/><path class="cls-1" d="M240.08,164.28q1.33-1.95,2.87-4.36l0.24-.39q-1.78-3.23-3.28-5.81c-0.54-.92-0.94-1.58-1.18-2s-0.45-.72-0.64-1q1,0.06,2.26.06t2.26-.06q0.54,1.25.81,1.84t0.54,1.1l1.51,2.85,1.73-2.85c0.15-.26.33-0.59,0.53-1s0.52-1,1-2c0.4,0,.86.06,1.37,0.06s1,0,1.37-.06q-0.13.15-.55,0.73t-1.55,2.2q-1.33,1.95-2.87,4.37l-0.09.15,0.44,0.82q1.59,2.9,2.89,5.21c0.56,1,1,1.67,1.18,2.06s0.41,0.68.54,0.87q-1-.06-2.26-0.06c-0.85,0-1.6,0-2.26.06q-0.33-.92-0.58-1.51t-0.66-1.43q-0.68-1.45-1.58-3.1-1,1.64-1.91,3.1a9.25,9.25,0,0,0-.48.88c-0.19.39-.52,1.08-1,2.06-0.41,0-.87-0.06-1.39-0.06s-1,0-1.37.06q0.12-.14.54-0.73l1.56-2.2h0Z"/><path class="cls-1" d="M267.19,164.37q-0.21.6-.33,1c-0.08.3-.16,0.66-0.23,1.08a10.48,10.48,0,0,1-2.15.73,10.24,10.24,0,0,1-2.27.26,9.85,9.85,0,0,1-6.7-2.21,7.35,7.35,0,0,1-2.54-5.83,8.57,8.57,0,0,1,2.54-6.47,9.25,9.25,0,0,1,6.7-2.45,13.78,13.78,0,0,1,2.67.25,10.6,10.6,0,0,1,2.31.72q-0.22.77-.35,1.34c-0.08.38-.18,0.83-0.27,1.36l-0.26,0a5.06,5.06,0,0,0-1.73-1.62,4.57,4.57,0,0,0-2.24-.55,4.86,4.86,0,0,0-4,1.89,8,8,0,0,0-1.49,5.11,7.65,7.65,0,0,0,1.56,5.06,5.2,5.2,0,0,0,4.21,1.87,5.93,5.93,0,0,0,2.3-.43,6.48,6.48,0,0,0,2-1.34l0.32,0.17h0Z"/><path class="cls-1" d="M269.64,167.35c0-.37.07-0.74,0.09-1.14s0-1,.07-1.8q0-2.4,0-5.41t0-5.4c0-.81,0-1.41-0.07-1.8s-0.05-.77-0.09-1.14q0.63,0.08,1.68.13t2,0.05h0.77q1.54,0,2.95-.06a12.74,12.74,0,0,0,1.75-.14,8.61,8.61,0,0,0,0,2.19,11.93,11.93,0,0,0-1.63-.16c-0.82,0-1.65-.06-2.49-0.06h-1.35v5.26h1.85q1,0,2.08-.06a13.94,13.94,0,0,0,1.44-.13,7.79,7.79,0,0,0,0,2.08,13.4,13.4,0,0,0-1.44-.13c-0.7,0-1.4-.06-2.08-0.06h-1.85v5.81h0.77c0.94,0,1.88,0,2.82-.07a16,16,0,0,0,1.88-.17,8.78,8.78,0,0,0,0,2.21q-1-.08-2.44-0.14c-0.94,0-1.69-.06-2.26-0.06h-0.77c-0.61,0-1.26,0-2,.05s-1.26.08-1.68,0.13h0Z"/><path class="cls-1" d="M281.83,167.35c0-.37.07-0.74,0.09-1.14s0-1,.07-1.8q0-2.37,0-5.34t0-5.34q0-1.21-.07-1.8c0-.39-0.05-0.77-0.09-1.14q0.84,0.06,1.91.06c0.72,0,1.37,0,1.93-.06a16.15,16.15,0,0,0-.16,2c0,0.87,0,2.35,0,4.47v8.38h0.84q1.41,0,2.82-.08a16.11,16.11,0,0,0,1.88-.17,6.78,6.78,0,0,0,0,2q-1-.08-2.45-0.14t-2.25-.06h-0.84c-0.61,0-1.27,0-2,.05s-1.26.08-1.67,0.13h0Z"/><path class="cls-1" d="M298.46,145.26a17.71,17.71,0,0,0,1.46,1.85l1,1.1a4.59,4.59,0,0,0,.39.37,1.57,1.57,0,0,0,.31.22l-1.59.52a4.63,4.63,0,0,0-.51.24,4.93,4.93,0,0,0-.46-0.72c-0.24-.34-0.52-0.68-0.82-1l-0.68-.81-0.68.81q-0.49.56-.87,1.07a4.48,4.48,0,0,0-.46.67,5.12,5.12,0,0,0-.5-0.23q-0.64-.23-1.55-0.51a1.68,1.68,0,0,0,.29-0.22q0.2-.17.4-0.38l1-1.08a22.1,22.1,0,0,0,1.49-1.85,6.75,6.75,0,0,0,1.77,0h0Zm-5,22.09c0-.37.07-0.74,0.09-1.14s0-1,.07-1.8q0-2.4,0-5.41t0-5.4q0-1.21-.07-1.8c0-.39-0.05-0.77-0.09-1.14q0.63,0.08,1.69.13c0.7,0,1.36.05,2,.05h0.77q1.54,0,2.95-.06a12.72,12.72,0,0,0,1.75-.14,8.74,8.74,0,0,0,0,2.19,11.92,11.92,0,0,0-1.63-.16q-1.23-.06-2.49-0.06h-1.35v5.26h1.85q1,0,2.08-.06a13.87,13.87,0,0,0,1.44-.13,7.79,7.79,0,0,0,0,2.08,13.34,13.34,0,0,0-1.44-.13c-0.7,0-1.4-.06-2.08-0.06h-1.85v5.81h0.77c0.94,0,1.88,0,2.82-.07a16,16,0,0,0,1.88-.17,8.92,8.92,0,0,0,0,2.21q-1-.08-2.44-0.14t-2.26-.06h-0.77c-0.61,0-1.26,0-2,.05s-1.27.08-1.69,0.13h0Z"/><path class="cls-1" d="M307.46,164.28q0,1.21.07,1.8c0,0.39.05,0.77,0.09,1.14a9.31,9.31,0,0,0-2.08,0c0-.36.07-0.74,0.09-1.14s0-1,.07-1.8q0-2.38,0-5.31t0-5.24q0-1.21-.07-1.8t-0.09-1.14a10.15,10.15,0,0,0,1.16.06,9.81,9.81,0,0,0,1.14-.06q2.22,2.81,5.85,6.74L318,162.1V159q0-2.94,0-5.31c0-.8,0-1.4-0.07-1.79s-0.05-.78-0.09-1.15a9.31,9.31,0,0,0,2.08,0q-0.06.55-.09,1.14t-0.07,1.8q0,2.37,0,5.32,0,4.91.12,8.18a9.09,9.09,0,0,0-1-.07,9.29,9.29,0,0,0-1.06.07q-2.83-3.46-7.38-8.4l-2.86-3.05V159q0,2.94,0,5.3h0Z"/><path class="cls-1" d="M337.2,164.37q-0.21.6-.33,1c-0.08.3-.16,0.66-0.23,1.08a10.47,10.47,0,0,1-2.15.73,10.23,10.23,0,0,1-2.27.26,9.85,9.85,0,0,1-6.7-2.21,7.36,7.36,0,0,1-2.54-5.83,8.57,8.57,0,0,1,2.54-6.47,9.26,9.26,0,0,1,6.7-2.45,13.76,13.76,0,0,1,2.66.25,10.54,10.54,0,0,1,2.31.72c-0.15.51-.27,1-0.35,1.34s-0.18.83-.27,1.36l-0.25,0a5.06,5.06,0,0,0-1.73-1.62,4.58,4.58,0,0,0-2.24-.55,4.86,4.86,0,0,0-4,1.89,8,8,0,0,0-1.49,5.11,7.65,7.65,0,0,0,1.56,5.06,5.2,5.2,0,0,0,4.21,1.87,5.92,5.92,0,0,0,2.3-.43,6.44,6.44,0,0,0,2-1.34l0.31,0.17h0Z"/><path class="cls-1" d="M340,164.28q0-2.37,0-5.27t0-5.28c0-.8,0-1.4-0.07-1.79s-0.05-.77-0.09-1.15q0.85,0.06,1.92.06t1.93-.06c0,0.37-.07.74-0.09,1.14s0,1-.07,1.8q0,2.35,0,5.27t0,5.28c0,0.81,0,1.41.07,1.8s0.05,0.77.09,1.14q-0.85-.06-1.92-0.06t-1.94.06c0-.37.07-0.76,0.09-1.15s0-1,.07-1.78h0Z"/><path class="cls-1" d="M351.37,158.91l-0.7,1.78a17.07,17.07,0,0,0,2.05.09q1.14,0,2.17-.1l0-.09q-1.1-2.85-2.05-5.24h0q-0.68,1.64-1.44,3.56h0Zm-4.05,5.37q1-2.32,2.26-5.25,2.05-4.91,3.25-8.25a7.23,7.23,0,0,0,1.84,0q1.21,3.32,3.2,8.23,1.19,2.94,2.18,5.27,0.58,1.37.85,2c0.18,0.39.34,0.72,0.48,1q-0.93-.06-2.12-0.06c-0.78,0-1.49,0-2.11.06q-0.35-1.28-.53-1.87t-0.37-1.07l-0.68-1.8q-1.43-.16-3.07-0.19a11.5,11.5,0,0,0-2.53.21q-0.38.9-.69,1.77c-0.08.19-.17,0.49-0.28,0.88s-0.3,1.08-.57,2.06a13.75,13.75,0,0,0-2.52,0c0.14-.25.3-0.57,0.49-1s0.49-1,.91-2h0Z"/><path class="cls-1" d="M370,167.35c0-.37.07-0.74,0.09-1.14s0-1,.07-1.8q0-2.4,0-5.41t0-5.4c0-.81,0-1.41-0.07-1.8s-0.06-.77-0.09-1.14q0.63,0.08,1.69.13t2,0.05h0.77q1.54,0,2.95-.06a12.78,12.78,0,0,0,1.75-.14,8.68,8.68,0,0,0,0,2.19,11.94,11.94,0,0,0-1.63-.16q-1.23-.06-2.49-0.06h-1.35v5.26h1.85q1,0,2.08-.06a13.83,13.83,0,0,0,1.44-.13,7.78,7.78,0,0,0,0,2.08,13.31,13.31,0,0,0-1.44-.13c-0.7,0-1.4-.06-2.08-0.06h-1.85v5.81h0.77c0.94,0,1.88,0,2.82-.07a16.11,16.11,0,0,0,1.88-.17,8.86,8.86,0,0,0,0,2.21c-0.68-.05-1.5-0.1-2.44-0.14s-1.69-.06-2.26-0.06h-0.77c-0.61,0-1.26,0-2,.05s-1.27.08-1.69,0.13h0Z"/><path class="cls-1" d="M401.92,164.37q-0.21.6-.33,1c-0.08.3-.16,0.66-0.23,1.08a10.4,10.4,0,0,1-2.15.73,10.24,10.24,0,0,1-2.27.26,9.86,9.86,0,0,1-6.71-2.21,7.36,7.36,0,0,1-2.54-5.83,8.57,8.57,0,0,1,2.54-6.47,9.26,9.26,0,0,1,6.71-2.45,13.76,13.76,0,0,1,2.66.25,10.51,10.51,0,0,1,2.31.72q-0.22.77-.35,1.34t-0.27,1.36l-0.25,0a5,5,0,0,0-1.73-1.62,4.57,4.57,0,0,0-2.24-.55,4.86,4.86,0,0,0-4,1.89,8,8,0,0,0-1.49,5.11,7.65,7.65,0,0,0,1.56,5.06,5.19,5.19,0,0,0,4.21,1.87,5.9,5.9,0,0,0,2.3-.43,6.4,6.4,0,0,0,2-1.34l0.31,0.17h0Z"/><path class="cls-1" d="M416.17,164a9.34,9.34,0,0,0,1.37-5.37,7.68,7.68,0,0,0-1.37-4.8,4.41,4.41,0,0,0-3.69-1.78,4.27,4.27,0,0,0-3.69,2,9.33,9.33,0,0,0-1.37,5.38,7.64,7.64,0,0,0,1.37,4.79,4.42,4.42,0,0,0,3.69,1.77,4.26,4.26,0,0,0,3.69-2h0ZM406,165.28a7.49,7.49,0,0,1-2.45-5.85,8.4,8.4,0,0,1,8.92-8.9,9.27,9.27,0,0,1,6.48,2.21,7.52,7.52,0,0,1,2.44,5.85,8.4,8.4,0,0,1-8.92,8.89,9.28,9.28,0,0,1-6.47-2.21h0Z"/><path class="cls-1" d="M425.62,164.28c-0.05.54-.09,1-0.11,1.4s0,0.9,0,1.53a10.91,10.91,0,0,0-2.25,0c0.12-.48.21-0.92,0.29-1.31s0.16-.93.27-1.62q0.38-2.37.78-5.3,0.69-4.91,1-8.19a7.43,7.43,0,0,0,1.87,0q1.08,2.75,3.09,6.69l2.37,4.57,1.55-2.91q2.58-4.93,4.06-8.35a6.89,6.89,0,0,0,1.8,0q0.3,3.29.93,8.21,0.37,2.94.72,5.29c0.12,0.81.22,1.41,0.3,1.8s0.15,0.77.24,1.14q-0.85-.06-1.94-0.06c-0.73,0-1.39,0-2,.06,0-.69,0-1.23,0-1.63s-0.05-.83-0.1-1.31q-0.21-2.39-.52-5.33l-0.3-2.75h0l-1.36,2.68q-2.48,4.94-3.87,8.35a1.42,1.42,0,0,0-.88,0q-1.43-3.42-3.94-8.36l-1.24-2.39h0L426.13,159q-0.31,2.95-.51,5.32h0Z"/><path class="cls-1" d="M449.13,158.6h0.65a2.55,2.55,0,0,0,2.1-.9,4,4,0,0,0,.74-2.56A3.14,3.14,0,0,0,452,153a2.16,2.16,0,0,0-1.75-.73l-1,0q-0.06,2.71-.07,6.27h0Zm-3.49,5.68q0.06-2.37,0-5.27t0-5.28c0-.81,0-1.41-0.07-1.8s-0.05-.77-0.09-1.14l1.92,0.06,4.29-.06a4.8,4.8,0,0,1,3.51,1.24,4.61,4.61,0,0,1,1.26,3.45,4.06,4.06,0,0,1-1.57,3.4,7,7,0,0,1-4.37,1.22l-1.4,0q0,2.3,0,4.2c0,0.81,0,1.41.07,1.8s0.06,0.77.09,1.14q-0.85-.06-1.92-0.06t-1.93.06c0-.36.07-0.75,0.09-1.14s0-1,.07-1.8h0Z"/><path class="cls-1" d="M462.65,158.5l0.71,0a2.66,2.66,0,0,0,2.14-1,3.78,3.78,0,0,0,.81-2.53,3,3,0,0,0-.68-2.09,2.48,2.48,0,0,0-1.92-.74,6.67,6.67,0,0,0-1.06.08v6.19h0Zm-3.45,5.78q0-2.37,0-5.27t0-5.28q0-1.21-.07-1.8T459,150.79l1.27,0.06h2.2l2.81-.06a5.24,5.24,0,0,1,3.57,1.12,3.91,3.91,0,0,1,1.28,3.11,3.63,3.63,0,0,1-1.6,3.14,5.61,5.61,0,0,1-2.22.92q0.92,1.64,2.3,3.87l0.85,1.35q0.83,1.3,1.22,1.89t0.77,1q-1-.06-2.17-0.06c-0.81,0-1.53,0-2.16.06q-0.71-1.44-1.93-3.53-1.44-2.48-2.54-4.28c0,1.79,0,3.41,0,4.85,0,0.81,0,1.41.07,1.8s0.05,0.77.09,1.14q-0.85-.06-1.92-0.06t-1.94.06c0-.36.07-0.75,0.09-1.14s0-1,.07-1.8h0Z"/><path class="cls-1" d="M485.29,164a9.34,9.34,0,0,0,1.37-5.37,7.68,7.68,0,0,0-1.37-4.8,4.41,4.41,0,0,0-3.69-1.78,4.27,4.27,0,0,0-3.69,2,9.34,9.34,0,0,0-1.37,5.38,7.64,7.64,0,0,0,1.37,4.79,4.42,4.42,0,0,0,3.69,1.77,4.26,4.26,0,0,0,3.69-2h0Zm-10.16,1.29a7.49,7.49,0,0,1-2.45-5.85,8.4,8.4,0,0,1,8.92-8.9,9.26,9.26,0,0,1,6.48,2.21,7.52,7.52,0,0,1,2.44,5.85,8.4,8.4,0,0,1-8.92,8.89,9.28,9.28,0,0,1-6.47-2.21h0Z"/><path class="cls-1" d="M494.74,164.28c-0.05.54-.09,1-0.11,1.4s0,0.9,0,1.53a10.92,10.92,0,0,0-2.25,0c0.12-.48.21-0.92,0.29-1.31s0.16-.93.27-1.62q0.38-2.37.78-5.3,0.69-4.91,1-8.19a7.45,7.45,0,0,0,1.87,0q1.08,2.75,3.09,6.69L502,162l1.55-2.91q2.58-4.93,4.06-8.35a6.88,6.88,0,0,0,1.8,0q0.3,3.29.93,8.21,0.37,2.94.72,5.29c0.12,0.81.22,1.41,0.3,1.8s0.15,0.77.24,1.14q-0.85-.06-1.94-0.06c-0.73,0-1.39,0-2,.06,0-.69,0-1.23,0-1.63s-0.05-.83-0.1-1.31q-0.21-2.39-.52-5.33l-0.3-2.75h0l-1.36,2.68q-2.47,4.94-3.87,8.35a1.42,1.42,0,0,0-.88,0q-1.43-3.42-3.93-8.36l-1.24-2.39h0L495.25,159q-0.32,2.95-.51,5.32h0Z"/><path class="cls-1" d="M514.79,164.28q0-2.37,0-5.27t0-5.28c0-.8,0-1.4-0.07-1.79s-0.05-.77-0.09-1.15c0.57,0,1.21.06,1.92,0.06s1.37,0,1.94-.06c0,0.37-.07.74-0.09,1.14s0,1-.07,1.8q0,2.35,0,5.27t0,5.28c0,0.81,0,1.41.07,1.8s0.05,0.77.09,1.14q-0.85-.06-1.92-0.06t-1.94.06c0-.37.07-0.76,0.09-1.15s0-1,.07-1.78h0Z"/><path class="cls-1" d="M529.78,154a2.57,2.57,0,0,0-2.73-1.92,2.57,2.57,0,0,0-1.74.6,1.91,1.91,0,0,0-.69,1.51,2.12,2.12,0,0,0,.69,1.6,10.5,10.5,0,0,0,2.6,1.56,7.41,7.41,0,0,1,2.82,2.1,4.55,4.55,0,0,1,.9,2.82A4.84,4.84,0,0,1,530,166a6,6,0,0,1-4.17,1.5,9.24,9.24,0,0,1-2.11-.25,9.57,9.57,0,0,1-2-.72q0.26-.84.41-1.46t0.3-1.47l0.5,0a3.76,3.76,0,0,0,1.2,1.88,3.24,3.24,0,0,0,2,.59,2.92,2.92,0,0,0,2-.68,2.17,2.17,0,0,0,.8-1.72,2.2,2.2,0,0,0-.72-1.64,11.77,11.77,0,0,0-2.78-1.65,7.1,7.1,0,0,1-2.72-2,4.39,4.39,0,0,1-.86-2.73,4.85,4.85,0,0,1,1.51-3.64,5.2,5.2,0,0,1,3.77-1.45,7.57,7.57,0,0,1,2,.26,9.58,9.58,0,0,1,2,.8c-0.18.44-.32,0.83-0.43,1.15s-0.23.72-.36,1.19l-0.45,0h0Z"/><path class="cls-1" d="M541.67,154a2.57,2.57,0,0,0-2.73-1.92,2.57,2.57,0,0,0-1.74.6,1.91,1.91,0,0,0-.69,1.51,2.12,2.12,0,0,0,.69,1.6,10.47,10.47,0,0,0,2.6,1.56,7.4,7.4,0,0,1,2.82,2.1,4.55,4.55,0,0,1,.9,2.82,4.84,4.84,0,0,1-1.67,3.76,6,6,0,0,1-4.17,1.5,9.25,9.25,0,0,1-2.11-.25,9.6,9.6,0,0,1-2-.72q0.26-.84.41-1.46t0.3-1.47l0.5,0a3.76,3.76,0,0,0,1.2,1.88,3.25,3.25,0,0,0,2,.59,2.93,2.93,0,0,0,2-.68,2.17,2.17,0,0,0,.79-1.72A2.19,2.19,0,0,0,540,162a11.79,11.79,0,0,0-2.78-1.65,7.1,7.1,0,0,1-2.72-2,4.39,4.39,0,0,1-.86-2.73,4.85,4.85,0,0,1,1.51-3.64,5.2,5.2,0,0,1,3.77-1.45,7.59,7.59,0,0,1,2,.26,9.59,9.59,0,0,1,2,.8c-0.18.44-.33,0.83-0.43,1.15s-0.23.72-.36,1.19l-0.45,0h0Z"/><path class="cls-1" d="M557.93,164a9.33,9.33,0,0,0,1.37-5.37,7.67,7.67,0,0,0-1.37-4.8,4.41,4.41,0,0,0-3.69-1.78,4.27,4.27,0,0,0-3.69,2,9.34,9.34,0,0,0-1.37,5.38,7.65,7.65,0,0,0,1.37,4.79,4.43,4.43,0,0,0,3.69,1.77,4.26,4.26,0,0,0,3.69-2h0Zm-10.16,1.29a7.49,7.49,0,0,1-2.45-5.85,8.4,8.4,0,0,1,8.92-8.9,9.27,9.27,0,0,1,6.48,2.21,7.52,7.52,0,0,1,2.44,5.85,8.4,8.4,0,0,1-8.92,8.89,9.28,9.28,0,0,1-6.47-2.21h0Z"/><path class="cls-1" d="M564.71,171.33l1.62-6.44,0.12-.34a1.69,1.69,0,0,1,.94-0.94,1.62,1.62,0,0,1,1.3,0,1.37,1.37,0,0,1,.77.9,1.87,1.87,0,0,1-.11,1.32l-0.2.35-3.74,5.42-0.7-.3h0Z"/><path class="cls-1" d="M583.15,165.58a19,19,0,0,0,2.27.1,4.79,4.79,0,0,0,4.07-1.83,8.76,8.76,0,0,0,1.39-5.35,6.66,6.66,0,0,0-1.41-4.59,5.25,5.25,0,0,0-4.13-1.57q-1.18,0-2.19.09-0.07,2.82-.07,6.57t0.07,6.57h0Zm-3.56-1.18q0-2.38,0-5.39t0-5.4q0-1.21-.07-1.8t-0.09-1.14a15.68,15.68,0,0,0,1.85.17,17.49,17.49,0,0,0,1.86,0l2.37-.13,1.38-.05a7.8,7.8,0,0,1,5.82,2.07,8.08,8.08,0,0,1,2,5.91,8.62,8.62,0,0,1-2.3,6.44,9,9,0,0,1-6.56,2.26l-1.47-.05-2.41-.13a9.45,9.45,0,0,0-1.27,0,11.63,11.63,0,0,0-1.29.16q0.06-.55.09-1.14c0-.39,0-1,0.07-1.8h0Z"/><path class="cls-1" d="M609.43,164a9.36,9.36,0,0,0,1.36-5.37,7.71,7.71,0,0,0-1.36-4.8,4.41,4.41,0,0,0-3.7-1.78,4.27,4.27,0,0,0-3.69,2,9.34,9.34,0,0,0-1.37,5.38A7.65,7.65,0,0,0,602,164.2a4.42,4.42,0,0,0,3.69,1.77,4.26,4.26,0,0,0,3.7-2h0Zm-10.17,1.29a7.5,7.5,0,0,1-2.45-5.85,8.4,8.4,0,0,1,8.92-8.9,9.27,9.27,0,0,1,6.47,2.21,7.52,7.52,0,0,1,2.44,5.85,8.4,8.4,0,0,1-8.92,8.89,9.29,9.29,0,0,1-6.47-2.21h0Z"/><path class="cls-1" d="M631.45,154a2.57,2.57,0,0,0-2.73-1.92,2.57,2.57,0,0,0-1.74.6,1.91,1.91,0,0,0-.69,1.51,2.12,2.12,0,0,0,.69,1.6,10.51,10.51,0,0,0,2.6,1.56,7.4,7.4,0,0,1,2.82,2.1,4.54,4.54,0,0,1,.9,2.82,4.84,4.84,0,0,1-1.67,3.76,6,6,0,0,1-4.17,1.5,9.26,9.26,0,0,1-2.11-.25,9.6,9.6,0,0,1-2-.72q0.26-.84.41-1.46t0.3-1.47l0.5,0a3.77,3.77,0,0,0,1.2,1.88,3.25,3.25,0,0,0,2,.59,2.92,2.92,0,0,0,2-.68,2.17,2.17,0,0,0,.8-1.72,2.2,2.2,0,0,0-.72-1.64,11.79,11.79,0,0,0-2.78-1.65,7.11,7.11,0,0,1-2.72-2,4.39,4.39,0,0,1-.86-2.73A4.86,4.86,0,0,1,625,152a5.2,5.2,0,0,1,3.77-1.45,7.57,7.57,0,0,1,2,.26,9.57,9.57,0,0,1,2,.8c-0.18.44-.33,0.83-0.43,1.15s-0.23.72-.36,1.19l-0.45,0h0Z"/><path class="cls-1" d="M635.92,167.35q0.06-.55.09-1.14c0-.39,0-1,0.07-1.8q0-2.4,0-5.41t0-5.4c0-.81,0-1.41-0.07-1.8s-0.05-.77-0.09-1.14q0.63,0.08,1.68.13t2,0.05h0.77q1.54,0,3-.06a12.7,12.7,0,0,0,1.75-.14,7.8,7.8,0,0,0-.07,1.1,7.65,7.65,0,0,0,.07,1.09,11.93,11.93,0,0,0-1.63-.16q-1.23-.06-2.49-0.06h-1.35v5.26h1.85q1,0,2.08-.06a13.81,13.81,0,0,0,1.44-.13,7.77,7.77,0,0,0,0,2.08,13.29,13.29,0,0,0-1.44-.13c-0.7,0-1.39-.06-2.08-0.06h-1.85v5.81h0.77c0.94,0,1.88,0,2.82-.07a16.08,16.08,0,0,0,1.88-.17,8.06,8.06,0,0,0-.07,1.11,7.92,7.92,0,0,0,.07,1.11c-0.68-.05-1.5-0.1-2.44-0.14s-1.69-.06-2.26-0.06h-0.77c-0.61,0-1.26,0-2,.05s-1.26.08-1.68,0.13h0Z"/><path class="cls-1" d="M662.57,159.62q0,3.94-1.8,5.9a7.06,7.06,0,0,1-5.45,2,6.24,6.24,0,0,1-7.09-7v-1.29l0-5.44c0-.69,0-1.23,0-1.63s-0.06-.83-0.1-1.31q0.85,0.06,1.93.06c0.72,0,1.37,0,1.93-.06q-0.08.69-.12,1.28c0,0.39-.05.95-0.08,1.66q-0.06,2.41-.06,5.43v1a6.66,6.66,0,0,0,1.08,4.19,4,4,0,0,0,3.34,1.36,3.94,3.94,0,0,0,3.36-1.52,7.32,7.32,0,0,0,1.14-4.45v-0.56l0-5.44c0-.75,0-1.32,0-1.71s0-.8-0.09-1.23a11.19,11.19,0,0,0,1.22.06,10.74,10.74,0,0,0,1.2-.06c-0.07.55-.12,1-0.15,1.42s-0.05.9-.07,1.52q-0.07,2.41-.07,5.43v0.45h0Z"/><path class="cls-1" d="M673.55,153.73c0-.2,0-0.5,0-0.89s-0.08-1.07-.16-2q0.84,0.06,1.9.06t1.89-.06q-0.1,3.85-.13,5.61t0,3.21l0,1.3,0.12,3.44a7.12,7.12,0,0,1-1.39,4.86,5,5,0,0,1-3.94,1.8l-0.49-1.08a2,2,0,0,0,1.78-1,8.09,8.09,0,0,0,.46-3.59v-4.37q0-4.07-.07-7.19h0Z"/><path class="cls-1" d="M680.82,167.35q0.06-.55.09-1.14c0-.39,0-1,0.07-1.8q0-2.4,0-5.41t0-5.4c0-.81,0-1.41-0.07-1.8s-0.05-.77-0.09-1.14q0.63,0.08,1.68.13c0.71,0,1.36.05,2,.05h0.77c1,0,2,0,2.95-.06a12.75,12.75,0,0,0,1.75-.14,7.84,7.84,0,0,0-.07,1.1,7.72,7.72,0,0,0,.07,1.09,11.87,11.87,0,0,0-1.63-.16q-1.23-.06-2.49-0.06h-1.35v5.26h1.85c0.68,0,1.38,0,2.08-.06a13.94,13.94,0,0,0,1.44-.13,7.64,7.64,0,0,0,0,2.08,13.4,13.4,0,0,0-1.44-.13c-0.7,0-1.4-.06-2.08-0.06h-1.85v5.81h0.77c0.94,0,1.88,0,2.82-.07a16,16,0,0,0,1.88-.17,8.1,8.1,0,0,0-.07,1.11,8,8,0,0,0,.07,1.11q-1-.08-2.44-0.14t-2.26-.06h-0.77c-0.61,0-1.26,0-2,.05s-1.26.08-1.68,0.13h0Z"/><path class="cls-1" d="M693.07,164.28q0-2.37,0-5.27t0-5.28c0-.8,0-1.4-0.07-1.79s-0.05-.77-0.09-1.15q0.85,0.06,1.92.06c0.72,0,1.37,0,1.93-.06,0,0.37-.07.74-0.1,1.14s0,1-.07,1.8q0,2.35,0,5.27t0,5.28c0,0.81,0,1.41.07,1.8s0.05,0.77.1,1.14q-0.85-.06-1.92-0.06t-1.94.06c0-.37.07-0.76,0.09-1.15s0-1,.07-1.78h0Z"/><path class="cls-1" d="M703.68,159.88v-7.53c-0.82,0-1.63,0-2.44.07a17.57,17.57,0,0,0-1.89.17,6.9,6.9,0,0,0,0-1.94q0.75,0.1,2.43.16t3.2,0.07h0.84q1.52,0,3.2-.07t2.43-.16a6.68,6.68,0,0,0,0,1.94,17.61,17.61,0,0,0-1.89-.17q-1.22-.06-2.44-0.07v7.53q0,2.64,0,4.11t0.15,3.23c-0.56,0-1.19-.06-1.9-0.06s-1.36,0-1.92.06q0.12-1.76.15-3.23t0-4.11h0Z"/><path class="cls-1" d="M725.64,164a9.34,9.34,0,0,0,1.37-5.37,7.68,7.68,0,0,0-1.37-4.8,4.41,4.41,0,0,0-3.69-1.78,4.27,4.27,0,0,0-3.69,2,9.34,9.34,0,0,0-1.37,5.38,7.65,7.65,0,0,0,1.37,4.79,4.42,4.42,0,0,0,3.69,1.77,4.26,4.26,0,0,0,3.69-2h0Zm-10.16,1.29a7.49,7.49,0,0,1-2.45-5.85,8.4,8.4,0,0,1,8.92-8.9,9.27,9.27,0,0,1,6.48,2.21,7.52,7.52,0,0,1,2.44,5.85,8.4,8.4,0,0,1-8.92,8.89,9.28,9.28,0,0,1-6.47-2.21h0Z"/><path class="cls-1" d="M735.16,163.57a1.95,1.95,0,1,1-1.4.57,1.89,1.89,0,0,1,1.4-.57h0Z"/></svg>