<svg id="Camada_1" data-name="Camada 1" xmlns="http://www.w3.org/2000/svg" viewBox="0 0 135.79 135.79"><defs><style>.cls-1{fill:#38648e;fill-rule:evenodd;}</style></defs><title>sem-titulo-7</title><path class="cls-1" d="M67.89,0a67.9,67.9,0,1,0,67.9,67.9A67.9,67.9,0,0,0,67.89,0Zm1.35,45a2.23,2.23,0,0,1,2.56-1.8A25.52,25.52,0,0,1,92.6,64a2.22,2.22,0,0,1-1.82,2.56,3,3,0,0,1-.38,0,2.2,2.2,0,0,1-2.18-1.84A21.1,21.1,0,0,0,71,47.53,2.19,2.19,0,0,1,69.25,45ZM99.5,97.51c-0.71.74-1.43,1.44-2.13,2.12a37.13,37.13,0,0,0-2.87,3s0,0-.07.08A12.35,12.35,0,0,1,85,106.74c-0.33,0-.69,0-1,0-5.62-.36-10.66-2.48-14.43-4.26a77.17,77.17,0,0,1-25.7-20.12A70.6,70.6,0,0,1,31.27,61.4a28.75,28.75,0,0,1-2.1-12.17,12,12,0,0,1,3.56-7.62L38.3,36l0,0a8,8,0,0,1,5.58-2.41A7.76,7.76,0,0,1,49.41,36c1.07,1,2.1,2,3.08,3.05,0.49,0.52,1,1,1.52,1.56L58.49,45c3.44,3.44,3.44,7.9,0,11.35l-1.38,1.39c-1.21,1.23-2.46,2.51-3.8,3.74a33.23,33.23,0,0,0,4.43,7,56.32,56.32,0,0,0,13.5,12.3c0.48,0.3,1,.57,1.62.87l1.26,0.66,5.18-5.17a7.9,7.9,0,0,1,5.61-2.53,7.64,7.64,0,0,1,5.54,2.54l9,9A7.88,7.88,0,0,1,102,91.84,8.18,8.18,0,0,1,99.5,97.51Zm5.35-31.66a2.85,2.85,0,0,1-.38,0A2.2,2.2,0,0,1,102.29,64a37.53,37.53,0,0,0-30.6-30.6,2.21,2.21,0,1,1,.72-4.36,42,42,0,0,1,34.24,34.24A2.17,2.17,0,0,1,104.85,65.85Z"/><path class="cls-1" d="M87.24,80.25A3.34,3.34,0,0,0,84.87,79a3.71,3.71,0,0,0-2.48,1.23l-5.61,5.61A3.51,3.51,0,0,1,74.3,87a3.56,3.56,0,0,1-1.62-.41l-0.2-.11c-0.48-.3-1-0.57-1.62-0.87a22.15,22.15,0,0,1-2-1.1A60.19,60.19,0,0,1,54.28,71.28l0,0A35.94,35.94,0,0,1,49,62.62l0-.15a3.35,3.35,0,0,1,.85-3.72,0.42,0.42,0,0,1,.08-0.08c1.43-1.28,2.74-2.59,4.12-4,0.48-.46.93-0.93,1.41-1.41,1.74-1.74,1.74-3.35,0-5.08L50.9,43.69,49.34,42.1c-1-1-2-2-3-2.94l0,0A3.51,3.51,0,0,0,43.95,38a3.73,3.73,0,0,0-2.49,1.16l-5.59,5.59A7.53,7.53,0,0,0,33.6,49.6a23.41,23.41,0,0,0,1.84,10.26A66.58,66.58,0,0,0,47.24,79.52a72.85,72.85,0,0,0,24.2,19c3.39,1.62,7.92,3.53,12.79,3.84,0.25,0,.51,0,0.75,0a7.91,7.91,0,0,0,6.17-2.61,43.1,43.1,0,0,1,3.16-3.28c0.71-.69,1.36-1.31,2-2C98,92.71,98,91,96.3,89.31Z"/></svg>