<svg id="Camada_1" data-name="Camada 1" xmlns="http://www.w3.org/2000/svg" viewBox="0 0 150 150"><defs><style>.cls-1{fill:#2d6690;}</style></defs><title>sem-titulo-6</title><path class="cls-1" d="M107.71,64.73a1.9,1.9,0,0,1-.45.08,1.57,1.57,0,0,1-.61-0.11,4.43,4.43,0,0,0-3.94,4.39V89a4.35,4.35,0,1,0,8.7,0V69.12A4.35,4.35,0,0,0,107.71,64.73Z"/><path class="cls-1" d="M42.51,64.76a3.31,3.31,0,0,1-.61-0.08A4.51,4.51,0,0,0,38,69.08V89a4.54,4.54,0,0,0,9.08,0V69.12a4.56,4.56,0,0,0-3.94-4.47A1.92,1.92,0,0,1,42.51,64.76Z"/><path class="cls-1" d="M74.93,29.61A30.72,30.72,0,0,0,50.41,41.95a31.65,31.65,0,0,0-3.1,5.22l5.26,1.93a25.37,25.37,0,0,1,46.13,0l4-1.48a29.79,29.79,0,0,0-3.41-5.79A30.17,30.17,0,0,0,74.93,29.61Z"/><path class="cls-1" d="M81.25,112.25a4.09,4.09,0,1,0,4.09,4.09A4.07,4.07,0,0,0,81.25,112.25Z"/><path class="cls-1" d="M75,0.33A74.67,74.67,0,1,0,149.67,75,74.67,74.67,0,0,0,75,.33Zm43.79,85.28c0.61,3.29,1.55,11.92-3.78,19.6-4.92,7-13.66,11.24-26,12.53a7.92,7.92,0,1,1-.26-3.78c11.13-1.17,18.84-4.84,23.08-10.9,3.78-5.34,3.78-11.47,3.41-14.95V89a8.14,8.14,0,1,1-16.27,0V69.08a8.23,8.23,0,0,1,6.51-8,8.89,8.89,0,0,0,0-1,30.58,30.58,0,0,0-1.4-9l-5.75,2.12a1.86,1.86,0,0,1-2.42-1.1,21.6,21.6,0,0,0-40.49,0,1.9,1.9,0,0,1-1.78,1.25A2.1,2.1,0,0,1,53,53.26l-7.11-2.61A29.88,29.88,0,0,0,44.4,60c0,0.34,0,.68,0,1a8.27,8.27,0,0,1,6.43,8V89a8.33,8.33,0,0,1-16.65,0V69.12a8.3,8.3,0,0,1,6.36-8,9.92,9.92,0,0,1,0-1.06,34.46,34.46,0,0,1,2.31-12.45,1.42,1.42,0,0,1,.26-0.45,35.26,35.26,0,0,1,4.2-7.45A34.57,34.57,0,0,1,74.93,25.79a34.05,34.05,0,0,1,27.4,13.74,33.65,33.65,0,0,1,4.31,7.61s0.57,1.51.57,1.59a34,34,0,0,1,2,11.39c0,0.38-.08.72-0.08,1.06a8.13,8.13,0,0,1,6.09,7.95v1.66A8.56,8.56,0,0,1,118.79,85.61Z"/><path class="cls-1" d="M115.2,74.79v8.59A4.78,4.78,0,0,0,115.2,74.79Z"/></svg>