<svg id="Camada_1" data-name="Camada 1" xmlns="http://www.w3.org/2000/svg" viewBox="0 0 150 150"><defs><style>.cls-1{fill:#2d6690;}</style></defs><title>sem-titulo-6</title><path class="cls-1" d="M75,0a75,75,0,1,0,75,75A75,75,0,0,0,75,0ZM69.49,33.71l-4.76,4.75L70,43.73A26.53,26.53,0,0,0,59,92H44.61A36.51,36.51,0,0,1,69.49,33.71Zm4.26,72.84H32.69l5-5-5-5H73.75a26.53,26.53,0,0,0,4.51-52.68v3.62l-9-9,9-9v4.29A36.54,36.54,0,0,1,73.75,106.55Zm40.56,4v-4H92.41a41.26,41.26,0,0,0,12.63-10h9.26v-4l9,9Z"/></svg>