<svg id="Camada_1" data-name="Camada 1" xmlns="http://www.w3.org/2000/svg" viewBox="0 0 150 150"><defs><style>.cls-1{fill:#2d6690;}</style></defs><title>sem-titulo-6</title><path class="cls-1" d="M75,0a75,75,0,1,0,75,75A75,75,0,0,0,75,0ZM74.91,108.24A11.08,11.08,0,1,1,86,97.16,11.07,11.07,0,0,1,74.91,108.24Zm22-29.86c-2.25,4.15-6.74,2.77-6.74,2.77a22,22,0,0,0-30.49,0S56,83.4,52.84,78.9s1.27-7.64,1.27-7.64a33.16,33.16,0,0,1,41.6,0A5.8,5.8,0,0,1,96.89,78.38Zm11.25-19.21c-2.08,4.24-7,2.37-7,2.37a44.08,44.08,0,0,0-52.55,0s-3.76,1.53-6.44-2.63a5.28,5.28,0,0,1,1-7.1,55.2,55.2,0,0,1,63.49,0S110.22,54.92,108.14,59.16Z"/></svg>