<svg id="Camada_1" data-name="Camada 1" xmlns="http://www.w3.org/2000/svg" viewBox="0 0 71.67 64.33"><defs><style>.cls-1{fill:#ffcb00;}.cls-1,.cls-2{fill-rule:evenodd;}.cls-2{fill:#fff;}</style></defs><title>sem-titulo-8</title><path class="cls-1" d="M36.17,16.45l-1,23.17-4.4-11.38,2.29,11.51-7.14-9.56L31,40,13.28,27.52l15.57,13-9.94-3.7,8,4.6c-7.43,0-16.32-5.88-19.05-18.06,0,0,15.88.18,21.18,7.24C28,20.64,34.9,11.26,36.17,10c1.28,1.28,8.14,10.65,7.15,20.6,5.3-7.06,21.18-7.24,21.18-7.24C61.77,35.53,52.88,41.4,45.45,41.4l8-4.6-9.94,3.7,15.57-13L41.39,40l5-9.84-7.14,9.56,2.29-11.51-4.4,11.38Z"/><path class="cls-2" d="M9.12,52.14c0-2.4-3.21-2.17-3.21-3.73a1.08,1.08,0,0,1,1.2-1,1.19,1.19,0,0,1,.89.38,2.13,2.13,0,0,1,.42.75,0.41,0.41,0,0,0,.4.35,0.25,0.25,0,0,0,.12,0L8.82,47.23a4,4,0,0,0-1.74-.38,3.51,3.51,0,0,0-1.69.39,2,2,0,0,0-1.08,1.65c0,2.44,3.13,2.1,3.13,3.75a1.11,1.11,0,0,1-1.18,1.1,2.79,2.79,0,0,1-2.09-1.56v1.63a4.41,4.41,0,0,0,2.2.54C7.59,54.35,9.12,53.63,9.12,52.14Z"/><path class="cls-2" d="M15.15,51.22c0,0.93-.23,2.53-1.46,2.53-1.39,0-1.62-1.4-1.62-2.49s0.23-2.53,1.53-2.53S15.15,50.21,15.15,51.22Zm1.7,0.05a2.94,2.94,0,0,0-3.17-3.13,3.07,3.07,0,0,0-3.31,3,3,3,0,0,0,3.21,3.21A3,3,0,0,0,16.85,51.27Z"/><path class="cls-2" d="M23.63,51.54V48.29H22.85l0.07,3.25c0,1-.22,2.12-1.48,2.12-1.06,0-1.4-.84-1.4-1.91v-3.3a0.14,0.14,0,0,0-.16-0.16h-2.1a0.83,0.83,0,0,0,.39.43,1.35,1.35,0,0,1,.28,1v1.74c0,1.55.35,2.89,2.7,2.89C23,54.34,23.63,53.2,23.63,51.54Z"/><path class="cls-2" d="M30,52.74a0.15,0.15,0,0,0-.1,0c-0.41,0-.25.87-1.42,0.87H26.64l2.21-3a3.4,3.4,0,0,0,1-2v-0.3H25.42c-0.21,0-.26,0-0.31.47L25,49.57a0.16,0.16,0,0,0,.1,0c0.38,0,.16-0.69,1.19-0.69h2.06l-2.79,3.71A2,2,0,0,0,24.93,54v0.25h4.95Z"/><path class="cls-2" d="M34.33,51.87H32.47l1-2.31Zm2.59,2.34L34.83,49a0.77,0.77,0,0,0-.76-0.7H32.33c0,0.32.57,0.25,0.57,0.7a2.22,2.22,0,0,1-.19.65l-2,4.56h0.74l0.73-1.7h2.36l0.66,1.7A4.33,4.33,0,0,1,36,54.14,6,6,0,0,1,36.92,54.21Z"/><path class="cls-2" d="M47.28,49L47.2,47.3a4.1,4.1,0,0,0-2-.44,3.69,3.69,0,0,0-3.86,3.74,3.56,3.56,0,0,0,3.83,3.74,3.17,3.17,0,0,0,2-.63v-1a2.26,2.26,0,0,1-1.71.88c-1.62,0-2.33-1.67-2.33-3.14s0.71-3,2.17-3a1.3,1.3,0,0,1,1,.35,2.11,2.11,0,0,1,.41.82,0.48,0.48,0,0,0,.42.41A0.16,0.16,0,0,0,47.28,49Z"/><path class="cls-2" d="M52.15,49.91a1.06,1.06,0,0,1-1.05,1.27c-0.26,0-.54,0-0.54-0.29v-2a2.22,2.22,0,0,1,.58-0.05,1,1,0,0,1,.7.24A1.14,1.14,0,0,1,52.15,49.91Zm3.29,4.24s0,0-.07-0.05l-0.18,0a2.27,2.27,0,0,1-1.05-.71c-0.34-.34-0.76-0.87-1.25-1.43l-0.54-.63a1.86,1.86,0,0,0,1.42-1.54,1.23,1.23,0,0,0-.36-0.89,3,3,0,0,0-2.1-.56h-3a0.83,0.83,0,0,0,.41.44,1.3,1.3,0,0,1,.26.93v4.54a4.29,4.29,0,0,1,.81-0.06,4.09,4.09,0,0,1,.78.06V51.68a0.64,0.64,0,0,1,.44.21A10.16,10.16,0,0,0,52.84,54a3.59,3.59,0,0,0,1.53.29,9.75,9.75,0,0,0,1-.05A0.06,0.06,0,0,0,55.44,54.14Z"/><path class="cls-2" d="M61.13,51.54V48.29H60.35l0.07,3.25c0,1-.22,2.12-1.48,2.12-1.06,0-1.4-.84-1.4-1.91v-3.3a0.14,0.14,0,0,0-.16-0.16h-2.1a0.83,0.83,0,0,0,.39.43,1.35,1.35,0,0,1,.28,1v1.74c0,1.55.35,2.89,2.7,2.89C60.5,54.34,61.13,53.2,61.13,51.54Z"/><path class="cls-2" d="M67.5,52.74a0.15,0.15,0,0,0-.1,0c-0.41,0-.25.87-1.42,0.87H64.14l2.21-3a3.4,3.4,0,0,0,1-2v-0.3H62.92c-0.21,0-.26,0-0.31.47l-0.09.81a0.16,0.16,0,0,0,.1,0c0.38,0,.16-0.69,1.19-0.69h2.06l-2.79,3.71A2,2,0,0,0,62.43,54v0.25h4.95Z"/></svg>