<svg id="Camada_1" data-name="Camada 1" xmlns="http://www.w3.org/2000/svg" viewBox="0 0 600 113.63"><defs><style>.cls-1{fill:#1a377e;}.cls-1,.cls-2,.cls-3{fill-rule:evenodd;}.cls-2{fill:#b2b2b2;}.cls-3{fill:#0070b3;}</style></defs><title>Teclógica</title><polygon class="cls-1" points="588.66 56.94 527.47 52.58 574.64 60.62 588.66 56.94 588.66 56.94"/><path class="cls-2" d="M191,102.37q1.6-4.64,2.24-7t2.12-8.51q3.15-13.2,5.3-23.75t4.53-23.75q1-6.18,1.38-8.5t0.61-7q5.68,0.28,9.82.27t10-.27q-1.6,4.7-2.26,7t-2.16,8.45q-3.09,13.2-5.3,23.75-2.6,12.55-5.41,28.78L212.63,92l6.81,0.49a86.42,86.42,0,0,0,9.25-.05q5.61-.27,9.53-0.83a29.22,29.22,0,0,0-1.88,5.47,24.48,24.48,0,0,0-.33,5.42,39.26,39.26,0,0,0-6.71-.69q-5.5-.31-11.68-0.3h-7.24q-5.74,0-11.35.25t-8,.63h0Z"/><path class="cls-2" d="M303.1,84.94q7.92-10.08,9.38-26.26c0.08-.7.13-1.47,0.17-2.3s0.06-1.61.06-2.35q0-10.66-5.61-17T292,30.67q-11.22,0-19.19,10.11T263.5,67.07q-0.06,1.05-.14,2.29t-0.08,2.35q0,10.66,5.65,17T284,95q11.22,0,19.14-10.08h0Zm-47.54,8.7q-10.11-9.28-10.11-24.91V68.57q0-1.05.06-2.43t0.17-2.6A42.63,42.63,0,0,1,260.92,34.4,47.5,47.5,0,0,1,293,22.66q17.12,0,27.34,9.37t10.16,25v0.17c0,0.74,0,1.56-.06,2.46s-0.09,1.76-.17,2.57Q328.65,79.56,315,91.32A47.38,47.38,0,0,1,283,103q-17.13,0-27.4-9.39h0Z"/><path class="cls-2" d="M376.2,103q-18.88,0-29.4-9.42T336.27,67.24a41.46,41.46,0,0,1,14.09-31.76q14-12.82,34.85-12.82a62.92,62.92,0,0,1,15.05,1.77A73.53,73.53,0,0,1,415.21,30q-1.71,3-2.81,5.19T410,40.56l-1.82.41a23.22,23.22,0,0,0-9-7.66,27.84,27.84,0,0,0-12.26-2.64q-13.75,0-23.14,11.32t-9.34,28q0,11.82,5.85,18.42T376.6,95A33.37,33.37,0,0,0,386,93.64l2-8.51,0.61-2.87q0.9-4.14,1.2-6.46t0.76-9q5.4,0.28,9.31.27t9.48-.27a57.33,57.33,0,0,0-2.2,6q-0.66,2.32-2.26,9.44L404.36,85q-1.27,5.86-2.48,13.54A69.21,69.21,0,0,1,376.2,103h0Z"/><path class="cls-2" d="M418.42,86.3q3.1-12.93,5.25-23.42t4.47-23.47q1-6.13,1.38-8.45t0.61-7q5.69,0.28,9.83.27T450,23.93q-1.61,4.7-2.26,7T445.6,39.4q-3,12.92-5.25,23.42T435.87,86.3q-1.05,6.13-1.35,8.45c-0.2,1.55-.39,3.88-0.58,7q-5.68-.28-9.83-0.27t-10.05.27q1.61-4.7,2.27-7t2.1-8.45h0Z"/><path class="cls-2" d="M534,79.67l-3.8,6.63q-2.65,4.52-3.84,6.85t-4.06,8.62q-3.92-.28-6.84-0.27t-6.95.27q1.77-2.16,3.37-4.47t7.51-11Q528,73.65,534.65,63.1,545,46.8,558.29,23.88a36,36,0,0,0,4.5.33,38.65,38.65,0,0,0,4.61-.33q3.2,22.87,6.24,39.16,1.88,10.5,4.7,23.26,2.15,9.5,2.73,11.79t1.08,3.68q-5.85-.28-10.16-0.27t-10.21.27q0-4.81-.14-7.13t-1-8.34l-0.89-7-1.49-10.44-1-6.52-2.82-16.24h0l-10,16.19-4.13,6.85L534,79.67h0Z"/><path class="cls-2" d="M511.94,89.94q-1.27,2.6-2.13,4.5T508,99.06a38.76,38.76,0,0,1-8.9,3,51.18,51.18,0,0,1-10.38,1q-16.52,0-26.87-10.25T451.51,66.47V66.24a40.9,40.9,0,0,1,13.34-31q13.34-12.54,33.06-12.54a51.93,51.93,0,0,1,13.51,1.74,57.77,57.77,0,0,1,13.12,5.44q-1.72,2.93-2.8,5.08t-2.41,5.3l-1.83.53a20.3,20.3,0,0,0-7.84-7.48,22.51,22.51,0,0,0-10.82-2.6q-12.53,0-21.06,11.16T469.26,69.5q0,12.1,5.52,18.81T490.23,95a34,34,0,0,0,10.36-1.52,37.09,37.09,0,0,0,9.64-4.82l1.71,1.26h0Z"/><polygon class="cls-3" points="586.1 72.66 588.66 56.94 574.64 60.62 495.37 74.9 586.1 72.66 586.1 72.66"/><path class="cls-3" d="M67.14,29a32.62,32.62,0,0,1,1.91-5.68,46.22,46.22,0,0,1-7.11.7q-5.71.31-12,.31H29.08q-6.3,0-11.92-.31a37.57,37.57,0,0,1-6.75-.7A25.07,25.07,0,0,1,10,28.92,27.25,27.25,0,0,1,8.06,34.6q4.1-.73,9.86-1.29t9.42-.56h2.47q-3,17.54-5.79,30.92Q21.83,74.35,18.68,87.5q-1.41,5.9-2.08,8.26t-2.42,7.48q6-.28,10.29-0.28t10.06,0.28q0.28-5.12.62-7.48t1.29-8.26Q38.86,74.18,41,63.61q2.87-13.49,7-30.86H48.2q3.6,0,9.16.56t9.33,1.29A25.05,25.05,0,0,1,67.14,29h0Z"/><path class="cls-3" d="M99.81,57H86.88q2.39-10.79,5.84-23.67h9.63q4,0,8.94.31t7.36,0.7a26.74,26.74,0,0,1,.39-5.51,29.65,29.65,0,0,1,1.91-5.56,44.76,44.76,0,0,1-7.08.7q-5.73.31-12,.31H95.25q-5.85,0-11.48-.25a71.43,71.43,0,0,1-7.88-.65q-0.33,4.78-.64,7.14t-1.36,8.6q-2.47,13.61-4.72,24.45T63.72,88.12q-1.51,6.24-2.15,8.6t-2.27,7.14a81.35,81.35,0,0,1,8.17-.65Q73.17,103,79,103h7.53q6.29,0,11.89.31a40,40,0,0,1,6.83.7,25.68,25.68,0,0,1,.34-5.62,32.52,32.52,0,0,1,1.91-5.68q-3.15.5-8.91,0.87t-10.2.36H80.13q2.39-15.52,4.78-27.83h13q3.37,0,7.56.28T111.9,67a25.54,25.54,0,0,1,.39-5.4,26.12,26.12,0,0,1,1.85-5.45q-2.36.34-6.66,0.62T99.81,57h0Z"/><path class="cls-3" d="M178.77,24.51A52.77,52.77,0,0,0,165,22.74q-20.07,0-33.64,12.76A41.61,41.61,0,0,0,117.8,67.09v0.23q0,16.36,10.54,26.79t27.35,10.43a52,52,0,0,0,10.57-1,39.31,39.31,0,0,0,9.05-3.06q1-2.76,1.83-4.69t2.16-4.58l-1.74-1.28a37.94,37.94,0,0,1-9.81,4.91,34.67,34.67,0,0,1-10.54,1.54q-10.11,0-15.72-6.83t-5.62-19.14q0-16.81,8.68-28.17T166,30.89a22.94,22.94,0,0,1,11,2.65,20.7,20.7,0,0,1,8,7.61l1.86-.54q1.35-3.2,2.45-5.39T192.12,30a58.4,58.4,0,0,0-13.35-5.54h0Z"/><path class="cls-2" d="M289.65,18.28q2.1-3.83,3.48-6.63t3.06-6.71q3.23,0.25,5.62.25t5.69-.25l0.18,2.15-6.22,4.51q-3.7,2.75-8.64,6.69h-3.16Z"/></svg>