<svg id="Camada_1" data-name="Camada 1" xmlns="http://www.w3.org/2000/svg" viewBox="0 0 135.79 135.79"><defs><style>.cls-1{fill:#f2f2f2;fill-rule:evenodd;}</style></defs><title>sem-titulo-7</title><path class="cls-1" d="M67.78,0a67.78,67.78,0,1,0,67.78,67.78A67.78,67.78,0,0,0,67.78,0ZM94.37,110.06H41.19a4,4,0,1,1,0-8H94.37A4,4,0,1,1,94.37,110.06Zm17.4-16.31a1.92,1.92,0,0,1-1.35.55,1.85,1.85,0,0,1-1.34-.55l-6.4-6.4a1.88,1.88,0,0,1-.54-1.55l-0.9-.89a18.62,18.62,0,1,1,1.68-1.68l0.89,0.89a1.93,1.93,0,0,1,1.56.54l6.4,6.41A1.9,1.9,0,0,1,111.77,93.75Zm3.23-5.9-5.91-5.71A22.7,22.7,0,0,0,111.89,71,21.37,21.37,0,0,0,106,55.87V44.06H29v45H74.44c4.08,4,9.18,5,14.55,5A22.86,22.86,0,0,0,100.17,91l5.89,6.33a3.76,3.76,0,0,0,.38.75H25.24c-2.35,0-4.24-2.9-4.24-5.25V39.63c0-2.35,1.89-3.57,4.24-3.57h85.09c2.35,0,4.67,1.21,4.67,3.56V87.85Zm-52-27V80a3,3,0,1,1-6,0V60.9A3,3,0,1,1,63,60.9ZM53,65.16V80a3.52,3.52,0,0,1-7,0V65.16A3.51,3.51,0,0,1,53,65.16ZM42,69.41V80a3,3,0,1,1-6,0V69.41A3,3,0,1,1,42,69.41Z"/><path class="cls-1" d="M99.43,60.54A14.77,14.77,0,1,0,103.75,71,14.67,14.67,0,0,0,99.43,60.54Z"/></svg>