<svg id="Camada_1" data-name="Camada 1" xmlns="http://www.w3.org/2000/svg" viewBox="0 0 50 50"><defs><style>.cls-1{fill:#38648e;}.cls-2{fill:#fff;}</style></defs><title>vantagem</title><circle class="cls-1" cx="25.2" cy="25" r="25"/><path class="cls-2" d="M17.48,15.19a2.42,2.42,0,1,0-2.42-2.42,2.42,2.42,0,0,0,2.42,2.42h0Z"/><path class="cls-2" d="M11.14,23.79h2.12l1.28-4.69h0.53l-1.27,4.69h7.53L20,19.1h0.56l0.72,2.3a1,1,0,0,0,1.86.36l2.59-3.14a1,1,0,0,0-1.5-1.25l-1.55,1.84s-0.3-1-.3-1a3.4,3.4,0,0,0-3.28-2.45H15.78A3.52,3.52,0,0,0,12.71,18l-1.58,5.81h0Z"/><polygon class="cls-2" points="27.12 17.4 27.12 12.57 24.95 12.57 24.95 17.4 27.12 17.4"/><path class="cls-2" d="M34.45,15.22A2.42,2.42,0,1,0,32,12.8a2.42,2.42,0,0,0,2.42,2.42h0Z"/><path class="cls-2" d="M37.51,38.08V24.71h1.78v-7.3a1.85,1.85,0,0,0-2.08-1.69H31.53a1.94,1.94,0,0,0-1.72.67l-4.73,5.69a1.13,1.13,0,0,0,1.72,1.47l4.56-5.39v20a1.41,1.41,0,1,0,2.81.06V26.85h0.55V38.11a1.4,1.4,0,1,0,2.8,0h0Z"/><polygon class="cls-2" points="40.68 27.08 40.68 24.33 9.71 24.33 9.71 27.08 40.68 27.08"/></svg>