<svg id="Camada_1" data-name="Camada 1" xmlns="http://www.w3.org/2000/svg" viewBox="0 0 50 50"><defs><style>.cls-1{fill:#38648e;}.cls-2{fill:#fff;}</style></defs><title>vantagem</title><circle class="cls-1" cx="25" cy="25" r="25"/><path class="cls-2" d="M24.36,19.26a2.33,2.33,0,0,1-2.25,2.22V39.59a1.76,1.76,0,1,1-3.51,0V21.48a2.29,2.29,0,0,1-2.3-2.37v-10a0.63,0.63,0,1,1,1.26,0v7.37h1V9.1a0.61,0.61,0,1,1,1.21,0v7.41h1.07V9.12a0.59,0.59,0,1,1,1.18,0v7.39h1.08V9.12a0.61,0.61,0,1,1,1.23,0V19.26h0Z"/><path class="cls-2" d="M33.7,11.45V39.59a1.76,1.76,0,1,1-3.51,0V28.42H28.33v-17a2.7,2.7,0,1,1,5.38,0h0Z"/></svg>