<svg id="Camada_1" data-name="Camada 1" xmlns="http://www.w3.org/2000/svg" viewBox="0 0 50 50"><defs><style>.cls-1{fill:#38648e;}.cls-2{fill:#fff;}</style></defs><title>vantagem</title><circle class="cls-1" cx="25" cy="25" r="25"/><path class="cls-2" d="M29.36,12.53H24.58a0.63,0.63,0,0,0,0,1.27h4.77v0.63H24.6a0.63,0.63,0,1,0,0,1.27h4.76v0.67H24.6a0.64,0.64,0,0,0,0,1.29h4.76v0.63H24.6a0.64,0.64,0,0,0,0,1.27h4.76v0.63H24.6a0.63,0.63,0,1,0,0,1.27h4.76v0.65H24.6a0.63,0.63,0,1,0,0,1.27h4.76V24H24.6a0.63,0.63,0,1,0,0,1.27h4.76v0.63H24.6a0.64,0.64,0,0,0,0,1.29h4.76V39.54a1.44,1.44,0,0,0,2.87,0V10.63a2,2,0,0,0-1.89-1.93l-5.76,0a0.64,0.64,0,0,0,0,1.29h4.77V10.6H24.58a0.63,0.63,0,0,0,0,1.27h4.77v0.67h0Z"/><path class="cls-2" d="M23.84,37.46a4.94,4.94,0,0,0,.94,3.6,0.82,0.82,0,0,0,1.32-.94,3,3,0,0,1-.46-2.86l-1.79.19h0Z"/><path class="cls-2" d="M22.31,31.39V23L20.73,9.14a0.45,0.45,0,0,0-.49-0.46,0.44,0.44,0,0,0-.48.46L18.2,23v8.41a3.48,3.48,0,1,0-1.68,6.53,3.51,3.51,0,0,0,3.41-3.52V25.95h0.65V34.4a3.45,3.45,0,0,0,3.36,3.49,3.38,3.38,0,0,0,3.57-3.47A3.45,3.45,0,0,0,22.31,31.39Zm-5.82,4.76a1.72,1.72,0,1,1,1.73-1.73A1.73,1.73,0,0,1,16.49,36.15Zm7.6,0a1.72,1.72,0,1,1,1.73-1.73A1.72,1.72,0,0,1,24.09,36.15Z"/></svg>