<svg id="Camada_1" data-name="Camada 1" xmlns="http://www.w3.org/2000/svg" viewBox="0 0 50 50"><defs><style>.cls-1{fill:#38648e;}.cls-2{fill:#fff;}</style></defs><title>vantagem</title><circle class="cls-1" cx="25.21" cy="25" r="25"/><path class="cls-2" d="M25.77,19.26v0.93C26.65,20.07,26.56,19.28,25.77,19.26Z"/><path class="cls-2" d="M24.86,18.14V17.32C24.21,17.44,24.22,18.13,24.86,18.14Z"/><path class="cls-2" d="M25.31,15.16A3.65,3.65,0,1,0,29,18.81,3.65,3.65,0,0,0,25.31,15.16Zm0.45,6v0.65H24.85V21.11a1.82,1.82,0,0,1-1.53-1.65h1a0.81,0.81,0,0,0,.57.73V19.11a1.41,1.41,0,0,1-1.45-1.3,1.56,1.56,0,0,1,1.45-1.41V15.75h0.9V16.4a1.57,1.57,0,0,1,1.48,1.5H26.29a0.63,0.63,0,0,0-.53-0.59v1a1.43,1.43,0,0,1,1.57,1.32A1.65,1.65,0,0,1,25.76,21.12Z"/><path class="cls-2" d="M28.85,31a3.65,3.65,0,1,0,3.65,3.65A3.65,3.65,0,0,0,28.85,31Zm1.64,4.21v0.89H29.35v1.25h-1V36.12H27.17V35.24H28.4l-1.6-2.81h1.06l1,1.74,1.07-1.74h1l-1.58,2.8h1.18Z"/><path class="cls-2" d="M17.34,26.88A3.65,3.65,0,1,0,21,30.53,3.65,3.65,0,0,0,17.34,26.88Zm0.12,3V30.7H16.81v2.08H15.88V30.71H15.32V29.84h0.55V29.06a1.32,1.32,0,0,1,1.39-1.21,1.37,1.37,0,0,1,1.36,1.62H17.71c0-.47-0.06-0.72-0.44-0.72s-0.47.28-.47,0.71v0.37h0.66Zm2.09,0.86a0.89,0.89,0,0,0-.92,1v1.1H17.71v-3h0.92v0.46a1.11,1.11,0,0,1,.92-0.48v0.88Z"/><path class="cls-2" d="M10.92,11.69V25.85H27.7a3.65,3.65,0,0,0,7.17,0H39.5V11.69H10.92Zm20,12.9h0.83v0.79H31.07a2.37,2.37,0,0,1-.35,1.26H33v0.79H29.6V26.63a1.27,1.27,0,0,0,.46-1.26H29.35v-0.8h0.57a1.58,1.58,0,0,1-.15-0.8,1.45,1.45,0,0,1,1.63-1.35A1.62,1.62,0,0,1,33,24.21h-1a0.76,0.76,0,0,0-.66-0.82c-0.64,0-.64.4-0.64,0.54A1.29,1.29,0,0,0,30.92,24.58Zm5.89-1.43H34.33a3.65,3.65,0,0,0-6.08,0H13.62V14.38H36.81v8.78Z"/></svg>