<svg id="Camada_1" data-name="Camada 1" xmlns="http://www.w3.org/2000/svg" viewBox="0 0 50 50"><defs><style>.cls-1{fill:#38648e;}.cls-2{fill:#fff;}</style></defs><title>vantagem</title><circle class="cls-1" cx="25" cy="25" r="25"/><path class="cls-2" d="M40,31.06H10a3,3,0,0,0,3,3.18H37a3,3,0,0,0,3-3.18h0Z"/><path class="cls-2" d="M34.3,15.75H16.4V27.49a2.91,2.91,0,0,0,2.86,2.86H30.87a2.84,2.84,0,0,0,2.81-2.86v-1a5.51,5.51,0,0,0,5.71-5.39A5.3,5.3,0,0,0,34.3,15.75Zm-0.62,8.52V18H34.3a3.08,3.08,0,0,1,3,3.18A3.13,3.13,0,0,1,33.68,24.28Z"/></svg>