<?xml version="1.0" encoding="utf-8"?>
<!-- Generator: Adobe Illustrator 19.2.1, SVG Export Plug-In . SVG Version: 6.00 Build 0)  -->
<svg version="1.1" id="Camada_1" xmlns="http://www.w3.org/2000/svg" xmlns:xlink="http://www.w3.org/1999/xlink" x="0px" y="0px"
	 viewBox="0 0 111 111" style="enable-background:new 0 0 111 111;" xml:space="preserve">
<style type="text/css">
	.st0{fill:#888888;}
	.st1{fill:none;stroke:#888888;stroke-width:4;stroke-miterlimit:10;}
</style>
<path class="st0" d="M89.6,53.2c0-1.9-0.8-3.8-1.8-5.2c-1.1-1.3-2.9-2.2-4.4-2.3c-0.3-10.4-1.2-18.8-1.4-19.8l0,0
	c-0.5-1.8-1.5-4.9-3.4-5.1c-1-0.1-1.9,0.6-2.6,1.9l-0.3,0.6C73.3,28.2,66.3,43,53.7,43H30.2c-3.3,0-9.4,1.7-9.4,7v8.4
	c0,2.1,0.7,3.8,2,5.2c1.1,1,2.3,1.7,3.6,2.1c0.1,1.7,0.9,4.8,2.1,9.7c0.7,2.7,1.3,5.3,1.8,7.7c1.3,6.2,4.1,6.7,5.1,6.7
	c0.1,0,0.1,0,0.2,0h7.8c1.4,0,3.2-1.6,3.8-3.5c0.8-2.2-0.1-4.3-2.2-5.9c-2.9-2.3-4.3-10.5-4.7-13.9h13.3c12.7,0,19.6,14.6,21.9,19.5
	l0.3,0.5c0.6,1.3,1.4,1.9,2.3,1.9c0.1,0,0.2,0,0.3,0c1.8-0.2,2.9-3,3.5-5.3c0.6-2.2,1.3-10.9,1.5-21.8
	C87.1,60.6,89.6,56.8,89.6,53.2z M23.3,58.5V50c0-4.2,6.9-4.5,6.9-4.5h12.3v18.4H30.2c0,0-3.7,0-5.7-2
	C23.7,61.1,23.3,59.9,23.3,58.5z M43.6,82.4c1.2,0.9,1.7,1.8,1.4,2.9c-0.3,1.2-1.3,2-1.5,2.1h-7.9h-0.2l0,0c0,0-1.6-0.3-2.6-4.8
	c-0.5-2.3-1.2-5.1-1.8-7.8c-0.8-3.2-1.7-6.7-2-8.5c0.8,0.1,1.3,0.1,1.3,0.1h7.6C38.1,68.2,39.3,79,43.6,82.4z M79.5,82.4
	c-0.3,1.3-0.8,2.6-1.3,3.2c0-0.1-0.1-0.2-0.1-0.3l-0.3-0.5c-6.6-13.9-14.7-20.9-24.1-20.9H45V45.5h8.7c14.2,0,21.6-15.9,24.1-21
	l0.3-0.6c0.1-0.1,0.1-0.2,0.2-0.3c0.4,0.6,0.9,1.8,1.2,3c0.3,1,1.5,13.9,1.5,28.1C81,69,80,80.3,79.5,82.4z M83.5,58.6
	c0-1.3,0-2.6,0-3.9c0-2.2,0-4.3-0.1-6.3c0.8,0.2,1.9,0.7,2.5,1.4c0.8,0.9,1.1,2.2,1.1,3.6C87,55.6,85.5,58,83.5,58.6z"/>
<circle class="st1" cx="55.5" cy="55.5" r="53.5"/>
</svg>
