<?xml version="1.0" encoding="utf-8"?>
<!-- Generator: Adobe Illustrator 19.2.1, SVG Export Plug-In . SVG Version: 6.00 Build 0)  -->
<svg version="1.1" id="Camada_1" xmlns="http://www.w3.org/2000/svg" xmlns:xlink="http://www.w3.org/1999/xlink" x="0px" y="0px"
	 viewBox="0 0 111 111" style="enable-background:new 0 0 111 111;" xml:space="preserve">
<style type="text/css">
	.st0{fill:none;stroke:#888888;stroke-width:4;stroke-miterlimit:10;}
	.st1{fill:#888888;}
</style>
<circle class="st0" cx="55.5" cy="55.5" r="53.5"/>
<path class="st1" d="M62.3,55.8c0-1.6,1.3-2.9,2.9-2.9c1.6,0,2.9,1.3,2.9,2.9c0,1.6-1.3,2.9-2.9,2.9C63.6,58.7,62.3,57.4,62.3,55.8z
	 M76.4,58.8c1.6,0,2.9-1.3,2.9-2.9c0-1.6-1.3-2.9-2.9-2.9s-2.9,1.3-2.9,2.9C73.5,57.4,74.8,58.8,76.4,58.8z M37.4,55.8
	c0-1.6-1.3-2.9-2.9-2.9s-2.9,1.3-2.9,2.9c0,1.6,1.3,2.9,2.9,2.9C36.1,58.8,37.4,57.4,37.4,55.8z M65.2,26.1c-1.6,0-2.9,1.3-2.9,2.9
	s1.3,2.9,2.9,2.9s2.9-1.3,2.9-2.9C68.1,27.4,66.8,26.1,65.2,26.1z M76.3,26.1c-1.6,0-2.9,1.3-2.9,2.9s1.3,2.9,2.9,2.9
	s2.9-1.3,2.9-2.9C79.3,27.4,78,26.1,76.3,26.1z M34.3,26.1c-1.6,0-2.9,1.3-2.9,2.9s1.3,2.9,2.9,2.9c1.6,0,2.9-1.3,2.9-2.9
	C37.3,27.4,36,26.1,34.3,26.1z M88.3,29c0,6.1-4.9,11-11,11H34.1c-6.1,0-11-4.9-11-11s4.9-11,11-11h43.2C83.3,18,88.3,23,88.3,29z
	 M84,29c0-3.7-3-6.8-6.8-6.8H34.1c-3.7,0-6.8,3-6.8,6.8c0,3.7,3,6.8,6.8,6.8h43.2C81,35.8,84,32.8,84,29z M34,66.8
	c-6.1,0-11-4.9-11-11s4.9-11,11-11h43.2c6.1,0,11,4.9,11,11s-4.9,11-11,11H34z M34,62.6h43.2c3.7,0,6.8-3,6.8-6.8
	c0-3.7-3-6.8-6.8-6.8H34c-3.7,0-6.8,3-6.8,6.8C27.2,59.6,30.2,62.6,34,62.6z M57.8,73.4v7c3.5,0.9,6.1,4.1,6.1,7.9
	c0,4.5-3.7,8.2-8.2,8.2s-8.2-3.7-8.2-8.2c0-3.8,2.6-7,6.1-7.9v-7c0-1.2,1-2.1,2.1-2.1C56.8,71.3,57.8,72.2,57.8,73.4z M55.7,84.4
	c-2.2,0-4,1.8-4,4s1.8,4,4,4c2.2,0,4-1.8,4-4C59.6,86.2,57.9,84.4,55.7,84.4z M44.1,89.9c0.4-0.4,0.6-0.9,0.6-1.5
	c0-0.6-0.2-1.1-0.6-1.5c-0.4-0.4-0.9-0.6-1.5-0.6s-1.1,0.2-1.5,0.6c-0.4,0.4-0.6,0.9-0.6,1.5c0,0.6,0.2,1.1,0.6,1.5
	c0.4,0.4,0.9,0.6,1.5,0.6C43.1,90.5,43.7,90.3,44.1,89.9z M35.7,90.5c1.2,0,2.1-1,2.1-2.1c0-1.2-1-2.1-2.1-2.1
	c-1.2,0-2.1,0.9-2.1,2.1C33.6,89.5,34.6,90.5,35.7,90.5z M28.9,86.2c-0.6,0-1.1,0.2-1.5,0.6c-0.4,0.4-0.6,0.9-0.6,1.5
	c0,0.6,0.2,1.1,0.6,1.5c0.4,0.4,0.9,0.6,1.5,0.6s1.1-0.2,1.5-0.6c0.4-0.4,0.6-0.9,0.6-1.5c0-0.6-0.2-1.1-0.6-1.5
	C30,86.5,29.5,86.2,28.9,86.2z M83.9,89.9c0.4-0.4,0.6-0.9,0.6-1.5c0-0.6-0.2-1.1-0.6-1.5c-0.4-0.4-0.9-0.6-1.5-0.6
	s-1.1,0.2-1.5,0.6c-0.4,0.4-0.6,0.9-0.6,1.5c0,0.6,0.2,1.1,0.6,1.5c0.4,0.4,0.9,0.6,1.5,0.6S83.5,90.3,83.9,89.9z M77.6,88.4
	c0-1.2-0.9-2.1-2.1-2.1s-2.1,0.9-2.1,2.1s1,2.1,2.1,2.1C76.7,90.5,77.6,89.5,77.6,88.4z M70.1,89.9c0.4-0.4,0.6-0.9,0.6-1.5
	c0-0.6-0.2-1.1-0.6-1.5c-0.4-0.4-0.9-0.6-1.5-0.6s-1.1,0.2-1.5,0.6c-0.4,0.4-0.6,0.9-0.6,1.5c0,0.6,0.2,1.1,0.6,1.5
	c0.4,0.4,0.9,0.6,1.5,0.6S69.7,90.3,70.1,89.9z"/>
</svg>
