<?xml version="1.0" encoding="utf-8"?>
<!-- Generator: Adobe Illustrator 19.2.1, SVG Export Plug-In . SVG Version: 6.00 Build 0)  -->
<svg version="1.1" id="Camada_1" xmlns="http://www.w3.org/2000/svg" xmlns:xlink="http://www.w3.org/1999/xlink" x="0px" y="0px"
	 viewBox="0 0 111 111" style="enable-background:new 0 0 111 111;" xml:space="preserve">
<style type="text/css">
	.st0{fill:#888888;}
	.st1{fill:none;stroke:#888888;stroke-width:4;stroke-miterlimit:10;}
</style>
<path class="st0" d="M90.4,25.5H33.8c-0.9,0-1.7,0.7-1.7,1.6v49.2c0,2.7-2.1,4.9-4.8,4.9h-0.1c-2.7,0-4.9-2.2-4.9-4.9V33.7
	c0-0.9-0.7-1.6-1.6-1.6c-0.9,0-1.6,0.7-1.6,1.6v42.7c0,4.5,3.7,8.2,8.2,8.2h0.2c0.2,0,0.3,0,0.5,0c0.1,0,0.2,0,0.2,0h55.8
	c4.5,0,8.2-3.7,8.2-8.2V27.1C92,26.2,91.3,25.5,90.4,25.5z M88.7,76.3c0,2.7-2.2,4.9-4.9,4.9h-50c1-1.4,1.6-3,1.6-4.9V28.7h53.3
	V76.3z"/>
<path class="st0" d="M25.6,30.4v45.1c0,0.9,0.7,1.6,1.6,1.6s1.6-0.7,1.6-1.6V30.4c0-0.9-0.7-1.6-1.6-1.6S25.6,29.5,25.6,30.4z"/>
<path class="st0" d="M42,56.6h40.2c0.9,0,1.6-0.7,1.6-1.6V41.9c0-0.9-0.7-1.6-1.6-1.6H42c-0.9,0-1.6,0.7-1.6,1.6V55
	C40.3,55.9,41.1,56.6,42,56.6z M43.6,43.5h36.9v9.8H43.6V43.5z"/>
<path class="st0" d="M42,63.2h16.4c0.9,0,1.6-0.7,1.6-1.6c0-0.9-0.7-1.6-1.6-1.6H42c-0.9,0-1.6,0.7-1.6,1.6
	C40.3,62.5,41.1,63.2,42,63.2z"/>
<path class="st0" d="M42,37h40.2c0.9,0,1.6-0.7,1.6-1.6s-0.7-1.6-1.6-1.6H42c-0.9,0-1.6,0.7-1.6,1.6S41.1,37,42,37z"/>
<path class="st0" d="M42,69.8h16.4c0.9,0,1.6-0.7,1.6-1.6s-0.7-1.6-1.6-1.6H42c-0.9,0-1.6,0.7-1.6,1.6S41.1,69.8,42,69.8z"/>
<path class="st0" d="M42,76.3h12.3c0.9,0,1.6-0.7,1.6-1.6c0-0.9-0.7-1.6-1.6-1.6H42c-0.9,0-1.6,0.7-1.6,1.6
	C40.3,75.6,41.1,76.3,42,76.3z"/>
<path class="st0" d="M81.4,59.9H64.9c-0.9,0-1.6,0.7-1.6,1.6c0,0.9,0.7,1.6,1.6,1.6h16.4c0.9,0,1.6-0.7,1.6-1.6
	C83,60.7,82.3,59.9,81.4,59.9z"/>
<path class="st0" d="M81.4,66.5H64.9c-0.9,0-1.6,0.7-1.6,1.6s0.7,1.6,1.6,1.6h16.4c0.9,0,1.6-0.7,1.6-1.6S82.3,66.5,81.4,66.5z"/>
<path class="st0" d="M77.3,73H64.9c-0.9,0-1.6,0.7-1.6,1.6c0,0.9,0.7,1.6,1.6,1.6h12.3c0.9,0,1.6-0.7,1.6-1.6
	C78.9,73.8,78.2,73,77.3,73z"/>
<circle class="st1" cx="55.5" cy="55.5" r="53.5"/>
</svg>
