<svg id="Camada_1" data-name="Camada 1" xmlns="http://www.w3.org/2000/svg" viewBox="0 0 53 53"><defs><style>.cls-1,.cls-2{fill:#fff;}.cls-1{fill-rule:evenodd;}</style></defs><title>social-b</title><g id="google_logo" data-name="google logo"><path class="cls-1" d="M32.57,27.8h0c-0.84-.57-2.44-2-2.44-2.77s0.28-1.43,1.78-2.55a5.92,5.92,0,0,0,2.62-4.65c0-2.24-1-4.43-3-5.15h2.94l1.21-.5s-6.1-.94-8.42-0.94c-4.16,0-8.07,3-8.07,6.53s2.84,6.48,7.07,6.48c0.29,0,.58,0,0.86,0a3.52,3.52,0,0,0-.47,1.67,3.41,3.41,0,0,0,1.26,2.46l-1.61,0c-5.15,0-9.12,3.15-9.12,6.42S21.54,40,26.69,40c5.87,0,9.12-3.2,9.12-6.42C35.81,31,35,29.46,32.57,27.8Zm-5-4.47c-2.39-.07-4.66-2.57-5.08-5.58s1.19-5.32,3.58-5.25S30.77,15,31.19,18,30,23.4,27.61,23.33ZM26.67,38.58c-3.56,0-6.13-2.17-6.13-4.77s3.19-4.67,6.75-4.64a8,8,0,0,1,2.31.36c1.93,1.29,3.32,2,3.71,3.49a3.86,3.86,0,0,1,.11.92C33.42,36.55,31.68,38.58,26.67,38.58Z"/></g><path class="cls-2" d="M26.5,53A26.5,26.5,0,1,1,53,26.5,26.53,26.53,0,0,1,26.5,53Zm0-50A23.5,23.5,0,1,0,50,26.5,23.53,23.53,0,0,0,26.5,3Z"/></svg>