<svg id="Camada_1" data-name="Camada 1" xmlns="http://www.w3.org/2000/svg" viewBox="0 0 53 53"><defs><style>.cls-1,.cls-2{fill:#fff;}.cls-1{fill-rule:evenodd;}</style></defs><title>social-b</title><g id="fb_logo" data-name="fb logo"><path class="cls-1" d="M29,21.16V18.49c0-1.39.14-2.14,2.21-2.14H34V11H29.53c-5.33,0-7.2,2.59-7.2,6.95v3.2H19V26.5h3.32V42H29V26.5h4.44L34,21.16H29Z"/></g><path class="cls-2" d="M26.5,53A26.5,26.5,0,1,1,53,26.5,26.53,26.53,0,0,1,26.5,53Zm0-50A23.5,23.5,0,1,0,50,26.5,23.53,23.53,0,0,0,26.5,3Z"/></svg>