<svg id="Camada_1" data-name="Camada 1" xmlns="http://www.w3.org/2000/svg" viewBox="0 0 53 53"><defs><style>.cls-1{fill:#fff;}</style></defs><title>social-b</title><g id="linked_in_logo" data-name="linked in logo"><path class="cls-1" d="M16.93,12.59a3,3,0,1,0-.08,6h0A3,3,0,1,0,16.93,12.59Zm-3,25.82h6V21h-6V38.41ZM34.63,20.58a6,6,0,0,0-5.41,2.88v0.06h0l0-.06V21h-6c0.08,1.63,0,17.42,0,17.42h6V28.68a3.76,3.76,0,0,1,.2-1.41,3.27,3.27,0,0,1,3.08-2.12c2.17,0,3,1.6,3,3.94v9.32h6v-10C41.54,23.07,38.58,20.58,34.63,20.58Z"/></g><path class="cls-1" d="M26.5,53A26.5,26.5,0,1,1,53,26.5,26.53,26.53,0,0,1,26.5,53Zm0-50A23.5,23.5,0,1,0,50,26.5,23.53,23.53,0,0,0,26.5,3Z"/></svg>