<svg id="Camada_1" data-name="Camada 1" xmlns="http://www.w3.org/2000/svg" viewBox="0 0 53 53"><defs><style>.cls-1,.cls-2{fill:#fff;}.cls-1{fill-rule:evenodd;}</style></defs><title>social-b</title><g id="twitter_logo" data-name="twitter logo"><path class="cls-1" d="M42.5,17.25a13.54,13.54,0,0,1-3.77,1,6.38,6.38,0,0,0,2.89-3.49,13.46,13.46,0,0,1-4.17,1.53,6.68,6.68,0,0,0-4.79-2,6.44,6.44,0,0,0-6.57,6.31A6.08,6.08,0,0,0,26.26,22a18.9,18.9,0,0,1-13.53-6.59,6.1,6.1,0,0,0-.89,3.17,6.25,6.25,0,0,0,2.92,5.25,6.74,6.74,0,0,1-3-.79s0,0.05,0,.08A6.38,6.38,0,0,0,17,29.35a6.82,6.82,0,0,1-3,.11,6.54,6.54,0,0,0,6.13,4.38,13.51,13.51,0,0,1-8.16,2.7,13.83,13.83,0,0,1-1.57-.09,19.14,19.14,0,0,0,10.07,2.84,18.18,18.18,0,0,0,18.68-18q0-.41,0-0.82A13.05,13.05,0,0,0,42.5,17.25Z"/></g><path class="cls-2" d="M26.5,53A26.5,26.5,0,1,1,53,26.5,26.53,26.53,0,0,1,26.5,53Zm0-50A23.5,23.5,0,1,0,50,26.5,23.53,23.53,0,0,0,26.5,3Z"/></svg>