<svg id="Camada_1" data-name="Camada 1" xmlns="http://www.w3.org/2000/svg" viewBox="0 0 53 53"><defs><style>.cls-1{fill:#fff;}</style></defs><title>social-b</title><g id="youtube-new-icon"><path class="cls-1" d="M42.17,20.64c-0.5-4.26-2.19-4.85-5.56-5.08-4.78-.33-15.45-0.33-20.23,0-3.35.23-5,.82-5.54,5.08a61.07,61.07,0,0,0,0,11.73c0.5,4.26,2.19,4.85,5.55,5.08,4.78,0.33,15.45.33,20.23,0,3.36-.23,5.05-0.82,5.56-5.08A62.12,62.12,0,0,0,42.17,20.64ZM23.27,31v-8.9l8.53,4.45Z"/></g><path class="cls-1" d="M26.5,53A26.5,26.5,0,1,1,53,26.5,26.53,26.53,0,0,1,26.5,53Zm0-50A23.5,23.5,0,1,0,50,26.5,23.53,23.53,0,0,0,26.5,3Z"/></svg>