<?xml version="1.0" encoding="utf-8"?>
<!-- Generator: Adobe Illustrator 19.2.1, SVG Export Plug-In . SVG Version: 6.00 Build 0)  -->
<svg version="1.1" id="Camada_1" xmlns="http://www.w3.org/2000/svg" xmlns:xlink="http://www.w3.org/1999/xlink" x="0px" y="0px"
	 viewBox="0 0 111 111" style="enable-background:new 0 0 111 111;" xml:space="preserve">
<style type="text/css">
	.st0{fill:#888888;}
	.st1{fill:none;stroke:#888888;stroke-width:4;stroke-miterlimit:10;}
</style>
<path class="st0" d="M68.8,15.4c3.7,0,6.7,3,6.7,6.7V89c0,3.7-3,6.7-6.7,6.7H42.1c-3.7,0-6.7-3-6.7-6.7V22.1c0-3.7,3-6.7,6.7-6.7
	L68.8,15.4 M68.8,13H42.1c-5,0-9.1,4.1-9.1,9.1V89c0,5,4.1,9,9.1,9h26.8c5,0,9.1-4.1,9.1-9.1V22.1C77.9,17.1,73.8,13,68.8,13
	L68.8,13z"/>
<g>
	<path class="st0" d="M55.4,94.2c-2.5,0-4.5-2-4.5-4.5s2-4.5,4.5-4.5s4.5,2,4.5,4.5C60,92.2,57.9,94.2,55.4,94.2z M55.4,87.5
		c-1.2,0-2.2,1-2.2,2.2s1,2.2,2.2,2.2c1.2,0,2.2-1,2.2-2.2S56.6,87.5,55.4,87.5z"/>
</g>
<g>
	<path class="st0" d="M73.4,83.5H37.5V27.6h35.8L73.4,83.5L73.4,83.5z M39.9,81.1H71V29.9H39.9V81.1z"/>
</g>
<circle class="st1" cx="55.5" cy="55.5" r="53.5"/>
</svg>
